G04 #@! TF.GenerationSoftware,KiCad,Pcbnew,(5.1.5-0-10_14)*
G04 #@! TF.CreationDate,2020-07-12T13:30:34-04:00*
G04 #@! TF.ProjectId,AYOMSM - Power Supply Daughter Board,41594f4d-534d-4202-9d20-506f77657220,rev?*
G04 #@! TF.SameCoordinates,Original*
G04 #@! TF.FileFunction,Copper,L2,Bot*
G04 #@! TF.FilePolarity,Positive*
%FSLAX46Y46*%
G04 Gerber Fmt 4.6, Leading zero omitted, Abs format (unit mm)*
G04 Created by KiCad (PCBNEW (5.1.5-0-10_14)) date 2020-07-12 13:30:34*
%MOMM*%
%LPD*%
G04 APERTURE LIST*
%ADD10C,1.600000*%
%ADD11C,1.800000*%
%ADD12R,1.800000X1.800000*%
%ADD13R,1.727200X1.727200*%
%ADD14O,1.727200X1.727200*%
%ADD15O,1.600000X1.600000*%
%ADD16C,1.000000*%
%ADD17C,0.254000*%
G04 APERTURE END LIST*
D10*
X122504200Y-75667680D03*
X125004200Y-75667680D03*
X125055000Y-65176400D03*
X122555000Y-65176400D03*
X126208800Y-80913320D03*
X121208800Y-80913320D03*
X126254200Y-70459600D03*
X121254200Y-70459600D03*
D11*
X120370600Y-91541600D03*
D12*
X122910600Y-91541600D03*
X127965200Y-91541600D03*
D11*
X125425200Y-91541600D03*
D13*
X113055400Y-68732400D03*
D14*
X115595400Y-68732400D03*
X113055400Y-71272400D03*
X115595400Y-71272400D03*
X113055400Y-73812400D03*
X115595400Y-73812400D03*
X113055400Y-76352400D03*
X115595400Y-76352400D03*
X113055400Y-78892400D03*
X115595400Y-78892400D03*
X113055400Y-81432400D03*
X115595400Y-81432400D03*
X113055400Y-83972400D03*
X115595400Y-83972400D03*
X113055400Y-86512400D03*
X115595400Y-86512400D03*
X135432800Y-86512400D03*
X132892800Y-86512400D03*
X135432800Y-83972400D03*
X132892800Y-83972400D03*
X135432800Y-81432400D03*
X132892800Y-81432400D03*
X135432800Y-78892400D03*
X132892800Y-78892400D03*
X135432800Y-76352400D03*
X132892800Y-76352400D03*
X135432800Y-73812400D03*
X132892800Y-73812400D03*
X135432800Y-71272400D03*
X132892800Y-71272400D03*
X135432800Y-68732400D03*
D13*
X132892800Y-68732400D03*
X149675850Y-68732400D03*
D14*
X152215850Y-68732400D03*
X149675850Y-71272400D03*
X152215850Y-71272400D03*
X149675850Y-73812400D03*
X152215850Y-73812400D03*
X149675850Y-76352400D03*
X152215850Y-76352400D03*
X149675850Y-78892400D03*
X152215850Y-78892400D03*
X149675850Y-81432400D03*
X152215850Y-81432400D03*
X149675850Y-83972400D03*
X152215850Y-83972400D03*
X149675850Y-86512400D03*
X152215850Y-86512400D03*
X168998900Y-86512400D03*
X166458900Y-86512400D03*
X168998900Y-83972400D03*
X166458900Y-83972400D03*
X168998900Y-81432400D03*
X166458900Y-81432400D03*
X168998900Y-78892400D03*
X166458900Y-78892400D03*
X168998900Y-76352400D03*
X166458900Y-76352400D03*
X168998900Y-73812400D03*
X166458900Y-73812400D03*
X168998900Y-71272400D03*
X166458900Y-71272400D03*
X168998900Y-68732400D03*
D13*
X166458900Y-68732400D03*
X183241950Y-68732400D03*
D14*
X185781950Y-68732400D03*
X183241950Y-71272400D03*
X185781950Y-71272400D03*
X183241950Y-73812400D03*
X185781950Y-73812400D03*
X183241950Y-76352400D03*
X185781950Y-76352400D03*
X183241950Y-78892400D03*
X185781950Y-78892400D03*
X183241950Y-81432400D03*
X185781950Y-81432400D03*
X183241950Y-83972400D03*
X185781950Y-83972400D03*
X183241950Y-86512400D03*
X185781950Y-86512400D03*
X202565000Y-86512400D03*
X200025000Y-86512400D03*
X202565000Y-83972400D03*
X200025000Y-83972400D03*
X202565000Y-81432400D03*
X200025000Y-81432400D03*
X202565000Y-78892400D03*
X200025000Y-78892400D03*
X202565000Y-76352400D03*
X200025000Y-76352400D03*
X202565000Y-73812400D03*
X200025000Y-73812400D03*
X202565000Y-71272400D03*
X200025000Y-71272400D03*
X202565000Y-68732400D03*
D13*
X200025000Y-68732400D03*
D15*
X120243600Y-87477600D03*
D10*
X127863600Y-87477600D03*
X120243600Y-84201000D03*
D15*
X127863600Y-84201000D03*
D16*
X121254200Y-69328230D02*
X118804170Y-66878200D01*
X121254200Y-70459600D02*
X121254200Y-69328230D01*
X118804170Y-66878200D02*
X111556800Y-66878200D01*
X111556800Y-66878200D02*
X110998000Y-67437000D01*
X110998000Y-67437000D02*
X110998000Y-87807800D01*
X110998000Y-87807800D02*
X112217200Y-89027000D01*
X118694200Y-89027000D02*
X120243600Y-87477600D01*
X112217200Y-89027000D02*
X118694200Y-89027000D01*
X132029201Y-82295999D02*
X132892800Y-81432400D01*
X131911879Y-82413321D02*
X132029201Y-82295999D01*
X117797635Y-82413321D02*
X131911879Y-82413321D01*
X116816714Y-81432400D02*
X117797635Y-82413321D01*
X115595400Y-81432400D02*
X116816714Y-81432400D01*
X132029201Y-84835999D02*
X132892800Y-83972400D01*
X131164199Y-85701001D02*
X132029201Y-84835999D01*
X117324001Y-85701001D02*
X131164199Y-85701001D01*
X115595400Y-83972400D02*
X117324001Y-85701001D01*
D17*
G36*
X117170601Y-61308571D02*
G01*
X117167407Y-61341000D01*
X117180150Y-61470383D01*
X117217890Y-61594793D01*
X117279175Y-61709450D01*
X117361652Y-61809948D01*
X117462150Y-61892425D01*
X117576807Y-61953710D01*
X117701217Y-61991450D01*
X117798181Y-62001000D01*
X117830600Y-62004193D01*
X117863019Y-62001000D01*
X154907581Y-62001000D01*
X154940000Y-62004193D01*
X154972419Y-62001000D01*
X155069383Y-61991450D01*
X155193793Y-61953710D01*
X155308450Y-61892425D01*
X155408948Y-61809948D01*
X155491425Y-61709450D01*
X155552710Y-61594793D01*
X155590450Y-61470383D01*
X155603193Y-61341000D01*
X155600000Y-61308581D01*
X155600000Y-57818872D01*
X156265000Y-57818872D01*
X156265000Y-58259128D01*
X156350890Y-58690925D01*
X156519369Y-59097669D01*
X156763962Y-59463729D01*
X157075271Y-59775038D01*
X157441331Y-60019631D01*
X157848075Y-60188110D01*
X158279872Y-60274000D01*
X158720128Y-60274000D01*
X159151925Y-60188110D01*
X159558669Y-60019631D01*
X159924729Y-59775038D01*
X160236038Y-59463729D01*
X160480631Y-59097669D01*
X160649110Y-58690925D01*
X160735000Y-58259128D01*
X160735000Y-57818872D01*
X160649110Y-57387075D01*
X160480631Y-56980331D01*
X160236038Y-56614271D01*
X159924729Y-56302962D01*
X159558669Y-56058369D01*
X159151925Y-55889890D01*
X158720128Y-55804000D01*
X158279872Y-55804000D01*
X157848075Y-55889890D01*
X157441331Y-56058369D01*
X157075271Y-56302962D01*
X156763962Y-56614271D01*
X156519369Y-56980331D01*
X156350890Y-57387075D01*
X156265000Y-57818872D01*
X155600000Y-57818872D01*
X155600000Y-55041400D01*
X161392000Y-55041400D01*
X161392001Y-61308571D01*
X161388807Y-61341000D01*
X161401550Y-61470383D01*
X161439290Y-61594793D01*
X161500575Y-61709450D01*
X161583052Y-61809948D01*
X161683550Y-61892425D01*
X161798207Y-61953710D01*
X161922617Y-61991450D01*
X162019581Y-62001000D01*
X162052000Y-62004193D01*
X162084419Y-62001000D01*
X197528781Y-62001000D01*
X197561200Y-62004193D01*
X197593619Y-62001000D01*
X197690583Y-61991450D01*
X197814993Y-61953710D01*
X197929650Y-61892425D01*
X198030148Y-61809948D01*
X198112625Y-61709450D01*
X198173910Y-61594793D01*
X198211650Y-61470383D01*
X198224393Y-61341000D01*
X198221200Y-61308581D01*
X198221200Y-57818872D01*
X199923600Y-57818872D01*
X199923600Y-58259128D01*
X200009490Y-58690925D01*
X200177969Y-59097669D01*
X200422562Y-59463729D01*
X200733871Y-59775038D01*
X201099931Y-60019631D01*
X201506675Y-60188110D01*
X201938472Y-60274000D01*
X202378728Y-60274000D01*
X202810525Y-60188110D01*
X203217269Y-60019631D01*
X203583329Y-59775038D01*
X203894638Y-59463729D01*
X204139231Y-59097669D01*
X204307710Y-58690925D01*
X204393600Y-58259128D01*
X204393600Y-57818872D01*
X204307710Y-57387075D01*
X204139231Y-56980331D01*
X203894638Y-56614271D01*
X203583329Y-56302962D01*
X203217269Y-56058369D01*
X202810525Y-55889890D01*
X202378728Y-55804000D01*
X201938472Y-55804000D01*
X201506675Y-55889890D01*
X201099931Y-56058369D01*
X200733871Y-56302962D01*
X200422562Y-56614271D01*
X200177969Y-56980331D01*
X200009490Y-57387075D01*
X199923600Y-57818872D01*
X198221200Y-57818872D01*
X198221200Y-55041400D01*
X206096001Y-55041400D01*
X206096000Y-61308581D01*
X206096000Y-61308582D01*
X206096001Y-94709572D01*
X206096000Y-94709582D01*
X206096001Y-101041600D01*
X198221200Y-101041600D01*
X198221200Y-97831672D01*
X199923600Y-97831672D01*
X199923600Y-98271928D01*
X200009490Y-98703725D01*
X200177969Y-99110469D01*
X200422562Y-99476529D01*
X200733871Y-99787838D01*
X201099931Y-100032431D01*
X201506675Y-100200910D01*
X201938472Y-100286800D01*
X202378728Y-100286800D01*
X202810525Y-100200910D01*
X203217269Y-100032431D01*
X203583329Y-99787838D01*
X203894638Y-99476529D01*
X204139231Y-99110469D01*
X204307710Y-98703725D01*
X204393600Y-98271928D01*
X204393600Y-97831672D01*
X204307710Y-97399875D01*
X204139231Y-96993131D01*
X203894638Y-96627071D01*
X203583329Y-96315762D01*
X203217269Y-96071169D01*
X202810525Y-95902690D01*
X202378728Y-95816800D01*
X201938472Y-95816800D01*
X201506675Y-95902690D01*
X201099931Y-96071169D01*
X200733871Y-96315762D01*
X200422562Y-96627071D01*
X200177969Y-96993131D01*
X200009490Y-97399875D01*
X199923600Y-97831672D01*
X198221200Y-97831672D01*
X198221200Y-94774419D01*
X198224393Y-94742000D01*
X198211650Y-94612617D01*
X198173910Y-94488207D01*
X198112625Y-94373550D01*
X198030148Y-94273052D01*
X197929650Y-94190575D01*
X197814993Y-94129290D01*
X197690583Y-94091550D01*
X197593619Y-94082000D01*
X197561200Y-94078807D01*
X197528781Y-94082000D01*
X162084419Y-94082000D01*
X162052000Y-94078807D01*
X162019581Y-94082000D01*
X161922617Y-94091550D01*
X161798207Y-94129290D01*
X161683550Y-94190575D01*
X161583052Y-94273052D01*
X161500575Y-94373550D01*
X161439290Y-94488207D01*
X161401550Y-94612617D01*
X161388807Y-94742000D01*
X161392001Y-94774429D01*
X161392000Y-101041600D01*
X155600000Y-101041600D01*
X155600000Y-97831672D01*
X156265000Y-97831672D01*
X156265000Y-98271928D01*
X156350890Y-98703725D01*
X156519369Y-99110469D01*
X156763962Y-99476529D01*
X157075271Y-99787838D01*
X157441331Y-100032431D01*
X157848075Y-100200910D01*
X158279872Y-100286800D01*
X158720128Y-100286800D01*
X159151925Y-100200910D01*
X159558669Y-100032431D01*
X159924729Y-99787838D01*
X160236038Y-99476529D01*
X160480631Y-99110469D01*
X160649110Y-98703725D01*
X160735000Y-98271928D01*
X160735000Y-97831672D01*
X160649110Y-97399875D01*
X160480631Y-96993131D01*
X160236038Y-96627071D01*
X159924729Y-96315762D01*
X159558669Y-96071169D01*
X159151925Y-95902690D01*
X158720128Y-95816800D01*
X158279872Y-95816800D01*
X157848075Y-95902690D01*
X157441331Y-96071169D01*
X157075271Y-96315762D01*
X156763962Y-96627071D01*
X156519369Y-96993131D01*
X156350890Y-97399875D01*
X156265000Y-97831672D01*
X155600000Y-97831672D01*
X155600000Y-94774419D01*
X155603193Y-94742000D01*
X155590450Y-94612617D01*
X155552710Y-94488207D01*
X155491425Y-94373550D01*
X155408948Y-94273052D01*
X155308450Y-94190575D01*
X155193793Y-94129290D01*
X155069383Y-94091550D01*
X154972419Y-94082000D01*
X154940000Y-94078807D01*
X154907581Y-94082000D01*
X117863019Y-94082000D01*
X117830600Y-94078807D01*
X117798181Y-94082000D01*
X117701217Y-94091550D01*
X117576807Y-94129290D01*
X117462150Y-94190575D01*
X117361652Y-94273052D01*
X117279175Y-94373550D01*
X117217890Y-94488207D01*
X117180150Y-94612617D01*
X117167407Y-94742000D01*
X117170601Y-94774429D01*
X117170600Y-101041600D01*
X109660000Y-101041600D01*
X109660000Y-97831672D01*
X111180300Y-97831672D01*
X111180300Y-98271928D01*
X111266190Y-98703725D01*
X111434669Y-99110469D01*
X111679262Y-99476529D01*
X111990571Y-99787838D01*
X112356631Y-100032431D01*
X112763375Y-100200910D01*
X113195172Y-100286800D01*
X113635428Y-100286800D01*
X114067225Y-100200910D01*
X114473969Y-100032431D01*
X114840029Y-99787838D01*
X115151338Y-99476529D01*
X115395931Y-99110469D01*
X115564410Y-98703725D01*
X115650300Y-98271928D01*
X115650300Y-97831672D01*
X115564410Y-97399875D01*
X115395931Y-96993131D01*
X115151338Y-96627071D01*
X114840029Y-96315762D01*
X114473969Y-96071169D01*
X114067225Y-95902690D01*
X113635428Y-95816800D01*
X113195172Y-95816800D01*
X112763375Y-95902690D01*
X112356631Y-96071169D01*
X111990571Y-96315762D01*
X111679262Y-96627071D01*
X111434669Y-96993131D01*
X111266190Y-97399875D01*
X111180300Y-97831672D01*
X109660000Y-97831672D01*
X109660000Y-91390416D01*
X118835600Y-91390416D01*
X118835600Y-91692784D01*
X118894589Y-91989343D01*
X119010301Y-92268695D01*
X119178288Y-92520105D01*
X119392095Y-92733912D01*
X119643505Y-92901899D01*
X119922857Y-93017611D01*
X120219416Y-93076600D01*
X120521784Y-93076600D01*
X120818343Y-93017611D01*
X121097695Y-92901899D01*
X121349105Y-92733912D01*
X121415544Y-92667473D01*
X121421098Y-92685780D01*
X121480063Y-92796094D01*
X121559415Y-92892785D01*
X121656106Y-92972137D01*
X121766420Y-93031102D01*
X121886118Y-93067412D01*
X122010600Y-93079672D01*
X122624850Y-93076600D01*
X122783600Y-92917850D01*
X122783600Y-91668600D01*
X122763600Y-91668600D01*
X122763600Y-91414600D01*
X122783600Y-91414600D01*
X122783600Y-90165350D01*
X123037600Y-90165350D01*
X123037600Y-91414600D01*
X123057600Y-91414600D01*
X123057600Y-91668600D01*
X123037600Y-91668600D01*
X123037600Y-92917850D01*
X123196350Y-93076600D01*
X123810600Y-93079672D01*
X123935082Y-93067412D01*
X124054780Y-93031102D01*
X124165094Y-92972137D01*
X124261785Y-92892785D01*
X124341137Y-92796094D01*
X124396210Y-92693062D01*
X124424778Y-92721630D01*
X124540726Y-92605682D01*
X124624408Y-92859861D01*
X124896975Y-92990758D01*
X125189842Y-93065965D01*
X125491753Y-93082591D01*
X125791107Y-93039997D01*
X126076399Y-92939822D01*
X126225992Y-92859861D01*
X126309674Y-92605682D01*
X126425622Y-92721630D01*
X126472387Y-92674865D01*
X126475698Y-92685780D01*
X126534663Y-92796094D01*
X126614015Y-92892785D01*
X126710706Y-92972137D01*
X126821020Y-93031102D01*
X126940718Y-93067412D01*
X127065200Y-93079672D01*
X128865200Y-93079672D01*
X128989682Y-93067412D01*
X129109380Y-93031102D01*
X129219694Y-92972137D01*
X129316385Y-92892785D01*
X129395737Y-92796094D01*
X129454702Y-92685780D01*
X129491012Y-92566082D01*
X129503272Y-92441600D01*
X129503272Y-90641600D01*
X129491012Y-90517118D01*
X129454702Y-90397420D01*
X129395737Y-90287106D01*
X129316385Y-90190415D01*
X129219694Y-90111063D01*
X129109380Y-90052098D01*
X128989682Y-90015788D01*
X128865200Y-90003528D01*
X127065200Y-90003528D01*
X126940718Y-90015788D01*
X126821020Y-90052098D01*
X126710706Y-90111063D01*
X126614015Y-90190415D01*
X126534663Y-90287106D01*
X126475698Y-90397420D01*
X126472387Y-90408335D01*
X126425622Y-90361570D01*
X126309674Y-90477518D01*
X126225992Y-90223339D01*
X125953425Y-90092442D01*
X125660558Y-90017235D01*
X125358647Y-90000609D01*
X125059293Y-90043203D01*
X124774001Y-90143378D01*
X124624408Y-90223339D01*
X124540726Y-90477518D01*
X124424778Y-90361570D01*
X124396210Y-90390138D01*
X124341137Y-90287106D01*
X124261785Y-90190415D01*
X124165094Y-90111063D01*
X124054780Y-90052098D01*
X123935082Y-90015788D01*
X123810600Y-90003528D01*
X123196350Y-90006600D01*
X123037600Y-90165350D01*
X122783600Y-90165350D01*
X122624850Y-90006600D01*
X122010600Y-90003528D01*
X121886118Y-90015788D01*
X121766420Y-90052098D01*
X121656106Y-90111063D01*
X121559415Y-90190415D01*
X121480063Y-90287106D01*
X121421098Y-90397420D01*
X121415544Y-90415727D01*
X121349105Y-90349288D01*
X121097695Y-90181301D01*
X120818343Y-90065589D01*
X120521784Y-90006600D01*
X120219416Y-90006600D01*
X119922857Y-90065589D01*
X119643505Y-90181301D01*
X119392095Y-90349288D01*
X119178288Y-90563095D01*
X119010301Y-90814505D01*
X118894589Y-91093857D01*
X118835600Y-91390416D01*
X109660000Y-91390416D01*
X109660000Y-67437000D01*
X109857509Y-67437000D01*
X109863000Y-67492751D01*
X109863001Y-87752038D01*
X109857509Y-87807800D01*
X109879423Y-88030298D01*
X109944324Y-88244246D01*
X109993384Y-88336030D01*
X110049717Y-88441423D01*
X110191552Y-88614249D01*
X110234860Y-88649791D01*
X111375208Y-89790140D01*
X111410751Y-89833449D01*
X111583577Y-89975284D01*
X111780753Y-90080676D01*
X111944905Y-90130471D01*
X111994700Y-90145577D01*
X112015693Y-90147644D01*
X112161448Y-90162000D01*
X112161455Y-90162000D01*
X112217199Y-90167490D01*
X112272943Y-90162000D01*
X118638449Y-90162000D01*
X118694200Y-90167491D01*
X118749951Y-90162000D01*
X118749952Y-90162000D01*
X118916699Y-90145577D01*
X119130647Y-90080676D01*
X119327823Y-89975284D01*
X119500649Y-89833449D01*
X119536196Y-89790135D01*
X120420882Y-88905450D01*
X120662174Y-88857453D01*
X120923327Y-88749280D01*
X121158359Y-88592237D01*
X121358237Y-88392359D01*
X121515280Y-88157327D01*
X121623453Y-87896174D01*
X121678600Y-87618935D01*
X121678600Y-87336265D01*
X121623453Y-87059026D01*
X121531073Y-86836001D01*
X126576127Y-86836001D01*
X126483747Y-87059026D01*
X126428600Y-87336265D01*
X126428600Y-87618935D01*
X126483747Y-87896174D01*
X126591920Y-88157327D01*
X126748963Y-88392359D01*
X126948841Y-88592237D01*
X127183873Y-88749280D01*
X127445026Y-88857453D01*
X127722265Y-88912600D01*
X128004935Y-88912600D01*
X128282174Y-88857453D01*
X128543327Y-88749280D01*
X128778359Y-88592237D01*
X128978237Y-88392359D01*
X129135280Y-88157327D01*
X129243453Y-87896174D01*
X129298600Y-87618935D01*
X129298600Y-87336265D01*
X129243453Y-87059026D01*
X129151073Y-86836001D01*
X131108448Y-86836001D01*
X131164199Y-86841492D01*
X131219950Y-86836001D01*
X131219951Y-86836001D01*
X131386698Y-86819578D01*
X131423709Y-86808351D01*
X131451790Y-86949525D01*
X131564758Y-87222253D01*
X131728761Y-87467702D01*
X131937498Y-87676439D01*
X132182947Y-87840442D01*
X132455675Y-87953410D01*
X132745201Y-88011000D01*
X133040399Y-88011000D01*
X133329925Y-87953410D01*
X133602653Y-87840442D01*
X133848102Y-87676439D01*
X134056839Y-87467702D01*
X134162800Y-87309119D01*
X134268761Y-87467702D01*
X134477498Y-87676439D01*
X134722947Y-87840442D01*
X134995675Y-87953410D01*
X135285201Y-88011000D01*
X135580399Y-88011000D01*
X135869925Y-87953410D01*
X136142653Y-87840442D01*
X136388102Y-87676439D01*
X136596839Y-87467702D01*
X136760842Y-87222253D01*
X136873810Y-86949525D01*
X136931400Y-86659999D01*
X136931400Y-86364801D01*
X136873810Y-86075275D01*
X136760842Y-85802547D01*
X136596839Y-85557098D01*
X136388102Y-85348361D01*
X136229519Y-85242400D01*
X136388102Y-85136439D01*
X136596839Y-84927702D01*
X136760842Y-84682253D01*
X136873810Y-84409525D01*
X136931400Y-84119999D01*
X136931400Y-83824801D01*
X136873810Y-83535275D01*
X136760842Y-83262547D01*
X136596839Y-83017098D01*
X136388102Y-82808361D01*
X136229519Y-82702400D01*
X136388102Y-82596439D01*
X136596839Y-82387702D01*
X136760842Y-82142253D01*
X136873810Y-81869525D01*
X136931400Y-81579999D01*
X136931400Y-81284801D01*
X136873810Y-80995275D01*
X136760842Y-80722547D01*
X136596839Y-80477098D01*
X136388102Y-80268361D01*
X136229519Y-80162400D01*
X136388102Y-80056439D01*
X136596839Y-79847702D01*
X136760842Y-79602253D01*
X136873810Y-79329525D01*
X136931400Y-79039999D01*
X136931400Y-78744801D01*
X148177250Y-78744801D01*
X148177250Y-79039999D01*
X148234840Y-79329525D01*
X148347808Y-79602253D01*
X148511811Y-79847702D01*
X148720548Y-80056439D01*
X148879131Y-80162400D01*
X148720548Y-80268361D01*
X148511811Y-80477098D01*
X148347808Y-80722547D01*
X148234840Y-80995275D01*
X148177250Y-81284801D01*
X148177250Y-81579999D01*
X148234840Y-81869525D01*
X148347808Y-82142253D01*
X148511811Y-82387702D01*
X148720548Y-82596439D01*
X148879131Y-82702400D01*
X148720548Y-82808361D01*
X148511811Y-83017098D01*
X148347808Y-83262547D01*
X148234840Y-83535275D01*
X148177250Y-83824801D01*
X148177250Y-84119999D01*
X148234840Y-84409525D01*
X148347808Y-84682253D01*
X148511811Y-84927702D01*
X148720548Y-85136439D01*
X148879131Y-85242400D01*
X148720548Y-85348361D01*
X148511811Y-85557098D01*
X148347808Y-85802547D01*
X148234840Y-86075275D01*
X148177250Y-86364801D01*
X148177250Y-86659999D01*
X148234840Y-86949525D01*
X148347808Y-87222253D01*
X148511811Y-87467702D01*
X148720548Y-87676439D01*
X148965997Y-87840442D01*
X149238725Y-87953410D01*
X149528251Y-88011000D01*
X149823449Y-88011000D01*
X150112975Y-87953410D01*
X150385703Y-87840442D01*
X150631152Y-87676439D01*
X150839889Y-87467702D01*
X150945850Y-87309119D01*
X151051811Y-87467702D01*
X151260548Y-87676439D01*
X151505997Y-87840442D01*
X151778725Y-87953410D01*
X152068251Y-88011000D01*
X152363449Y-88011000D01*
X152652975Y-87953410D01*
X152925703Y-87840442D01*
X153171152Y-87676439D01*
X153379889Y-87467702D01*
X153543892Y-87222253D01*
X153656860Y-86949525D01*
X153714450Y-86659999D01*
X153714450Y-86364801D01*
X153656860Y-86075275D01*
X153543892Y-85802547D01*
X153379889Y-85557098D01*
X153171152Y-85348361D01*
X153012569Y-85242400D01*
X153171152Y-85136439D01*
X153379889Y-84927702D01*
X153543892Y-84682253D01*
X153656860Y-84409525D01*
X153714450Y-84119999D01*
X153714450Y-83824801D01*
X153656860Y-83535275D01*
X153543892Y-83262547D01*
X153379889Y-83017098D01*
X153171152Y-82808361D01*
X153012569Y-82702400D01*
X153171152Y-82596439D01*
X153379889Y-82387702D01*
X153543892Y-82142253D01*
X153656860Y-81869525D01*
X153714450Y-81579999D01*
X153714450Y-81284801D01*
X153656860Y-80995275D01*
X153543892Y-80722547D01*
X153379889Y-80477098D01*
X153171152Y-80268361D01*
X153012569Y-80162400D01*
X153171152Y-80056439D01*
X153379889Y-79847702D01*
X153543892Y-79602253D01*
X153656860Y-79329525D01*
X153714450Y-79039999D01*
X153714450Y-78744801D01*
X164960300Y-78744801D01*
X164960300Y-79039999D01*
X165017890Y-79329525D01*
X165130858Y-79602253D01*
X165294861Y-79847702D01*
X165503598Y-80056439D01*
X165662181Y-80162400D01*
X165503598Y-80268361D01*
X165294861Y-80477098D01*
X165130858Y-80722547D01*
X165017890Y-80995275D01*
X164960300Y-81284801D01*
X164960300Y-81579999D01*
X165017890Y-81869525D01*
X165130858Y-82142253D01*
X165294861Y-82387702D01*
X165503598Y-82596439D01*
X165662181Y-82702400D01*
X165503598Y-82808361D01*
X165294861Y-83017098D01*
X165130858Y-83262547D01*
X165017890Y-83535275D01*
X164960300Y-83824801D01*
X164960300Y-84119999D01*
X165017890Y-84409525D01*
X165130858Y-84682253D01*
X165294861Y-84927702D01*
X165503598Y-85136439D01*
X165662181Y-85242400D01*
X165503598Y-85348361D01*
X165294861Y-85557098D01*
X165130858Y-85802547D01*
X165017890Y-86075275D01*
X164960300Y-86364801D01*
X164960300Y-86659999D01*
X165017890Y-86949525D01*
X165130858Y-87222253D01*
X165294861Y-87467702D01*
X165503598Y-87676439D01*
X165749047Y-87840442D01*
X166021775Y-87953410D01*
X166311301Y-88011000D01*
X166606499Y-88011000D01*
X166896025Y-87953410D01*
X167168753Y-87840442D01*
X167414202Y-87676439D01*
X167622939Y-87467702D01*
X167728900Y-87309119D01*
X167834861Y-87467702D01*
X168043598Y-87676439D01*
X168289047Y-87840442D01*
X168561775Y-87953410D01*
X168851301Y-88011000D01*
X169146499Y-88011000D01*
X169436025Y-87953410D01*
X169708753Y-87840442D01*
X169954202Y-87676439D01*
X170162939Y-87467702D01*
X170326942Y-87222253D01*
X170439910Y-86949525D01*
X170497500Y-86659999D01*
X170497500Y-86364801D01*
X170439910Y-86075275D01*
X170326942Y-85802547D01*
X170162939Y-85557098D01*
X169954202Y-85348361D01*
X169795619Y-85242400D01*
X169954202Y-85136439D01*
X170162939Y-84927702D01*
X170326942Y-84682253D01*
X170439910Y-84409525D01*
X170497500Y-84119999D01*
X170497500Y-83824801D01*
X170439910Y-83535275D01*
X170326942Y-83262547D01*
X170162939Y-83017098D01*
X169954202Y-82808361D01*
X169795619Y-82702400D01*
X169954202Y-82596439D01*
X170162939Y-82387702D01*
X170326942Y-82142253D01*
X170439910Y-81869525D01*
X170497500Y-81579999D01*
X170497500Y-81284801D01*
X170439910Y-80995275D01*
X170326942Y-80722547D01*
X170162939Y-80477098D01*
X169954202Y-80268361D01*
X169795619Y-80162400D01*
X169954202Y-80056439D01*
X170162939Y-79847702D01*
X170326942Y-79602253D01*
X170439910Y-79329525D01*
X170497500Y-79039999D01*
X170497500Y-78744801D01*
X181743350Y-78744801D01*
X181743350Y-79039999D01*
X181800940Y-79329525D01*
X181913908Y-79602253D01*
X182077911Y-79847702D01*
X182286648Y-80056439D01*
X182445231Y-80162400D01*
X182286648Y-80268361D01*
X182077911Y-80477098D01*
X181913908Y-80722547D01*
X181800940Y-80995275D01*
X181743350Y-81284801D01*
X181743350Y-81579999D01*
X181800940Y-81869525D01*
X181913908Y-82142253D01*
X182077911Y-82387702D01*
X182286648Y-82596439D01*
X182445231Y-82702400D01*
X182286648Y-82808361D01*
X182077911Y-83017098D01*
X181913908Y-83262547D01*
X181800940Y-83535275D01*
X181743350Y-83824801D01*
X181743350Y-84119999D01*
X181800940Y-84409525D01*
X181913908Y-84682253D01*
X182077911Y-84927702D01*
X182286648Y-85136439D01*
X182445231Y-85242400D01*
X182286648Y-85348361D01*
X182077911Y-85557098D01*
X181913908Y-85802547D01*
X181800940Y-86075275D01*
X181743350Y-86364801D01*
X181743350Y-86659999D01*
X181800940Y-86949525D01*
X181913908Y-87222253D01*
X182077911Y-87467702D01*
X182286648Y-87676439D01*
X182532097Y-87840442D01*
X182804825Y-87953410D01*
X183094351Y-88011000D01*
X183389549Y-88011000D01*
X183679075Y-87953410D01*
X183951803Y-87840442D01*
X184197252Y-87676439D01*
X184405989Y-87467702D01*
X184511950Y-87309119D01*
X184617911Y-87467702D01*
X184826648Y-87676439D01*
X185072097Y-87840442D01*
X185344825Y-87953410D01*
X185634351Y-88011000D01*
X185929549Y-88011000D01*
X186219075Y-87953410D01*
X186491803Y-87840442D01*
X186737252Y-87676439D01*
X186945989Y-87467702D01*
X187109992Y-87222253D01*
X187222960Y-86949525D01*
X187280550Y-86659999D01*
X187280550Y-86364801D01*
X187222960Y-86075275D01*
X187109992Y-85802547D01*
X186945989Y-85557098D01*
X186737252Y-85348361D01*
X186578669Y-85242400D01*
X186737252Y-85136439D01*
X186945989Y-84927702D01*
X187109992Y-84682253D01*
X187222960Y-84409525D01*
X187280550Y-84119999D01*
X187280550Y-83824801D01*
X187222960Y-83535275D01*
X187109992Y-83262547D01*
X186945989Y-83017098D01*
X186737252Y-82808361D01*
X186578669Y-82702400D01*
X186737252Y-82596439D01*
X186945989Y-82387702D01*
X187109992Y-82142253D01*
X187222960Y-81869525D01*
X187280550Y-81579999D01*
X187280550Y-81284801D01*
X187222960Y-80995275D01*
X187109992Y-80722547D01*
X186945989Y-80477098D01*
X186737252Y-80268361D01*
X186578669Y-80162400D01*
X186737252Y-80056439D01*
X186945989Y-79847702D01*
X187109992Y-79602253D01*
X187222960Y-79329525D01*
X187280550Y-79039999D01*
X187280550Y-78744801D01*
X198526400Y-78744801D01*
X198526400Y-79039999D01*
X198583990Y-79329525D01*
X198696958Y-79602253D01*
X198860961Y-79847702D01*
X199069698Y-80056439D01*
X199228281Y-80162400D01*
X199069698Y-80268361D01*
X198860961Y-80477098D01*
X198696958Y-80722547D01*
X198583990Y-80995275D01*
X198526400Y-81284801D01*
X198526400Y-81579999D01*
X198583990Y-81869525D01*
X198696958Y-82142253D01*
X198860961Y-82387702D01*
X199069698Y-82596439D01*
X199228281Y-82702400D01*
X199069698Y-82808361D01*
X198860961Y-83017098D01*
X198696958Y-83262547D01*
X198583990Y-83535275D01*
X198526400Y-83824801D01*
X198526400Y-84119999D01*
X198583990Y-84409525D01*
X198696958Y-84682253D01*
X198860961Y-84927702D01*
X199069698Y-85136439D01*
X199228281Y-85242400D01*
X199069698Y-85348361D01*
X198860961Y-85557098D01*
X198696958Y-85802547D01*
X198583990Y-86075275D01*
X198526400Y-86364801D01*
X198526400Y-86659999D01*
X198583990Y-86949525D01*
X198696958Y-87222253D01*
X198860961Y-87467702D01*
X199069698Y-87676439D01*
X199315147Y-87840442D01*
X199587875Y-87953410D01*
X199877401Y-88011000D01*
X200172599Y-88011000D01*
X200462125Y-87953410D01*
X200734853Y-87840442D01*
X200980302Y-87676439D01*
X201189039Y-87467702D01*
X201295000Y-87309119D01*
X201400961Y-87467702D01*
X201609698Y-87676439D01*
X201855147Y-87840442D01*
X202127875Y-87953410D01*
X202417401Y-88011000D01*
X202712599Y-88011000D01*
X203002125Y-87953410D01*
X203274853Y-87840442D01*
X203520302Y-87676439D01*
X203729039Y-87467702D01*
X203893042Y-87222253D01*
X204006010Y-86949525D01*
X204063600Y-86659999D01*
X204063600Y-86364801D01*
X204006010Y-86075275D01*
X203893042Y-85802547D01*
X203729039Y-85557098D01*
X203520302Y-85348361D01*
X203361719Y-85242400D01*
X203520302Y-85136439D01*
X203729039Y-84927702D01*
X203893042Y-84682253D01*
X204006010Y-84409525D01*
X204063600Y-84119999D01*
X204063600Y-83824801D01*
X204006010Y-83535275D01*
X203893042Y-83262547D01*
X203729039Y-83017098D01*
X203520302Y-82808361D01*
X203361719Y-82702400D01*
X203520302Y-82596439D01*
X203729039Y-82387702D01*
X203893042Y-82142253D01*
X204006010Y-81869525D01*
X204063600Y-81579999D01*
X204063600Y-81284801D01*
X204006010Y-80995275D01*
X203893042Y-80722547D01*
X203729039Y-80477098D01*
X203520302Y-80268361D01*
X203361719Y-80162400D01*
X203520302Y-80056439D01*
X203729039Y-79847702D01*
X203893042Y-79602253D01*
X204006010Y-79329525D01*
X204063600Y-79039999D01*
X204063600Y-78744801D01*
X204006010Y-78455275D01*
X203893042Y-78182547D01*
X203729039Y-77937098D01*
X203520302Y-77728361D01*
X203354897Y-77617841D01*
X203453488Y-77559217D01*
X203671854Y-77362693D01*
X203847684Y-77127344D01*
X203974222Y-76862214D01*
X204019958Y-76711426D01*
X203898817Y-76479400D01*
X202692000Y-76479400D01*
X202692000Y-76499400D01*
X202438000Y-76499400D01*
X202438000Y-76479400D01*
X200152000Y-76479400D01*
X200152000Y-76499400D01*
X199898000Y-76499400D01*
X199898000Y-76479400D01*
X198691183Y-76479400D01*
X198570042Y-76711426D01*
X198615778Y-76862214D01*
X198742316Y-77127344D01*
X198918146Y-77362693D01*
X199136512Y-77559217D01*
X199235103Y-77617841D01*
X199069698Y-77728361D01*
X198860961Y-77937098D01*
X198696958Y-78182547D01*
X198583990Y-78455275D01*
X198526400Y-78744801D01*
X187280550Y-78744801D01*
X187222960Y-78455275D01*
X187109992Y-78182547D01*
X186945989Y-77937098D01*
X186737252Y-77728361D01*
X186571847Y-77617841D01*
X186670438Y-77559217D01*
X186888804Y-77362693D01*
X187064634Y-77127344D01*
X187191172Y-76862214D01*
X187236908Y-76711426D01*
X187115767Y-76479400D01*
X185908950Y-76479400D01*
X185908950Y-76499400D01*
X185654950Y-76499400D01*
X185654950Y-76479400D01*
X183368950Y-76479400D01*
X183368950Y-76499400D01*
X183114950Y-76499400D01*
X183114950Y-76479400D01*
X181908133Y-76479400D01*
X181786992Y-76711426D01*
X181832728Y-76862214D01*
X181959266Y-77127344D01*
X182135096Y-77362693D01*
X182353462Y-77559217D01*
X182452053Y-77617841D01*
X182286648Y-77728361D01*
X182077911Y-77937098D01*
X181913908Y-78182547D01*
X181800940Y-78455275D01*
X181743350Y-78744801D01*
X170497500Y-78744801D01*
X170439910Y-78455275D01*
X170326942Y-78182547D01*
X170162939Y-77937098D01*
X169954202Y-77728361D01*
X169788797Y-77617841D01*
X169887388Y-77559217D01*
X170105754Y-77362693D01*
X170281584Y-77127344D01*
X170408122Y-76862214D01*
X170453858Y-76711426D01*
X170332717Y-76479400D01*
X169125900Y-76479400D01*
X169125900Y-76499400D01*
X168871900Y-76499400D01*
X168871900Y-76479400D01*
X166585900Y-76479400D01*
X166585900Y-76499400D01*
X166331900Y-76499400D01*
X166331900Y-76479400D01*
X165125083Y-76479400D01*
X165003942Y-76711426D01*
X165049678Y-76862214D01*
X165176216Y-77127344D01*
X165352046Y-77362693D01*
X165570412Y-77559217D01*
X165669003Y-77617841D01*
X165503598Y-77728361D01*
X165294861Y-77937098D01*
X165130858Y-78182547D01*
X165017890Y-78455275D01*
X164960300Y-78744801D01*
X153714450Y-78744801D01*
X153656860Y-78455275D01*
X153543892Y-78182547D01*
X153379889Y-77937098D01*
X153171152Y-77728361D01*
X153005747Y-77617841D01*
X153104338Y-77559217D01*
X153322704Y-77362693D01*
X153498534Y-77127344D01*
X153625072Y-76862214D01*
X153670808Y-76711426D01*
X153549667Y-76479400D01*
X152342850Y-76479400D01*
X152342850Y-76499400D01*
X152088850Y-76499400D01*
X152088850Y-76479400D01*
X149802850Y-76479400D01*
X149802850Y-76499400D01*
X149548850Y-76499400D01*
X149548850Y-76479400D01*
X148342033Y-76479400D01*
X148220892Y-76711426D01*
X148266628Y-76862214D01*
X148393166Y-77127344D01*
X148568996Y-77362693D01*
X148787362Y-77559217D01*
X148885953Y-77617841D01*
X148720548Y-77728361D01*
X148511811Y-77937098D01*
X148347808Y-78182547D01*
X148234840Y-78455275D01*
X148177250Y-78744801D01*
X136931400Y-78744801D01*
X136873810Y-78455275D01*
X136760842Y-78182547D01*
X136596839Y-77937098D01*
X136388102Y-77728361D01*
X136222697Y-77617841D01*
X136321288Y-77559217D01*
X136539654Y-77362693D01*
X136715484Y-77127344D01*
X136842022Y-76862214D01*
X136887758Y-76711426D01*
X136766617Y-76479400D01*
X135559800Y-76479400D01*
X135559800Y-76499400D01*
X135305800Y-76499400D01*
X135305800Y-76479400D01*
X133019800Y-76479400D01*
X133019800Y-76499400D01*
X132765800Y-76499400D01*
X132765800Y-76479400D01*
X131558983Y-76479400D01*
X131437842Y-76711426D01*
X131483578Y-76862214D01*
X131610116Y-77127344D01*
X131785946Y-77362693D01*
X132004312Y-77559217D01*
X132102903Y-77617841D01*
X131937498Y-77728361D01*
X131728761Y-77937098D01*
X131564758Y-78182547D01*
X131451790Y-78455275D01*
X131394200Y-78744801D01*
X131394200Y-79039999D01*
X131451790Y-79329525D01*
X131564758Y-79602253D01*
X131728761Y-79847702D01*
X131937498Y-80056439D01*
X132096081Y-80162400D01*
X131937498Y-80268361D01*
X131728761Y-80477098D01*
X131564758Y-80722547D01*
X131451790Y-80995275D01*
X131395489Y-81278321D01*
X127596702Y-81278321D01*
X127635100Y-81125136D01*
X127649017Y-80842808D01*
X127607587Y-80563190D01*
X127512403Y-80297028D01*
X127445471Y-80171806D01*
X127201502Y-80100223D01*
X126388405Y-80913320D01*
X126402548Y-80927463D01*
X126222943Y-81107068D01*
X126208800Y-81092925D01*
X126194658Y-81107068D01*
X126015053Y-80927463D01*
X126029195Y-80913320D01*
X125216098Y-80100223D01*
X124972129Y-80171806D01*
X124851229Y-80427316D01*
X124782500Y-80701504D01*
X124768583Y-80983832D01*
X124810013Y-81263450D01*
X124815331Y-81278321D01*
X122599309Y-81278321D01*
X122643800Y-81054655D01*
X122643800Y-80771985D01*
X122588653Y-80494746D01*
X122480480Y-80233593D01*
X122323437Y-79998561D01*
X122245494Y-79920618D01*
X125395703Y-79920618D01*
X126208800Y-80733715D01*
X127021897Y-79920618D01*
X126950314Y-79676649D01*
X126694804Y-79555749D01*
X126420616Y-79487020D01*
X126138288Y-79473103D01*
X125858670Y-79514533D01*
X125592508Y-79609717D01*
X125467286Y-79676649D01*
X125395703Y-79920618D01*
X122245494Y-79920618D01*
X122123559Y-79798683D01*
X121888527Y-79641640D01*
X121627374Y-79533467D01*
X121350135Y-79478320D01*
X121067465Y-79478320D01*
X120790226Y-79533467D01*
X120529073Y-79641640D01*
X120294041Y-79798683D01*
X120094163Y-79998561D01*
X119937120Y-80233593D01*
X119828947Y-80494746D01*
X119773800Y-80771985D01*
X119773800Y-81054655D01*
X119818291Y-81278321D01*
X118267767Y-81278321D01*
X117658710Y-80669264D01*
X117623163Y-80625951D01*
X117450337Y-80484116D01*
X117253161Y-80378724D01*
X117039213Y-80313823D01*
X116872466Y-80297400D01*
X116872465Y-80297400D01*
X116816714Y-80291909D01*
X116760963Y-80297400D01*
X116579741Y-80297400D01*
X116550702Y-80268361D01*
X116392119Y-80162400D01*
X116550702Y-80056439D01*
X116759439Y-79847702D01*
X116923442Y-79602253D01*
X117036410Y-79329525D01*
X117094000Y-79039999D01*
X117094000Y-78744801D01*
X117036410Y-78455275D01*
X116923442Y-78182547D01*
X116759439Y-77937098D01*
X116550702Y-77728361D01*
X116385297Y-77617841D01*
X116483888Y-77559217D01*
X116702254Y-77362693D01*
X116878084Y-77127344D01*
X117004622Y-76862214D01*
X117050358Y-76711426D01*
X116929217Y-76479400D01*
X115722400Y-76479400D01*
X115722400Y-76499400D01*
X115468400Y-76499400D01*
X115468400Y-76479400D01*
X113182400Y-76479400D01*
X113182400Y-76499400D01*
X112928400Y-76499400D01*
X112928400Y-76479400D01*
X112908400Y-76479400D01*
X112908400Y-76225400D01*
X112928400Y-76225400D01*
X112928400Y-73939400D01*
X113182400Y-73939400D01*
X113182400Y-76225400D01*
X115468400Y-76225400D01*
X115468400Y-73939400D01*
X115722400Y-73939400D01*
X115722400Y-76225400D01*
X116929217Y-76225400D01*
X117050358Y-75993374D01*
X117004622Y-75842586D01*
X116878084Y-75577456D01*
X116839899Y-75526345D01*
X121069200Y-75526345D01*
X121069200Y-75809015D01*
X121124347Y-76086254D01*
X121232520Y-76347407D01*
X121389563Y-76582439D01*
X121589441Y-76782317D01*
X121824473Y-76939360D01*
X122085626Y-77047533D01*
X122362865Y-77102680D01*
X122645535Y-77102680D01*
X122922774Y-77047533D01*
X123183927Y-76939360D01*
X123418959Y-76782317D01*
X123540894Y-76660382D01*
X124191103Y-76660382D01*
X124262686Y-76904351D01*
X124518196Y-77025251D01*
X124792384Y-77093980D01*
X125074712Y-77107897D01*
X125354330Y-77066467D01*
X125620492Y-76971283D01*
X125745714Y-76904351D01*
X125817297Y-76660382D01*
X125004200Y-75847285D01*
X124191103Y-76660382D01*
X123540894Y-76660382D01*
X123618837Y-76582439D01*
X123752892Y-76381811D01*
X123767529Y-76409194D01*
X124011498Y-76480777D01*
X124824595Y-75667680D01*
X125183805Y-75667680D01*
X125996902Y-76480777D01*
X126240871Y-76409194D01*
X126361771Y-76153684D01*
X126430500Y-75879496D01*
X126444417Y-75597168D01*
X126402987Y-75317550D01*
X126307803Y-75051388D01*
X126240871Y-74926166D01*
X125996902Y-74854583D01*
X125183805Y-75667680D01*
X124824595Y-75667680D01*
X124011498Y-74854583D01*
X123767529Y-74926166D01*
X123753876Y-74955021D01*
X123618837Y-74752921D01*
X123540894Y-74674978D01*
X124191103Y-74674978D01*
X125004200Y-75488075D01*
X125817297Y-74674978D01*
X125745714Y-74431009D01*
X125490204Y-74310109D01*
X125216016Y-74241380D01*
X124933688Y-74227463D01*
X124654070Y-74268893D01*
X124387908Y-74364077D01*
X124262686Y-74431009D01*
X124191103Y-74674978D01*
X123540894Y-74674978D01*
X123418959Y-74553043D01*
X123183927Y-74396000D01*
X122922774Y-74287827D01*
X122645535Y-74232680D01*
X122362865Y-74232680D01*
X122085626Y-74287827D01*
X121824473Y-74396000D01*
X121589441Y-74553043D01*
X121389563Y-74752921D01*
X121232520Y-74987953D01*
X121124347Y-75249106D01*
X121069200Y-75526345D01*
X116839899Y-75526345D01*
X116702254Y-75342107D01*
X116483888Y-75145583D01*
X116377630Y-75082400D01*
X116483888Y-75019217D01*
X116702254Y-74822693D01*
X116878084Y-74587344D01*
X117004622Y-74322214D01*
X117050358Y-74171426D01*
X131437842Y-74171426D01*
X131483578Y-74322214D01*
X131610116Y-74587344D01*
X131785946Y-74822693D01*
X132004312Y-75019217D01*
X132110570Y-75082400D01*
X132004312Y-75145583D01*
X131785946Y-75342107D01*
X131610116Y-75577456D01*
X131483578Y-75842586D01*
X131437842Y-75993374D01*
X131558983Y-76225400D01*
X132765800Y-76225400D01*
X132765800Y-73939400D01*
X133019800Y-73939400D01*
X133019800Y-76225400D01*
X135305800Y-76225400D01*
X135305800Y-73939400D01*
X135559800Y-73939400D01*
X135559800Y-76225400D01*
X136766617Y-76225400D01*
X136887758Y-75993374D01*
X136842022Y-75842586D01*
X136715484Y-75577456D01*
X136539654Y-75342107D01*
X136321288Y-75145583D01*
X136215030Y-75082400D01*
X136321288Y-75019217D01*
X136539654Y-74822693D01*
X136715484Y-74587344D01*
X136842022Y-74322214D01*
X136887758Y-74171426D01*
X148220892Y-74171426D01*
X148266628Y-74322214D01*
X148393166Y-74587344D01*
X148568996Y-74822693D01*
X148787362Y-75019217D01*
X148893620Y-75082400D01*
X148787362Y-75145583D01*
X148568996Y-75342107D01*
X148393166Y-75577456D01*
X148266628Y-75842586D01*
X148220892Y-75993374D01*
X148342033Y-76225400D01*
X149548850Y-76225400D01*
X149548850Y-73939400D01*
X149802850Y-73939400D01*
X149802850Y-76225400D01*
X152088850Y-76225400D01*
X152088850Y-73939400D01*
X152342850Y-73939400D01*
X152342850Y-76225400D01*
X153549667Y-76225400D01*
X153670808Y-75993374D01*
X153625072Y-75842586D01*
X153498534Y-75577456D01*
X153322704Y-75342107D01*
X153104338Y-75145583D01*
X152998080Y-75082400D01*
X153104338Y-75019217D01*
X153322704Y-74822693D01*
X153498534Y-74587344D01*
X153625072Y-74322214D01*
X153670808Y-74171426D01*
X165003942Y-74171426D01*
X165049678Y-74322214D01*
X165176216Y-74587344D01*
X165352046Y-74822693D01*
X165570412Y-75019217D01*
X165676670Y-75082400D01*
X165570412Y-75145583D01*
X165352046Y-75342107D01*
X165176216Y-75577456D01*
X165049678Y-75842586D01*
X165003942Y-75993374D01*
X165125083Y-76225400D01*
X166331900Y-76225400D01*
X166331900Y-73939400D01*
X166585900Y-73939400D01*
X166585900Y-76225400D01*
X168871900Y-76225400D01*
X168871900Y-73939400D01*
X169125900Y-73939400D01*
X169125900Y-76225400D01*
X170332717Y-76225400D01*
X170453858Y-75993374D01*
X170408122Y-75842586D01*
X170281584Y-75577456D01*
X170105754Y-75342107D01*
X169887388Y-75145583D01*
X169781130Y-75082400D01*
X169887388Y-75019217D01*
X170105754Y-74822693D01*
X170281584Y-74587344D01*
X170408122Y-74322214D01*
X170453858Y-74171426D01*
X181786992Y-74171426D01*
X181832728Y-74322214D01*
X181959266Y-74587344D01*
X182135096Y-74822693D01*
X182353462Y-75019217D01*
X182459720Y-75082400D01*
X182353462Y-75145583D01*
X182135096Y-75342107D01*
X181959266Y-75577456D01*
X181832728Y-75842586D01*
X181786992Y-75993374D01*
X181908133Y-76225400D01*
X183114950Y-76225400D01*
X183114950Y-73939400D01*
X183368950Y-73939400D01*
X183368950Y-76225400D01*
X185654950Y-76225400D01*
X185654950Y-73939400D01*
X185908950Y-73939400D01*
X185908950Y-76225400D01*
X187115767Y-76225400D01*
X187236908Y-75993374D01*
X187191172Y-75842586D01*
X187064634Y-75577456D01*
X186888804Y-75342107D01*
X186670438Y-75145583D01*
X186564180Y-75082400D01*
X186670438Y-75019217D01*
X186888804Y-74822693D01*
X187064634Y-74587344D01*
X187191172Y-74322214D01*
X187236908Y-74171426D01*
X198570042Y-74171426D01*
X198615778Y-74322214D01*
X198742316Y-74587344D01*
X198918146Y-74822693D01*
X199136512Y-75019217D01*
X199242770Y-75082400D01*
X199136512Y-75145583D01*
X198918146Y-75342107D01*
X198742316Y-75577456D01*
X198615778Y-75842586D01*
X198570042Y-75993374D01*
X198691183Y-76225400D01*
X199898000Y-76225400D01*
X199898000Y-73939400D01*
X200152000Y-73939400D01*
X200152000Y-76225400D01*
X202438000Y-76225400D01*
X202438000Y-73939400D01*
X202692000Y-73939400D01*
X202692000Y-76225400D01*
X203898817Y-76225400D01*
X204019958Y-75993374D01*
X203974222Y-75842586D01*
X203847684Y-75577456D01*
X203671854Y-75342107D01*
X203453488Y-75145583D01*
X203347230Y-75082400D01*
X203453488Y-75019217D01*
X203671854Y-74822693D01*
X203847684Y-74587344D01*
X203974222Y-74322214D01*
X204019958Y-74171426D01*
X203898817Y-73939400D01*
X202692000Y-73939400D01*
X202438000Y-73939400D01*
X200152000Y-73939400D01*
X199898000Y-73939400D01*
X198691183Y-73939400D01*
X198570042Y-74171426D01*
X187236908Y-74171426D01*
X187115767Y-73939400D01*
X185908950Y-73939400D01*
X185654950Y-73939400D01*
X183368950Y-73939400D01*
X183114950Y-73939400D01*
X181908133Y-73939400D01*
X181786992Y-74171426D01*
X170453858Y-74171426D01*
X170332717Y-73939400D01*
X169125900Y-73939400D01*
X168871900Y-73939400D01*
X166585900Y-73939400D01*
X166331900Y-73939400D01*
X165125083Y-73939400D01*
X165003942Y-74171426D01*
X153670808Y-74171426D01*
X153549667Y-73939400D01*
X152342850Y-73939400D01*
X152088850Y-73939400D01*
X149802850Y-73939400D01*
X149548850Y-73939400D01*
X148342033Y-73939400D01*
X148220892Y-74171426D01*
X136887758Y-74171426D01*
X136766617Y-73939400D01*
X135559800Y-73939400D01*
X135305800Y-73939400D01*
X133019800Y-73939400D01*
X132765800Y-73939400D01*
X131558983Y-73939400D01*
X131437842Y-74171426D01*
X117050358Y-74171426D01*
X116929217Y-73939400D01*
X115722400Y-73939400D01*
X115468400Y-73939400D01*
X113182400Y-73939400D01*
X112928400Y-73939400D01*
X112908400Y-73939400D01*
X112908400Y-73685400D01*
X112928400Y-73685400D01*
X112928400Y-71399400D01*
X113182400Y-71399400D01*
X113182400Y-73685400D01*
X115468400Y-73685400D01*
X115468400Y-71399400D01*
X115722400Y-71399400D01*
X115722400Y-73685400D01*
X116929217Y-73685400D01*
X117050358Y-73453374D01*
X117004622Y-73302586D01*
X116878084Y-73037456D01*
X116702254Y-72802107D01*
X116483888Y-72605583D01*
X116377630Y-72542400D01*
X116483888Y-72479217D01*
X116702254Y-72282693D01*
X116878084Y-72047344D01*
X117004622Y-71782214D01*
X117050358Y-71631426D01*
X116929217Y-71399400D01*
X115722400Y-71399400D01*
X115468400Y-71399400D01*
X113182400Y-71399400D01*
X112928400Y-71399400D01*
X112908400Y-71399400D01*
X112908400Y-71145400D01*
X112928400Y-71145400D01*
X112928400Y-71125400D01*
X113182400Y-71125400D01*
X113182400Y-71145400D01*
X115468400Y-71145400D01*
X115468400Y-71125400D01*
X115722400Y-71125400D01*
X115722400Y-71145400D01*
X116929217Y-71145400D01*
X117050358Y-70913374D01*
X117004622Y-70762586D01*
X116878084Y-70497456D01*
X116702254Y-70262107D01*
X116483888Y-70065583D01*
X116385297Y-70006959D01*
X116550702Y-69896439D01*
X116759439Y-69687702D01*
X116923442Y-69442253D01*
X117036410Y-69169525D01*
X117094000Y-68879999D01*
X117094000Y-68584801D01*
X117036410Y-68295275D01*
X116923442Y-68022547D01*
X116917197Y-68013200D01*
X118334039Y-68013200D01*
X120029860Y-69709023D01*
X119982520Y-69779873D01*
X119874347Y-70041026D01*
X119819200Y-70318265D01*
X119819200Y-70600935D01*
X119874347Y-70878174D01*
X119982520Y-71139327D01*
X120139563Y-71374359D01*
X120339441Y-71574237D01*
X120574473Y-71731280D01*
X120835626Y-71839453D01*
X121112865Y-71894600D01*
X121395535Y-71894600D01*
X121672774Y-71839453D01*
X121933927Y-71731280D01*
X122168959Y-71574237D01*
X122290894Y-71452302D01*
X125441103Y-71452302D01*
X125512686Y-71696271D01*
X125768196Y-71817171D01*
X126042384Y-71885900D01*
X126324712Y-71899817D01*
X126604330Y-71858387D01*
X126870492Y-71763203D01*
X126995714Y-71696271D01*
X127014740Y-71631426D01*
X131437842Y-71631426D01*
X131483578Y-71782214D01*
X131610116Y-72047344D01*
X131785946Y-72282693D01*
X132004312Y-72479217D01*
X132110570Y-72542400D01*
X132004312Y-72605583D01*
X131785946Y-72802107D01*
X131610116Y-73037456D01*
X131483578Y-73302586D01*
X131437842Y-73453374D01*
X131558983Y-73685400D01*
X132765800Y-73685400D01*
X132765800Y-71399400D01*
X133019800Y-71399400D01*
X133019800Y-73685400D01*
X135305800Y-73685400D01*
X135305800Y-71399400D01*
X135559800Y-71399400D01*
X135559800Y-73685400D01*
X136766617Y-73685400D01*
X136887758Y-73453374D01*
X136842022Y-73302586D01*
X136715484Y-73037456D01*
X136539654Y-72802107D01*
X136321288Y-72605583D01*
X136215030Y-72542400D01*
X136321288Y-72479217D01*
X136539654Y-72282693D01*
X136715484Y-72047344D01*
X136842022Y-71782214D01*
X136887758Y-71631426D01*
X148220892Y-71631426D01*
X148266628Y-71782214D01*
X148393166Y-72047344D01*
X148568996Y-72282693D01*
X148787362Y-72479217D01*
X148893620Y-72542400D01*
X148787362Y-72605583D01*
X148568996Y-72802107D01*
X148393166Y-73037456D01*
X148266628Y-73302586D01*
X148220892Y-73453374D01*
X148342033Y-73685400D01*
X149548850Y-73685400D01*
X149548850Y-71399400D01*
X149802850Y-71399400D01*
X149802850Y-73685400D01*
X152088850Y-73685400D01*
X152088850Y-71399400D01*
X152342850Y-71399400D01*
X152342850Y-73685400D01*
X153549667Y-73685400D01*
X153670808Y-73453374D01*
X153625072Y-73302586D01*
X153498534Y-73037456D01*
X153322704Y-72802107D01*
X153104338Y-72605583D01*
X152998080Y-72542400D01*
X153104338Y-72479217D01*
X153322704Y-72282693D01*
X153498534Y-72047344D01*
X153625072Y-71782214D01*
X153670808Y-71631426D01*
X165003942Y-71631426D01*
X165049678Y-71782214D01*
X165176216Y-72047344D01*
X165352046Y-72282693D01*
X165570412Y-72479217D01*
X165676670Y-72542400D01*
X165570412Y-72605583D01*
X165352046Y-72802107D01*
X165176216Y-73037456D01*
X165049678Y-73302586D01*
X165003942Y-73453374D01*
X165125083Y-73685400D01*
X166331900Y-73685400D01*
X166331900Y-71399400D01*
X166585900Y-71399400D01*
X166585900Y-73685400D01*
X168871900Y-73685400D01*
X168871900Y-71399400D01*
X169125900Y-71399400D01*
X169125900Y-73685400D01*
X170332717Y-73685400D01*
X170453858Y-73453374D01*
X170408122Y-73302586D01*
X170281584Y-73037456D01*
X170105754Y-72802107D01*
X169887388Y-72605583D01*
X169781130Y-72542400D01*
X169887388Y-72479217D01*
X170105754Y-72282693D01*
X170281584Y-72047344D01*
X170408122Y-71782214D01*
X170453858Y-71631426D01*
X181786992Y-71631426D01*
X181832728Y-71782214D01*
X181959266Y-72047344D01*
X182135096Y-72282693D01*
X182353462Y-72479217D01*
X182459720Y-72542400D01*
X182353462Y-72605583D01*
X182135096Y-72802107D01*
X181959266Y-73037456D01*
X181832728Y-73302586D01*
X181786992Y-73453374D01*
X181908133Y-73685400D01*
X183114950Y-73685400D01*
X183114950Y-71399400D01*
X183368950Y-71399400D01*
X183368950Y-73685400D01*
X185654950Y-73685400D01*
X185654950Y-71399400D01*
X185908950Y-71399400D01*
X185908950Y-73685400D01*
X187115767Y-73685400D01*
X187236908Y-73453374D01*
X187191172Y-73302586D01*
X187064634Y-73037456D01*
X186888804Y-72802107D01*
X186670438Y-72605583D01*
X186564180Y-72542400D01*
X186670438Y-72479217D01*
X186888804Y-72282693D01*
X187064634Y-72047344D01*
X187191172Y-71782214D01*
X187236908Y-71631426D01*
X198570042Y-71631426D01*
X198615778Y-71782214D01*
X198742316Y-72047344D01*
X198918146Y-72282693D01*
X199136512Y-72479217D01*
X199242770Y-72542400D01*
X199136512Y-72605583D01*
X198918146Y-72802107D01*
X198742316Y-73037456D01*
X198615778Y-73302586D01*
X198570042Y-73453374D01*
X198691183Y-73685400D01*
X199898000Y-73685400D01*
X199898000Y-71399400D01*
X200152000Y-71399400D01*
X200152000Y-73685400D01*
X202438000Y-73685400D01*
X202438000Y-71399400D01*
X202692000Y-71399400D01*
X202692000Y-73685400D01*
X203898817Y-73685400D01*
X204019958Y-73453374D01*
X203974222Y-73302586D01*
X203847684Y-73037456D01*
X203671854Y-72802107D01*
X203453488Y-72605583D01*
X203347230Y-72542400D01*
X203453488Y-72479217D01*
X203671854Y-72282693D01*
X203847684Y-72047344D01*
X203974222Y-71782214D01*
X204019958Y-71631426D01*
X203898817Y-71399400D01*
X202692000Y-71399400D01*
X202438000Y-71399400D01*
X200152000Y-71399400D01*
X199898000Y-71399400D01*
X198691183Y-71399400D01*
X198570042Y-71631426D01*
X187236908Y-71631426D01*
X187115767Y-71399400D01*
X185908950Y-71399400D01*
X185654950Y-71399400D01*
X183368950Y-71399400D01*
X183114950Y-71399400D01*
X181908133Y-71399400D01*
X181786992Y-71631426D01*
X170453858Y-71631426D01*
X170332717Y-71399400D01*
X169125900Y-71399400D01*
X168871900Y-71399400D01*
X166585900Y-71399400D01*
X166331900Y-71399400D01*
X165125083Y-71399400D01*
X165003942Y-71631426D01*
X153670808Y-71631426D01*
X153549667Y-71399400D01*
X152342850Y-71399400D01*
X152088850Y-71399400D01*
X149802850Y-71399400D01*
X149548850Y-71399400D01*
X148342033Y-71399400D01*
X148220892Y-71631426D01*
X136887758Y-71631426D01*
X136766617Y-71399400D01*
X135559800Y-71399400D01*
X135305800Y-71399400D01*
X133019800Y-71399400D01*
X132765800Y-71399400D01*
X131558983Y-71399400D01*
X131437842Y-71631426D01*
X127014740Y-71631426D01*
X127067297Y-71452302D01*
X126254200Y-70639205D01*
X125441103Y-71452302D01*
X122290894Y-71452302D01*
X122368837Y-71374359D01*
X122525880Y-71139327D01*
X122634053Y-70878174D01*
X122689200Y-70600935D01*
X122689200Y-70530112D01*
X124813983Y-70530112D01*
X124855413Y-70809730D01*
X124950597Y-71075892D01*
X125017529Y-71201114D01*
X125261498Y-71272697D01*
X126074595Y-70459600D01*
X126433805Y-70459600D01*
X127246902Y-71272697D01*
X127490871Y-71201114D01*
X127611771Y-70945604D01*
X127680500Y-70671416D01*
X127694417Y-70389088D01*
X127652987Y-70109470D01*
X127557803Y-69843308D01*
X127490871Y-69718086D01*
X127246902Y-69646503D01*
X126433805Y-70459600D01*
X126074595Y-70459600D01*
X125261498Y-69646503D01*
X125017529Y-69718086D01*
X124896629Y-69973596D01*
X124827900Y-70247784D01*
X124813983Y-70530112D01*
X122689200Y-70530112D01*
X122689200Y-70318265D01*
X122634053Y-70041026D01*
X122525880Y-69779873D01*
X122389200Y-69575316D01*
X122389200Y-69466898D01*
X125441103Y-69466898D01*
X126254200Y-70279995D01*
X127067297Y-69466898D01*
X126995714Y-69222929D01*
X126740204Y-69102029D01*
X126466016Y-69033300D01*
X126183688Y-69019383D01*
X125904070Y-69060813D01*
X125637908Y-69155997D01*
X125512686Y-69222929D01*
X125441103Y-69466898D01*
X122389200Y-69466898D01*
X122389200Y-69383982D01*
X122394691Y-69328230D01*
X122372777Y-69105731D01*
X122307876Y-68891783D01*
X122202484Y-68694607D01*
X122096189Y-68565086D01*
X122096187Y-68565084D01*
X122060649Y-68521781D01*
X122017346Y-68486243D01*
X121399903Y-67868800D01*
X131391128Y-67868800D01*
X131391128Y-69596000D01*
X131403388Y-69720482D01*
X131439698Y-69840180D01*
X131498663Y-69950494D01*
X131578015Y-70047185D01*
X131674706Y-70126537D01*
X131785020Y-70185502D01*
X131849374Y-70205024D01*
X131785946Y-70262107D01*
X131610116Y-70497456D01*
X131483578Y-70762586D01*
X131437842Y-70913374D01*
X131558983Y-71145400D01*
X132765800Y-71145400D01*
X132765800Y-71125400D01*
X133019800Y-71125400D01*
X133019800Y-71145400D01*
X135305800Y-71145400D01*
X135305800Y-71125400D01*
X135559800Y-71125400D01*
X135559800Y-71145400D01*
X136766617Y-71145400D01*
X136887758Y-70913374D01*
X136842022Y-70762586D01*
X136715484Y-70497456D01*
X136539654Y-70262107D01*
X136321288Y-70065583D01*
X136222697Y-70006959D01*
X136388102Y-69896439D01*
X136596839Y-69687702D01*
X136760842Y-69442253D01*
X136873810Y-69169525D01*
X136931400Y-68879999D01*
X136931400Y-68584801D01*
X136873810Y-68295275D01*
X136760842Y-68022547D01*
X136658113Y-67868800D01*
X148174178Y-67868800D01*
X148174178Y-69596000D01*
X148186438Y-69720482D01*
X148222748Y-69840180D01*
X148281713Y-69950494D01*
X148361065Y-70047185D01*
X148457756Y-70126537D01*
X148568070Y-70185502D01*
X148632424Y-70205024D01*
X148568996Y-70262107D01*
X148393166Y-70497456D01*
X148266628Y-70762586D01*
X148220892Y-70913374D01*
X148342033Y-71145400D01*
X149548850Y-71145400D01*
X149548850Y-71125400D01*
X149802850Y-71125400D01*
X149802850Y-71145400D01*
X152088850Y-71145400D01*
X152088850Y-71125400D01*
X152342850Y-71125400D01*
X152342850Y-71145400D01*
X153549667Y-71145400D01*
X153670808Y-70913374D01*
X153625072Y-70762586D01*
X153498534Y-70497456D01*
X153322704Y-70262107D01*
X153104338Y-70065583D01*
X153005747Y-70006959D01*
X153171152Y-69896439D01*
X153379889Y-69687702D01*
X153543892Y-69442253D01*
X153656860Y-69169525D01*
X153714450Y-68879999D01*
X153714450Y-68584801D01*
X153656860Y-68295275D01*
X153543892Y-68022547D01*
X153441163Y-67868800D01*
X164957228Y-67868800D01*
X164957228Y-69596000D01*
X164969488Y-69720482D01*
X165005798Y-69840180D01*
X165064763Y-69950494D01*
X165144115Y-70047185D01*
X165240806Y-70126537D01*
X165351120Y-70185502D01*
X165415474Y-70205024D01*
X165352046Y-70262107D01*
X165176216Y-70497456D01*
X165049678Y-70762586D01*
X165003942Y-70913374D01*
X165125083Y-71145400D01*
X166331900Y-71145400D01*
X166331900Y-71125400D01*
X166585900Y-71125400D01*
X166585900Y-71145400D01*
X168871900Y-71145400D01*
X168871900Y-71125400D01*
X169125900Y-71125400D01*
X169125900Y-71145400D01*
X170332717Y-71145400D01*
X170453858Y-70913374D01*
X170408122Y-70762586D01*
X170281584Y-70497456D01*
X170105754Y-70262107D01*
X169887388Y-70065583D01*
X169788797Y-70006959D01*
X169954202Y-69896439D01*
X170162939Y-69687702D01*
X170326942Y-69442253D01*
X170439910Y-69169525D01*
X170497500Y-68879999D01*
X170497500Y-68584801D01*
X170439910Y-68295275D01*
X170326942Y-68022547D01*
X170224213Y-67868800D01*
X181740278Y-67868800D01*
X181740278Y-69596000D01*
X181752538Y-69720482D01*
X181788848Y-69840180D01*
X181847813Y-69950494D01*
X181927165Y-70047185D01*
X182023856Y-70126537D01*
X182134170Y-70185502D01*
X182198524Y-70205024D01*
X182135096Y-70262107D01*
X181959266Y-70497456D01*
X181832728Y-70762586D01*
X181786992Y-70913374D01*
X181908133Y-71145400D01*
X183114950Y-71145400D01*
X183114950Y-71125400D01*
X183368950Y-71125400D01*
X183368950Y-71145400D01*
X185654950Y-71145400D01*
X185654950Y-71125400D01*
X185908950Y-71125400D01*
X185908950Y-71145400D01*
X187115767Y-71145400D01*
X187236908Y-70913374D01*
X187191172Y-70762586D01*
X187064634Y-70497456D01*
X186888804Y-70262107D01*
X186670438Y-70065583D01*
X186571847Y-70006959D01*
X186737252Y-69896439D01*
X186945989Y-69687702D01*
X187109992Y-69442253D01*
X187222960Y-69169525D01*
X187280550Y-68879999D01*
X187280550Y-68584801D01*
X187222960Y-68295275D01*
X187109992Y-68022547D01*
X187007263Y-67868800D01*
X198523328Y-67868800D01*
X198523328Y-69596000D01*
X198535588Y-69720482D01*
X198571898Y-69840180D01*
X198630863Y-69950494D01*
X198710215Y-70047185D01*
X198806906Y-70126537D01*
X198917220Y-70185502D01*
X198981574Y-70205024D01*
X198918146Y-70262107D01*
X198742316Y-70497456D01*
X198615778Y-70762586D01*
X198570042Y-70913374D01*
X198691183Y-71145400D01*
X199898000Y-71145400D01*
X199898000Y-71125400D01*
X200152000Y-71125400D01*
X200152000Y-71145400D01*
X202438000Y-71145400D01*
X202438000Y-71125400D01*
X202692000Y-71125400D01*
X202692000Y-71145400D01*
X203898817Y-71145400D01*
X204019958Y-70913374D01*
X203974222Y-70762586D01*
X203847684Y-70497456D01*
X203671854Y-70262107D01*
X203453488Y-70065583D01*
X203354897Y-70006959D01*
X203520302Y-69896439D01*
X203729039Y-69687702D01*
X203893042Y-69442253D01*
X204006010Y-69169525D01*
X204063600Y-68879999D01*
X204063600Y-68584801D01*
X204006010Y-68295275D01*
X203893042Y-68022547D01*
X203729039Y-67777098D01*
X203520302Y-67568361D01*
X203274853Y-67404358D01*
X203002125Y-67291390D01*
X202712599Y-67233800D01*
X202417401Y-67233800D01*
X202127875Y-67291390D01*
X201855147Y-67404358D01*
X201609698Y-67568361D01*
X201495636Y-67682423D01*
X201478102Y-67624620D01*
X201419137Y-67514306D01*
X201339785Y-67417615D01*
X201243094Y-67338263D01*
X201132780Y-67279298D01*
X201013082Y-67242988D01*
X200888600Y-67230728D01*
X199161400Y-67230728D01*
X199036918Y-67242988D01*
X198917220Y-67279298D01*
X198806906Y-67338263D01*
X198710215Y-67417615D01*
X198630863Y-67514306D01*
X198571898Y-67624620D01*
X198535588Y-67744318D01*
X198523328Y-67868800D01*
X187007263Y-67868800D01*
X186945989Y-67777098D01*
X186737252Y-67568361D01*
X186491803Y-67404358D01*
X186219075Y-67291390D01*
X185929549Y-67233800D01*
X185634351Y-67233800D01*
X185344825Y-67291390D01*
X185072097Y-67404358D01*
X184826648Y-67568361D01*
X184712586Y-67682423D01*
X184695052Y-67624620D01*
X184636087Y-67514306D01*
X184556735Y-67417615D01*
X184460044Y-67338263D01*
X184349730Y-67279298D01*
X184230032Y-67242988D01*
X184105550Y-67230728D01*
X182378350Y-67230728D01*
X182253868Y-67242988D01*
X182134170Y-67279298D01*
X182023856Y-67338263D01*
X181927165Y-67417615D01*
X181847813Y-67514306D01*
X181788848Y-67624620D01*
X181752538Y-67744318D01*
X181740278Y-67868800D01*
X170224213Y-67868800D01*
X170162939Y-67777098D01*
X169954202Y-67568361D01*
X169708753Y-67404358D01*
X169436025Y-67291390D01*
X169146499Y-67233800D01*
X168851301Y-67233800D01*
X168561775Y-67291390D01*
X168289047Y-67404358D01*
X168043598Y-67568361D01*
X167929536Y-67682423D01*
X167912002Y-67624620D01*
X167853037Y-67514306D01*
X167773685Y-67417615D01*
X167676994Y-67338263D01*
X167566680Y-67279298D01*
X167446982Y-67242988D01*
X167322500Y-67230728D01*
X165595300Y-67230728D01*
X165470818Y-67242988D01*
X165351120Y-67279298D01*
X165240806Y-67338263D01*
X165144115Y-67417615D01*
X165064763Y-67514306D01*
X165005798Y-67624620D01*
X164969488Y-67744318D01*
X164957228Y-67868800D01*
X153441163Y-67868800D01*
X153379889Y-67777098D01*
X153171152Y-67568361D01*
X152925703Y-67404358D01*
X152652975Y-67291390D01*
X152363449Y-67233800D01*
X152068251Y-67233800D01*
X151778725Y-67291390D01*
X151505997Y-67404358D01*
X151260548Y-67568361D01*
X151146486Y-67682423D01*
X151128952Y-67624620D01*
X151069987Y-67514306D01*
X150990635Y-67417615D01*
X150893944Y-67338263D01*
X150783630Y-67279298D01*
X150663932Y-67242988D01*
X150539450Y-67230728D01*
X148812250Y-67230728D01*
X148687768Y-67242988D01*
X148568070Y-67279298D01*
X148457756Y-67338263D01*
X148361065Y-67417615D01*
X148281713Y-67514306D01*
X148222748Y-67624620D01*
X148186438Y-67744318D01*
X148174178Y-67868800D01*
X136658113Y-67868800D01*
X136596839Y-67777098D01*
X136388102Y-67568361D01*
X136142653Y-67404358D01*
X135869925Y-67291390D01*
X135580399Y-67233800D01*
X135285201Y-67233800D01*
X134995675Y-67291390D01*
X134722947Y-67404358D01*
X134477498Y-67568361D01*
X134363436Y-67682423D01*
X134345902Y-67624620D01*
X134286937Y-67514306D01*
X134207585Y-67417615D01*
X134110894Y-67338263D01*
X134000580Y-67279298D01*
X133880882Y-67242988D01*
X133756400Y-67230728D01*
X132029200Y-67230728D01*
X131904718Y-67242988D01*
X131785020Y-67279298D01*
X131674706Y-67338263D01*
X131578015Y-67417615D01*
X131498663Y-67514306D01*
X131439698Y-67624620D01*
X131403388Y-67744318D01*
X131391128Y-67868800D01*
X121399903Y-67868800D01*
X119700204Y-66169102D01*
X121741903Y-66169102D01*
X121813486Y-66413071D01*
X122068996Y-66533971D01*
X122343184Y-66602700D01*
X122625512Y-66616617D01*
X122905130Y-66575187D01*
X123171292Y-66480003D01*
X123296514Y-66413071D01*
X123368097Y-66169102D01*
X122555000Y-65356005D01*
X121741903Y-66169102D01*
X119700204Y-66169102D01*
X119646166Y-66115065D01*
X119610619Y-66071751D01*
X119437793Y-65929916D01*
X119240617Y-65824524D01*
X119026669Y-65759623D01*
X118859922Y-65743200D01*
X118859921Y-65743200D01*
X118804170Y-65737709D01*
X118748419Y-65743200D01*
X111612552Y-65743200D01*
X111556800Y-65737709D01*
X111501048Y-65743200D01*
X111334301Y-65759623D01*
X111120353Y-65824524D01*
X110923177Y-65929916D01*
X110750351Y-66071751D01*
X110714808Y-66115060D01*
X110234864Y-66595005D01*
X110191551Y-66630551D01*
X110049716Y-66803377D01*
X109944325Y-67000553D01*
X109944324Y-67000554D01*
X109879423Y-67214502D01*
X109857509Y-67437000D01*
X109660000Y-67437000D01*
X109660000Y-65246912D01*
X121114783Y-65246912D01*
X121156213Y-65526530D01*
X121251397Y-65792692D01*
X121318329Y-65917914D01*
X121562298Y-65989497D01*
X122375395Y-65176400D01*
X122734605Y-65176400D01*
X123547702Y-65989497D01*
X123791671Y-65917914D01*
X123805324Y-65889059D01*
X123940363Y-66091159D01*
X124140241Y-66291037D01*
X124375273Y-66448080D01*
X124636426Y-66556253D01*
X124913665Y-66611400D01*
X125196335Y-66611400D01*
X125473574Y-66556253D01*
X125734727Y-66448080D01*
X125969759Y-66291037D01*
X126169637Y-66091159D01*
X126326680Y-65856127D01*
X126434853Y-65594974D01*
X126490000Y-65317735D01*
X126490000Y-65035065D01*
X126434853Y-64757826D01*
X126326680Y-64496673D01*
X126169637Y-64261641D01*
X125969759Y-64061763D01*
X125734727Y-63904720D01*
X125473574Y-63796547D01*
X125196335Y-63741400D01*
X124913665Y-63741400D01*
X124636426Y-63796547D01*
X124375273Y-63904720D01*
X124140241Y-64061763D01*
X123940363Y-64261641D01*
X123806308Y-64462269D01*
X123791671Y-64434886D01*
X123547702Y-64363303D01*
X122734605Y-65176400D01*
X122375395Y-65176400D01*
X121562298Y-64363303D01*
X121318329Y-64434886D01*
X121197429Y-64690396D01*
X121128700Y-64964584D01*
X121114783Y-65246912D01*
X109660000Y-65246912D01*
X109660000Y-64183698D01*
X121741903Y-64183698D01*
X122555000Y-64996795D01*
X123368097Y-64183698D01*
X123296514Y-63939729D01*
X123041004Y-63818829D01*
X122766816Y-63750100D01*
X122484488Y-63736183D01*
X122204870Y-63777613D01*
X121938708Y-63872797D01*
X121813486Y-63939729D01*
X121741903Y-64183698D01*
X109660000Y-64183698D01*
X109660000Y-57818872D01*
X111180300Y-57818872D01*
X111180300Y-58259128D01*
X111266190Y-58690925D01*
X111434669Y-59097669D01*
X111679262Y-59463729D01*
X111990571Y-59775038D01*
X112356631Y-60019631D01*
X112763375Y-60188110D01*
X113195172Y-60274000D01*
X113635428Y-60274000D01*
X114067225Y-60188110D01*
X114473969Y-60019631D01*
X114840029Y-59775038D01*
X115151338Y-59463729D01*
X115395931Y-59097669D01*
X115564410Y-58690925D01*
X115650300Y-58259128D01*
X115650300Y-57818872D01*
X115564410Y-57387075D01*
X115395931Y-56980331D01*
X115151338Y-56614271D01*
X114840029Y-56302962D01*
X114473969Y-56058369D01*
X114067225Y-55889890D01*
X113635428Y-55804000D01*
X113195172Y-55804000D01*
X112763375Y-55889890D01*
X112356631Y-56058369D01*
X111990571Y-56302962D01*
X111679262Y-56614271D01*
X111434669Y-56980331D01*
X111266190Y-57387075D01*
X111180300Y-57818872D01*
X109660000Y-57818872D01*
X109660000Y-55041400D01*
X117170600Y-55041400D01*
X117170601Y-61308571D01*
G37*
X117170601Y-61308571D02*
X117167407Y-61341000D01*
X117180150Y-61470383D01*
X117217890Y-61594793D01*
X117279175Y-61709450D01*
X117361652Y-61809948D01*
X117462150Y-61892425D01*
X117576807Y-61953710D01*
X117701217Y-61991450D01*
X117798181Y-62001000D01*
X117830600Y-62004193D01*
X117863019Y-62001000D01*
X154907581Y-62001000D01*
X154940000Y-62004193D01*
X154972419Y-62001000D01*
X155069383Y-61991450D01*
X155193793Y-61953710D01*
X155308450Y-61892425D01*
X155408948Y-61809948D01*
X155491425Y-61709450D01*
X155552710Y-61594793D01*
X155590450Y-61470383D01*
X155603193Y-61341000D01*
X155600000Y-61308581D01*
X155600000Y-57818872D01*
X156265000Y-57818872D01*
X156265000Y-58259128D01*
X156350890Y-58690925D01*
X156519369Y-59097669D01*
X156763962Y-59463729D01*
X157075271Y-59775038D01*
X157441331Y-60019631D01*
X157848075Y-60188110D01*
X158279872Y-60274000D01*
X158720128Y-60274000D01*
X159151925Y-60188110D01*
X159558669Y-60019631D01*
X159924729Y-59775038D01*
X160236038Y-59463729D01*
X160480631Y-59097669D01*
X160649110Y-58690925D01*
X160735000Y-58259128D01*
X160735000Y-57818872D01*
X160649110Y-57387075D01*
X160480631Y-56980331D01*
X160236038Y-56614271D01*
X159924729Y-56302962D01*
X159558669Y-56058369D01*
X159151925Y-55889890D01*
X158720128Y-55804000D01*
X158279872Y-55804000D01*
X157848075Y-55889890D01*
X157441331Y-56058369D01*
X157075271Y-56302962D01*
X156763962Y-56614271D01*
X156519369Y-56980331D01*
X156350890Y-57387075D01*
X156265000Y-57818872D01*
X155600000Y-57818872D01*
X155600000Y-55041400D01*
X161392000Y-55041400D01*
X161392001Y-61308571D01*
X161388807Y-61341000D01*
X161401550Y-61470383D01*
X161439290Y-61594793D01*
X161500575Y-61709450D01*
X161583052Y-61809948D01*
X161683550Y-61892425D01*
X161798207Y-61953710D01*
X161922617Y-61991450D01*
X162019581Y-62001000D01*
X162052000Y-62004193D01*
X162084419Y-62001000D01*
X197528781Y-62001000D01*
X197561200Y-62004193D01*
X197593619Y-62001000D01*
X197690583Y-61991450D01*
X197814993Y-61953710D01*
X197929650Y-61892425D01*
X198030148Y-61809948D01*
X198112625Y-61709450D01*
X198173910Y-61594793D01*
X198211650Y-61470383D01*
X198224393Y-61341000D01*
X198221200Y-61308581D01*
X198221200Y-57818872D01*
X199923600Y-57818872D01*
X199923600Y-58259128D01*
X200009490Y-58690925D01*
X200177969Y-59097669D01*
X200422562Y-59463729D01*
X200733871Y-59775038D01*
X201099931Y-60019631D01*
X201506675Y-60188110D01*
X201938472Y-60274000D01*
X202378728Y-60274000D01*
X202810525Y-60188110D01*
X203217269Y-60019631D01*
X203583329Y-59775038D01*
X203894638Y-59463729D01*
X204139231Y-59097669D01*
X204307710Y-58690925D01*
X204393600Y-58259128D01*
X204393600Y-57818872D01*
X204307710Y-57387075D01*
X204139231Y-56980331D01*
X203894638Y-56614271D01*
X203583329Y-56302962D01*
X203217269Y-56058369D01*
X202810525Y-55889890D01*
X202378728Y-55804000D01*
X201938472Y-55804000D01*
X201506675Y-55889890D01*
X201099931Y-56058369D01*
X200733871Y-56302962D01*
X200422562Y-56614271D01*
X200177969Y-56980331D01*
X200009490Y-57387075D01*
X199923600Y-57818872D01*
X198221200Y-57818872D01*
X198221200Y-55041400D01*
X206096001Y-55041400D01*
X206096000Y-61308581D01*
X206096000Y-61308582D01*
X206096001Y-94709572D01*
X206096000Y-94709582D01*
X206096001Y-101041600D01*
X198221200Y-101041600D01*
X198221200Y-97831672D01*
X199923600Y-97831672D01*
X199923600Y-98271928D01*
X200009490Y-98703725D01*
X200177969Y-99110469D01*
X200422562Y-99476529D01*
X200733871Y-99787838D01*
X201099931Y-100032431D01*
X201506675Y-100200910D01*
X201938472Y-100286800D01*
X202378728Y-100286800D01*
X202810525Y-100200910D01*
X203217269Y-100032431D01*
X203583329Y-99787838D01*
X203894638Y-99476529D01*
X204139231Y-99110469D01*
X204307710Y-98703725D01*
X204393600Y-98271928D01*
X204393600Y-97831672D01*
X204307710Y-97399875D01*
X204139231Y-96993131D01*
X203894638Y-96627071D01*
X203583329Y-96315762D01*
X203217269Y-96071169D01*
X202810525Y-95902690D01*
X202378728Y-95816800D01*
X201938472Y-95816800D01*
X201506675Y-95902690D01*
X201099931Y-96071169D01*
X200733871Y-96315762D01*
X200422562Y-96627071D01*
X200177969Y-96993131D01*
X200009490Y-97399875D01*
X199923600Y-97831672D01*
X198221200Y-97831672D01*
X198221200Y-94774419D01*
X198224393Y-94742000D01*
X198211650Y-94612617D01*
X198173910Y-94488207D01*
X198112625Y-94373550D01*
X198030148Y-94273052D01*
X197929650Y-94190575D01*
X197814993Y-94129290D01*
X197690583Y-94091550D01*
X197593619Y-94082000D01*
X197561200Y-94078807D01*
X197528781Y-94082000D01*
X162084419Y-94082000D01*
X162052000Y-94078807D01*
X162019581Y-94082000D01*
X161922617Y-94091550D01*
X161798207Y-94129290D01*
X161683550Y-94190575D01*
X161583052Y-94273052D01*
X161500575Y-94373550D01*
X161439290Y-94488207D01*
X161401550Y-94612617D01*
X161388807Y-94742000D01*
X161392001Y-94774429D01*
X161392000Y-101041600D01*
X155600000Y-101041600D01*
X155600000Y-97831672D01*
X156265000Y-97831672D01*
X156265000Y-98271928D01*
X156350890Y-98703725D01*
X156519369Y-99110469D01*
X156763962Y-99476529D01*
X157075271Y-99787838D01*
X157441331Y-100032431D01*
X157848075Y-100200910D01*
X158279872Y-100286800D01*
X158720128Y-100286800D01*
X159151925Y-100200910D01*
X159558669Y-100032431D01*
X159924729Y-99787838D01*
X160236038Y-99476529D01*
X160480631Y-99110469D01*
X160649110Y-98703725D01*
X160735000Y-98271928D01*
X160735000Y-97831672D01*
X160649110Y-97399875D01*
X160480631Y-96993131D01*
X160236038Y-96627071D01*
X159924729Y-96315762D01*
X159558669Y-96071169D01*
X159151925Y-95902690D01*
X158720128Y-95816800D01*
X158279872Y-95816800D01*
X157848075Y-95902690D01*
X157441331Y-96071169D01*
X157075271Y-96315762D01*
X156763962Y-96627071D01*
X156519369Y-96993131D01*
X156350890Y-97399875D01*
X156265000Y-97831672D01*
X155600000Y-97831672D01*
X155600000Y-94774419D01*
X155603193Y-94742000D01*
X155590450Y-94612617D01*
X155552710Y-94488207D01*
X155491425Y-94373550D01*
X155408948Y-94273052D01*
X155308450Y-94190575D01*
X155193793Y-94129290D01*
X155069383Y-94091550D01*
X154972419Y-94082000D01*
X154940000Y-94078807D01*
X154907581Y-94082000D01*
X117863019Y-94082000D01*
X117830600Y-94078807D01*
X117798181Y-94082000D01*
X117701217Y-94091550D01*
X117576807Y-94129290D01*
X117462150Y-94190575D01*
X117361652Y-94273052D01*
X117279175Y-94373550D01*
X117217890Y-94488207D01*
X117180150Y-94612617D01*
X117167407Y-94742000D01*
X117170601Y-94774429D01*
X117170600Y-101041600D01*
X109660000Y-101041600D01*
X109660000Y-97831672D01*
X111180300Y-97831672D01*
X111180300Y-98271928D01*
X111266190Y-98703725D01*
X111434669Y-99110469D01*
X111679262Y-99476529D01*
X111990571Y-99787838D01*
X112356631Y-100032431D01*
X112763375Y-100200910D01*
X113195172Y-100286800D01*
X113635428Y-100286800D01*
X114067225Y-100200910D01*
X114473969Y-100032431D01*
X114840029Y-99787838D01*
X115151338Y-99476529D01*
X115395931Y-99110469D01*
X115564410Y-98703725D01*
X115650300Y-98271928D01*
X115650300Y-97831672D01*
X115564410Y-97399875D01*
X115395931Y-96993131D01*
X115151338Y-96627071D01*
X114840029Y-96315762D01*
X114473969Y-96071169D01*
X114067225Y-95902690D01*
X113635428Y-95816800D01*
X113195172Y-95816800D01*
X112763375Y-95902690D01*
X112356631Y-96071169D01*
X111990571Y-96315762D01*
X111679262Y-96627071D01*
X111434669Y-96993131D01*
X111266190Y-97399875D01*
X111180300Y-97831672D01*
X109660000Y-97831672D01*
X109660000Y-91390416D01*
X118835600Y-91390416D01*
X118835600Y-91692784D01*
X118894589Y-91989343D01*
X119010301Y-92268695D01*
X119178288Y-92520105D01*
X119392095Y-92733912D01*
X119643505Y-92901899D01*
X119922857Y-93017611D01*
X120219416Y-93076600D01*
X120521784Y-93076600D01*
X120818343Y-93017611D01*
X121097695Y-92901899D01*
X121349105Y-92733912D01*
X121415544Y-92667473D01*
X121421098Y-92685780D01*
X121480063Y-92796094D01*
X121559415Y-92892785D01*
X121656106Y-92972137D01*
X121766420Y-93031102D01*
X121886118Y-93067412D01*
X122010600Y-93079672D01*
X122624850Y-93076600D01*
X122783600Y-92917850D01*
X122783600Y-91668600D01*
X122763600Y-91668600D01*
X122763600Y-91414600D01*
X122783600Y-91414600D01*
X122783600Y-90165350D01*
X123037600Y-90165350D01*
X123037600Y-91414600D01*
X123057600Y-91414600D01*
X123057600Y-91668600D01*
X123037600Y-91668600D01*
X123037600Y-92917850D01*
X123196350Y-93076600D01*
X123810600Y-93079672D01*
X123935082Y-93067412D01*
X124054780Y-93031102D01*
X124165094Y-92972137D01*
X124261785Y-92892785D01*
X124341137Y-92796094D01*
X124396210Y-92693062D01*
X124424778Y-92721630D01*
X124540726Y-92605682D01*
X124624408Y-92859861D01*
X124896975Y-92990758D01*
X125189842Y-93065965D01*
X125491753Y-93082591D01*
X125791107Y-93039997D01*
X126076399Y-92939822D01*
X126225992Y-92859861D01*
X126309674Y-92605682D01*
X126425622Y-92721630D01*
X126472387Y-92674865D01*
X126475698Y-92685780D01*
X126534663Y-92796094D01*
X126614015Y-92892785D01*
X126710706Y-92972137D01*
X126821020Y-93031102D01*
X126940718Y-93067412D01*
X127065200Y-93079672D01*
X128865200Y-93079672D01*
X128989682Y-93067412D01*
X129109380Y-93031102D01*
X129219694Y-92972137D01*
X129316385Y-92892785D01*
X129395737Y-92796094D01*
X129454702Y-92685780D01*
X129491012Y-92566082D01*
X129503272Y-92441600D01*
X129503272Y-90641600D01*
X129491012Y-90517118D01*
X129454702Y-90397420D01*
X129395737Y-90287106D01*
X129316385Y-90190415D01*
X129219694Y-90111063D01*
X129109380Y-90052098D01*
X128989682Y-90015788D01*
X128865200Y-90003528D01*
X127065200Y-90003528D01*
X126940718Y-90015788D01*
X126821020Y-90052098D01*
X126710706Y-90111063D01*
X126614015Y-90190415D01*
X126534663Y-90287106D01*
X126475698Y-90397420D01*
X126472387Y-90408335D01*
X126425622Y-90361570D01*
X126309674Y-90477518D01*
X126225992Y-90223339D01*
X125953425Y-90092442D01*
X125660558Y-90017235D01*
X125358647Y-90000609D01*
X125059293Y-90043203D01*
X124774001Y-90143378D01*
X124624408Y-90223339D01*
X124540726Y-90477518D01*
X124424778Y-90361570D01*
X124396210Y-90390138D01*
X124341137Y-90287106D01*
X124261785Y-90190415D01*
X124165094Y-90111063D01*
X124054780Y-90052098D01*
X123935082Y-90015788D01*
X123810600Y-90003528D01*
X123196350Y-90006600D01*
X123037600Y-90165350D01*
X122783600Y-90165350D01*
X122624850Y-90006600D01*
X122010600Y-90003528D01*
X121886118Y-90015788D01*
X121766420Y-90052098D01*
X121656106Y-90111063D01*
X121559415Y-90190415D01*
X121480063Y-90287106D01*
X121421098Y-90397420D01*
X121415544Y-90415727D01*
X121349105Y-90349288D01*
X121097695Y-90181301D01*
X120818343Y-90065589D01*
X120521784Y-90006600D01*
X120219416Y-90006600D01*
X119922857Y-90065589D01*
X119643505Y-90181301D01*
X119392095Y-90349288D01*
X119178288Y-90563095D01*
X119010301Y-90814505D01*
X118894589Y-91093857D01*
X118835600Y-91390416D01*
X109660000Y-91390416D01*
X109660000Y-67437000D01*
X109857509Y-67437000D01*
X109863000Y-67492751D01*
X109863001Y-87752038D01*
X109857509Y-87807800D01*
X109879423Y-88030298D01*
X109944324Y-88244246D01*
X109993384Y-88336030D01*
X110049717Y-88441423D01*
X110191552Y-88614249D01*
X110234860Y-88649791D01*
X111375208Y-89790140D01*
X111410751Y-89833449D01*
X111583577Y-89975284D01*
X111780753Y-90080676D01*
X111944905Y-90130471D01*
X111994700Y-90145577D01*
X112015693Y-90147644D01*
X112161448Y-90162000D01*
X112161455Y-90162000D01*
X112217199Y-90167490D01*
X112272943Y-90162000D01*
X118638449Y-90162000D01*
X118694200Y-90167491D01*
X118749951Y-90162000D01*
X118749952Y-90162000D01*
X118916699Y-90145577D01*
X119130647Y-90080676D01*
X119327823Y-89975284D01*
X119500649Y-89833449D01*
X119536196Y-89790135D01*
X120420882Y-88905450D01*
X120662174Y-88857453D01*
X120923327Y-88749280D01*
X121158359Y-88592237D01*
X121358237Y-88392359D01*
X121515280Y-88157327D01*
X121623453Y-87896174D01*
X121678600Y-87618935D01*
X121678600Y-87336265D01*
X121623453Y-87059026D01*
X121531073Y-86836001D01*
X126576127Y-86836001D01*
X126483747Y-87059026D01*
X126428600Y-87336265D01*
X126428600Y-87618935D01*
X126483747Y-87896174D01*
X126591920Y-88157327D01*
X126748963Y-88392359D01*
X126948841Y-88592237D01*
X127183873Y-88749280D01*
X127445026Y-88857453D01*
X127722265Y-88912600D01*
X128004935Y-88912600D01*
X128282174Y-88857453D01*
X128543327Y-88749280D01*
X128778359Y-88592237D01*
X128978237Y-88392359D01*
X129135280Y-88157327D01*
X129243453Y-87896174D01*
X129298600Y-87618935D01*
X129298600Y-87336265D01*
X129243453Y-87059026D01*
X129151073Y-86836001D01*
X131108448Y-86836001D01*
X131164199Y-86841492D01*
X131219950Y-86836001D01*
X131219951Y-86836001D01*
X131386698Y-86819578D01*
X131423709Y-86808351D01*
X131451790Y-86949525D01*
X131564758Y-87222253D01*
X131728761Y-87467702D01*
X131937498Y-87676439D01*
X132182947Y-87840442D01*
X132455675Y-87953410D01*
X132745201Y-88011000D01*
X133040399Y-88011000D01*
X133329925Y-87953410D01*
X133602653Y-87840442D01*
X133848102Y-87676439D01*
X134056839Y-87467702D01*
X134162800Y-87309119D01*
X134268761Y-87467702D01*
X134477498Y-87676439D01*
X134722947Y-87840442D01*
X134995675Y-87953410D01*
X135285201Y-88011000D01*
X135580399Y-88011000D01*
X135869925Y-87953410D01*
X136142653Y-87840442D01*
X136388102Y-87676439D01*
X136596839Y-87467702D01*
X136760842Y-87222253D01*
X136873810Y-86949525D01*
X136931400Y-86659999D01*
X136931400Y-86364801D01*
X136873810Y-86075275D01*
X136760842Y-85802547D01*
X136596839Y-85557098D01*
X136388102Y-85348361D01*
X136229519Y-85242400D01*
X136388102Y-85136439D01*
X136596839Y-84927702D01*
X136760842Y-84682253D01*
X136873810Y-84409525D01*
X136931400Y-84119999D01*
X136931400Y-83824801D01*
X136873810Y-83535275D01*
X136760842Y-83262547D01*
X136596839Y-83017098D01*
X136388102Y-82808361D01*
X136229519Y-82702400D01*
X136388102Y-82596439D01*
X136596839Y-82387702D01*
X136760842Y-82142253D01*
X136873810Y-81869525D01*
X136931400Y-81579999D01*
X136931400Y-81284801D01*
X136873810Y-80995275D01*
X136760842Y-80722547D01*
X136596839Y-80477098D01*
X136388102Y-80268361D01*
X136229519Y-80162400D01*
X136388102Y-80056439D01*
X136596839Y-79847702D01*
X136760842Y-79602253D01*
X136873810Y-79329525D01*
X136931400Y-79039999D01*
X136931400Y-78744801D01*
X148177250Y-78744801D01*
X148177250Y-79039999D01*
X148234840Y-79329525D01*
X148347808Y-79602253D01*
X148511811Y-79847702D01*
X148720548Y-80056439D01*
X148879131Y-80162400D01*
X148720548Y-80268361D01*
X148511811Y-80477098D01*
X148347808Y-80722547D01*
X148234840Y-80995275D01*
X148177250Y-81284801D01*
X148177250Y-81579999D01*
X148234840Y-81869525D01*
X148347808Y-82142253D01*
X148511811Y-82387702D01*
X148720548Y-82596439D01*
X148879131Y-82702400D01*
X148720548Y-82808361D01*
X148511811Y-83017098D01*
X148347808Y-83262547D01*
X148234840Y-83535275D01*
X148177250Y-83824801D01*
X148177250Y-84119999D01*
X148234840Y-84409525D01*
X148347808Y-84682253D01*
X148511811Y-84927702D01*
X148720548Y-85136439D01*
X148879131Y-85242400D01*
X148720548Y-85348361D01*
X148511811Y-85557098D01*
X148347808Y-85802547D01*
X148234840Y-86075275D01*
X148177250Y-86364801D01*
X148177250Y-86659999D01*
X148234840Y-86949525D01*
X148347808Y-87222253D01*
X148511811Y-87467702D01*
X148720548Y-87676439D01*
X148965997Y-87840442D01*
X149238725Y-87953410D01*
X149528251Y-88011000D01*
X149823449Y-88011000D01*
X150112975Y-87953410D01*
X150385703Y-87840442D01*
X150631152Y-87676439D01*
X150839889Y-87467702D01*
X150945850Y-87309119D01*
X151051811Y-87467702D01*
X151260548Y-87676439D01*
X151505997Y-87840442D01*
X151778725Y-87953410D01*
X152068251Y-88011000D01*
X152363449Y-88011000D01*
X152652975Y-87953410D01*
X152925703Y-87840442D01*
X153171152Y-87676439D01*
X153379889Y-87467702D01*
X153543892Y-87222253D01*
X153656860Y-86949525D01*
X153714450Y-86659999D01*
X153714450Y-86364801D01*
X153656860Y-86075275D01*
X153543892Y-85802547D01*
X153379889Y-85557098D01*
X153171152Y-85348361D01*
X153012569Y-85242400D01*
X153171152Y-85136439D01*
X153379889Y-84927702D01*
X153543892Y-84682253D01*
X153656860Y-84409525D01*
X153714450Y-84119999D01*
X153714450Y-83824801D01*
X153656860Y-83535275D01*
X153543892Y-83262547D01*
X153379889Y-83017098D01*
X153171152Y-82808361D01*
X153012569Y-82702400D01*
X153171152Y-82596439D01*
X153379889Y-82387702D01*
X153543892Y-82142253D01*
X153656860Y-81869525D01*
X153714450Y-81579999D01*
X153714450Y-81284801D01*
X153656860Y-80995275D01*
X153543892Y-80722547D01*
X153379889Y-80477098D01*
X153171152Y-80268361D01*
X153012569Y-80162400D01*
X153171152Y-80056439D01*
X153379889Y-79847702D01*
X153543892Y-79602253D01*
X153656860Y-79329525D01*
X153714450Y-79039999D01*
X153714450Y-78744801D01*
X164960300Y-78744801D01*
X164960300Y-79039999D01*
X165017890Y-79329525D01*
X165130858Y-79602253D01*
X165294861Y-79847702D01*
X165503598Y-80056439D01*
X165662181Y-80162400D01*
X165503598Y-80268361D01*
X165294861Y-80477098D01*
X165130858Y-80722547D01*
X165017890Y-80995275D01*
X164960300Y-81284801D01*
X164960300Y-81579999D01*
X165017890Y-81869525D01*
X165130858Y-82142253D01*
X165294861Y-82387702D01*
X165503598Y-82596439D01*
X165662181Y-82702400D01*
X165503598Y-82808361D01*
X165294861Y-83017098D01*
X165130858Y-83262547D01*
X165017890Y-83535275D01*
X164960300Y-83824801D01*
X164960300Y-84119999D01*
X165017890Y-84409525D01*
X165130858Y-84682253D01*
X165294861Y-84927702D01*
X165503598Y-85136439D01*
X165662181Y-85242400D01*
X165503598Y-85348361D01*
X165294861Y-85557098D01*
X165130858Y-85802547D01*
X165017890Y-86075275D01*
X164960300Y-86364801D01*
X164960300Y-86659999D01*
X165017890Y-86949525D01*
X165130858Y-87222253D01*
X165294861Y-87467702D01*
X165503598Y-87676439D01*
X165749047Y-87840442D01*
X166021775Y-87953410D01*
X166311301Y-88011000D01*
X166606499Y-88011000D01*
X166896025Y-87953410D01*
X167168753Y-87840442D01*
X167414202Y-87676439D01*
X167622939Y-87467702D01*
X167728900Y-87309119D01*
X167834861Y-87467702D01*
X168043598Y-87676439D01*
X168289047Y-87840442D01*
X168561775Y-87953410D01*
X168851301Y-88011000D01*
X169146499Y-88011000D01*
X169436025Y-87953410D01*
X169708753Y-87840442D01*
X169954202Y-87676439D01*
X170162939Y-87467702D01*
X170326942Y-87222253D01*
X170439910Y-86949525D01*
X170497500Y-86659999D01*
X170497500Y-86364801D01*
X170439910Y-86075275D01*
X170326942Y-85802547D01*
X170162939Y-85557098D01*
X169954202Y-85348361D01*
X169795619Y-85242400D01*
X169954202Y-85136439D01*
X170162939Y-84927702D01*
X170326942Y-84682253D01*
X170439910Y-84409525D01*
X170497500Y-84119999D01*
X170497500Y-83824801D01*
X170439910Y-83535275D01*
X170326942Y-83262547D01*
X170162939Y-83017098D01*
X169954202Y-82808361D01*
X169795619Y-82702400D01*
X169954202Y-82596439D01*
X170162939Y-82387702D01*
X170326942Y-82142253D01*
X170439910Y-81869525D01*
X170497500Y-81579999D01*
X170497500Y-81284801D01*
X170439910Y-80995275D01*
X170326942Y-80722547D01*
X170162939Y-80477098D01*
X169954202Y-80268361D01*
X169795619Y-80162400D01*
X169954202Y-80056439D01*
X170162939Y-79847702D01*
X170326942Y-79602253D01*
X170439910Y-79329525D01*
X170497500Y-79039999D01*
X170497500Y-78744801D01*
X181743350Y-78744801D01*
X181743350Y-79039999D01*
X181800940Y-79329525D01*
X181913908Y-79602253D01*
X182077911Y-79847702D01*
X182286648Y-80056439D01*
X182445231Y-80162400D01*
X182286648Y-80268361D01*
X182077911Y-80477098D01*
X181913908Y-80722547D01*
X181800940Y-80995275D01*
X181743350Y-81284801D01*
X181743350Y-81579999D01*
X181800940Y-81869525D01*
X181913908Y-82142253D01*
X182077911Y-82387702D01*
X182286648Y-82596439D01*
X182445231Y-82702400D01*
X182286648Y-82808361D01*
X182077911Y-83017098D01*
X181913908Y-83262547D01*
X181800940Y-83535275D01*
X181743350Y-83824801D01*
X181743350Y-84119999D01*
X181800940Y-84409525D01*
X181913908Y-84682253D01*
X182077911Y-84927702D01*
X182286648Y-85136439D01*
X182445231Y-85242400D01*
X182286648Y-85348361D01*
X182077911Y-85557098D01*
X181913908Y-85802547D01*
X181800940Y-86075275D01*
X181743350Y-86364801D01*
X181743350Y-86659999D01*
X181800940Y-86949525D01*
X181913908Y-87222253D01*
X182077911Y-87467702D01*
X182286648Y-87676439D01*
X182532097Y-87840442D01*
X182804825Y-87953410D01*
X183094351Y-88011000D01*
X183389549Y-88011000D01*
X183679075Y-87953410D01*
X183951803Y-87840442D01*
X184197252Y-87676439D01*
X184405989Y-87467702D01*
X184511950Y-87309119D01*
X184617911Y-87467702D01*
X184826648Y-87676439D01*
X185072097Y-87840442D01*
X185344825Y-87953410D01*
X185634351Y-88011000D01*
X185929549Y-88011000D01*
X186219075Y-87953410D01*
X186491803Y-87840442D01*
X186737252Y-87676439D01*
X186945989Y-87467702D01*
X187109992Y-87222253D01*
X187222960Y-86949525D01*
X187280550Y-86659999D01*
X187280550Y-86364801D01*
X187222960Y-86075275D01*
X187109992Y-85802547D01*
X186945989Y-85557098D01*
X186737252Y-85348361D01*
X186578669Y-85242400D01*
X186737252Y-85136439D01*
X186945989Y-84927702D01*
X187109992Y-84682253D01*
X187222960Y-84409525D01*
X187280550Y-84119999D01*
X187280550Y-83824801D01*
X187222960Y-83535275D01*
X187109992Y-83262547D01*
X186945989Y-83017098D01*
X186737252Y-82808361D01*
X186578669Y-82702400D01*
X186737252Y-82596439D01*
X186945989Y-82387702D01*
X187109992Y-82142253D01*
X187222960Y-81869525D01*
X187280550Y-81579999D01*
X187280550Y-81284801D01*
X187222960Y-80995275D01*
X187109992Y-80722547D01*
X186945989Y-80477098D01*
X186737252Y-80268361D01*
X186578669Y-80162400D01*
X186737252Y-80056439D01*
X186945989Y-79847702D01*
X187109992Y-79602253D01*
X187222960Y-79329525D01*
X187280550Y-79039999D01*
X187280550Y-78744801D01*
X198526400Y-78744801D01*
X198526400Y-79039999D01*
X198583990Y-79329525D01*
X198696958Y-79602253D01*
X198860961Y-79847702D01*
X199069698Y-80056439D01*
X199228281Y-80162400D01*
X199069698Y-80268361D01*
X198860961Y-80477098D01*
X198696958Y-80722547D01*
X198583990Y-80995275D01*
X198526400Y-81284801D01*
X198526400Y-81579999D01*
X198583990Y-81869525D01*
X198696958Y-82142253D01*
X198860961Y-82387702D01*
X199069698Y-82596439D01*
X199228281Y-82702400D01*
X199069698Y-82808361D01*
X198860961Y-83017098D01*
X198696958Y-83262547D01*
X198583990Y-83535275D01*
X198526400Y-83824801D01*
X198526400Y-84119999D01*
X198583990Y-84409525D01*
X198696958Y-84682253D01*
X198860961Y-84927702D01*
X199069698Y-85136439D01*
X199228281Y-85242400D01*
X199069698Y-85348361D01*
X198860961Y-85557098D01*
X198696958Y-85802547D01*
X198583990Y-86075275D01*
X198526400Y-86364801D01*
X198526400Y-86659999D01*
X198583990Y-86949525D01*
X198696958Y-87222253D01*
X198860961Y-87467702D01*
X199069698Y-87676439D01*
X199315147Y-87840442D01*
X199587875Y-87953410D01*
X199877401Y-88011000D01*
X200172599Y-88011000D01*
X200462125Y-87953410D01*
X200734853Y-87840442D01*
X200980302Y-87676439D01*
X201189039Y-87467702D01*
X201295000Y-87309119D01*
X201400961Y-87467702D01*
X201609698Y-87676439D01*
X201855147Y-87840442D01*
X202127875Y-87953410D01*
X202417401Y-88011000D01*
X202712599Y-88011000D01*
X203002125Y-87953410D01*
X203274853Y-87840442D01*
X203520302Y-87676439D01*
X203729039Y-87467702D01*
X203893042Y-87222253D01*
X204006010Y-86949525D01*
X204063600Y-86659999D01*
X204063600Y-86364801D01*
X204006010Y-86075275D01*
X203893042Y-85802547D01*
X203729039Y-85557098D01*
X203520302Y-85348361D01*
X203361719Y-85242400D01*
X203520302Y-85136439D01*
X203729039Y-84927702D01*
X203893042Y-84682253D01*
X204006010Y-84409525D01*
X204063600Y-84119999D01*
X204063600Y-83824801D01*
X204006010Y-83535275D01*
X203893042Y-83262547D01*
X203729039Y-83017098D01*
X203520302Y-82808361D01*
X203361719Y-82702400D01*
X203520302Y-82596439D01*
X203729039Y-82387702D01*
X203893042Y-82142253D01*
X204006010Y-81869525D01*
X204063600Y-81579999D01*
X204063600Y-81284801D01*
X204006010Y-80995275D01*
X203893042Y-80722547D01*
X203729039Y-80477098D01*
X203520302Y-80268361D01*
X203361719Y-80162400D01*
X203520302Y-80056439D01*
X203729039Y-79847702D01*
X203893042Y-79602253D01*
X204006010Y-79329525D01*
X204063600Y-79039999D01*
X204063600Y-78744801D01*
X204006010Y-78455275D01*
X203893042Y-78182547D01*
X203729039Y-77937098D01*
X203520302Y-77728361D01*
X203354897Y-77617841D01*
X203453488Y-77559217D01*
X203671854Y-77362693D01*
X203847684Y-77127344D01*
X203974222Y-76862214D01*
X204019958Y-76711426D01*
X203898817Y-76479400D01*
X202692000Y-76479400D01*
X202692000Y-76499400D01*
X202438000Y-76499400D01*
X202438000Y-76479400D01*
X200152000Y-76479400D01*
X200152000Y-76499400D01*
X199898000Y-76499400D01*
X199898000Y-76479400D01*
X198691183Y-76479400D01*
X198570042Y-76711426D01*
X198615778Y-76862214D01*
X198742316Y-77127344D01*
X198918146Y-77362693D01*
X199136512Y-77559217D01*
X199235103Y-77617841D01*
X199069698Y-77728361D01*
X198860961Y-77937098D01*
X198696958Y-78182547D01*
X198583990Y-78455275D01*
X198526400Y-78744801D01*
X187280550Y-78744801D01*
X187222960Y-78455275D01*
X187109992Y-78182547D01*
X186945989Y-77937098D01*
X186737252Y-77728361D01*
X186571847Y-77617841D01*
X186670438Y-77559217D01*
X186888804Y-77362693D01*
X187064634Y-77127344D01*
X187191172Y-76862214D01*
X187236908Y-76711426D01*
X187115767Y-76479400D01*
X185908950Y-76479400D01*
X185908950Y-76499400D01*
X185654950Y-76499400D01*
X185654950Y-76479400D01*
X183368950Y-76479400D01*
X183368950Y-76499400D01*
X183114950Y-76499400D01*
X183114950Y-76479400D01*
X181908133Y-76479400D01*
X181786992Y-76711426D01*
X181832728Y-76862214D01*
X181959266Y-77127344D01*
X182135096Y-77362693D01*
X182353462Y-77559217D01*
X182452053Y-77617841D01*
X182286648Y-77728361D01*
X182077911Y-77937098D01*
X181913908Y-78182547D01*
X181800940Y-78455275D01*
X181743350Y-78744801D01*
X170497500Y-78744801D01*
X170439910Y-78455275D01*
X170326942Y-78182547D01*
X170162939Y-77937098D01*
X169954202Y-77728361D01*
X169788797Y-77617841D01*
X169887388Y-77559217D01*
X170105754Y-77362693D01*
X170281584Y-77127344D01*
X170408122Y-76862214D01*
X170453858Y-76711426D01*
X170332717Y-76479400D01*
X169125900Y-76479400D01*
X169125900Y-76499400D01*
X168871900Y-76499400D01*
X168871900Y-76479400D01*
X166585900Y-76479400D01*
X166585900Y-76499400D01*
X166331900Y-76499400D01*
X166331900Y-76479400D01*
X165125083Y-76479400D01*
X165003942Y-76711426D01*
X165049678Y-76862214D01*
X165176216Y-77127344D01*
X165352046Y-77362693D01*
X165570412Y-77559217D01*
X165669003Y-77617841D01*
X165503598Y-77728361D01*
X165294861Y-77937098D01*
X165130858Y-78182547D01*
X165017890Y-78455275D01*
X164960300Y-78744801D01*
X153714450Y-78744801D01*
X153656860Y-78455275D01*
X153543892Y-78182547D01*
X153379889Y-77937098D01*
X153171152Y-77728361D01*
X153005747Y-77617841D01*
X153104338Y-77559217D01*
X153322704Y-77362693D01*
X153498534Y-77127344D01*
X153625072Y-76862214D01*
X153670808Y-76711426D01*
X153549667Y-76479400D01*
X152342850Y-76479400D01*
X152342850Y-76499400D01*
X152088850Y-76499400D01*
X152088850Y-76479400D01*
X149802850Y-76479400D01*
X149802850Y-76499400D01*
X149548850Y-76499400D01*
X149548850Y-76479400D01*
X148342033Y-76479400D01*
X148220892Y-76711426D01*
X148266628Y-76862214D01*
X148393166Y-77127344D01*
X148568996Y-77362693D01*
X148787362Y-77559217D01*
X148885953Y-77617841D01*
X148720548Y-77728361D01*
X148511811Y-77937098D01*
X148347808Y-78182547D01*
X148234840Y-78455275D01*
X148177250Y-78744801D01*
X136931400Y-78744801D01*
X136873810Y-78455275D01*
X136760842Y-78182547D01*
X136596839Y-77937098D01*
X136388102Y-77728361D01*
X136222697Y-77617841D01*
X136321288Y-77559217D01*
X136539654Y-77362693D01*
X136715484Y-77127344D01*
X136842022Y-76862214D01*
X136887758Y-76711426D01*
X136766617Y-76479400D01*
X135559800Y-76479400D01*
X135559800Y-76499400D01*
X135305800Y-76499400D01*
X135305800Y-76479400D01*
X133019800Y-76479400D01*
X133019800Y-76499400D01*
X132765800Y-76499400D01*
X132765800Y-76479400D01*
X131558983Y-76479400D01*
X131437842Y-76711426D01*
X131483578Y-76862214D01*
X131610116Y-77127344D01*
X131785946Y-77362693D01*
X132004312Y-77559217D01*
X132102903Y-77617841D01*
X131937498Y-77728361D01*
X131728761Y-77937098D01*
X131564758Y-78182547D01*
X131451790Y-78455275D01*
X131394200Y-78744801D01*
X131394200Y-79039999D01*
X131451790Y-79329525D01*
X131564758Y-79602253D01*
X131728761Y-79847702D01*
X131937498Y-80056439D01*
X132096081Y-80162400D01*
X131937498Y-80268361D01*
X131728761Y-80477098D01*
X131564758Y-80722547D01*
X131451790Y-80995275D01*
X131395489Y-81278321D01*
X127596702Y-81278321D01*
X127635100Y-81125136D01*
X127649017Y-80842808D01*
X127607587Y-80563190D01*
X127512403Y-80297028D01*
X127445471Y-80171806D01*
X127201502Y-80100223D01*
X126388405Y-80913320D01*
X126402548Y-80927463D01*
X126222943Y-81107068D01*
X126208800Y-81092925D01*
X126194658Y-81107068D01*
X126015053Y-80927463D01*
X126029195Y-80913320D01*
X125216098Y-80100223D01*
X124972129Y-80171806D01*
X124851229Y-80427316D01*
X124782500Y-80701504D01*
X124768583Y-80983832D01*
X124810013Y-81263450D01*
X124815331Y-81278321D01*
X122599309Y-81278321D01*
X122643800Y-81054655D01*
X122643800Y-80771985D01*
X122588653Y-80494746D01*
X122480480Y-80233593D01*
X122323437Y-79998561D01*
X122245494Y-79920618D01*
X125395703Y-79920618D01*
X126208800Y-80733715D01*
X127021897Y-79920618D01*
X126950314Y-79676649D01*
X126694804Y-79555749D01*
X126420616Y-79487020D01*
X126138288Y-79473103D01*
X125858670Y-79514533D01*
X125592508Y-79609717D01*
X125467286Y-79676649D01*
X125395703Y-79920618D01*
X122245494Y-79920618D01*
X122123559Y-79798683D01*
X121888527Y-79641640D01*
X121627374Y-79533467D01*
X121350135Y-79478320D01*
X121067465Y-79478320D01*
X120790226Y-79533467D01*
X120529073Y-79641640D01*
X120294041Y-79798683D01*
X120094163Y-79998561D01*
X119937120Y-80233593D01*
X119828947Y-80494746D01*
X119773800Y-80771985D01*
X119773800Y-81054655D01*
X119818291Y-81278321D01*
X118267767Y-81278321D01*
X117658710Y-80669264D01*
X117623163Y-80625951D01*
X117450337Y-80484116D01*
X117253161Y-80378724D01*
X117039213Y-80313823D01*
X116872466Y-80297400D01*
X116872465Y-80297400D01*
X116816714Y-80291909D01*
X116760963Y-80297400D01*
X116579741Y-80297400D01*
X116550702Y-80268361D01*
X116392119Y-80162400D01*
X116550702Y-80056439D01*
X116759439Y-79847702D01*
X116923442Y-79602253D01*
X117036410Y-79329525D01*
X117094000Y-79039999D01*
X117094000Y-78744801D01*
X117036410Y-78455275D01*
X116923442Y-78182547D01*
X116759439Y-77937098D01*
X116550702Y-77728361D01*
X116385297Y-77617841D01*
X116483888Y-77559217D01*
X116702254Y-77362693D01*
X116878084Y-77127344D01*
X117004622Y-76862214D01*
X117050358Y-76711426D01*
X116929217Y-76479400D01*
X115722400Y-76479400D01*
X115722400Y-76499400D01*
X115468400Y-76499400D01*
X115468400Y-76479400D01*
X113182400Y-76479400D01*
X113182400Y-76499400D01*
X112928400Y-76499400D01*
X112928400Y-76479400D01*
X112908400Y-76479400D01*
X112908400Y-76225400D01*
X112928400Y-76225400D01*
X112928400Y-73939400D01*
X113182400Y-73939400D01*
X113182400Y-76225400D01*
X115468400Y-76225400D01*
X115468400Y-73939400D01*
X115722400Y-73939400D01*
X115722400Y-76225400D01*
X116929217Y-76225400D01*
X117050358Y-75993374D01*
X117004622Y-75842586D01*
X116878084Y-75577456D01*
X116839899Y-75526345D01*
X121069200Y-75526345D01*
X121069200Y-75809015D01*
X121124347Y-76086254D01*
X121232520Y-76347407D01*
X121389563Y-76582439D01*
X121589441Y-76782317D01*
X121824473Y-76939360D01*
X122085626Y-77047533D01*
X122362865Y-77102680D01*
X122645535Y-77102680D01*
X122922774Y-77047533D01*
X123183927Y-76939360D01*
X123418959Y-76782317D01*
X123540894Y-76660382D01*
X124191103Y-76660382D01*
X124262686Y-76904351D01*
X124518196Y-77025251D01*
X124792384Y-77093980D01*
X125074712Y-77107897D01*
X125354330Y-77066467D01*
X125620492Y-76971283D01*
X125745714Y-76904351D01*
X125817297Y-76660382D01*
X125004200Y-75847285D01*
X124191103Y-76660382D01*
X123540894Y-76660382D01*
X123618837Y-76582439D01*
X123752892Y-76381811D01*
X123767529Y-76409194D01*
X124011498Y-76480777D01*
X124824595Y-75667680D01*
X125183805Y-75667680D01*
X125996902Y-76480777D01*
X126240871Y-76409194D01*
X126361771Y-76153684D01*
X126430500Y-75879496D01*
X126444417Y-75597168D01*
X126402987Y-75317550D01*
X126307803Y-75051388D01*
X126240871Y-74926166D01*
X125996902Y-74854583D01*
X125183805Y-75667680D01*
X124824595Y-75667680D01*
X124011498Y-74854583D01*
X123767529Y-74926166D01*
X123753876Y-74955021D01*
X123618837Y-74752921D01*
X123540894Y-74674978D01*
X124191103Y-74674978D01*
X125004200Y-75488075D01*
X125817297Y-74674978D01*
X125745714Y-74431009D01*
X125490204Y-74310109D01*
X125216016Y-74241380D01*
X124933688Y-74227463D01*
X124654070Y-74268893D01*
X124387908Y-74364077D01*
X124262686Y-74431009D01*
X124191103Y-74674978D01*
X123540894Y-74674978D01*
X123418959Y-74553043D01*
X123183927Y-74396000D01*
X122922774Y-74287827D01*
X122645535Y-74232680D01*
X122362865Y-74232680D01*
X122085626Y-74287827D01*
X121824473Y-74396000D01*
X121589441Y-74553043D01*
X121389563Y-74752921D01*
X121232520Y-74987953D01*
X121124347Y-75249106D01*
X121069200Y-75526345D01*
X116839899Y-75526345D01*
X116702254Y-75342107D01*
X116483888Y-75145583D01*
X116377630Y-75082400D01*
X116483888Y-75019217D01*
X116702254Y-74822693D01*
X116878084Y-74587344D01*
X117004622Y-74322214D01*
X117050358Y-74171426D01*
X131437842Y-74171426D01*
X131483578Y-74322214D01*
X131610116Y-74587344D01*
X131785946Y-74822693D01*
X132004312Y-75019217D01*
X132110570Y-75082400D01*
X132004312Y-75145583D01*
X131785946Y-75342107D01*
X131610116Y-75577456D01*
X131483578Y-75842586D01*
X131437842Y-75993374D01*
X131558983Y-76225400D01*
X132765800Y-76225400D01*
X132765800Y-73939400D01*
X133019800Y-73939400D01*
X133019800Y-76225400D01*
X135305800Y-76225400D01*
X135305800Y-73939400D01*
X135559800Y-73939400D01*
X135559800Y-76225400D01*
X136766617Y-76225400D01*
X136887758Y-75993374D01*
X136842022Y-75842586D01*
X136715484Y-75577456D01*
X136539654Y-75342107D01*
X136321288Y-75145583D01*
X136215030Y-75082400D01*
X136321288Y-75019217D01*
X136539654Y-74822693D01*
X136715484Y-74587344D01*
X136842022Y-74322214D01*
X136887758Y-74171426D01*
X148220892Y-74171426D01*
X148266628Y-74322214D01*
X148393166Y-74587344D01*
X148568996Y-74822693D01*
X148787362Y-75019217D01*
X148893620Y-75082400D01*
X148787362Y-75145583D01*
X148568996Y-75342107D01*
X148393166Y-75577456D01*
X148266628Y-75842586D01*
X148220892Y-75993374D01*
X148342033Y-76225400D01*
X149548850Y-76225400D01*
X149548850Y-73939400D01*
X149802850Y-73939400D01*
X149802850Y-76225400D01*
X152088850Y-76225400D01*
X152088850Y-73939400D01*
X152342850Y-73939400D01*
X152342850Y-76225400D01*
X153549667Y-76225400D01*
X153670808Y-75993374D01*
X153625072Y-75842586D01*
X153498534Y-75577456D01*
X153322704Y-75342107D01*
X153104338Y-75145583D01*
X152998080Y-75082400D01*
X153104338Y-75019217D01*
X153322704Y-74822693D01*
X153498534Y-74587344D01*
X153625072Y-74322214D01*
X153670808Y-74171426D01*
X165003942Y-74171426D01*
X165049678Y-74322214D01*
X165176216Y-74587344D01*
X165352046Y-74822693D01*
X165570412Y-75019217D01*
X165676670Y-75082400D01*
X165570412Y-75145583D01*
X165352046Y-75342107D01*
X165176216Y-75577456D01*
X165049678Y-75842586D01*
X165003942Y-75993374D01*
X165125083Y-76225400D01*
X166331900Y-76225400D01*
X166331900Y-73939400D01*
X166585900Y-73939400D01*
X166585900Y-76225400D01*
X168871900Y-76225400D01*
X168871900Y-73939400D01*
X169125900Y-73939400D01*
X169125900Y-76225400D01*
X170332717Y-76225400D01*
X170453858Y-75993374D01*
X170408122Y-75842586D01*
X170281584Y-75577456D01*
X170105754Y-75342107D01*
X169887388Y-75145583D01*
X169781130Y-75082400D01*
X169887388Y-75019217D01*
X170105754Y-74822693D01*
X170281584Y-74587344D01*
X170408122Y-74322214D01*
X170453858Y-74171426D01*
X181786992Y-74171426D01*
X181832728Y-74322214D01*
X181959266Y-74587344D01*
X182135096Y-74822693D01*
X182353462Y-75019217D01*
X182459720Y-75082400D01*
X182353462Y-75145583D01*
X182135096Y-75342107D01*
X181959266Y-75577456D01*
X181832728Y-75842586D01*
X181786992Y-75993374D01*
X181908133Y-76225400D01*
X183114950Y-76225400D01*
X183114950Y-73939400D01*
X183368950Y-73939400D01*
X183368950Y-76225400D01*
X185654950Y-76225400D01*
X185654950Y-73939400D01*
X185908950Y-73939400D01*
X185908950Y-76225400D01*
X187115767Y-76225400D01*
X187236908Y-75993374D01*
X187191172Y-75842586D01*
X187064634Y-75577456D01*
X186888804Y-75342107D01*
X186670438Y-75145583D01*
X186564180Y-75082400D01*
X186670438Y-75019217D01*
X186888804Y-74822693D01*
X187064634Y-74587344D01*
X187191172Y-74322214D01*
X187236908Y-74171426D01*
X198570042Y-74171426D01*
X198615778Y-74322214D01*
X198742316Y-74587344D01*
X198918146Y-74822693D01*
X199136512Y-75019217D01*
X199242770Y-75082400D01*
X199136512Y-75145583D01*
X198918146Y-75342107D01*
X198742316Y-75577456D01*
X198615778Y-75842586D01*
X198570042Y-75993374D01*
X198691183Y-76225400D01*
X199898000Y-76225400D01*
X199898000Y-73939400D01*
X200152000Y-73939400D01*
X200152000Y-76225400D01*
X202438000Y-76225400D01*
X202438000Y-73939400D01*
X202692000Y-73939400D01*
X202692000Y-76225400D01*
X203898817Y-76225400D01*
X204019958Y-75993374D01*
X203974222Y-75842586D01*
X203847684Y-75577456D01*
X203671854Y-75342107D01*
X203453488Y-75145583D01*
X203347230Y-75082400D01*
X203453488Y-75019217D01*
X203671854Y-74822693D01*
X203847684Y-74587344D01*
X203974222Y-74322214D01*
X204019958Y-74171426D01*
X203898817Y-73939400D01*
X202692000Y-73939400D01*
X202438000Y-73939400D01*
X200152000Y-73939400D01*
X199898000Y-73939400D01*
X198691183Y-73939400D01*
X198570042Y-74171426D01*
X187236908Y-74171426D01*
X187115767Y-73939400D01*
X185908950Y-73939400D01*
X185654950Y-73939400D01*
X183368950Y-73939400D01*
X183114950Y-73939400D01*
X181908133Y-73939400D01*
X181786992Y-74171426D01*
X170453858Y-74171426D01*
X170332717Y-73939400D01*
X169125900Y-73939400D01*
X168871900Y-73939400D01*
X166585900Y-73939400D01*
X166331900Y-73939400D01*
X165125083Y-73939400D01*
X165003942Y-74171426D01*
X153670808Y-74171426D01*
X153549667Y-73939400D01*
X152342850Y-73939400D01*
X152088850Y-73939400D01*
X149802850Y-73939400D01*
X149548850Y-73939400D01*
X148342033Y-73939400D01*
X148220892Y-74171426D01*
X136887758Y-74171426D01*
X136766617Y-73939400D01*
X135559800Y-73939400D01*
X135305800Y-73939400D01*
X133019800Y-73939400D01*
X132765800Y-73939400D01*
X131558983Y-73939400D01*
X131437842Y-74171426D01*
X117050358Y-74171426D01*
X116929217Y-73939400D01*
X115722400Y-73939400D01*
X115468400Y-73939400D01*
X113182400Y-73939400D01*
X112928400Y-73939400D01*
X112908400Y-73939400D01*
X112908400Y-73685400D01*
X112928400Y-73685400D01*
X112928400Y-71399400D01*
X113182400Y-71399400D01*
X113182400Y-73685400D01*
X115468400Y-73685400D01*
X115468400Y-71399400D01*
X115722400Y-71399400D01*
X115722400Y-73685400D01*
X116929217Y-73685400D01*
X117050358Y-73453374D01*
X117004622Y-73302586D01*
X116878084Y-73037456D01*
X116702254Y-72802107D01*
X116483888Y-72605583D01*
X116377630Y-72542400D01*
X116483888Y-72479217D01*
X116702254Y-72282693D01*
X116878084Y-72047344D01*
X117004622Y-71782214D01*
X117050358Y-71631426D01*
X116929217Y-71399400D01*
X115722400Y-71399400D01*
X115468400Y-71399400D01*
X113182400Y-71399400D01*
X112928400Y-71399400D01*
X112908400Y-71399400D01*
X112908400Y-71145400D01*
X112928400Y-71145400D01*
X112928400Y-71125400D01*
X113182400Y-71125400D01*
X113182400Y-71145400D01*
X115468400Y-71145400D01*
X115468400Y-71125400D01*
X115722400Y-71125400D01*
X115722400Y-71145400D01*
X116929217Y-71145400D01*
X117050358Y-70913374D01*
X117004622Y-70762586D01*
X116878084Y-70497456D01*
X116702254Y-70262107D01*
X116483888Y-70065583D01*
X116385297Y-70006959D01*
X116550702Y-69896439D01*
X116759439Y-69687702D01*
X116923442Y-69442253D01*
X117036410Y-69169525D01*
X117094000Y-68879999D01*
X117094000Y-68584801D01*
X117036410Y-68295275D01*
X116923442Y-68022547D01*
X116917197Y-68013200D01*
X118334039Y-68013200D01*
X120029860Y-69709023D01*
X119982520Y-69779873D01*
X119874347Y-70041026D01*
X119819200Y-70318265D01*
X119819200Y-70600935D01*
X119874347Y-70878174D01*
X119982520Y-71139327D01*
X120139563Y-71374359D01*
X120339441Y-71574237D01*
X120574473Y-71731280D01*
X120835626Y-71839453D01*
X121112865Y-71894600D01*
X121395535Y-71894600D01*
X121672774Y-71839453D01*
X121933927Y-71731280D01*
X122168959Y-71574237D01*
X122290894Y-71452302D01*
X125441103Y-71452302D01*
X125512686Y-71696271D01*
X125768196Y-71817171D01*
X126042384Y-71885900D01*
X126324712Y-71899817D01*
X126604330Y-71858387D01*
X126870492Y-71763203D01*
X126995714Y-71696271D01*
X127014740Y-71631426D01*
X131437842Y-71631426D01*
X131483578Y-71782214D01*
X131610116Y-72047344D01*
X131785946Y-72282693D01*
X132004312Y-72479217D01*
X132110570Y-72542400D01*
X132004312Y-72605583D01*
X131785946Y-72802107D01*
X131610116Y-73037456D01*
X131483578Y-73302586D01*
X131437842Y-73453374D01*
X131558983Y-73685400D01*
X132765800Y-73685400D01*
X132765800Y-71399400D01*
X133019800Y-71399400D01*
X133019800Y-73685400D01*
X135305800Y-73685400D01*
X135305800Y-71399400D01*
X135559800Y-71399400D01*
X135559800Y-73685400D01*
X136766617Y-73685400D01*
X136887758Y-73453374D01*
X136842022Y-73302586D01*
X136715484Y-73037456D01*
X136539654Y-72802107D01*
X136321288Y-72605583D01*
X136215030Y-72542400D01*
X136321288Y-72479217D01*
X136539654Y-72282693D01*
X136715484Y-72047344D01*
X136842022Y-71782214D01*
X136887758Y-71631426D01*
X148220892Y-71631426D01*
X148266628Y-71782214D01*
X148393166Y-72047344D01*
X148568996Y-72282693D01*
X148787362Y-72479217D01*
X148893620Y-72542400D01*
X148787362Y-72605583D01*
X148568996Y-72802107D01*
X148393166Y-73037456D01*
X148266628Y-73302586D01*
X148220892Y-73453374D01*
X148342033Y-73685400D01*
X149548850Y-73685400D01*
X149548850Y-71399400D01*
X149802850Y-71399400D01*
X149802850Y-73685400D01*
X152088850Y-73685400D01*
X152088850Y-71399400D01*
X152342850Y-71399400D01*
X152342850Y-73685400D01*
X153549667Y-73685400D01*
X153670808Y-73453374D01*
X153625072Y-73302586D01*
X153498534Y-73037456D01*
X153322704Y-72802107D01*
X153104338Y-72605583D01*
X152998080Y-72542400D01*
X153104338Y-72479217D01*
X153322704Y-72282693D01*
X153498534Y-72047344D01*
X153625072Y-71782214D01*
X153670808Y-71631426D01*
X165003942Y-71631426D01*
X165049678Y-71782214D01*
X165176216Y-72047344D01*
X165352046Y-72282693D01*
X165570412Y-72479217D01*
X165676670Y-72542400D01*
X165570412Y-72605583D01*
X165352046Y-72802107D01*
X165176216Y-73037456D01*
X165049678Y-73302586D01*
X165003942Y-73453374D01*
X165125083Y-73685400D01*
X166331900Y-73685400D01*
X166331900Y-71399400D01*
X166585900Y-71399400D01*
X166585900Y-73685400D01*
X168871900Y-73685400D01*
X168871900Y-71399400D01*
X169125900Y-71399400D01*
X169125900Y-73685400D01*
X170332717Y-73685400D01*
X170453858Y-73453374D01*
X170408122Y-73302586D01*
X170281584Y-73037456D01*
X170105754Y-72802107D01*
X169887388Y-72605583D01*
X169781130Y-72542400D01*
X169887388Y-72479217D01*
X170105754Y-72282693D01*
X170281584Y-72047344D01*
X170408122Y-71782214D01*
X170453858Y-71631426D01*
X181786992Y-71631426D01*
X181832728Y-71782214D01*
X181959266Y-72047344D01*
X182135096Y-72282693D01*
X182353462Y-72479217D01*
X182459720Y-72542400D01*
X182353462Y-72605583D01*
X182135096Y-72802107D01*
X181959266Y-73037456D01*
X181832728Y-73302586D01*
X181786992Y-73453374D01*
X181908133Y-73685400D01*
X183114950Y-73685400D01*
X183114950Y-71399400D01*
X183368950Y-71399400D01*
X183368950Y-73685400D01*
X185654950Y-73685400D01*
X185654950Y-71399400D01*
X185908950Y-71399400D01*
X185908950Y-73685400D01*
X187115767Y-73685400D01*
X187236908Y-73453374D01*
X187191172Y-73302586D01*
X187064634Y-73037456D01*
X186888804Y-72802107D01*
X186670438Y-72605583D01*
X186564180Y-72542400D01*
X186670438Y-72479217D01*
X186888804Y-72282693D01*
X187064634Y-72047344D01*
X187191172Y-71782214D01*
X187236908Y-71631426D01*
X198570042Y-71631426D01*
X198615778Y-71782214D01*
X198742316Y-72047344D01*
X198918146Y-72282693D01*
X199136512Y-72479217D01*
X199242770Y-72542400D01*
X199136512Y-72605583D01*
X198918146Y-72802107D01*
X198742316Y-73037456D01*
X198615778Y-73302586D01*
X198570042Y-73453374D01*
X198691183Y-73685400D01*
X199898000Y-73685400D01*
X199898000Y-71399400D01*
X200152000Y-71399400D01*
X200152000Y-73685400D01*
X202438000Y-73685400D01*
X202438000Y-71399400D01*
X202692000Y-71399400D01*
X202692000Y-73685400D01*
X203898817Y-73685400D01*
X204019958Y-73453374D01*
X203974222Y-73302586D01*
X203847684Y-73037456D01*
X203671854Y-72802107D01*
X203453488Y-72605583D01*
X203347230Y-72542400D01*
X203453488Y-72479217D01*
X203671854Y-72282693D01*
X203847684Y-72047344D01*
X203974222Y-71782214D01*
X204019958Y-71631426D01*
X203898817Y-71399400D01*
X202692000Y-71399400D01*
X202438000Y-71399400D01*
X200152000Y-71399400D01*
X199898000Y-71399400D01*
X198691183Y-71399400D01*
X198570042Y-71631426D01*
X187236908Y-71631426D01*
X187115767Y-71399400D01*
X185908950Y-71399400D01*
X185654950Y-71399400D01*
X183368950Y-71399400D01*
X183114950Y-71399400D01*
X181908133Y-71399400D01*
X181786992Y-71631426D01*
X170453858Y-71631426D01*
X170332717Y-71399400D01*
X169125900Y-71399400D01*
X168871900Y-71399400D01*
X166585900Y-71399400D01*
X166331900Y-71399400D01*
X165125083Y-71399400D01*
X165003942Y-71631426D01*
X153670808Y-71631426D01*
X153549667Y-71399400D01*
X152342850Y-71399400D01*
X152088850Y-71399400D01*
X149802850Y-71399400D01*
X149548850Y-71399400D01*
X148342033Y-71399400D01*
X148220892Y-71631426D01*
X136887758Y-71631426D01*
X136766617Y-71399400D01*
X135559800Y-71399400D01*
X135305800Y-71399400D01*
X133019800Y-71399400D01*
X132765800Y-71399400D01*
X131558983Y-71399400D01*
X131437842Y-71631426D01*
X127014740Y-71631426D01*
X127067297Y-71452302D01*
X126254200Y-70639205D01*
X125441103Y-71452302D01*
X122290894Y-71452302D01*
X122368837Y-71374359D01*
X122525880Y-71139327D01*
X122634053Y-70878174D01*
X122689200Y-70600935D01*
X122689200Y-70530112D01*
X124813983Y-70530112D01*
X124855413Y-70809730D01*
X124950597Y-71075892D01*
X125017529Y-71201114D01*
X125261498Y-71272697D01*
X126074595Y-70459600D01*
X126433805Y-70459600D01*
X127246902Y-71272697D01*
X127490871Y-71201114D01*
X127611771Y-70945604D01*
X127680500Y-70671416D01*
X127694417Y-70389088D01*
X127652987Y-70109470D01*
X127557803Y-69843308D01*
X127490871Y-69718086D01*
X127246902Y-69646503D01*
X126433805Y-70459600D01*
X126074595Y-70459600D01*
X125261498Y-69646503D01*
X125017529Y-69718086D01*
X124896629Y-69973596D01*
X124827900Y-70247784D01*
X124813983Y-70530112D01*
X122689200Y-70530112D01*
X122689200Y-70318265D01*
X122634053Y-70041026D01*
X122525880Y-69779873D01*
X122389200Y-69575316D01*
X122389200Y-69466898D01*
X125441103Y-69466898D01*
X126254200Y-70279995D01*
X127067297Y-69466898D01*
X126995714Y-69222929D01*
X126740204Y-69102029D01*
X126466016Y-69033300D01*
X126183688Y-69019383D01*
X125904070Y-69060813D01*
X125637908Y-69155997D01*
X125512686Y-69222929D01*
X125441103Y-69466898D01*
X122389200Y-69466898D01*
X122389200Y-69383982D01*
X122394691Y-69328230D01*
X122372777Y-69105731D01*
X122307876Y-68891783D01*
X122202484Y-68694607D01*
X122096189Y-68565086D01*
X122096187Y-68565084D01*
X122060649Y-68521781D01*
X122017346Y-68486243D01*
X121399903Y-67868800D01*
X131391128Y-67868800D01*
X131391128Y-69596000D01*
X131403388Y-69720482D01*
X131439698Y-69840180D01*
X131498663Y-69950494D01*
X131578015Y-70047185D01*
X131674706Y-70126537D01*
X131785020Y-70185502D01*
X131849374Y-70205024D01*
X131785946Y-70262107D01*
X131610116Y-70497456D01*
X131483578Y-70762586D01*
X131437842Y-70913374D01*
X131558983Y-71145400D01*
X132765800Y-71145400D01*
X132765800Y-71125400D01*
X133019800Y-71125400D01*
X133019800Y-71145400D01*
X135305800Y-71145400D01*
X135305800Y-71125400D01*
X135559800Y-71125400D01*
X135559800Y-71145400D01*
X136766617Y-71145400D01*
X136887758Y-70913374D01*
X136842022Y-70762586D01*
X136715484Y-70497456D01*
X136539654Y-70262107D01*
X136321288Y-70065583D01*
X136222697Y-70006959D01*
X136388102Y-69896439D01*
X136596839Y-69687702D01*
X136760842Y-69442253D01*
X136873810Y-69169525D01*
X136931400Y-68879999D01*
X136931400Y-68584801D01*
X136873810Y-68295275D01*
X136760842Y-68022547D01*
X136658113Y-67868800D01*
X148174178Y-67868800D01*
X148174178Y-69596000D01*
X148186438Y-69720482D01*
X148222748Y-69840180D01*
X148281713Y-69950494D01*
X148361065Y-70047185D01*
X148457756Y-70126537D01*
X148568070Y-70185502D01*
X148632424Y-70205024D01*
X148568996Y-70262107D01*
X148393166Y-70497456D01*
X148266628Y-70762586D01*
X148220892Y-70913374D01*
X148342033Y-71145400D01*
X149548850Y-71145400D01*
X149548850Y-71125400D01*
X149802850Y-71125400D01*
X149802850Y-71145400D01*
X152088850Y-71145400D01*
X152088850Y-71125400D01*
X152342850Y-71125400D01*
X152342850Y-71145400D01*
X153549667Y-71145400D01*
X153670808Y-70913374D01*
X153625072Y-70762586D01*
X153498534Y-70497456D01*
X153322704Y-70262107D01*
X153104338Y-70065583D01*
X153005747Y-70006959D01*
X153171152Y-69896439D01*
X153379889Y-69687702D01*
X153543892Y-69442253D01*
X153656860Y-69169525D01*
X153714450Y-68879999D01*
X153714450Y-68584801D01*
X153656860Y-68295275D01*
X153543892Y-68022547D01*
X153441163Y-67868800D01*
X164957228Y-67868800D01*
X164957228Y-69596000D01*
X164969488Y-69720482D01*
X165005798Y-69840180D01*
X165064763Y-69950494D01*
X165144115Y-70047185D01*
X165240806Y-70126537D01*
X165351120Y-70185502D01*
X165415474Y-70205024D01*
X165352046Y-70262107D01*
X165176216Y-70497456D01*
X165049678Y-70762586D01*
X165003942Y-70913374D01*
X165125083Y-71145400D01*
X166331900Y-71145400D01*
X166331900Y-71125400D01*
X166585900Y-71125400D01*
X166585900Y-71145400D01*
X168871900Y-71145400D01*
X168871900Y-71125400D01*
X169125900Y-71125400D01*
X169125900Y-71145400D01*
X170332717Y-71145400D01*
X170453858Y-70913374D01*
X170408122Y-70762586D01*
X170281584Y-70497456D01*
X170105754Y-70262107D01*
X169887388Y-70065583D01*
X169788797Y-70006959D01*
X169954202Y-69896439D01*
X170162939Y-69687702D01*
X170326942Y-69442253D01*
X170439910Y-69169525D01*
X170497500Y-68879999D01*
X170497500Y-68584801D01*
X170439910Y-68295275D01*
X170326942Y-68022547D01*
X170224213Y-67868800D01*
X181740278Y-67868800D01*
X181740278Y-69596000D01*
X181752538Y-69720482D01*
X181788848Y-69840180D01*
X181847813Y-69950494D01*
X181927165Y-70047185D01*
X182023856Y-70126537D01*
X182134170Y-70185502D01*
X182198524Y-70205024D01*
X182135096Y-70262107D01*
X181959266Y-70497456D01*
X181832728Y-70762586D01*
X181786992Y-70913374D01*
X181908133Y-71145400D01*
X183114950Y-71145400D01*
X183114950Y-71125400D01*
X183368950Y-71125400D01*
X183368950Y-71145400D01*
X185654950Y-71145400D01*
X185654950Y-71125400D01*
X185908950Y-71125400D01*
X185908950Y-71145400D01*
X187115767Y-71145400D01*
X187236908Y-70913374D01*
X187191172Y-70762586D01*
X187064634Y-70497456D01*
X186888804Y-70262107D01*
X186670438Y-70065583D01*
X186571847Y-70006959D01*
X186737252Y-69896439D01*
X186945989Y-69687702D01*
X187109992Y-69442253D01*
X187222960Y-69169525D01*
X187280550Y-68879999D01*
X187280550Y-68584801D01*
X187222960Y-68295275D01*
X187109992Y-68022547D01*
X187007263Y-67868800D01*
X198523328Y-67868800D01*
X198523328Y-69596000D01*
X198535588Y-69720482D01*
X198571898Y-69840180D01*
X198630863Y-69950494D01*
X198710215Y-70047185D01*
X198806906Y-70126537D01*
X198917220Y-70185502D01*
X198981574Y-70205024D01*
X198918146Y-70262107D01*
X198742316Y-70497456D01*
X198615778Y-70762586D01*
X198570042Y-70913374D01*
X198691183Y-71145400D01*
X199898000Y-71145400D01*
X199898000Y-71125400D01*
X200152000Y-71125400D01*
X200152000Y-71145400D01*
X202438000Y-71145400D01*
X202438000Y-71125400D01*
X202692000Y-71125400D01*
X202692000Y-71145400D01*
X203898817Y-71145400D01*
X204019958Y-70913374D01*
X203974222Y-70762586D01*
X203847684Y-70497456D01*
X203671854Y-70262107D01*
X203453488Y-70065583D01*
X203354897Y-70006959D01*
X203520302Y-69896439D01*
X203729039Y-69687702D01*
X203893042Y-69442253D01*
X204006010Y-69169525D01*
X204063600Y-68879999D01*
X204063600Y-68584801D01*
X204006010Y-68295275D01*
X203893042Y-68022547D01*
X203729039Y-67777098D01*
X203520302Y-67568361D01*
X203274853Y-67404358D01*
X203002125Y-67291390D01*
X202712599Y-67233800D01*
X202417401Y-67233800D01*
X202127875Y-67291390D01*
X201855147Y-67404358D01*
X201609698Y-67568361D01*
X201495636Y-67682423D01*
X201478102Y-67624620D01*
X201419137Y-67514306D01*
X201339785Y-67417615D01*
X201243094Y-67338263D01*
X201132780Y-67279298D01*
X201013082Y-67242988D01*
X200888600Y-67230728D01*
X199161400Y-67230728D01*
X199036918Y-67242988D01*
X198917220Y-67279298D01*
X198806906Y-67338263D01*
X198710215Y-67417615D01*
X198630863Y-67514306D01*
X198571898Y-67624620D01*
X198535588Y-67744318D01*
X198523328Y-67868800D01*
X187007263Y-67868800D01*
X186945989Y-67777098D01*
X186737252Y-67568361D01*
X186491803Y-67404358D01*
X186219075Y-67291390D01*
X185929549Y-67233800D01*
X185634351Y-67233800D01*
X185344825Y-67291390D01*
X185072097Y-67404358D01*
X184826648Y-67568361D01*
X184712586Y-67682423D01*
X184695052Y-67624620D01*
X184636087Y-67514306D01*
X184556735Y-67417615D01*
X184460044Y-67338263D01*
X184349730Y-67279298D01*
X184230032Y-67242988D01*
X184105550Y-67230728D01*
X182378350Y-67230728D01*
X182253868Y-67242988D01*
X182134170Y-67279298D01*
X182023856Y-67338263D01*
X181927165Y-67417615D01*
X181847813Y-67514306D01*
X181788848Y-67624620D01*
X181752538Y-67744318D01*
X181740278Y-67868800D01*
X170224213Y-67868800D01*
X170162939Y-67777098D01*
X169954202Y-67568361D01*
X169708753Y-67404358D01*
X169436025Y-67291390D01*
X169146499Y-67233800D01*
X168851301Y-67233800D01*
X168561775Y-67291390D01*
X168289047Y-67404358D01*
X168043598Y-67568361D01*
X167929536Y-67682423D01*
X167912002Y-67624620D01*
X167853037Y-67514306D01*
X167773685Y-67417615D01*
X167676994Y-67338263D01*
X167566680Y-67279298D01*
X167446982Y-67242988D01*
X167322500Y-67230728D01*
X165595300Y-67230728D01*
X165470818Y-67242988D01*
X165351120Y-67279298D01*
X165240806Y-67338263D01*
X165144115Y-67417615D01*
X165064763Y-67514306D01*
X165005798Y-67624620D01*
X164969488Y-67744318D01*
X164957228Y-67868800D01*
X153441163Y-67868800D01*
X153379889Y-67777098D01*
X153171152Y-67568361D01*
X152925703Y-67404358D01*
X152652975Y-67291390D01*
X152363449Y-67233800D01*
X152068251Y-67233800D01*
X151778725Y-67291390D01*
X151505997Y-67404358D01*
X151260548Y-67568361D01*
X151146486Y-67682423D01*
X151128952Y-67624620D01*
X151069987Y-67514306D01*
X150990635Y-67417615D01*
X150893944Y-67338263D01*
X150783630Y-67279298D01*
X150663932Y-67242988D01*
X150539450Y-67230728D01*
X148812250Y-67230728D01*
X148687768Y-67242988D01*
X148568070Y-67279298D01*
X148457756Y-67338263D01*
X148361065Y-67417615D01*
X148281713Y-67514306D01*
X148222748Y-67624620D01*
X148186438Y-67744318D01*
X148174178Y-67868800D01*
X136658113Y-67868800D01*
X136596839Y-67777098D01*
X136388102Y-67568361D01*
X136142653Y-67404358D01*
X135869925Y-67291390D01*
X135580399Y-67233800D01*
X135285201Y-67233800D01*
X134995675Y-67291390D01*
X134722947Y-67404358D01*
X134477498Y-67568361D01*
X134363436Y-67682423D01*
X134345902Y-67624620D01*
X134286937Y-67514306D01*
X134207585Y-67417615D01*
X134110894Y-67338263D01*
X134000580Y-67279298D01*
X133880882Y-67242988D01*
X133756400Y-67230728D01*
X132029200Y-67230728D01*
X131904718Y-67242988D01*
X131785020Y-67279298D01*
X131674706Y-67338263D01*
X131578015Y-67417615D01*
X131498663Y-67514306D01*
X131439698Y-67624620D01*
X131403388Y-67744318D01*
X131391128Y-67868800D01*
X121399903Y-67868800D01*
X119700204Y-66169102D01*
X121741903Y-66169102D01*
X121813486Y-66413071D01*
X122068996Y-66533971D01*
X122343184Y-66602700D01*
X122625512Y-66616617D01*
X122905130Y-66575187D01*
X123171292Y-66480003D01*
X123296514Y-66413071D01*
X123368097Y-66169102D01*
X122555000Y-65356005D01*
X121741903Y-66169102D01*
X119700204Y-66169102D01*
X119646166Y-66115065D01*
X119610619Y-66071751D01*
X119437793Y-65929916D01*
X119240617Y-65824524D01*
X119026669Y-65759623D01*
X118859922Y-65743200D01*
X118859921Y-65743200D01*
X118804170Y-65737709D01*
X118748419Y-65743200D01*
X111612552Y-65743200D01*
X111556800Y-65737709D01*
X111501048Y-65743200D01*
X111334301Y-65759623D01*
X111120353Y-65824524D01*
X110923177Y-65929916D01*
X110750351Y-66071751D01*
X110714808Y-66115060D01*
X110234864Y-66595005D01*
X110191551Y-66630551D01*
X110049716Y-66803377D01*
X109944325Y-67000553D01*
X109944324Y-67000554D01*
X109879423Y-67214502D01*
X109857509Y-67437000D01*
X109660000Y-67437000D01*
X109660000Y-65246912D01*
X121114783Y-65246912D01*
X121156213Y-65526530D01*
X121251397Y-65792692D01*
X121318329Y-65917914D01*
X121562298Y-65989497D01*
X122375395Y-65176400D01*
X122734605Y-65176400D01*
X123547702Y-65989497D01*
X123791671Y-65917914D01*
X123805324Y-65889059D01*
X123940363Y-66091159D01*
X124140241Y-66291037D01*
X124375273Y-66448080D01*
X124636426Y-66556253D01*
X124913665Y-66611400D01*
X125196335Y-66611400D01*
X125473574Y-66556253D01*
X125734727Y-66448080D01*
X125969759Y-66291037D01*
X126169637Y-66091159D01*
X126326680Y-65856127D01*
X126434853Y-65594974D01*
X126490000Y-65317735D01*
X126490000Y-65035065D01*
X126434853Y-64757826D01*
X126326680Y-64496673D01*
X126169637Y-64261641D01*
X125969759Y-64061763D01*
X125734727Y-63904720D01*
X125473574Y-63796547D01*
X125196335Y-63741400D01*
X124913665Y-63741400D01*
X124636426Y-63796547D01*
X124375273Y-63904720D01*
X124140241Y-64061763D01*
X123940363Y-64261641D01*
X123806308Y-64462269D01*
X123791671Y-64434886D01*
X123547702Y-64363303D01*
X122734605Y-65176400D01*
X122375395Y-65176400D01*
X121562298Y-64363303D01*
X121318329Y-64434886D01*
X121197429Y-64690396D01*
X121128700Y-64964584D01*
X121114783Y-65246912D01*
X109660000Y-65246912D01*
X109660000Y-64183698D01*
X121741903Y-64183698D01*
X122555000Y-64996795D01*
X123368097Y-64183698D01*
X123296514Y-63939729D01*
X123041004Y-63818829D01*
X122766816Y-63750100D01*
X122484488Y-63736183D01*
X122204870Y-63777613D01*
X121938708Y-63872797D01*
X121813486Y-63939729D01*
X121741903Y-64183698D01*
X109660000Y-64183698D01*
X109660000Y-57818872D01*
X111180300Y-57818872D01*
X111180300Y-58259128D01*
X111266190Y-58690925D01*
X111434669Y-59097669D01*
X111679262Y-59463729D01*
X111990571Y-59775038D01*
X112356631Y-60019631D01*
X112763375Y-60188110D01*
X113195172Y-60274000D01*
X113635428Y-60274000D01*
X114067225Y-60188110D01*
X114473969Y-60019631D01*
X114840029Y-59775038D01*
X115151338Y-59463729D01*
X115395931Y-59097669D01*
X115564410Y-58690925D01*
X115650300Y-58259128D01*
X115650300Y-57818872D01*
X115564410Y-57387075D01*
X115395931Y-56980331D01*
X115151338Y-56614271D01*
X114840029Y-56302962D01*
X114473969Y-56058369D01*
X114067225Y-55889890D01*
X113635428Y-55804000D01*
X113195172Y-55804000D01*
X112763375Y-55889890D01*
X112356631Y-56058369D01*
X111990571Y-56302962D01*
X111679262Y-56614271D01*
X111434669Y-56980331D01*
X111266190Y-57387075D01*
X111180300Y-57818872D01*
X109660000Y-57818872D01*
X109660000Y-55041400D01*
X117170600Y-55041400D01*
X117170601Y-61308571D01*
G36*
X125618948Y-91527458D02*
G01*
X125604805Y-91541600D01*
X125618948Y-91555743D01*
X125439343Y-91735348D01*
X125425200Y-91721205D01*
X125411058Y-91735348D01*
X125231453Y-91555743D01*
X125245595Y-91541600D01*
X125231453Y-91527458D01*
X125411058Y-91347853D01*
X125425200Y-91361995D01*
X125439343Y-91347853D01*
X125618948Y-91527458D01*
G37*
X125618948Y-91527458D02*
X125604805Y-91541600D01*
X125618948Y-91555743D01*
X125439343Y-91735348D01*
X125425200Y-91721205D01*
X125411058Y-91735348D01*
X125231453Y-91555743D01*
X125245595Y-91541600D01*
X125231453Y-91527458D01*
X125411058Y-91347853D01*
X125425200Y-91361995D01*
X125439343Y-91347853D01*
X125618948Y-91527458D01*
M02*
