M48
; DRILL file {KiCad (5.1.5-0-10_14)} date Wednesday, September 23, 2020 at 02:20:31 PM
; FORMAT={-:-/ absolute / inch / decimal}
; #@! TF.CreationDate,2020-09-23T14:20:31-04:00
; #@! TF.GenerationSoftware,Kicad,Pcbnew,(5.1.5-0-10_14)
; #@! TF.FileFunction,Plated,1,2,PTH
FMAT,2
INCH
T1C0.0315
T2C0.0354
T3C0.0400
%
G90
G05
T1
X5.3275Y-2.576
X5.4259Y-2.576
X5.3255Y-2.989
X5.4239Y-2.989
X5.2745Y-3.1956
X5.4714Y-3.1956
X5.2763Y-2.784
X5.4731Y-2.784
X5.2365Y-3.454
X5.5365Y-3.454
X5.2365Y-3.325
X5.5365Y-3.325
T2
X5.2415Y-3.614
X5.3415Y-3.614
X5.4405Y-3.614
X5.5405Y-3.614
T3
X7.875Y-2.706
X7.875Y-2.806
X7.875Y-2.906
X7.875Y-3.006
X7.875Y-3.106
X7.875Y-3.206
X7.875Y-3.306
X7.875Y-3.406
X7.975Y-2.706
X7.975Y-2.806
X7.975Y-2.906
X7.975Y-3.006
X7.975Y-3.106
X7.975Y-3.206
X7.975Y-3.306
X7.975Y-3.406
X4.451Y-2.706
X4.451Y-2.806
X4.451Y-2.906
X4.451Y-3.006
X4.451Y-3.106
X4.451Y-3.206
X4.451Y-3.306
X4.451Y-3.406
X4.551Y-2.706
X4.551Y-2.806
X4.551Y-2.906
X4.551Y-3.006
X4.551Y-3.106
X4.551Y-3.206
X4.551Y-3.306
X4.551Y-3.406
X7.3606Y-2.706
X7.3606Y-2.806
X7.3606Y-2.906
X7.3606Y-3.006
X7.3606Y-3.106
X7.3606Y-3.206
X7.3606Y-3.306
X7.3606Y-3.406
X7.4606Y-2.706
X7.4606Y-2.806
X7.4606Y-2.906
X7.4606Y-3.006
X7.4606Y-3.106
X7.4606Y-3.206
X7.4606Y-3.306
X7.4606Y-3.406
X4.905Y-2.856
X4.905Y-2.956
X4.905Y-3.056
X4.905Y-3.156
X4.905Y-3.256
X5.005Y-2.856
X5.005Y-2.956
X5.005Y-3.056
X5.005Y-3.156
X5.005Y-3.256
X5.8175Y-2.706
X5.8175Y-2.806
X5.8175Y-2.906
X5.8175Y-3.006
X5.8175Y-3.106
X5.8175Y-3.206
X5.8175Y-3.306
X5.8175Y-3.406
X5.9175Y-2.706
X5.9175Y-2.806
X5.9175Y-2.906
X5.9175Y-3.006
X5.9175Y-3.106
X5.9175Y-3.206
X5.9175Y-3.306
X5.9175Y-3.406
X6.3319Y-2.706
X6.3319Y-2.806
X6.3319Y-2.906
X6.3319Y-3.006
X6.3319Y-3.106
X6.3319Y-3.206
X6.3319Y-3.306
X6.3319Y-3.406
X6.4319Y-2.706
X6.4319Y-2.806
X6.4319Y-2.906
X6.4319Y-3.006
X6.4319Y-3.106
X6.4319Y-3.206
X6.4319Y-3.306
X6.4319Y-3.406
X6.8462Y-2.706
X6.8462Y-2.806
X6.8462Y-2.906
X6.8462Y-3.006
X6.8462Y-3.106
X6.8462Y-3.206
X6.8462Y-3.306
X6.8462Y-3.406
X6.9463Y-2.706
X6.9463Y-2.806
X6.9463Y-2.906
X6.9463Y-3.006
X6.9463Y-3.106
X6.9463Y-3.206
X6.9463Y-3.306
X6.9463Y-3.406
T0
M30
