M48
; DRILL file {KiCad (5.1.5-0-10_14)} date Sunday, July 12, 2020 at 01:30:38 PM
; FORMAT={-:-/ absolute / inch / decimal}
; #@! TF.CreationDate,2020-07-12T13:30:38-04:00
; #@! TF.GenerationSoftware,Kicad,Pcbnew,(5.1.5-0-10_14)
; #@! TF.FileFunction,Plated,1,2,PTH
FMAT,2
INCH
T1C0.0315
T2C0.0354
T3C0.0400
%
G90
G05
T1
X4.772Y-3.1856
X4.9689Y-3.1856
X4.7738Y-2.774
X4.9706Y-2.774
X4.734Y-3.444
X5.034Y-3.444
X4.823Y-2.979
X4.9214Y-2.979
X4.734Y-3.315
X5.034Y-3.315
X4.825Y-2.566
X4.9234Y-2.566
T2
X4.938Y-3.604
X5.038Y-3.604
X4.739Y-3.604
X4.839Y-3.604
T3
X4.451Y-2.706
X4.451Y-2.806
X4.451Y-2.906
X4.451Y-3.006
X4.451Y-3.106
X4.451Y-3.206
X4.451Y-3.306
X4.451Y-3.406
X4.551Y-2.706
X4.551Y-2.806
X4.551Y-2.906
X4.551Y-3.006
X4.551Y-3.106
X4.551Y-3.206
X4.551Y-3.306
X4.551Y-3.406
X5.8927Y-2.706
X5.8927Y-2.806
X5.8927Y-2.906
X5.8927Y-3.006
X5.8927Y-3.106
X5.8927Y-3.206
X5.8927Y-3.306
X5.8927Y-3.406
X5.9928Y-2.706
X5.9928Y-2.806
X5.9928Y-2.906
X5.9928Y-3.006
X5.9928Y-3.106
X5.9928Y-3.206
X5.9928Y-3.306
X5.9928Y-3.406
X7.875Y-2.706
X7.875Y-2.806
X7.875Y-2.906
X7.875Y-3.006
X7.875Y-3.106
X7.875Y-3.206
X7.875Y-3.306
X7.875Y-3.406
X7.975Y-2.706
X7.975Y-2.806
X7.975Y-2.906
X7.975Y-3.006
X7.975Y-3.106
X7.975Y-3.206
X7.975Y-3.306
X7.975Y-3.406
X5.232Y-2.706
X5.232Y-2.806
X5.232Y-2.906
X5.232Y-3.006
X5.232Y-3.106
X5.232Y-3.206
X5.232Y-3.306
X5.232Y-3.406
X5.332Y-2.706
X5.332Y-2.806
X5.332Y-2.906
X5.332Y-3.006
X5.332Y-3.106
X5.332Y-3.206
X5.332Y-3.306
X5.332Y-3.406
X6.5535Y-2.706
X6.5535Y-2.806
X6.5535Y-2.906
X6.5535Y-3.006
X6.5535Y-3.106
X6.5535Y-3.206
X6.5535Y-3.306
X6.5535Y-3.406
X6.6535Y-2.706
X6.6535Y-2.806
X6.6535Y-2.906
X6.6535Y-3.006
X6.6535Y-3.106
X6.6535Y-3.206
X6.6535Y-3.306
X6.6535Y-3.406
X7.2142Y-2.706
X7.2142Y-2.806
X7.2142Y-2.906
X7.2142Y-3.006
X7.2142Y-3.106
X7.2142Y-3.206
X7.2142Y-3.306
X7.2142Y-3.406
X7.3142Y-2.706
X7.3142Y-2.806
X7.3142Y-2.906
X7.3142Y-3.006
X7.3142Y-3.106
X7.3142Y-3.206
X7.3142Y-3.306
X7.3142Y-3.406
T0
M30
