G04 #@! TF.GenerationSoftware,KiCad,Pcbnew,(5.1.5-0-10_14)*
G04 #@! TF.CreationDate,2020-10-09T20:18:39-04:00*
G04 #@! TF.ProjectId,AYOM - Power Supply Daughter Board,41594f4d-202d-4205-906f-776572205375,1.2*
G04 #@! TF.SameCoordinates,Original*
G04 #@! TF.FileFunction,Copper,L2,Bot*
G04 #@! TF.FilePolarity,Positive*
%FSLAX46Y46*%
G04 Gerber Fmt 4.6, Leading zero omitted, Abs format (unit mm)*
G04 Created by KiCad (PCBNEW (5.1.5-0-10_14)) date 2020-10-09 20:18:39*
%MOMM*%
%LPD*%
G04 APERTURE LIST*
%ADD10C,1.600000*%
%ADD11C,1.800000*%
%ADD12R,1.800000X1.800000*%
%ADD13R,1.727200X1.727200*%
%ADD14O,1.727200X1.727200*%
%ADD15O,1.600000X1.600000*%
%ADD16C,1.000000*%
%ADD17C,0.254000*%
G04 APERTURE END LIST*
D10*
X137818500Y-65430400D03*
X135318500Y-65430400D03*
X135267700Y-75921680D03*
X137767700Y-75921680D03*
X138972300Y-81167320D03*
X133972300Y-81167320D03*
X139017700Y-70713600D03*
X134017700Y-70713600D03*
D11*
X133134100Y-91795600D03*
D12*
X135674100Y-91795600D03*
X140728700Y-91795600D03*
D11*
X138188700Y-91795600D03*
D13*
X113055400Y-68732400D03*
D14*
X115595400Y-68732400D03*
X113055400Y-71272400D03*
X115595400Y-71272400D03*
X113055400Y-73812400D03*
X115595400Y-73812400D03*
X113055400Y-76352400D03*
X115595400Y-76352400D03*
X113055400Y-78892400D03*
X115595400Y-78892400D03*
X113055400Y-81432400D03*
X115595400Y-81432400D03*
X113055400Y-83972400D03*
X115595400Y-83972400D03*
X113055400Y-86512400D03*
X115595400Y-86512400D03*
X150304500Y-86512400D03*
X147764500Y-86512400D03*
X150304500Y-83972400D03*
X147764500Y-83972400D03*
X150304500Y-81432400D03*
X147764500Y-81432400D03*
X150304500Y-78892400D03*
X147764500Y-78892400D03*
X150304500Y-76352400D03*
X147764500Y-76352400D03*
X150304500Y-73812400D03*
X147764500Y-73812400D03*
X150304500Y-71272400D03*
X147764500Y-71272400D03*
X150304500Y-68732400D03*
D13*
X147764500Y-68732400D03*
X160829625Y-68732400D03*
D14*
X163369625Y-68732400D03*
X160829625Y-71272400D03*
X163369625Y-71272400D03*
X160829625Y-73812400D03*
X163369625Y-73812400D03*
X160829625Y-76352400D03*
X163369625Y-76352400D03*
X160829625Y-78892400D03*
X163369625Y-78892400D03*
X160829625Y-81432400D03*
X163369625Y-81432400D03*
X160829625Y-83972400D03*
X163369625Y-83972400D03*
X160829625Y-86512400D03*
X163369625Y-86512400D03*
X176434750Y-86512400D03*
X173894750Y-86512400D03*
X176434750Y-83972400D03*
X173894750Y-83972400D03*
X176434750Y-81432400D03*
X173894750Y-81432400D03*
X176434750Y-78892400D03*
X173894750Y-78892400D03*
X176434750Y-76352400D03*
X173894750Y-76352400D03*
X176434750Y-73812400D03*
X173894750Y-73812400D03*
X176434750Y-71272400D03*
X173894750Y-71272400D03*
X176434750Y-68732400D03*
D13*
X173894750Y-68732400D03*
X186959875Y-68732400D03*
D14*
X189499875Y-68732400D03*
X186959875Y-71272400D03*
X189499875Y-71272400D03*
X186959875Y-73812400D03*
X189499875Y-73812400D03*
X186959875Y-76352400D03*
X189499875Y-76352400D03*
X186959875Y-78892400D03*
X189499875Y-78892400D03*
X186959875Y-81432400D03*
X189499875Y-81432400D03*
X186959875Y-83972400D03*
X189499875Y-83972400D03*
X186959875Y-86512400D03*
X189499875Y-86512400D03*
X202565000Y-86512400D03*
X200025000Y-86512400D03*
X202565000Y-83972400D03*
X200025000Y-83972400D03*
X202565000Y-81432400D03*
X200025000Y-81432400D03*
X202565000Y-78892400D03*
X200025000Y-78892400D03*
X202565000Y-76352400D03*
X200025000Y-76352400D03*
X202565000Y-73812400D03*
X200025000Y-73812400D03*
X202565000Y-71272400D03*
X200025000Y-71272400D03*
X202565000Y-68732400D03*
D13*
X200025000Y-68732400D03*
D15*
X133007100Y-87731600D03*
D10*
X140627100Y-87731600D03*
X133007100Y-84455000D03*
D15*
X140627100Y-84455000D03*
D13*
X124587000Y-72542400D03*
D14*
X127127000Y-72542400D03*
X124587000Y-75082400D03*
X127127000Y-75082400D03*
X124587000Y-77622400D03*
X127127000Y-77622400D03*
X124587000Y-80162400D03*
X127127000Y-80162400D03*
X124587000Y-82702400D03*
X127127000Y-82702400D03*
D16*
X137259980Y-84455000D02*
X140627100Y-84455000D01*
X133972300Y-81167320D02*
X137259980Y-84455000D01*
X133972300Y-77217080D02*
X135267700Y-75921680D01*
X133972300Y-81167320D02*
X133972300Y-77217080D01*
X128348314Y-72542400D02*
X130365500Y-74559586D01*
X127127000Y-72542400D02*
X128348314Y-72542400D01*
X130365500Y-85090000D02*
X133007100Y-87731600D01*
X130365500Y-74559586D02*
X130365500Y-85090000D01*
X147764500Y-81432400D02*
X142748000Y-76415900D01*
X142748000Y-76415900D02*
X142748000Y-70675500D01*
X142748000Y-70675500D02*
X140525500Y-68453000D01*
X140525500Y-68453000D02*
X123317000Y-68453000D01*
X123317000Y-68453000D02*
X119316500Y-72453500D01*
X119316500Y-77711300D02*
X115595400Y-81432400D01*
X119316500Y-72453500D02*
X119316500Y-77711300D01*
X146543186Y-83972400D02*
X143891000Y-86624586D01*
X147764500Y-83972400D02*
X146543186Y-83972400D01*
X143891000Y-86624586D02*
X143891000Y-92265500D01*
X143891000Y-92265500D02*
X142430500Y-93726000D01*
X125349000Y-93726000D02*
X116458999Y-84835999D01*
X116458999Y-84835999D02*
X115595400Y-83972400D01*
X142430500Y-93726000D02*
X125349000Y-93726000D01*
D17*
G36*
X117170601Y-61308571D02*
G01*
X117167407Y-61341000D01*
X117180150Y-61470383D01*
X117217890Y-61594793D01*
X117279175Y-61709450D01*
X117361652Y-61809948D01*
X117462150Y-61892425D01*
X117576807Y-61953710D01*
X117701217Y-61991450D01*
X117798181Y-62001000D01*
X117830600Y-62004193D01*
X117863019Y-62001000D01*
X154907581Y-62001000D01*
X154940000Y-62004193D01*
X154972419Y-62001000D01*
X155069383Y-61991450D01*
X155193793Y-61953710D01*
X155308450Y-61892425D01*
X155408948Y-61809948D01*
X155491425Y-61709450D01*
X155552710Y-61594793D01*
X155590450Y-61470383D01*
X155603193Y-61341000D01*
X155600000Y-61308581D01*
X155600000Y-57818872D01*
X156265000Y-57818872D01*
X156265000Y-58259128D01*
X156350890Y-58690925D01*
X156519369Y-59097669D01*
X156763962Y-59463729D01*
X157075271Y-59775038D01*
X157441331Y-60019631D01*
X157848075Y-60188110D01*
X158279872Y-60274000D01*
X158720128Y-60274000D01*
X159151925Y-60188110D01*
X159558669Y-60019631D01*
X159924729Y-59775038D01*
X160236038Y-59463729D01*
X160480631Y-59097669D01*
X160649110Y-58690925D01*
X160735000Y-58259128D01*
X160735000Y-57818872D01*
X160649110Y-57387075D01*
X160480631Y-56980331D01*
X160236038Y-56614271D01*
X159924729Y-56302962D01*
X159558669Y-56058369D01*
X159151925Y-55889890D01*
X158720128Y-55804000D01*
X158279872Y-55804000D01*
X157848075Y-55889890D01*
X157441331Y-56058369D01*
X157075271Y-56302962D01*
X156763962Y-56614271D01*
X156519369Y-56980331D01*
X156350890Y-57387075D01*
X156265000Y-57818872D01*
X155600000Y-57818872D01*
X155600000Y-55041400D01*
X161392000Y-55041400D01*
X161392001Y-61308571D01*
X161388807Y-61341000D01*
X161401550Y-61470383D01*
X161439290Y-61594793D01*
X161500575Y-61709450D01*
X161583052Y-61809948D01*
X161683550Y-61892425D01*
X161798207Y-61953710D01*
X161922617Y-61991450D01*
X162019581Y-62001000D01*
X162052000Y-62004193D01*
X162084419Y-62001000D01*
X197528781Y-62001000D01*
X197561200Y-62004193D01*
X197593619Y-62001000D01*
X197690583Y-61991450D01*
X197814993Y-61953710D01*
X197929650Y-61892425D01*
X198030148Y-61809948D01*
X198112625Y-61709450D01*
X198173910Y-61594793D01*
X198211650Y-61470383D01*
X198224393Y-61341000D01*
X198221200Y-61308581D01*
X198221200Y-57818872D01*
X199923600Y-57818872D01*
X199923600Y-58259128D01*
X200009490Y-58690925D01*
X200177969Y-59097669D01*
X200422562Y-59463729D01*
X200733871Y-59775038D01*
X201099931Y-60019631D01*
X201506675Y-60188110D01*
X201938472Y-60274000D01*
X202378728Y-60274000D01*
X202810525Y-60188110D01*
X203217269Y-60019631D01*
X203583329Y-59775038D01*
X203894638Y-59463729D01*
X204139231Y-59097669D01*
X204307710Y-58690925D01*
X204393600Y-58259128D01*
X204393600Y-57818872D01*
X204307710Y-57387075D01*
X204139231Y-56980331D01*
X203894638Y-56614271D01*
X203583329Y-56302962D01*
X203217269Y-56058369D01*
X202810525Y-55889890D01*
X202378728Y-55804000D01*
X201938472Y-55804000D01*
X201506675Y-55889890D01*
X201099931Y-56058369D01*
X200733871Y-56302962D01*
X200422562Y-56614271D01*
X200177969Y-56980331D01*
X200009490Y-57387075D01*
X199923600Y-57818872D01*
X198221200Y-57818872D01*
X198221200Y-55041400D01*
X206096001Y-55041400D01*
X206096000Y-61308581D01*
X206096000Y-61308582D01*
X206096001Y-94709572D01*
X206096000Y-94709582D01*
X206096001Y-101041600D01*
X198221200Y-101041600D01*
X198221200Y-97831672D01*
X199923600Y-97831672D01*
X199923600Y-98271928D01*
X200009490Y-98703725D01*
X200177969Y-99110469D01*
X200422562Y-99476529D01*
X200733871Y-99787838D01*
X201099931Y-100032431D01*
X201506675Y-100200910D01*
X201938472Y-100286800D01*
X202378728Y-100286800D01*
X202810525Y-100200910D01*
X203217269Y-100032431D01*
X203583329Y-99787838D01*
X203894638Y-99476529D01*
X204139231Y-99110469D01*
X204307710Y-98703725D01*
X204393600Y-98271928D01*
X204393600Y-97831672D01*
X204307710Y-97399875D01*
X204139231Y-96993131D01*
X203894638Y-96627071D01*
X203583329Y-96315762D01*
X203217269Y-96071169D01*
X202810525Y-95902690D01*
X202378728Y-95816800D01*
X201938472Y-95816800D01*
X201506675Y-95902690D01*
X201099931Y-96071169D01*
X200733871Y-96315762D01*
X200422562Y-96627071D01*
X200177969Y-96993131D01*
X200009490Y-97399875D01*
X199923600Y-97831672D01*
X198221200Y-97831672D01*
X198221200Y-94774419D01*
X198224393Y-94742000D01*
X198211650Y-94612617D01*
X198173910Y-94488207D01*
X198112625Y-94373550D01*
X198030148Y-94273052D01*
X197929650Y-94190575D01*
X197814993Y-94129290D01*
X197690583Y-94091550D01*
X197593619Y-94082000D01*
X197561200Y-94078807D01*
X197528781Y-94082000D01*
X162084419Y-94082000D01*
X162052000Y-94078807D01*
X162019581Y-94082000D01*
X161922617Y-94091550D01*
X161798207Y-94129290D01*
X161683550Y-94190575D01*
X161583052Y-94273052D01*
X161500575Y-94373550D01*
X161439290Y-94488207D01*
X161401550Y-94612617D01*
X161388807Y-94742000D01*
X161392001Y-94774429D01*
X161392000Y-101041600D01*
X155600000Y-101041600D01*
X155600000Y-97831672D01*
X156265000Y-97831672D01*
X156265000Y-98271928D01*
X156350890Y-98703725D01*
X156519369Y-99110469D01*
X156763962Y-99476529D01*
X157075271Y-99787838D01*
X157441331Y-100032431D01*
X157848075Y-100200910D01*
X158279872Y-100286800D01*
X158720128Y-100286800D01*
X159151925Y-100200910D01*
X159558669Y-100032431D01*
X159924729Y-99787838D01*
X160236038Y-99476529D01*
X160480631Y-99110469D01*
X160649110Y-98703725D01*
X160735000Y-98271928D01*
X160735000Y-97831672D01*
X160649110Y-97399875D01*
X160480631Y-96993131D01*
X160236038Y-96627071D01*
X159924729Y-96315762D01*
X159558669Y-96071169D01*
X159151925Y-95902690D01*
X158720128Y-95816800D01*
X158279872Y-95816800D01*
X157848075Y-95902690D01*
X157441331Y-96071169D01*
X157075271Y-96315762D01*
X156763962Y-96627071D01*
X156519369Y-96993131D01*
X156350890Y-97399875D01*
X156265000Y-97831672D01*
X155600000Y-97831672D01*
X155600000Y-94774419D01*
X155603193Y-94742000D01*
X155590450Y-94612617D01*
X155552710Y-94488207D01*
X155491425Y-94373550D01*
X155408948Y-94273052D01*
X155308450Y-94190575D01*
X155193793Y-94129290D01*
X155069383Y-94091550D01*
X154972419Y-94082000D01*
X154940000Y-94078807D01*
X154907581Y-94082000D01*
X143679631Y-94082000D01*
X144654140Y-93107492D01*
X144697449Y-93071949D01*
X144839284Y-92899123D01*
X144944676Y-92701947D01*
X145009577Y-92487999D01*
X145026000Y-92321252D01*
X145031491Y-92265500D01*
X145026000Y-92209749D01*
X145026000Y-87094717D01*
X146914151Y-85206566D01*
X146967781Y-85242400D01*
X146809198Y-85348361D01*
X146600461Y-85557098D01*
X146436458Y-85802547D01*
X146323490Y-86075275D01*
X146265900Y-86364801D01*
X146265900Y-86659999D01*
X146323490Y-86949525D01*
X146436458Y-87222253D01*
X146600461Y-87467702D01*
X146809198Y-87676439D01*
X147054647Y-87840442D01*
X147327375Y-87953410D01*
X147616901Y-88011000D01*
X147912099Y-88011000D01*
X148201625Y-87953410D01*
X148474353Y-87840442D01*
X148719802Y-87676439D01*
X148928539Y-87467702D01*
X149034500Y-87309119D01*
X149140461Y-87467702D01*
X149349198Y-87676439D01*
X149594647Y-87840442D01*
X149867375Y-87953410D01*
X150156901Y-88011000D01*
X150452099Y-88011000D01*
X150741625Y-87953410D01*
X151014353Y-87840442D01*
X151259802Y-87676439D01*
X151468539Y-87467702D01*
X151632542Y-87222253D01*
X151745510Y-86949525D01*
X151803100Y-86659999D01*
X151803100Y-86364801D01*
X151745510Y-86075275D01*
X151632542Y-85802547D01*
X151468539Y-85557098D01*
X151259802Y-85348361D01*
X151101219Y-85242400D01*
X151259802Y-85136439D01*
X151468539Y-84927702D01*
X151632542Y-84682253D01*
X151745510Y-84409525D01*
X151803100Y-84119999D01*
X151803100Y-83824801D01*
X151745510Y-83535275D01*
X151632542Y-83262547D01*
X151468539Y-83017098D01*
X151259802Y-82808361D01*
X151101219Y-82702400D01*
X151259802Y-82596439D01*
X151468539Y-82387702D01*
X151632542Y-82142253D01*
X151745510Y-81869525D01*
X151803100Y-81579999D01*
X151803100Y-81284801D01*
X151745510Y-80995275D01*
X151632542Y-80722547D01*
X151468539Y-80477098D01*
X151259802Y-80268361D01*
X151101219Y-80162400D01*
X151259802Y-80056439D01*
X151468539Y-79847702D01*
X151632542Y-79602253D01*
X151745510Y-79329525D01*
X151803100Y-79039999D01*
X151803100Y-78744801D01*
X159331025Y-78744801D01*
X159331025Y-79039999D01*
X159388615Y-79329525D01*
X159501583Y-79602253D01*
X159665586Y-79847702D01*
X159874323Y-80056439D01*
X160032906Y-80162400D01*
X159874323Y-80268361D01*
X159665586Y-80477098D01*
X159501583Y-80722547D01*
X159388615Y-80995275D01*
X159331025Y-81284801D01*
X159331025Y-81579999D01*
X159388615Y-81869525D01*
X159501583Y-82142253D01*
X159665586Y-82387702D01*
X159874323Y-82596439D01*
X160032906Y-82702400D01*
X159874323Y-82808361D01*
X159665586Y-83017098D01*
X159501583Y-83262547D01*
X159388615Y-83535275D01*
X159331025Y-83824801D01*
X159331025Y-84119999D01*
X159388615Y-84409525D01*
X159501583Y-84682253D01*
X159665586Y-84927702D01*
X159874323Y-85136439D01*
X160032906Y-85242400D01*
X159874323Y-85348361D01*
X159665586Y-85557098D01*
X159501583Y-85802547D01*
X159388615Y-86075275D01*
X159331025Y-86364801D01*
X159331025Y-86659999D01*
X159388615Y-86949525D01*
X159501583Y-87222253D01*
X159665586Y-87467702D01*
X159874323Y-87676439D01*
X160119772Y-87840442D01*
X160392500Y-87953410D01*
X160682026Y-88011000D01*
X160977224Y-88011000D01*
X161266750Y-87953410D01*
X161539478Y-87840442D01*
X161784927Y-87676439D01*
X161993664Y-87467702D01*
X162099625Y-87309119D01*
X162205586Y-87467702D01*
X162414323Y-87676439D01*
X162659772Y-87840442D01*
X162932500Y-87953410D01*
X163222026Y-88011000D01*
X163517224Y-88011000D01*
X163806750Y-87953410D01*
X164079478Y-87840442D01*
X164324927Y-87676439D01*
X164533664Y-87467702D01*
X164697667Y-87222253D01*
X164810635Y-86949525D01*
X164868225Y-86659999D01*
X164868225Y-86364801D01*
X164810635Y-86075275D01*
X164697667Y-85802547D01*
X164533664Y-85557098D01*
X164324927Y-85348361D01*
X164166344Y-85242400D01*
X164324927Y-85136439D01*
X164533664Y-84927702D01*
X164697667Y-84682253D01*
X164810635Y-84409525D01*
X164868225Y-84119999D01*
X164868225Y-83824801D01*
X164810635Y-83535275D01*
X164697667Y-83262547D01*
X164533664Y-83017098D01*
X164324927Y-82808361D01*
X164166344Y-82702400D01*
X164324927Y-82596439D01*
X164533664Y-82387702D01*
X164697667Y-82142253D01*
X164810635Y-81869525D01*
X164868225Y-81579999D01*
X164868225Y-81284801D01*
X164810635Y-80995275D01*
X164697667Y-80722547D01*
X164533664Y-80477098D01*
X164324927Y-80268361D01*
X164166344Y-80162400D01*
X164324927Y-80056439D01*
X164533664Y-79847702D01*
X164697667Y-79602253D01*
X164810635Y-79329525D01*
X164868225Y-79039999D01*
X164868225Y-78744801D01*
X172396150Y-78744801D01*
X172396150Y-79039999D01*
X172453740Y-79329525D01*
X172566708Y-79602253D01*
X172730711Y-79847702D01*
X172939448Y-80056439D01*
X173098031Y-80162400D01*
X172939448Y-80268361D01*
X172730711Y-80477098D01*
X172566708Y-80722547D01*
X172453740Y-80995275D01*
X172396150Y-81284801D01*
X172396150Y-81579999D01*
X172453740Y-81869525D01*
X172566708Y-82142253D01*
X172730711Y-82387702D01*
X172939448Y-82596439D01*
X173098031Y-82702400D01*
X172939448Y-82808361D01*
X172730711Y-83017098D01*
X172566708Y-83262547D01*
X172453740Y-83535275D01*
X172396150Y-83824801D01*
X172396150Y-84119999D01*
X172453740Y-84409525D01*
X172566708Y-84682253D01*
X172730711Y-84927702D01*
X172939448Y-85136439D01*
X173098031Y-85242400D01*
X172939448Y-85348361D01*
X172730711Y-85557098D01*
X172566708Y-85802547D01*
X172453740Y-86075275D01*
X172396150Y-86364801D01*
X172396150Y-86659999D01*
X172453740Y-86949525D01*
X172566708Y-87222253D01*
X172730711Y-87467702D01*
X172939448Y-87676439D01*
X173184897Y-87840442D01*
X173457625Y-87953410D01*
X173747151Y-88011000D01*
X174042349Y-88011000D01*
X174331875Y-87953410D01*
X174604603Y-87840442D01*
X174850052Y-87676439D01*
X175058789Y-87467702D01*
X175164750Y-87309119D01*
X175270711Y-87467702D01*
X175479448Y-87676439D01*
X175724897Y-87840442D01*
X175997625Y-87953410D01*
X176287151Y-88011000D01*
X176582349Y-88011000D01*
X176871875Y-87953410D01*
X177144603Y-87840442D01*
X177390052Y-87676439D01*
X177598789Y-87467702D01*
X177762792Y-87222253D01*
X177875760Y-86949525D01*
X177933350Y-86659999D01*
X177933350Y-86364801D01*
X177875760Y-86075275D01*
X177762792Y-85802547D01*
X177598789Y-85557098D01*
X177390052Y-85348361D01*
X177231469Y-85242400D01*
X177390052Y-85136439D01*
X177598789Y-84927702D01*
X177762792Y-84682253D01*
X177875760Y-84409525D01*
X177933350Y-84119999D01*
X177933350Y-83824801D01*
X177875760Y-83535275D01*
X177762792Y-83262547D01*
X177598789Y-83017098D01*
X177390052Y-82808361D01*
X177231469Y-82702400D01*
X177390052Y-82596439D01*
X177598789Y-82387702D01*
X177762792Y-82142253D01*
X177875760Y-81869525D01*
X177933350Y-81579999D01*
X177933350Y-81284801D01*
X177875760Y-80995275D01*
X177762792Y-80722547D01*
X177598789Y-80477098D01*
X177390052Y-80268361D01*
X177231469Y-80162400D01*
X177390052Y-80056439D01*
X177598789Y-79847702D01*
X177762792Y-79602253D01*
X177875760Y-79329525D01*
X177933350Y-79039999D01*
X177933350Y-78744801D01*
X185461275Y-78744801D01*
X185461275Y-79039999D01*
X185518865Y-79329525D01*
X185631833Y-79602253D01*
X185795836Y-79847702D01*
X186004573Y-80056439D01*
X186163156Y-80162400D01*
X186004573Y-80268361D01*
X185795836Y-80477098D01*
X185631833Y-80722547D01*
X185518865Y-80995275D01*
X185461275Y-81284801D01*
X185461275Y-81579999D01*
X185518865Y-81869525D01*
X185631833Y-82142253D01*
X185795836Y-82387702D01*
X186004573Y-82596439D01*
X186163156Y-82702400D01*
X186004573Y-82808361D01*
X185795836Y-83017098D01*
X185631833Y-83262547D01*
X185518865Y-83535275D01*
X185461275Y-83824801D01*
X185461275Y-84119999D01*
X185518865Y-84409525D01*
X185631833Y-84682253D01*
X185795836Y-84927702D01*
X186004573Y-85136439D01*
X186163156Y-85242400D01*
X186004573Y-85348361D01*
X185795836Y-85557098D01*
X185631833Y-85802547D01*
X185518865Y-86075275D01*
X185461275Y-86364801D01*
X185461275Y-86659999D01*
X185518865Y-86949525D01*
X185631833Y-87222253D01*
X185795836Y-87467702D01*
X186004573Y-87676439D01*
X186250022Y-87840442D01*
X186522750Y-87953410D01*
X186812276Y-88011000D01*
X187107474Y-88011000D01*
X187397000Y-87953410D01*
X187669728Y-87840442D01*
X187915177Y-87676439D01*
X188123914Y-87467702D01*
X188229875Y-87309119D01*
X188335836Y-87467702D01*
X188544573Y-87676439D01*
X188790022Y-87840442D01*
X189062750Y-87953410D01*
X189352276Y-88011000D01*
X189647474Y-88011000D01*
X189937000Y-87953410D01*
X190209728Y-87840442D01*
X190455177Y-87676439D01*
X190663914Y-87467702D01*
X190827917Y-87222253D01*
X190940885Y-86949525D01*
X190998475Y-86659999D01*
X190998475Y-86364801D01*
X190940885Y-86075275D01*
X190827917Y-85802547D01*
X190663914Y-85557098D01*
X190455177Y-85348361D01*
X190296594Y-85242400D01*
X190455177Y-85136439D01*
X190663914Y-84927702D01*
X190827917Y-84682253D01*
X190940885Y-84409525D01*
X190998475Y-84119999D01*
X190998475Y-83824801D01*
X190940885Y-83535275D01*
X190827917Y-83262547D01*
X190663914Y-83017098D01*
X190455177Y-82808361D01*
X190296594Y-82702400D01*
X190455177Y-82596439D01*
X190663914Y-82387702D01*
X190827917Y-82142253D01*
X190940885Y-81869525D01*
X190998475Y-81579999D01*
X190998475Y-81284801D01*
X190940885Y-80995275D01*
X190827917Y-80722547D01*
X190663914Y-80477098D01*
X190455177Y-80268361D01*
X190296594Y-80162400D01*
X190455177Y-80056439D01*
X190663914Y-79847702D01*
X190827917Y-79602253D01*
X190940885Y-79329525D01*
X190998475Y-79039999D01*
X190998475Y-78744801D01*
X198526400Y-78744801D01*
X198526400Y-79039999D01*
X198583990Y-79329525D01*
X198696958Y-79602253D01*
X198860961Y-79847702D01*
X199069698Y-80056439D01*
X199228281Y-80162400D01*
X199069698Y-80268361D01*
X198860961Y-80477098D01*
X198696958Y-80722547D01*
X198583990Y-80995275D01*
X198526400Y-81284801D01*
X198526400Y-81579999D01*
X198583990Y-81869525D01*
X198696958Y-82142253D01*
X198860961Y-82387702D01*
X199069698Y-82596439D01*
X199228281Y-82702400D01*
X199069698Y-82808361D01*
X198860961Y-83017098D01*
X198696958Y-83262547D01*
X198583990Y-83535275D01*
X198526400Y-83824801D01*
X198526400Y-84119999D01*
X198583990Y-84409525D01*
X198696958Y-84682253D01*
X198860961Y-84927702D01*
X199069698Y-85136439D01*
X199228281Y-85242400D01*
X199069698Y-85348361D01*
X198860961Y-85557098D01*
X198696958Y-85802547D01*
X198583990Y-86075275D01*
X198526400Y-86364801D01*
X198526400Y-86659999D01*
X198583990Y-86949525D01*
X198696958Y-87222253D01*
X198860961Y-87467702D01*
X199069698Y-87676439D01*
X199315147Y-87840442D01*
X199587875Y-87953410D01*
X199877401Y-88011000D01*
X200172599Y-88011000D01*
X200462125Y-87953410D01*
X200734853Y-87840442D01*
X200980302Y-87676439D01*
X201189039Y-87467702D01*
X201295000Y-87309119D01*
X201400961Y-87467702D01*
X201609698Y-87676439D01*
X201855147Y-87840442D01*
X202127875Y-87953410D01*
X202417401Y-88011000D01*
X202712599Y-88011000D01*
X203002125Y-87953410D01*
X203274853Y-87840442D01*
X203520302Y-87676439D01*
X203729039Y-87467702D01*
X203893042Y-87222253D01*
X204006010Y-86949525D01*
X204063600Y-86659999D01*
X204063600Y-86364801D01*
X204006010Y-86075275D01*
X203893042Y-85802547D01*
X203729039Y-85557098D01*
X203520302Y-85348361D01*
X203361719Y-85242400D01*
X203520302Y-85136439D01*
X203729039Y-84927702D01*
X203893042Y-84682253D01*
X204006010Y-84409525D01*
X204063600Y-84119999D01*
X204063600Y-83824801D01*
X204006010Y-83535275D01*
X203893042Y-83262547D01*
X203729039Y-83017098D01*
X203520302Y-82808361D01*
X203361719Y-82702400D01*
X203520302Y-82596439D01*
X203729039Y-82387702D01*
X203893042Y-82142253D01*
X204006010Y-81869525D01*
X204063600Y-81579999D01*
X204063600Y-81284801D01*
X204006010Y-80995275D01*
X203893042Y-80722547D01*
X203729039Y-80477098D01*
X203520302Y-80268361D01*
X203361719Y-80162400D01*
X203520302Y-80056439D01*
X203729039Y-79847702D01*
X203893042Y-79602253D01*
X204006010Y-79329525D01*
X204063600Y-79039999D01*
X204063600Y-78744801D01*
X204006010Y-78455275D01*
X203893042Y-78182547D01*
X203729039Y-77937098D01*
X203520302Y-77728361D01*
X203354897Y-77617841D01*
X203453488Y-77559217D01*
X203671854Y-77362693D01*
X203847684Y-77127344D01*
X203974222Y-76862214D01*
X204019958Y-76711426D01*
X203898817Y-76479400D01*
X202692000Y-76479400D01*
X202692000Y-76499400D01*
X202438000Y-76499400D01*
X202438000Y-76479400D01*
X200152000Y-76479400D01*
X200152000Y-76499400D01*
X199898000Y-76499400D01*
X199898000Y-76479400D01*
X198691183Y-76479400D01*
X198570042Y-76711426D01*
X198615778Y-76862214D01*
X198742316Y-77127344D01*
X198918146Y-77362693D01*
X199136512Y-77559217D01*
X199235103Y-77617841D01*
X199069698Y-77728361D01*
X198860961Y-77937098D01*
X198696958Y-78182547D01*
X198583990Y-78455275D01*
X198526400Y-78744801D01*
X190998475Y-78744801D01*
X190940885Y-78455275D01*
X190827917Y-78182547D01*
X190663914Y-77937098D01*
X190455177Y-77728361D01*
X190289772Y-77617841D01*
X190388363Y-77559217D01*
X190606729Y-77362693D01*
X190782559Y-77127344D01*
X190909097Y-76862214D01*
X190954833Y-76711426D01*
X190833692Y-76479400D01*
X189626875Y-76479400D01*
X189626875Y-76499400D01*
X189372875Y-76499400D01*
X189372875Y-76479400D01*
X187086875Y-76479400D01*
X187086875Y-76499400D01*
X186832875Y-76499400D01*
X186832875Y-76479400D01*
X185626058Y-76479400D01*
X185504917Y-76711426D01*
X185550653Y-76862214D01*
X185677191Y-77127344D01*
X185853021Y-77362693D01*
X186071387Y-77559217D01*
X186169978Y-77617841D01*
X186004573Y-77728361D01*
X185795836Y-77937098D01*
X185631833Y-78182547D01*
X185518865Y-78455275D01*
X185461275Y-78744801D01*
X177933350Y-78744801D01*
X177875760Y-78455275D01*
X177762792Y-78182547D01*
X177598789Y-77937098D01*
X177390052Y-77728361D01*
X177224647Y-77617841D01*
X177323238Y-77559217D01*
X177541604Y-77362693D01*
X177717434Y-77127344D01*
X177843972Y-76862214D01*
X177889708Y-76711426D01*
X177768567Y-76479400D01*
X176561750Y-76479400D01*
X176561750Y-76499400D01*
X176307750Y-76499400D01*
X176307750Y-76479400D01*
X174021750Y-76479400D01*
X174021750Y-76499400D01*
X173767750Y-76499400D01*
X173767750Y-76479400D01*
X172560933Y-76479400D01*
X172439792Y-76711426D01*
X172485528Y-76862214D01*
X172612066Y-77127344D01*
X172787896Y-77362693D01*
X173006262Y-77559217D01*
X173104853Y-77617841D01*
X172939448Y-77728361D01*
X172730711Y-77937098D01*
X172566708Y-78182547D01*
X172453740Y-78455275D01*
X172396150Y-78744801D01*
X164868225Y-78744801D01*
X164810635Y-78455275D01*
X164697667Y-78182547D01*
X164533664Y-77937098D01*
X164324927Y-77728361D01*
X164159522Y-77617841D01*
X164258113Y-77559217D01*
X164476479Y-77362693D01*
X164652309Y-77127344D01*
X164778847Y-76862214D01*
X164824583Y-76711426D01*
X164703442Y-76479400D01*
X163496625Y-76479400D01*
X163496625Y-76499400D01*
X163242625Y-76499400D01*
X163242625Y-76479400D01*
X160956625Y-76479400D01*
X160956625Y-76499400D01*
X160702625Y-76499400D01*
X160702625Y-76479400D01*
X159495808Y-76479400D01*
X159374667Y-76711426D01*
X159420403Y-76862214D01*
X159546941Y-77127344D01*
X159722771Y-77362693D01*
X159941137Y-77559217D01*
X160039728Y-77617841D01*
X159874323Y-77728361D01*
X159665586Y-77937098D01*
X159501583Y-78182547D01*
X159388615Y-78455275D01*
X159331025Y-78744801D01*
X151803100Y-78744801D01*
X151745510Y-78455275D01*
X151632542Y-78182547D01*
X151468539Y-77937098D01*
X151259802Y-77728361D01*
X151094397Y-77617841D01*
X151192988Y-77559217D01*
X151411354Y-77362693D01*
X151587184Y-77127344D01*
X151713722Y-76862214D01*
X151759458Y-76711426D01*
X151638317Y-76479400D01*
X150431500Y-76479400D01*
X150431500Y-76499400D01*
X150177500Y-76499400D01*
X150177500Y-76479400D01*
X147891500Y-76479400D01*
X147891500Y-76499400D01*
X147637500Y-76499400D01*
X147637500Y-76479400D01*
X146430683Y-76479400D01*
X146309542Y-76711426D01*
X146355278Y-76862214D01*
X146481816Y-77127344D01*
X146657646Y-77362693D01*
X146876012Y-77559217D01*
X146974603Y-77617841D01*
X146809198Y-77728361D01*
X146600461Y-77937098D01*
X146436458Y-78182547D01*
X146343705Y-78406473D01*
X143883000Y-75945769D01*
X143883000Y-74171426D01*
X146309542Y-74171426D01*
X146355278Y-74322214D01*
X146481816Y-74587344D01*
X146657646Y-74822693D01*
X146876012Y-75019217D01*
X146982270Y-75082400D01*
X146876012Y-75145583D01*
X146657646Y-75342107D01*
X146481816Y-75577456D01*
X146355278Y-75842586D01*
X146309542Y-75993374D01*
X146430683Y-76225400D01*
X147637500Y-76225400D01*
X147637500Y-73939400D01*
X147891500Y-73939400D01*
X147891500Y-76225400D01*
X150177500Y-76225400D01*
X150177500Y-73939400D01*
X150431500Y-73939400D01*
X150431500Y-76225400D01*
X151638317Y-76225400D01*
X151759458Y-75993374D01*
X151713722Y-75842586D01*
X151587184Y-75577456D01*
X151411354Y-75342107D01*
X151192988Y-75145583D01*
X151086730Y-75082400D01*
X151192988Y-75019217D01*
X151411354Y-74822693D01*
X151587184Y-74587344D01*
X151713722Y-74322214D01*
X151759458Y-74171426D01*
X159374667Y-74171426D01*
X159420403Y-74322214D01*
X159546941Y-74587344D01*
X159722771Y-74822693D01*
X159941137Y-75019217D01*
X160047395Y-75082400D01*
X159941137Y-75145583D01*
X159722771Y-75342107D01*
X159546941Y-75577456D01*
X159420403Y-75842586D01*
X159374667Y-75993374D01*
X159495808Y-76225400D01*
X160702625Y-76225400D01*
X160702625Y-73939400D01*
X160956625Y-73939400D01*
X160956625Y-76225400D01*
X163242625Y-76225400D01*
X163242625Y-73939400D01*
X163496625Y-73939400D01*
X163496625Y-76225400D01*
X164703442Y-76225400D01*
X164824583Y-75993374D01*
X164778847Y-75842586D01*
X164652309Y-75577456D01*
X164476479Y-75342107D01*
X164258113Y-75145583D01*
X164151855Y-75082400D01*
X164258113Y-75019217D01*
X164476479Y-74822693D01*
X164652309Y-74587344D01*
X164778847Y-74322214D01*
X164824583Y-74171426D01*
X172439792Y-74171426D01*
X172485528Y-74322214D01*
X172612066Y-74587344D01*
X172787896Y-74822693D01*
X173006262Y-75019217D01*
X173112520Y-75082400D01*
X173006262Y-75145583D01*
X172787896Y-75342107D01*
X172612066Y-75577456D01*
X172485528Y-75842586D01*
X172439792Y-75993374D01*
X172560933Y-76225400D01*
X173767750Y-76225400D01*
X173767750Y-73939400D01*
X174021750Y-73939400D01*
X174021750Y-76225400D01*
X176307750Y-76225400D01*
X176307750Y-73939400D01*
X176561750Y-73939400D01*
X176561750Y-76225400D01*
X177768567Y-76225400D01*
X177889708Y-75993374D01*
X177843972Y-75842586D01*
X177717434Y-75577456D01*
X177541604Y-75342107D01*
X177323238Y-75145583D01*
X177216980Y-75082400D01*
X177323238Y-75019217D01*
X177541604Y-74822693D01*
X177717434Y-74587344D01*
X177843972Y-74322214D01*
X177889708Y-74171426D01*
X185504917Y-74171426D01*
X185550653Y-74322214D01*
X185677191Y-74587344D01*
X185853021Y-74822693D01*
X186071387Y-75019217D01*
X186177645Y-75082400D01*
X186071387Y-75145583D01*
X185853021Y-75342107D01*
X185677191Y-75577456D01*
X185550653Y-75842586D01*
X185504917Y-75993374D01*
X185626058Y-76225400D01*
X186832875Y-76225400D01*
X186832875Y-73939400D01*
X187086875Y-73939400D01*
X187086875Y-76225400D01*
X189372875Y-76225400D01*
X189372875Y-73939400D01*
X189626875Y-73939400D01*
X189626875Y-76225400D01*
X190833692Y-76225400D01*
X190954833Y-75993374D01*
X190909097Y-75842586D01*
X190782559Y-75577456D01*
X190606729Y-75342107D01*
X190388363Y-75145583D01*
X190282105Y-75082400D01*
X190388363Y-75019217D01*
X190606729Y-74822693D01*
X190782559Y-74587344D01*
X190909097Y-74322214D01*
X190954833Y-74171426D01*
X198570042Y-74171426D01*
X198615778Y-74322214D01*
X198742316Y-74587344D01*
X198918146Y-74822693D01*
X199136512Y-75019217D01*
X199242770Y-75082400D01*
X199136512Y-75145583D01*
X198918146Y-75342107D01*
X198742316Y-75577456D01*
X198615778Y-75842586D01*
X198570042Y-75993374D01*
X198691183Y-76225400D01*
X199898000Y-76225400D01*
X199898000Y-73939400D01*
X200152000Y-73939400D01*
X200152000Y-76225400D01*
X202438000Y-76225400D01*
X202438000Y-73939400D01*
X202692000Y-73939400D01*
X202692000Y-76225400D01*
X203898817Y-76225400D01*
X204019958Y-75993374D01*
X203974222Y-75842586D01*
X203847684Y-75577456D01*
X203671854Y-75342107D01*
X203453488Y-75145583D01*
X203347230Y-75082400D01*
X203453488Y-75019217D01*
X203671854Y-74822693D01*
X203847684Y-74587344D01*
X203974222Y-74322214D01*
X204019958Y-74171426D01*
X203898817Y-73939400D01*
X202692000Y-73939400D01*
X202438000Y-73939400D01*
X200152000Y-73939400D01*
X199898000Y-73939400D01*
X198691183Y-73939400D01*
X198570042Y-74171426D01*
X190954833Y-74171426D01*
X190833692Y-73939400D01*
X189626875Y-73939400D01*
X189372875Y-73939400D01*
X187086875Y-73939400D01*
X186832875Y-73939400D01*
X185626058Y-73939400D01*
X185504917Y-74171426D01*
X177889708Y-74171426D01*
X177768567Y-73939400D01*
X176561750Y-73939400D01*
X176307750Y-73939400D01*
X174021750Y-73939400D01*
X173767750Y-73939400D01*
X172560933Y-73939400D01*
X172439792Y-74171426D01*
X164824583Y-74171426D01*
X164703442Y-73939400D01*
X163496625Y-73939400D01*
X163242625Y-73939400D01*
X160956625Y-73939400D01*
X160702625Y-73939400D01*
X159495808Y-73939400D01*
X159374667Y-74171426D01*
X151759458Y-74171426D01*
X151638317Y-73939400D01*
X150431500Y-73939400D01*
X150177500Y-73939400D01*
X147891500Y-73939400D01*
X147637500Y-73939400D01*
X146430683Y-73939400D01*
X146309542Y-74171426D01*
X143883000Y-74171426D01*
X143883000Y-71631426D01*
X146309542Y-71631426D01*
X146355278Y-71782214D01*
X146481816Y-72047344D01*
X146657646Y-72282693D01*
X146876012Y-72479217D01*
X146982270Y-72542400D01*
X146876012Y-72605583D01*
X146657646Y-72802107D01*
X146481816Y-73037456D01*
X146355278Y-73302586D01*
X146309542Y-73453374D01*
X146430683Y-73685400D01*
X147637500Y-73685400D01*
X147637500Y-71399400D01*
X147891500Y-71399400D01*
X147891500Y-73685400D01*
X150177500Y-73685400D01*
X150177500Y-71399400D01*
X150431500Y-71399400D01*
X150431500Y-73685400D01*
X151638317Y-73685400D01*
X151759458Y-73453374D01*
X151713722Y-73302586D01*
X151587184Y-73037456D01*
X151411354Y-72802107D01*
X151192988Y-72605583D01*
X151086730Y-72542400D01*
X151192988Y-72479217D01*
X151411354Y-72282693D01*
X151587184Y-72047344D01*
X151713722Y-71782214D01*
X151759458Y-71631426D01*
X159374667Y-71631426D01*
X159420403Y-71782214D01*
X159546941Y-72047344D01*
X159722771Y-72282693D01*
X159941137Y-72479217D01*
X160047395Y-72542400D01*
X159941137Y-72605583D01*
X159722771Y-72802107D01*
X159546941Y-73037456D01*
X159420403Y-73302586D01*
X159374667Y-73453374D01*
X159495808Y-73685400D01*
X160702625Y-73685400D01*
X160702625Y-71399400D01*
X160956625Y-71399400D01*
X160956625Y-73685400D01*
X163242625Y-73685400D01*
X163242625Y-71399400D01*
X163496625Y-71399400D01*
X163496625Y-73685400D01*
X164703442Y-73685400D01*
X164824583Y-73453374D01*
X164778847Y-73302586D01*
X164652309Y-73037456D01*
X164476479Y-72802107D01*
X164258113Y-72605583D01*
X164151855Y-72542400D01*
X164258113Y-72479217D01*
X164476479Y-72282693D01*
X164652309Y-72047344D01*
X164778847Y-71782214D01*
X164824583Y-71631426D01*
X172439792Y-71631426D01*
X172485528Y-71782214D01*
X172612066Y-72047344D01*
X172787896Y-72282693D01*
X173006262Y-72479217D01*
X173112520Y-72542400D01*
X173006262Y-72605583D01*
X172787896Y-72802107D01*
X172612066Y-73037456D01*
X172485528Y-73302586D01*
X172439792Y-73453374D01*
X172560933Y-73685400D01*
X173767750Y-73685400D01*
X173767750Y-71399400D01*
X174021750Y-71399400D01*
X174021750Y-73685400D01*
X176307750Y-73685400D01*
X176307750Y-71399400D01*
X176561750Y-71399400D01*
X176561750Y-73685400D01*
X177768567Y-73685400D01*
X177889708Y-73453374D01*
X177843972Y-73302586D01*
X177717434Y-73037456D01*
X177541604Y-72802107D01*
X177323238Y-72605583D01*
X177216980Y-72542400D01*
X177323238Y-72479217D01*
X177541604Y-72282693D01*
X177717434Y-72047344D01*
X177843972Y-71782214D01*
X177889708Y-71631426D01*
X185504917Y-71631426D01*
X185550653Y-71782214D01*
X185677191Y-72047344D01*
X185853021Y-72282693D01*
X186071387Y-72479217D01*
X186177645Y-72542400D01*
X186071387Y-72605583D01*
X185853021Y-72802107D01*
X185677191Y-73037456D01*
X185550653Y-73302586D01*
X185504917Y-73453374D01*
X185626058Y-73685400D01*
X186832875Y-73685400D01*
X186832875Y-71399400D01*
X187086875Y-71399400D01*
X187086875Y-73685400D01*
X189372875Y-73685400D01*
X189372875Y-71399400D01*
X189626875Y-71399400D01*
X189626875Y-73685400D01*
X190833692Y-73685400D01*
X190954833Y-73453374D01*
X190909097Y-73302586D01*
X190782559Y-73037456D01*
X190606729Y-72802107D01*
X190388363Y-72605583D01*
X190282105Y-72542400D01*
X190388363Y-72479217D01*
X190606729Y-72282693D01*
X190782559Y-72047344D01*
X190909097Y-71782214D01*
X190954833Y-71631426D01*
X198570042Y-71631426D01*
X198615778Y-71782214D01*
X198742316Y-72047344D01*
X198918146Y-72282693D01*
X199136512Y-72479217D01*
X199242770Y-72542400D01*
X199136512Y-72605583D01*
X198918146Y-72802107D01*
X198742316Y-73037456D01*
X198615778Y-73302586D01*
X198570042Y-73453374D01*
X198691183Y-73685400D01*
X199898000Y-73685400D01*
X199898000Y-71399400D01*
X200152000Y-71399400D01*
X200152000Y-73685400D01*
X202438000Y-73685400D01*
X202438000Y-71399400D01*
X202692000Y-71399400D01*
X202692000Y-73685400D01*
X203898817Y-73685400D01*
X204019958Y-73453374D01*
X203974222Y-73302586D01*
X203847684Y-73037456D01*
X203671854Y-72802107D01*
X203453488Y-72605583D01*
X203347230Y-72542400D01*
X203453488Y-72479217D01*
X203671854Y-72282693D01*
X203847684Y-72047344D01*
X203974222Y-71782214D01*
X204019958Y-71631426D01*
X203898817Y-71399400D01*
X202692000Y-71399400D01*
X202438000Y-71399400D01*
X200152000Y-71399400D01*
X199898000Y-71399400D01*
X198691183Y-71399400D01*
X198570042Y-71631426D01*
X190954833Y-71631426D01*
X190833692Y-71399400D01*
X189626875Y-71399400D01*
X189372875Y-71399400D01*
X187086875Y-71399400D01*
X186832875Y-71399400D01*
X185626058Y-71399400D01*
X185504917Y-71631426D01*
X177889708Y-71631426D01*
X177768567Y-71399400D01*
X176561750Y-71399400D01*
X176307750Y-71399400D01*
X174021750Y-71399400D01*
X173767750Y-71399400D01*
X172560933Y-71399400D01*
X172439792Y-71631426D01*
X164824583Y-71631426D01*
X164703442Y-71399400D01*
X163496625Y-71399400D01*
X163242625Y-71399400D01*
X160956625Y-71399400D01*
X160702625Y-71399400D01*
X159495808Y-71399400D01*
X159374667Y-71631426D01*
X151759458Y-71631426D01*
X151638317Y-71399400D01*
X150431500Y-71399400D01*
X150177500Y-71399400D01*
X147891500Y-71399400D01*
X147637500Y-71399400D01*
X146430683Y-71399400D01*
X146309542Y-71631426D01*
X143883000Y-71631426D01*
X143883000Y-70731252D01*
X143888491Y-70675500D01*
X143866577Y-70453001D01*
X143801676Y-70239053D01*
X143696284Y-70041877D01*
X143589989Y-69912356D01*
X143589987Y-69912354D01*
X143554449Y-69869051D01*
X143511146Y-69833513D01*
X141546433Y-67868800D01*
X146262828Y-67868800D01*
X146262828Y-69596000D01*
X146275088Y-69720482D01*
X146311398Y-69840180D01*
X146370363Y-69950494D01*
X146449715Y-70047185D01*
X146546406Y-70126537D01*
X146656720Y-70185502D01*
X146721074Y-70205024D01*
X146657646Y-70262107D01*
X146481816Y-70497456D01*
X146355278Y-70762586D01*
X146309542Y-70913374D01*
X146430683Y-71145400D01*
X147637500Y-71145400D01*
X147637500Y-71125400D01*
X147891500Y-71125400D01*
X147891500Y-71145400D01*
X150177500Y-71145400D01*
X150177500Y-71125400D01*
X150431500Y-71125400D01*
X150431500Y-71145400D01*
X151638317Y-71145400D01*
X151759458Y-70913374D01*
X151713722Y-70762586D01*
X151587184Y-70497456D01*
X151411354Y-70262107D01*
X151192988Y-70065583D01*
X151094397Y-70006959D01*
X151259802Y-69896439D01*
X151468539Y-69687702D01*
X151632542Y-69442253D01*
X151745510Y-69169525D01*
X151803100Y-68879999D01*
X151803100Y-68584801D01*
X151745510Y-68295275D01*
X151632542Y-68022547D01*
X151529813Y-67868800D01*
X159327953Y-67868800D01*
X159327953Y-69596000D01*
X159340213Y-69720482D01*
X159376523Y-69840180D01*
X159435488Y-69950494D01*
X159514840Y-70047185D01*
X159611531Y-70126537D01*
X159721845Y-70185502D01*
X159786199Y-70205024D01*
X159722771Y-70262107D01*
X159546941Y-70497456D01*
X159420403Y-70762586D01*
X159374667Y-70913374D01*
X159495808Y-71145400D01*
X160702625Y-71145400D01*
X160702625Y-71125400D01*
X160956625Y-71125400D01*
X160956625Y-71145400D01*
X163242625Y-71145400D01*
X163242625Y-71125400D01*
X163496625Y-71125400D01*
X163496625Y-71145400D01*
X164703442Y-71145400D01*
X164824583Y-70913374D01*
X164778847Y-70762586D01*
X164652309Y-70497456D01*
X164476479Y-70262107D01*
X164258113Y-70065583D01*
X164159522Y-70006959D01*
X164324927Y-69896439D01*
X164533664Y-69687702D01*
X164697667Y-69442253D01*
X164810635Y-69169525D01*
X164868225Y-68879999D01*
X164868225Y-68584801D01*
X164810635Y-68295275D01*
X164697667Y-68022547D01*
X164594938Y-67868800D01*
X172393078Y-67868800D01*
X172393078Y-69596000D01*
X172405338Y-69720482D01*
X172441648Y-69840180D01*
X172500613Y-69950494D01*
X172579965Y-70047185D01*
X172676656Y-70126537D01*
X172786970Y-70185502D01*
X172851324Y-70205024D01*
X172787896Y-70262107D01*
X172612066Y-70497456D01*
X172485528Y-70762586D01*
X172439792Y-70913374D01*
X172560933Y-71145400D01*
X173767750Y-71145400D01*
X173767750Y-71125400D01*
X174021750Y-71125400D01*
X174021750Y-71145400D01*
X176307750Y-71145400D01*
X176307750Y-71125400D01*
X176561750Y-71125400D01*
X176561750Y-71145400D01*
X177768567Y-71145400D01*
X177889708Y-70913374D01*
X177843972Y-70762586D01*
X177717434Y-70497456D01*
X177541604Y-70262107D01*
X177323238Y-70065583D01*
X177224647Y-70006959D01*
X177390052Y-69896439D01*
X177598789Y-69687702D01*
X177762792Y-69442253D01*
X177875760Y-69169525D01*
X177933350Y-68879999D01*
X177933350Y-68584801D01*
X177875760Y-68295275D01*
X177762792Y-68022547D01*
X177660063Y-67868800D01*
X185458203Y-67868800D01*
X185458203Y-69596000D01*
X185470463Y-69720482D01*
X185506773Y-69840180D01*
X185565738Y-69950494D01*
X185645090Y-70047185D01*
X185741781Y-70126537D01*
X185852095Y-70185502D01*
X185916449Y-70205024D01*
X185853021Y-70262107D01*
X185677191Y-70497456D01*
X185550653Y-70762586D01*
X185504917Y-70913374D01*
X185626058Y-71145400D01*
X186832875Y-71145400D01*
X186832875Y-71125400D01*
X187086875Y-71125400D01*
X187086875Y-71145400D01*
X189372875Y-71145400D01*
X189372875Y-71125400D01*
X189626875Y-71125400D01*
X189626875Y-71145400D01*
X190833692Y-71145400D01*
X190954833Y-70913374D01*
X190909097Y-70762586D01*
X190782559Y-70497456D01*
X190606729Y-70262107D01*
X190388363Y-70065583D01*
X190289772Y-70006959D01*
X190455177Y-69896439D01*
X190663914Y-69687702D01*
X190827917Y-69442253D01*
X190940885Y-69169525D01*
X190998475Y-68879999D01*
X190998475Y-68584801D01*
X190940885Y-68295275D01*
X190827917Y-68022547D01*
X190725188Y-67868800D01*
X198523328Y-67868800D01*
X198523328Y-69596000D01*
X198535588Y-69720482D01*
X198571898Y-69840180D01*
X198630863Y-69950494D01*
X198710215Y-70047185D01*
X198806906Y-70126537D01*
X198917220Y-70185502D01*
X198981574Y-70205024D01*
X198918146Y-70262107D01*
X198742316Y-70497456D01*
X198615778Y-70762586D01*
X198570042Y-70913374D01*
X198691183Y-71145400D01*
X199898000Y-71145400D01*
X199898000Y-71125400D01*
X200152000Y-71125400D01*
X200152000Y-71145400D01*
X202438000Y-71145400D01*
X202438000Y-71125400D01*
X202692000Y-71125400D01*
X202692000Y-71145400D01*
X203898817Y-71145400D01*
X204019958Y-70913374D01*
X203974222Y-70762586D01*
X203847684Y-70497456D01*
X203671854Y-70262107D01*
X203453488Y-70065583D01*
X203354897Y-70006959D01*
X203520302Y-69896439D01*
X203729039Y-69687702D01*
X203893042Y-69442253D01*
X204006010Y-69169525D01*
X204063600Y-68879999D01*
X204063600Y-68584801D01*
X204006010Y-68295275D01*
X203893042Y-68022547D01*
X203729039Y-67777098D01*
X203520302Y-67568361D01*
X203274853Y-67404358D01*
X203002125Y-67291390D01*
X202712599Y-67233800D01*
X202417401Y-67233800D01*
X202127875Y-67291390D01*
X201855147Y-67404358D01*
X201609698Y-67568361D01*
X201495636Y-67682423D01*
X201478102Y-67624620D01*
X201419137Y-67514306D01*
X201339785Y-67417615D01*
X201243094Y-67338263D01*
X201132780Y-67279298D01*
X201013082Y-67242988D01*
X200888600Y-67230728D01*
X199161400Y-67230728D01*
X199036918Y-67242988D01*
X198917220Y-67279298D01*
X198806906Y-67338263D01*
X198710215Y-67417615D01*
X198630863Y-67514306D01*
X198571898Y-67624620D01*
X198535588Y-67744318D01*
X198523328Y-67868800D01*
X190725188Y-67868800D01*
X190663914Y-67777098D01*
X190455177Y-67568361D01*
X190209728Y-67404358D01*
X189937000Y-67291390D01*
X189647474Y-67233800D01*
X189352276Y-67233800D01*
X189062750Y-67291390D01*
X188790022Y-67404358D01*
X188544573Y-67568361D01*
X188430511Y-67682423D01*
X188412977Y-67624620D01*
X188354012Y-67514306D01*
X188274660Y-67417615D01*
X188177969Y-67338263D01*
X188067655Y-67279298D01*
X187947957Y-67242988D01*
X187823475Y-67230728D01*
X186096275Y-67230728D01*
X185971793Y-67242988D01*
X185852095Y-67279298D01*
X185741781Y-67338263D01*
X185645090Y-67417615D01*
X185565738Y-67514306D01*
X185506773Y-67624620D01*
X185470463Y-67744318D01*
X185458203Y-67868800D01*
X177660063Y-67868800D01*
X177598789Y-67777098D01*
X177390052Y-67568361D01*
X177144603Y-67404358D01*
X176871875Y-67291390D01*
X176582349Y-67233800D01*
X176287151Y-67233800D01*
X175997625Y-67291390D01*
X175724897Y-67404358D01*
X175479448Y-67568361D01*
X175365386Y-67682423D01*
X175347852Y-67624620D01*
X175288887Y-67514306D01*
X175209535Y-67417615D01*
X175112844Y-67338263D01*
X175002530Y-67279298D01*
X174882832Y-67242988D01*
X174758350Y-67230728D01*
X173031150Y-67230728D01*
X172906668Y-67242988D01*
X172786970Y-67279298D01*
X172676656Y-67338263D01*
X172579965Y-67417615D01*
X172500613Y-67514306D01*
X172441648Y-67624620D01*
X172405338Y-67744318D01*
X172393078Y-67868800D01*
X164594938Y-67868800D01*
X164533664Y-67777098D01*
X164324927Y-67568361D01*
X164079478Y-67404358D01*
X163806750Y-67291390D01*
X163517224Y-67233800D01*
X163222026Y-67233800D01*
X162932500Y-67291390D01*
X162659772Y-67404358D01*
X162414323Y-67568361D01*
X162300261Y-67682423D01*
X162282727Y-67624620D01*
X162223762Y-67514306D01*
X162144410Y-67417615D01*
X162047719Y-67338263D01*
X161937405Y-67279298D01*
X161817707Y-67242988D01*
X161693225Y-67230728D01*
X159966025Y-67230728D01*
X159841543Y-67242988D01*
X159721845Y-67279298D01*
X159611531Y-67338263D01*
X159514840Y-67417615D01*
X159435488Y-67514306D01*
X159376523Y-67624620D01*
X159340213Y-67744318D01*
X159327953Y-67868800D01*
X151529813Y-67868800D01*
X151468539Y-67777098D01*
X151259802Y-67568361D01*
X151014353Y-67404358D01*
X150741625Y-67291390D01*
X150452099Y-67233800D01*
X150156901Y-67233800D01*
X149867375Y-67291390D01*
X149594647Y-67404358D01*
X149349198Y-67568361D01*
X149235136Y-67682423D01*
X149217602Y-67624620D01*
X149158637Y-67514306D01*
X149079285Y-67417615D01*
X148982594Y-67338263D01*
X148872280Y-67279298D01*
X148752582Y-67242988D01*
X148628100Y-67230728D01*
X146900900Y-67230728D01*
X146776418Y-67242988D01*
X146656720Y-67279298D01*
X146546406Y-67338263D01*
X146449715Y-67417615D01*
X146370363Y-67514306D01*
X146311398Y-67624620D01*
X146275088Y-67744318D01*
X146262828Y-67868800D01*
X141546433Y-67868800D01*
X141367496Y-67689864D01*
X141331949Y-67646551D01*
X141159123Y-67504716D01*
X140961947Y-67399324D01*
X140747999Y-67334423D01*
X140581252Y-67318000D01*
X140581251Y-67318000D01*
X140525500Y-67312509D01*
X140469749Y-67318000D01*
X123372741Y-67318000D01*
X123316999Y-67312510D01*
X123261257Y-67318000D01*
X123261248Y-67318000D01*
X123094501Y-67334423D01*
X122880553Y-67399324D01*
X122683377Y-67504716D01*
X122510551Y-67646551D01*
X122475009Y-67689859D01*
X118553365Y-71611504D01*
X118510051Y-71647051D01*
X118368216Y-71819877D01*
X118262825Y-72017053D01*
X118262824Y-72017054D01*
X118197923Y-72231002D01*
X118176009Y-72453500D01*
X118181500Y-72509252D01*
X118181501Y-77241167D01*
X117016195Y-78406473D01*
X116923442Y-78182547D01*
X116759439Y-77937098D01*
X116550702Y-77728361D01*
X116385297Y-77617841D01*
X116483888Y-77559217D01*
X116702254Y-77362693D01*
X116878084Y-77127344D01*
X117004622Y-76862214D01*
X117050358Y-76711426D01*
X116929217Y-76479400D01*
X115722400Y-76479400D01*
X115722400Y-76499400D01*
X115468400Y-76499400D01*
X115468400Y-76479400D01*
X113182400Y-76479400D01*
X113182400Y-76499400D01*
X112928400Y-76499400D01*
X112928400Y-76479400D01*
X111721583Y-76479400D01*
X111600442Y-76711426D01*
X111646178Y-76862214D01*
X111772716Y-77127344D01*
X111948546Y-77362693D01*
X112166912Y-77559217D01*
X112265503Y-77617841D01*
X112100098Y-77728361D01*
X111891361Y-77937098D01*
X111727358Y-78182547D01*
X111614390Y-78455275D01*
X111556800Y-78744801D01*
X111556800Y-79039999D01*
X111614390Y-79329525D01*
X111727358Y-79602253D01*
X111891361Y-79847702D01*
X112100098Y-80056439D01*
X112258681Y-80162400D01*
X112100098Y-80268361D01*
X111891361Y-80477098D01*
X111727358Y-80722547D01*
X111614390Y-80995275D01*
X111556800Y-81284801D01*
X111556800Y-81579999D01*
X111614390Y-81869525D01*
X111727358Y-82142253D01*
X111891361Y-82387702D01*
X112100098Y-82596439D01*
X112258681Y-82702400D01*
X112100098Y-82808361D01*
X111891361Y-83017098D01*
X111727358Y-83262547D01*
X111614390Y-83535275D01*
X111556800Y-83824801D01*
X111556800Y-84119999D01*
X111614390Y-84409525D01*
X111727358Y-84682253D01*
X111891361Y-84927702D01*
X112100098Y-85136439D01*
X112258681Y-85242400D01*
X112100098Y-85348361D01*
X111891361Y-85557098D01*
X111727358Y-85802547D01*
X111614390Y-86075275D01*
X111556800Y-86364801D01*
X111556800Y-86659999D01*
X111614390Y-86949525D01*
X111727358Y-87222253D01*
X111891361Y-87467702D01*
X112100098Y-87676439D01*
X112345547Y-87840442D01*
X112618275Y-87953410D01*
X112907801Y-88011000D01*
X113202999Y-88011000D01*
X113492525Y-87953410D01*
X113765253Y-87840442D01*
X114010702Y-87676439D01*
X114219439Y-87467702D01*
X114325400Y-87309119D01*
X114431361Y-87467702D01*
X114640098Y-87676439D01*
X114885547Y-87840442D01*
X115158275Y-87953410D01*
X115447801Y-88011000D01*
X115742999Y-88011000D01*
X116032525Y-87953410D01*
X116305253Y-87840442D01*
X116550702Y-87676439D01*
X116759439Y-87467702D01*
X116923442Y-87222253D01*
X117016196Y-86998327D01*
X124099868Y-94082000D01*
X117863019Y-94082000D01*
X117830600Y-94078807D01*
X117798181Y-94082000D01*
X117701217Y-94091550D01*
X117576807Y-94129290D01*
X117462150Y-94190575D01*
X117361652Y-94273052D01*
X117279175Y-94373550D01*
X117217890Y-94488207D01*
X117180150Y-94612617D01*
X117167407Y-94742000D01*
X117170601Y-94774429D01*
X117170600Y-101041600D01*
X109660000Y-101041600D01*
X109660000Y-97831672D01*
X111180300Y-97831672D01*
X111180300Y-98271928D01*
X111266190Y-98703725D01*
X111434669Y-99110469D01*
X111679262Y-99476529D01*
X111990571Y-99787838D01*
X112356631Y-100032431D01*
X112763375Y-100200910D01*
X113195172Y-100286800D01*
X113635428Y-100286800D01*
X114067225Y-100200910D01*
X114473969Y-100032431D01*
X114840029Y-99787838D01*
X115151338Y-99476529D01*
X115395931Y-99110469D01*
X115564410Y-98703725D01*
X115650300Y-98271928D01*
X115650300Y-97831672D01*
X115564410Y-97399875D01*
X115395931Y-96993131D01*
X115151338Y-96627071D01*
X114840029Y-96315762D01*
X114473969Y-96071169D01*
X114067225Y-95902690D01*
X113635428Y-95816800D01*
X113195172Y-95816800D01*
X112763375Y-95902690D01*
X112356631Y-96071169D01*
X111990571Y-96315762D01*
X111679262Y-96627071D01*
X111434669Y-96993131D01*
X111266190Y-97399875D01*
X111180300Y-97831672D01*
X109660000Y-97831672D01*
X109660000Y-74171426D01*
X111600442Y-74171426D01*
X111646178Y-74322214D01*
X111772716Y-74587344D01*
X111948546Y-74822693D01*
X112166912Y-75019217D01*
X112273170Y-75082400D01*
X112166912Y-75145583D01*
X111948546Y-75342107D01*
X111772716Y-75577456D01*
X111646178Y-75842586D01*
X111600442Y-75993374D01*
X111721583Y-76225400D01*
X112928400Y-76225400D01*
X112928400Y-73939400D01*
X113182400Y-73939400D01*
X113182400Y-76225400D01*
X115468400Y-76225400D01*
X115468400Y-73939400D01*
X115722400Y-73939400D01*
X115722400Y-76225400D01*
X116929217Y-76225400D01*
X117050358Y-75993374D01*
X117004622Y-75842586D01*
X116878084Y-75577456D01*
X116702254Y-75342107D01*
X116483888Y-75145583D01*
X116377630Y-75082400D01*
X116483888Y-75019217D01*
X116702254Y-74822693D01*
X116878084Y-74587344D01*
X117004622Y-74322214D01*
X117050358Y-74171426D01*
X116929217Y-73939400D01*
X115722400Y-73939400D01*
X115468400Y-73939400D01*
X113182400Y-73939400D01*
X112928400Y-73939400D01*
X111721583Y-73939400D01*
X111600442Y-74171426D01*
X109660000Y-74171426D01*
X109660000Y-71631426D01*
X111600442Y-71631426D01*
X111646178Y-71782214D01*
X111772716Y-72047344D01*
X111948546Y-72282693D01*
X112166912Y-72479217D01*
X112273170Y-72542400D01*
X112166912Y-72605583D01*
X111948546Y-72802107D01*
X111772716Y-73037456D01*
X111646178Y-73302586D01*
X111600442Y-73453374D01*
X111721583Y-73685400D01*
X112928400Y-73685400D01*
X112928400Y-71399400D01*
X113182400Y-71399400D01*
X113182400Y-73685400D01*
X115468400Y-73685400D01*
X115468400Y-71399400D01*
X115722400Y-71399400D01*
X115722400Y-73685400D01*
X116929217Y-73685400D01*
X117050358Y-73453374D01*
X117004622Y-73302586D01*
X116878084Y-73037456D01*
X116702254Y-72802107D01*
X116483888Y-72605583D01*
X116377630Y-72542400D01*
X116483888Y-72479217D01*
X116702254Y-72282693D01*
X116878084Y-72047344D01*
X117004622Y-71782214D01*
X117050358Y-71631426D01*
X116929217Y-71399400D01*
X115722400Y-71399400D01*
X115468400Y-71399400D01*
X113182400Y-71399400D01*
X112928400Y-71399400D01*
X111721583Y-71399400D01*
X111600442Y-71631426D01*
X109660000Y-71631426D01*
X109660000Y-67868800D01*
X111553728Y-67868800D01*
X111553728Y-69596000D01*
X111565988Y-69720482D01*
X111602298Y-69840180D01*
X111661263Y-69950494D01*
X111740615Y-70047185D01*
X111837306Y-70126537D01*
X111947620Y-70185502D01*
X112011974Y-70205024D01*
X111948546Y-70262107D01*
X111772716Y-70497456D01*
X111646178Y-70762586D01*
X111600442Y-70913374D01*
X111721583Y-71145400D01*
X112928400Y-71145400D01*
X112928400Y-71125400D01*
X113182400Y-71125400D01*
X113182400Y-71145400D01*
X115468400Y-71145400D01*
X115468400Y-71125400D01*
X115722400Y-71125400D01*
X115722400Y-71145400D01*
X116929217Y-71145400D01*
X117050358Y-70913374D01*
X117004622Y-70762586D01*
X116878084Y-70497456D01*
X116702254Y-70262107D01*
X116483888Y-70065583D01*
X116385297Y-70006959D01*
X116550702Y-69896439D01*
X116759439Y-69687702D01*
X116923442Y-69442253D01*
X117036410Y-69169525D01*
X117094000Y-68879999D01*
X117094000Y-68584801D01*
X117036410Y-68295275D01*
X116923442Y-68022547D01*
X116759439Y-67777098D01*
X116550702Y-67568361D01*
X116305253Y-67404358D01*
X116032525Y-67291390D01*
X115742999Y-67233800D01*
X115447801Y-67233800D01*
X115158275Y-67291390D01*
X114885547Y-67404358D01*
X114640098Y-67568361D01*
X114526036Y-67682423D01*
X114508502Y-67624620D01*
X114449537Y-67514306D01*
X114370185Y-67417615D01*
X114273494Y-67338263D01*
X114163180Y-67279298D01*
X114043482Y-67242988D01*
X113919000Y-67230728D01*
X112191800Y-67230728D01*
X112067318Y-67242988D01*
X111947620Y-67279298D01*
X111837306Y-67338263D01*
X111740615Y-67417615D01*
X111661263Y-67514306D01*
X111602298Y-67624620D01*
X111565988Y-67744318D01*
X111553728Y-67868800D01*
X109660000Y-67868800D01*
X109660000Y-66423102D01*
X134505403Y-66423102D01*
X134576986Y-66667071D01*
X134832496Y-66787971D01*
X135106684Y-66856700D01*
X135389012Y-66870617D01*
X135668630Y-66829187D01*
X135934792Y-66734003D01*
X136060014Y-66667071D01*
X136131597Y-66423102D01*
X135318500Y-65610005D01*
X134505403Y-66423102D01*
X109660000Y-66423102D01*
X109660000Y-65500912D01*
X133878283Y-65500912D01*
X133919713Y-65780530D01*
X134014897Y-66046692D01*
X134081829Y-66171914D01*
X134325798Y-66243497D01*
X135138895Y-65430400D01*
X135498105Y-65430400D01*
X136311202Y-66243497D01*
X136555171Y-66171914D01*
X136568824Y-66143059D01*
X136703863Y-66345159D01*
X136903741Y-66545037D01*
X137138773Y-66702080D01*
X137399926Y-66810253D01*
X137677165Y-66865400D01*
X137959835Y-66865400D01*
X138237074Y-66810253D01*
X138498227Y-66702080D01*
X138733259Y-66545037D01*
X138933137Y-66345159D01*
X139090180Y-66110127D01*
X139198353Y-65848974D01*
X139253500Y-65571735D01*
X139253500Y-65289065D01*
X139198353Y-65011826D01*
X139090180Y-64750673D01*
X138933137Y-64515641D01*
X138733259Y-64315763D01*
X138498227Y-64158720D01*
X138237074Y-64050547D01*
X137959835Y-63995400D01*
X137677165Y-63995400D01*
X137399926Y-64050547D01*
X137138773Y-64158720D01*
X136903741Y-64315763D01*
X136703863Y-64515641D01*
X136569808Y-64716269D01*
X136555171Y-64688886D01*
X136311202Y-64617303D01*
X135498105Y-65430400D01*
X135138895Y-65430400D01*
X134325798Y-64617303D01*
X134081829Y-64688886D01*
X133960929Y-64944396D01*
X133892200Y-65218584D01*
X133878283Y-65500912D01*
X109660000Y-65500912D01*
X109660000Y-64437698D01*
X134505403Y-64437698D01*
X135318500Y-65250795D01*
X136131597Y-64437698D01*
X136060014Y-64193729D01*
X135804504Y-64072829D01*
X135530316Y-64004100D01*
X135247988Y-63990183D01*
X134968370Y-64031613D01*
X134702208Y-64126797D01*
X134576986Y-64193729D01*
X134505403Y-64437698D01*
X109660000Y-64437698D01*
X109660000Y-57818872D01*
X111180300Y-57818872D01*
X111180300Y-58259128D01*
X111266190Y-58690925D01*
X111434669Y-59097669D01*
X111679262Y-59463729D01*
X111990571Y-59775038D01*
X112356631Y-60019631D01*
X112763375Y-60188110D01*
X113195172Y-60274000D01*
X113635428Y-60274000D01*
X114067225Y-60188110D01*
X114473969Y-60019631D01*
X114840029Y-59775038D01*
X115151338Y-59463729D01*
X115395931Y-59097669D01*
X115564410Y-58690925D01*
X115650300Y-58259128D01*
X115650300Y-57818872D01*
X115564410Y-57387075D01*
X115395931Y-56980331D01*
X115151338Y-56614271D01*
X114840029Y-56302962D01*
X114473969Y-56058369D01*
X114067225Y-55889890D01*
X113635428Y-55804000D01*
X113195172Y-55804000D01*
X112763375Y-55889890D01*
X112356631Y-56058369D01*
X111990571Y-56302962D01*
X111679262Y-56614271D01*
X111434669Y-56980331D01*
X111266190Y-57387075D01*
X111180300Y-57818872D01*
X109660000Y-57818872D01*
X109660000Y-55041400D01*
X117170600Y-55041400D01*
X117170601Y-61308571D01*
G37*
X117170601Y-61308571D02*
X117167407Y-61341000D01*
X117180150Y-61470383D01*
X117217890Y-61594793D01*
X117279175Y-61709450D01*
X117361652Y-61809948D01*
X117462150Y-61892425D01*
X117576807Y-61953710D01*
X117701217Y-61991450D01*
X117798181Y-62001000D01*
X117830600Y-62004193D01*
X117863019Y-62001000D01*
X154907581Y-62001000D01*
X154940000Y-62004193D01*
X154972419Y-62001000D01*
X155069383Y-61991450D01*
X155193793Y-61953710D01*
X155308450Y-61892425D01*
X155408948Y-61809948D01*
X155491425Y-61709450D01*
X155552710Y-61594793D01*
X155590450Y-61470383D01*
X155603193Y-61341000D01*
X155600000Y-61308581D01*
X155600000Y-57818872D01*
X156265000Y-57818872D01*
X156265000Y-58259128D01*
X156350890Y-58690925D01*
X156519369Y-59097669D01*
X156763962Y-59463729D01*
X157075271Y-59775038D01*
X157441331Y-60019631D01*
X157848075Y-60188110D01*
X158279872Y-60274000D01*
X158720128Y-60274000D01*
X159151925Y-60188110D01*
X159558669Y-60019631D01*
X159924729Y-59775038D01*
X160236038Y-59463729D01*
X160480631Y-59097669D01*
X160649110Y-58690925D01*
X160735000Y-58259128D01*
X160735000Y-57818872D01*
X160649110Y-57387075D01*
X160480631Y-56980331D01*
X160236038Y-56614271D01*
X159924729Y-56302962D01*
X159558669Y-56058369D01*
X159151925Y-55889890D01*
X158720128Y-55804000D01*
X158279872Y-55804000D01*
X157848075Y-55889890D01*
X157441331Y-56058369D01*
X157075271Y-56302962D01*
X156763962Y-56614271D01*
X156519369Y-56980331D01*
X156350890Y-57387075D01*
X156265000Y-57818872D01*
X155600000Y-57818872D01*
X155600000Y-55041400D01*
X161392000Y-55041400D01*
X161392001Y-61308571D01*
X161388807Y-61341000D01*
X161401550Y-61470383D01*
X161439290Y-61594793D01*
X161500575Y-61709450D01*
X161583052Y-61809948D01*
X161683550Y-61892425D01*
X161798207Y-61953710D01*
X161922617Y-61991450D01*
X162019581Y-62001000D01*
X162052000Y-62004193D01*
X162084419Y-62001000D01*
X197528781Y-62001000D01*
X197561200Y-62004193D01*
X197593619Y-62001000D01*
X197690583Y-61991450D01*
X197814993Y-61953710D01*
X197929650Y-61892425D01*
X198030148Y-61809948D01*
X198112625Y-61709450D01*
X198173910Y-61594793D01*
X198211650Y-61470383D01*
X198224393Y-61341000D01*
X198221200Y-61308581D01*
X198221200Y-57818872D01*
X199923600Y-57818872D01*
X199923600Y-58259128D01*
X200009490Y-58690925D01*
X200177969Y-59097669D01*
X200422562Y-59463729D01*
X200733871Y-59775038D01*
X201099931Y-60019631D01*
X201506675Y-60188110D01*
X201938472Y-60274000D01*
X202378728Y-60274000D01*
X202810525Y-60188110D01*
X203217269Y-60019631D01*
X203583329Y-59775038D01*
X203894638Y-59463729D01*
X204139231Y-59097669D01*
X204307710Y-58690925D01*
X204393600Y-58259128D01*
X204393600Y-57818872D01*
X204307710Y-57387075D01*
X204139231Y-56980331D01*
X203894638Y-56614271D01*
X203583329Y-56302962D01*
X203217269Y-56058369D01*
X202810525Y-55889890D01*
X202378728Y-55804000D01*
X201938472Y-55804000D01*
X201506675Y-55889890D01*
X201099931Y-56058369D01*
X200733871Y-56302962D01*
X200422562Y-56614271D01*
X200177969Y-56980331D01*
X200009490Y-57387075D01*
X199923600Y-57818872D01*
X198221200Y-57818872D01*
X198221200Y-55041400D01*
X206096001Y-55041400D01*
X206096000Y-61308581D01*
X206096000Y-61308582D01*
X206096001Y-94709572D01*
X206096000Y-94709582D01*
X206096001Y-101041600D01*
X198221200Y-101041600D01*
X198221200Y-97831672D01*
X199923600Y-97831672D01*
X199923600Y-98271928D01*
X200009490Y-98703725D01*
X200177969Y-99110469D01*
X200422562Y-99476529D01*
X200733871Y-99787838D01*
X201099931Y-100032431D01*
X201506675Y-100200910D01*
X201938472Y-100286800D01*
X202378728Y-100286800D01*
X202810525Y-100200910D01*
X203217269Y-100032431D01*
X203583329Y-99787838D01*
X203894638Y-99476529D01*
X204139231Y-99110469D01*
X204307710Y-98703725D01*
X204393600Y-98271928D01*
X204393600Y-97831672D01*
X204307710Y-97399875D01*
X204139231Y-96993131D01*
X203894638Y-96627071D01*
X203583329Y-96315762D01*
X203217269Y-96071169D01*
X202810525Y-95902690D01*
X202378728Y-95816800D01*
X201938472Y-95816800D01*
X201506675Y-95902690D01*
X201099931Y-96071169D01*
X200733871Y-96315762D01*
X200422562Y-96627071D01*
X200177969Y-96993131D01*
X200009490Y-97399875D01*
X199923600Y-97831672D01*
X198221200Y-97831672D01*
X198221200Y-94774419D01*
X198224393Y-94742000D01*
X198211650Y-94612617D01*
X198173910Y-94488207D01*
X198112625Y-94373550D01*
X198030148Y-94273052D01*
X197929650Y-94190575D01*
X197814993Y-94129290D01*
X197690583Y-94091550D01*
X197593619Y-94082000D01*
X197561200Y-94078807D01*
X197528781Y-94082000D01*
X162084419Y-94082000D01*
X162052000Y-94078807D01*
X162019581Y-94082000D01*
X161922617Y-94091550D01*
X161798207Y-94129290D01*
X161683550Y-94190575D01*
X161583052Y-94273052D01*
X161500575Y-94373550D01*
X161439290Y-94488207D01*
X161401550Y-94612617D01*
X161388807Y-94742000D01*
X161392001Y-94774429D01*
X161392000Y-101041600D01*
X155600000Y-101041600D01*
X155600000Y-97831672D01*
X156265000Y-97831672D01*
X156265000Y-98271928D01*
X156350890Y-98703725D01*
X156519369Y-99110469D01*
X156763962Y-99476529D01*
X157075271Y-99787838D01*
X157441331Y-100032431D01*
X157848075Y-100200910D01*
X158279872Y-100286800D01*
X158720128Y-100286800D01*
X159151925Y-100200910D01*
X159558669Y-100032431D01*
X159924729Y-99787838D01*
X160236038Y-99476529D01*
X160480631Y-99110469D01*
X160649110Y-98703725D01*
X160735000Y-98271928D01*
X160735000Y-97831672D01*
X160649110Y-97399875D01*
X160480631Y-96993131D01*
X160236038Y-96627071D01*
X159924729Y-96315762D01*
X159558669Y-96071169D01*
X159151925Y-95902690D01*
X158720128Y-95816800D01*
X158279872Y-95816800D01*
X157848075Y-95902690D01*
X157441331Y-96071169D01*
X157075271Y-96315762D01*
X156763962Y-96627071D01*
X156519369Y-96993131D01*
X156350890Y-97399875D01*
X156265000Y-97831672D01*
X155600000Y-97831672D01*
X155600000Y-94774419D01*
X155603193Y-94742000D01*
X155590450Y-94612617D01*
X155552710Y-94488207D01*
X155491425Y-94373550D01*
X155408948Y-94273052D01*
X155308450Y-94190575D01*
X155193793Y-94129290D01*
X155069383Y-94091550D01*
X154972419Y-94082000D01*
X154940000Y-94078807D01*
X154907581Y-94082000D01*
X143679631Y-94082000D01*
X144654140Y-93107492D01*
X144697449Y-93071949D01*
X144839284Y-92899123D01*
X144944676Y-92701947D01*
X145009577Y-92487999D01*
X145026000Y-92321252D01*
X145031491Y-92265500D01*
X145026000Y-92209749D01*
X145026000Y-87094717D01*
X146914151Y-85206566D01*
X146967781Y-85242400D01*
X146809198Y-85348361D01*
X146600461Y-85557098D01*
X146436458Y-85802547D01*
X146323490Y-86075275D01*
X146265900Y-86364801D01*
X146265900Y-86659999D01*
X146323490Y-86949525D01*
X146436458Y-87222253D01*
X146600461Y-87467702D01*
X146809198Y-87676439D01*
X147054647Y-87840442D01*
X147327375Y-87953410D01*
X147616901Y-88011000D01*
X147912099Y-88011000D01*
X148201625Y-87953410D01*
X148474353Y-87840442D01*
X148719802Y-87676439D01*
X148928539Y-87467702D01*
X149034500Y-87309119D01*
X149140461Y-87467702D01*
X149349198Y-87676439D01*
X149594647Y-87840442D01*
X149867375Y-87953410D01*
X150156901Y-88011000D01*
X150452099Y-88011000D01*
X150741625Y-87953410D01*
X151014353Y-87840442D01*
X151259802Y-87676439D01*
X151468539Y-87467702D01*
X151632542Y-87222253D01*
X151745510Y-86949525D01*
X151803100Y-86659999D01*
X151803100Y-86364801D01*
X151745510Y-86075275D01*
X151632542Y-85802547D01*
X151468539Y-85557098D01*
X151259802Y-85348361D01*
X151101219Y-85242400D01*
X151259802Y-85136439D01*
X151468539Y-84927702D01*
X151632542Y-84682253D01*
X151745510Y-84409525D01*
X151803100Y-84119999D01*
X151803100Y-83824801D01*
X151745510Y-83535275D01*
X151632542Y-83262547D01*
X151468539Y-83017098D01*
X151259802Y-82808361D01*
X151101219Y-82702400D01*
X151259802Y-82596439D01*
X151468539Y-82387702D01*
X151632542Y-82142253D01*
X151745510Y-81869525D01*
X151803100Y-81579999D01*
X151803100Y-81284801D01*
X151745510Y-80995275D01*
X151632542Y-80722547D01*
X151468539Y-80477098D01*
X151259802Y-80268361D01*
X151101219Y-80162400D01*
X151259802Y-80056439D01*
X151468539Y-79847702D01*
X151632542Y-79602253D01*
X151745510Y-79329525D01*
X151803100Y-79039999D01*
X151803100Y-78744801D01*
X159331025Y-78744801D01*
X159331025Y-79039999D01*
X159388615Y-79329525D01*
X159501583Y-79602253D01*
X159665586Y-79847702D01*
X159874323Y-80056439D01*
X160032906Y-80162400D01*
X159874323Y-80268361D01*
X159665586Y-80477098D01*
X159501583Y-80722547D01*
X159388615Y-80995275D01*
X159331025Y-81284801D01*
X159331025Y-81579999D01*
X159388615Y-81869525D01*
X159501583Y-82142253D01*
X159665586Y-82387702D01*
X159874323Y-82596439D01*
X160032906Y-82702400D01*
X159874323Y-82808361D01*
X159665586Y-83017098D01*
X159501583Y-83262547D01*
X159388615Y-83535275D01*
X159331025Y-83824801D01*
X159331025Y-84119999D01*
X159388615Y-84409525D01*
X159501583Y-84682253D01*
X159665586Y-84927702D01*
X159874323Y-85136439D01*
X160032906Y-85242400D01*
X159874323Y-85348361D01*
X159665586Y-85557098D01*
X159501583Y-85802547D01*
X159388615Y-86075275D01*
X159331025Y-86364801D01*
X159331025Y-86659999D01*
X159388615Y-86949525D01*
X159501583Y-87222253D01*
X159665586Y-87467702D01*
X159874323Y-87676439D01*
X160119772Y-87840442D01*
X160392500Y-87953410D01*
X160682026Y-88011000D01*
X160977224Y-88011000D01*
X161266750Y-87953410D01*
X161539478Y-87840442D01*
X161784927Y-87676439D01*
X161993664Y-87467702D01*
X162099625Y-87309119D01*
X162205586Y-87467702D01*
X162414323Y-87676439D01*
X162659772Y-87840442D01*
X162932500Y-87953410D01*
X163222026Y-88011000D01*
X163517224Y-88011000D01*
X163806750Y-87953410D01*
X164079478Y-87840442D01*
X164324927Y-87676439D01*
X164533664Y-87467702D01*
X164697667Y-87222253D01*
X164810635Y-86949525D01*
X164868225Y-86659999D01*
X164868225Y-86364801D01*
X164810635Y-86075275D01*
X164697667Y-85802547D01*
X164533664Y-85557098D01*
X164324927Y-85348361D01*
X164166344Y-85242400D01*
X164324927Y-85136439D01*
X164533664Y-84927702D01*
X164697667Y-84682253D01*
X164810635Y-84409525D01*
X164868225Y-84119999D01*
X164868225Y-83824801D01*
X164810635Y-83535275D01*
X164697667Y-83262547D01*
X164533664Y-83017098D01*
X164324927Y-82808361D01*
X164166344Y-82702400D01*
X164324927Y-82596439D01*
X164533664Y-82387702D01*
X164697667Y-82142253D01*
X164810635Y-81869525D01*
X164868225Y-81579999D01*
X164868225Y-81284801D01*
X164810635Y-80995275D01*
X164697667Y-80722547D01*
X164533664Y-80477098D01*
X164324927Y-80268361D01*
X164166344Y-80162400D01*
X164324927Y-80056439D01*
X164533664Y-79847702D01*
X164697667Y-79602253D01*
X164810635Y-79329525D01*
X164868225Y-79039999D01*
X164868225Y-78744801D01*
X172396150Y-78744801D01*
X172396150Y-79039999D01*
X172453740Y-79329525D01*
X172566708Y-79602253D01*
X172730711Y-79847702D01*
X172939448Y-80056439D01*
X173098031Y-80162400D01*
X172939448Y-80268361D01*
X172730711Y-80477098D01*
X172566708Y-80722547D01*
X172453740Y-80995275D01*
X172396150Y-81284801D01*
X172396150Y-81579999D01*
X172453740Y-81869525D01*
X172566708Y-82142253D01*
X172730711Y-82387702D01*
X172939448Y-82596439D01*
X173098031Y-82702400D01*
X172939448Y-82808361D01*
X172730711Y-83017098D01*
X172566708Y-83262547D01*
X172453740Y-83535275D01*
X172396150Y-83824801D01*
X172396150Y-84119999D01*
X172453740Y-84409525D01*
X172566708Y-84682253D01*
X172730711Y-84927702D01*
X172939448Y-85136439D01*
X173098031Y-85242400D01*
X172939448Y-85348361D01*
X172730711Y-85557098D01*
X172566708Y-85802547D01*
X172453740Y-86075275D01*
X172396150Y-86364801D01*
X172396150Y-86659999D01*
X172453740Y-86949525D01*
X172566708Y-87222253D01*
X172730711Y-87467702D01*
X172939448Y-87676439D01*
X173184897Y-87840442D01*
X173457625Y-87953410D01*
X173747151Y-88011000D01*
X174042349Y-88011000D01*
X174331875Y-87953410D01*
X174604603Y-87840442D01*
X174850052Y-87676439D01*
X175058789Y-87467702D01*
X175164750Y-87309119D01*
X175270711Y-87467702D01*
X175479448Y-87676439D01*
X175724897Y-87840442D01*
X175997625Y-87953410D01*
X176287151Y-88011000D01*
X176582349Y-88011000D01*
X176871875Y-87953410D01*
X177144603Y-87840442D01*
X177390052Y-87676439D01*
X177598789Y-87467702D01*
X177762792Y-87222253D01*
X177875760Y-86949525D01*
X177933350Y-86659999D01*
X177933350Y-86364801D01*
X177875760Y-86075275D01*
X177762792Y-85802547D01*
X177598789Y-85557098D01*
X177390052Y-85348361D01*
X177231469Y-85242400D01*
X177390052Y-85136439D01*
X177598789Y-84927702D01*
X177762792Y-84682253D01*
X177875760Y-84409525D01*
X177933350Y-84119999D01*
X177933350Y-83824801D01*
X177875760Y-83535275D01*
X177762792Y-83262547D01*
X177598789Y-83017098D01*
X177390052Y-82808361D01*
X177231469Y-82702400D01*
X177390052Y-82596439D01*
X177598789Y-82387702D01*
X177762792Y-82142253D01*
X177875760Y-81869525D01*
X177933350Y-81579999D01*
X177933350Y-81284801D01*
X177875760Y-80995275D01*
X177762792Y-80722547D01*
X177598789Y-80477098D01*
X177390052Y-80268361D01*
X177231469Y-80162400D01*
X177390052Y-80056439D01*
X177598789Y-79847702D01*
X177762792Y-79602253D01*
X177875760Y-79329525D01*
X177933350Y-79039999D01*
X177933350Y-78744801D01*
X185461275Y-78744801D01*
X185461275Y-79039999D01*
X185518865Y-79329525D01*
X185631833Y-79602253D01*
X185795836Y-79847702D01*
X186004573Y-80056439D01*
X186163156Y-80162400D01*
X186004573Y-80268361D01*
X185795836Y-80477098D01*
X185631833Y-80722547D01*
X185518865Y-80995275D01*
X185461275Y-81284801D01*
X185461275Y-81579999D01*
X185518865Y-81869525D01*
X185631833Y-82142253D01*
X185795836Y-82387702D01*
X186004573Y-82596439D01*
X186163156Y-82702400D01*
X186004573Y-82808361D01*
X185795836Y-83017098D01*
X185631833Y-83262547D01*
X185518865Y-83535275D01*
X185461275Y-83824801D01*
X185461275Y-84119999D01*
X185518865Y-84409525D01*
X185631833Y-84682253D01*
X185795836Y-84927702D01*
X186004573Y-85136439D01*
X186163156Y-85242400D01*
X186004573Y-85348361D01*
X185795836Y-85557098D01*
X185631833Y-85802547D01*
X185518865Y-86075275D01*
X185461275Y-86364801D01*
X185461275Y-86659999D01*
X185518865Y-86949525D01*
X185631833Y-87222253D01*
X185795836Y-87467702D01*
X186004573Y-87676439D01*
X186250022Y-87840442D01*
X186522750Y-87953410D01*
X186812276Y-88011000D01*
X187107474Y-88011000D01*
X187397000Y-87953410D01*
X187669728Y-87840442D01*
X187915177Y-87676439D01*
X188123914Y-87467702D01*
X188229875Y-87309119D01*
X188335836Y-87467702D01*
X188544573Y-87676439D01*
X188790022Y-87840442D01*
X189062750Y-87953410D01*
X189352276Y-88011000D01*
X189647474Y-88011000D01*
X189937000Y-87953410D01*
X190209728Y-87840442D01*
X190455177Y-87676439D01*
X190663914Y-87467702D01*
X190827917Y-87222253D01*
X190940885Y-86949525D01*
X190998475Y-86659999D01*
X190998475Y-86364801D01*
X190940885Y-86075275D01*
X190827917Y-85802547D01*
X190663914Y-85557098D01*
X190455177Y-85348361D01*
X190296594Y-85242400D01*
X190455177Y-85136439D01*
X190663914Y-84927702D01*
X190827917Y-84682253D01*
X190940885Y-84409525D01*
X190998475Y-84119999D01*
X190998475Y-83824801D01*
X190940885Y-83535275D01*
X190827917Y-83262547D01*
X190663914Y-83017098D01*
X190455177Y-82808361D01*
X190296594Y-82702400D01*
X190455177Y-82596439D01*
X190663914Y-82387702D01*
X190827917Y-82142253D01*
X190940885Y-81869525D01*
X190998475Y-81579999D01*
X190998475Y-81284801D01*
X190940885Y-80995275D01*
X190827917Y-80722547D01*
X190663914Y-80477098D01*
X190455177Y-80268361D01*
X190296594Y-80162400D01*
X190455177Y-80056439D01*
X190663914Y-79847702D01*
X190827917Y-79602253D01*
X190940885Y-79329525D01*
X190998475Y-79039999D01*
X190998475Y-78744801D01*
X198526400Y-78744801D01*
X198526400Y-79039999D01*
X198583990Y-79329525D01*
X198696958Y-79602253D01*
X198860961Y-79847702D01*
X199069698Y-80056439D01*
X199228281Y-80162400D01*
X199069698Y-80268361D01*
X198860961Y-80477098D01*
X198696958Y-80722547D01*
X198583990Y-80995275D01*
X198526400Y-81284801D01*
X198526400Y-81579999D01*
X198583990Y-81869525D01*
X198696958Y-82142253D01*
X198860961Y-82387702D01*
X199069698Y-82596439D01*
X199228281Y-82702400D01*
X199069698Y-82808361D01*
X198860961Y-83017098D01*
X198696958Y-83262547D01*
X198583990Y-83535275D01*
X198526400Y-83824801D01*
X198526400Y-84119999D01*
X198583990Y-84409525D01*
X198696958Y-84682253D01*
X198860961Y-84927702D01*
X199069698Y-85136439D01*
X199228281Y-85242400D01*
X199069698Y-85348361D01*
X198860961Y-85557098D01*
X198696958Y-85802547D01*
X198583990Y-86075275D01*
X198526400Y-86364801D01*
X198526400Y-86659999D01*
X198583990Y-86949525D01*
X198696958Y-87222253D01*
X198860961Y-87467702D01*
X199069698Y-87676439D01*
X199315147Y-87840442D01*
X199587875Y-87953410D01*
X199877401Y-88011000D01*
X200172599Y-88011000D01*
X200462125Y-87953410D01*
X200734853Y-87840442D01*
X200980302Y-87676439D01*
X201189039Y-87467702D01*
X201295000Y-87309119D01*
X201400961Y-87467702D01*
X201609698Y-87676439D01*
X201855147Y-87840442D01*
X202127875Y-87953410D01*
X202417401Y-88011000D01*
X202712599Y-88011000D01*
X203002125Y-87953410D01*
X203274853Y-87840442D01*
X203520302Y-87676439D01*
X203729039Y-87467702D01*
X203893042Y-87222253D01*
X204006010Y-86949525D01*
X204063600Y-86659999D01*
X204063600Y-86364801D01*
X204006010Y-86075275D01*
X203893042Y-85802547D01*
X203729039Y-85557098D01*
X203520302Y-85348361D01*
X203361719Y-85242400D01*
X203520302Y-85136439D01*
X203729039Y-84927702D01*
X203893042Y-84682253D01*
X204006010Y-84409525D01*
X204063600Y-84119999D01*
X204063600Y-83824801D01*
X204006010Y-83535275D01*
X203893042Y-83262547D01*
X203729039Y-83017098D01*
X203520302Y-82808361D01*
X203361719Y-82702400D01*
X203520302Y-82596439D01*
X203729039Y-82387702D01*
X203893042Y-82142253D01*
X204006010Y-81869525D01*
X204063600Y-81579999D01*
X204063600Y-81284801D01*
X204006010Y-80995275D01*
X203893042Y-80722547D01*
X203729039Y-80477098D01*
X203520302Y-80268361D01*
X203361719Y-80162400D01*
X203520302Y-80056439D01*
X203729039Y-79847702D01*
X203893042Y-79602253D01*
X204006010Y-79329525D01*
X204063600Y-79039999D01*
X204063600Y-78744801D01*
X204006010Y-78455275D01*
X203893042Y-78182547D01*
X203729039Y-77937098D01*
X203520302Y-77728361D01*
X203354897Y-77617841D01*
X203453488Y-77559217D01*
X203671854Y-77362693D01*
X203847684Y-77127344D01*
X203974222Y-76862214D01*
X204019958Y-76711426D01*
X203898817Y-76479400D01*
X202692000Y-76479400D01*
X202692000Y-76499400D01*
X202438000Y-76499400D01*
X202438000Y-76479400D01*
X200152000Y-76479400D01*
X200152000Y-76499400D01*
X199898000Y-76499400D01*
X199898000Y-76479400D01*
X198691183Y-76479400D01*
X198570042Y-76711426D01*
X198615778Y-76862214D01*
X198742316Y-77127344D01*
X198918146Y-77362693D01*
X199136512Y-77559217D01*
X199235103Y-77617841D01*
X199069698Y-77728361D01*
X198860961Y-77937098D01*
X198696958Y-78182547D01*
X198583990Y-78455275D01*
X198526400Y-78744801D01*
X190998475Y-78744801D01*
X190940885Y-78455275D01*
X190827917Y-78182547D01*
X190663914Y-77937098D01*
X190455177Y-77728361D01*
X190289772Y-77617841D01*
X190388363Y-77559217D01*
X190606729Y-77362693D01*
X190782559Y-77127344D01*
X190909097Y-76862214D01*
X190954833Y-76711426D01*
X190833692Y-76479400D01*
X189626875Y-76479400D01*
X189626875Y-76499400D01*
X189372875Y-76499400D01*
X189372875Y-76479400D01*
X187086875Y-76479400D01*
X187086875Y-76499400D01*
X186832875Y-76499400D01*
X186832875Y-76479400D01*
X185626058Y-76479400D01*
X185504917Y-76711426D01*
X185550653Y-76862214D01*
X185677191Y-77127344D01*
X185853021Y-77362693D01*
X186071387Y-77559217D01*
X186169978Y-77617841D01*
X186004573Y-77728361D01*
X185795836Y-77937098D01*
X185631833Y-78182547D01*
X185518865Y-78455275D01*
X185461275Y-78744801D01*
X177933350Y-78744801D01*
X177875760Y-78455275D01*
X177762792Y-78182547D01*
X177598789Y-77937098D01*
X177390052Y-77728361D01*
X177224647Y-77617841D01*
X177323238Y-77559217D01*
X177541604Y-77362693D01*
X177717434Y-77127344D01*
X177843972Y-76862214D01*
X177889708Y-76711426D01*
X177768567Y-76479400D01*
X176561750Y-76479400D01*
X176561750Y-76499400D01*
X176307750Y-76499400D01*
X176307750Y-76479400D01*
X174021750Y-76479400D01*
X174021750Y-76499400D01*
X173767750Y-76499400D01*
X173767750Y-76479400D01*
X172560933Y-76479400D01*
X172439792Y-76711426D01*
X172485528Y-76862214D01*
X172612066Y-77127344D01*
X172787896Y-77362693D01*
X173006262Y-77559217D01*
X173104853Y-77617841D01*
X172939448Y-77728361D01*
X172730711Y-77937098D01*
X172566708Y-78182547D01*
X172453740Y-78455275D01*
X172396150Y-78744801D01*
X164868225Y-78744801D01*
X164810635Y-78455275D01*
X164697667Y-78182547D01*
X164533664Y-77937098D01*
X164324927Y-77728361D01*
X164159522Y-77617841D01*
X164258113Y-77559217D01*
X164476479Y-77362693D01*
X164652309Y-77127344D01*
X164778847Y-76862214D01*
X164824583Y-76711426D01*
X164703442Y-76479400D01*
X163496625Y-76479400D01*
X163496625Y-76499400D01*
X163242625Y-76499400D01*
X163242625Y-76479400D01*
X160956625Y-76479400D01*
X160956625Y-76499400D01*
X160702625Y-76499400D01*
X160702625Y-76479400D01*
X159495808Y-76479400D01*
X159374667Y-76711426D01*
X159420403Y-76862214D01*
X159546941Y-77127344D01*
X159722771Y-77362693D01*
X159941137Y-77559217D01*
X160039728Y-77617841D01*
X159874323Y-77728361D01*
X159665586Y-77937098D01*
X159501583Y-78182547D01*
X159388615Y-78455275D01*
X159331025Y-78744801D01*
X151803100Y-78744801D01*
X151745510Y-78455275D01*
X151632542Y-78182547D01*
X151468539Y-77937098D01*
X151259802Y-77728361D01*
X151094397Y-77617841D01*
X151192988Y-77559217D01*
X151411354Y-77362693D01*
X151587184Y-77127344D01*
X151713722Y-76862214D01*
X151759458Y-76711426D01*
X151638317Y-76479400D01*
X150431500Y-76479400D01*
X150431500Y-76499400D01*
X150177500Y-76499400D01*
X150177500Y-76479400D01*
X147891500Y-76479400D01*
X147891500Y-76499400D01*
X147637500Y-76499400D01*
X147637500Y-76479400D01*
X146430683Y-76479400D01*
X146309542Y-76711426D01*
X146355278Y-76862214D01*
X146481816Y-77127344D01*
X146657646Y-77362693D01*
X146876012Y-77559217D01*
X146974603Y-77617841D01*
X146809198Y-77728361D01*
X146600461Y-77937098D01*
X146436458Y-78182547D01*
X146343705Y-78406473D01*
X143883000Y-75945769D01*
X143883000Y-74171426D01*
X146309542Y-74171426D01*
X146355278Y-74322214D01*
X146481816Y-74587344D01*
X146657646Y-74822693D01*
X146876012Y-75019217D01*
X146982270Y-75082400D01*
X146876012Y-75145583D01*
X146657646Y-75342107D01*
X146481816Y-75577456D01*
X146355278Y-75842586D01*
X146309542Y-75993374D01*
X146430683Y-76225400D01*
X147637500Y-76225400D01*
X147637500Y-73939400D01*
X147891500Y-73939400D01*
X147891500Y-76225400D01*
X150177500Y-76225400D01*
X150177500Y-73939400D01*
X150431500Y-73939400D01*
X150431500Y-76225400D01*
X151638317Y-76225400D01*
X151759458Y-75993374D01*
X151713722Y-75842586D01*
X151587184Y-75577456D01*
X151411354Y-75342107D01*
X151192988Y-75145583D01*
X151086730Y-75082400D01*
X151192988Y-75019217D01*
X151411354Y-74822693D01*
X151587184Y-74587344D01*
X151713722Y-74322214D01*
X151759458Y-74171426D01*
X159374667Y-74171426D01*
X159420403Y-74322214D01*
X159546941Y-74587344D01*
X159722771Y-74822693D01*
X159941137Y-75019217D01*
X160047395Y-75082400D01*
X159941137Y-75145583D01*
X159722771Y-75342107D01*
X159546941Y-75577456D01*
X159420403Y-75842586D01*
X159374667Y-75993374D01*
X159495808Y-76225400D01*
X160702625Y-76225400D01*
X160702625Y-73939400D01*
X160956625Y-73939400D01*
X160956625Y-76225400D01*
X163242625Y-76225400D01*
X163242625Y-73939400D01*
X163496625Y-73939400D01*
X163496625Y-76225400D01*
X164703442Y-76225400D01*
X164824583Y-75993374D01*
X164778847Y-75842586D01*
X164652309Y-75577456D01*
X164476479Y-75342107D01*
X164258113Y-75145583D01*
X164151855Y-75082400D01*
X164258113Y-75019217D01*
X164476479Y-74822693D01*
X164652309Y-74587344D01*
X164778847Y-74322214D01*
X164824583Y-74171426D01*
X172439792Y-74171426D01*
X172485528Y-74322214D01*
X172612066Y-74587344D01*
X172787896Y-74822693D01*
X173006262Y-75019217D01*
X173112520Y-75082400D01*
X173006262Y-75145583D01*
X172787896Y-75342107D01*
X172612066Y-75577456D01*
X172485528Y-75842586D01*
X172439792Y-75993374D01*
X172560933Y-76225400D01*
X173767750Y-76225400D01*
X173767750Y-73939400D01*
X174021750Y-73939400D01*
X174021750Y-76225400D01*
X176307750Y-76225400D01*
X176307750Y-73939400D01*
X176561750Y-73939400D01*
X176561750Y-76225400D01*
X177768567Y-76225400D01*
X177889708Y-75993374D01*
X177843972Y-75842586D01*
X177717434Y-75577456D01*
X177541604Y-75342107D01*
X177323238Y-75145583D01*
X177216980Y-75082400D01*
X177323238Y-75019217D01*
X177541604Y-74822693D01*
X177717434Y-74587344D01*
X177843972Y-74322214D01*
X177889708Y-74171426D01*
X185504917Y-74171426D01*
X185550653Y-74322214D01*
X185677191Y-74587344D01*
X185853021Y-74822693D01*
X186071387Y-75019217D01*
X186177645Y-75082400D01*
X186071387Y-75145583D01*
X185853021Y-75342107D01*
X185677191Y-75577456D01*
X185550653Y-75842586D01*
X185504917Y-75993374D01*
X185626058Y-76225400D01*
X186832875Y-76225400D01*
X186832875Y-73939400D01*
X187086875Y-73939400D01*
X187086875Y-76225400D01*
X189372875Y-76225400D01*
X189372875Y-73939400D01*
X189626875Y-73939400D01*
X189626875Y-76225400D01*
X190833692Y-76225400D01*
X190954833Y-75993374D01*
X190909097Y-75842586D01*
X190782559Y-75577456D01*
X190606729Y-75342107D01*
X190388363Y-75145583D01*
X190282105Y-75082400D01*
X190388363Y-75019217D01*
X190606729Y-74822693D01*
X190782559Y-74587344D01*
X190909097Y-74322214D01*
X190954833Y-74171426D01*
X198570042Y-74171426D01*
X198615778Y-74322214D01*
X198742316Y-74587344D01*
X198918146Y-74822693D01*
X199136512Y-75019217D01*
X199242770Y-75082400D01*
X199136512Y-75145583D01*
X198918146Y-75342107D01*
X198742316Y-75577456D01*
X198615778Y-75842586D01*
X198570042Y-75993374D01*
X198691183Y-76225400D01*
X199898000Y-76225400D01*
X199898000Y-73939400D01*
X200152000Y-73939400D01*
X200152000Y-76225400D01*
X202438000Y-76225400D01*
X202438000Y-73939400D01*
X202692000Y-73939400D01*
X202692000Y-76225400D01*
X203898817Y-76225400D01*
X204019958Y-75993374D01*
X203974222Y-75842586D01*
X203847684Y-75577456D01*
X203671854Y-75342107D01*
X203453488Y-75145583D01*
X203347230Y-75082400D01*
X203453488Y-75019217D01*
X203671854Y-74822693D01*
X203847684Y-74587344D01*
X203974222Y-74322214D01*
X204019958Y-74171426D01*
X203898817Y-73939400D01*
X202692000Y-73939400D01*
X202438000Y-73939400D01*
X200152000Y-73939400D01*
X199898000Y-73939400D01*
X198691183Y-73939400D01*
X198570042Y-74171426D01*
X190954833Y-74171426D01*
X190833692Y-73939400D01*
X189626875Y-73939400D01*
X189372875Y-73939400D01*
X187086875Y-73939400D01*
X186832875Y-73939400D01*
X185626058Y-73939400D01*
X185504917Y-74171426D01*
X177889708Y-74171426D01*
X177768567Y-73939400D01*
X176561750Y-73939400D01*
X176307750Y-73939400D01*
X174021750Y-73939400D01*
X173767750Y-73939400D01*
X172560933Y-73939400D01*
X172439792Y-74171426D01*
X164824583Y-74171426D01*
X164703442Y-73939400D01*
X163496625Y-73939400D01*
X163242625Y-73939400D01*
X160956625Y-73939400D01*
X160702625Y-73939400D01*
X159495808Y-73939400D01*
X159374667Y-74171426D01*
X151759458Y-74171426D01*
X151638317Y-73939400D01*
X150431500Y-73939400D01*
X150177500Y-73939400D01*
X147891500Y-73939400D01*
X147637500Y-73939400D01*
X146430683Y-73939400D01*
X146309542Y-74171426D01*
X143883000Y-74171426D01*
X143883000Y-71631426D01*
X146309542Y-71631426D01*
X146355278Y-71782214D01*
X146481816Y-72047344D01*
X146657646Y-72282693D01*
X146876012Y-72479217D01*
X146982270Y-72542400D01*
X146876012Y-72605583D01*
X146657646Y-72802107D01*
X146481816Y-73037456D01*
X146355278Y-73302586D01*
X146309542Y-73453374D01*
X146430683Y-73685400D01*
X147637500Y-73685400D01*
X147637500Y-71399400D01*
X147891500Y-71399400D01*
X147891500Y-73685400D01*
X150177500Y-73685400D01*
X150177500Y-71399400D01*
X150431500Y-71399400D01*
X150431500Y-73685400D01*
X151638317Y-73685400D01*
X151759458Y-73453374D01*
X151713722Y-73302586D01*
X151587184Y-73037456D01*
X151411354Y-72802107D01*
X151192988Y-72605583D01*
X151086730Y-72542400D01*
X151192988Y-72479217D01*
X151411354Y-72282693D01*
X151587184Y-72047344D01*
X151713722Y-71782214D01*
X151759458Y-71631426D01*
X159374667Y-71631426D01*
X159420403Y-71782214D01*
X159546941Y-72047344D01*
X159722771Y-72282693D01*
X159941137Y-72479217D01*
X160047395Y-72542400D01*
X159941137Y-72605583D01*
X159722771Y-72802107D01*
X159546941Y-73037456D01*
X159420403Y-73302586D01*
X159374667Y-73453374D01*
X159495808Y-73685400D01*
X160702625Y-73685400D01*
X160702625Y-71399400D01*
X160956625Y-71399400D01*
X160956625Y-73685400D01*
X163242625Y-73685400D01*
X163242625Y-71399400D01*
X163496625Y-71399400D01*
X163496625Y-73685400D01*
X164703442Y-73685400D01*
X164824583Y-73453374D01*
X164778847Y-73302586D01*
X164652309Y-73037456D01*
X164476479Y-72802107D01*
X164258113Y-72605583D01*
X164151855Y-72542400D01*
X164258113Y-72479217D01*
X164476479Y-72282693D01*
X164652309Y-72047344D01*
X164778847Y-71782214D01*
X164824583Y-71631426D01*
X172439792Y-71631426D01*
X172485528Y-71782214D01*
X172612066Y-72047344D01*
X172787896Y-72282693D01*
X173006262Y-72479217D01*
X173112520Y-72542400D01*
X173006262Y-72605583D01*
X172787896Y-72802107D01*
X172612066Y-73037456D01*
X172485528Y-73302586D01*
X172439792Y-73453374D01*
X172560933Y-73685400D01*
X173767750Y-73685400D01*
X173767750Y-71399400D01*
X174021750Y-71399400D01*
X174021750Y-73685400D01*
X176307750Y-73685400D01*
X176307750Y-71399400D01*
X176561750Y-71399400D01*
X176561750Y-73685400D01*
X177768567Y-73685400D01*
X177889708Y-73453374D01*
X177843972Y-73302586D01*
X177717434Y-73037456D01*
X177541604Y-72802107D01*
X177323238Y-72605583D01*
X177216980Y-72542400D01*
X177323238Y-72479217D01*
X177541604Y-72282693D01*
X177717434Y-72047344D01*
X177843972Y-71782214D01*
X177889708Y-71631426D01*
X185504917Y-71631426D01*
X185550653Y-71782214D01*
X185677191Y-72047344D01*
X185853021Y-72282693D01*
X186071387Y-72479217D01*
X186177645Y-72542400D01*
X186071387Y-72605583D01*
X185853021Y-72802107D01*
X185677191Y-73037456D01*
X185550653Y-73302586D01*
X185504917Y-73453374D01*
X185626058Y-73685400D01*
X186832875Y-73685400D01*
X186832875Y-71399400D01*
X187086875Y-71399400D01*
X187086875Y-73685400D01*
X189372875Y-73685400D01*
X189372875Y-71399400D01*
X189626875Y-71399400D01*
X189626875Y-73685400D01*
X190833692Y-73685400D01*
X190954833Y-73453374D01*
X190909097Y-73302586D01*
X190782559Y-73037456D01*
X190606729Y-72802107D01*
X190388363Y-72605583D01*
X190282105Y-72542400D01*
X190388363Y-72479217D01*
X190606729Y-72282693D01*
X190782559Y-72047344D01*
X190909097Y-71782214D01*
X190954833Y-71631426D01*
X198570042Y-71631426D01*
X198615778Y-71782214D01*
X198742316Y-72047344D01*
X198918146Y-72282693D01*
X199136512Y-72479217D01*
X199242770Y-72542400D01*
X199136512Y-72605583D01*
X198918146Y-72802107D01*
X198742316Y-73037456D01*
X198615778Y-73302586D01*
X198570042Y-73453374D01*
X198691183Y-73685400D01*
X199898000Y-73685400D01*
X199898000Y-71399400D01*
X200152000Y-71399400D01*
X200152000Y-73685400D01*
X202438000Y-73685400D01*
X202438000Y-71399400D01*
X202692000Y-71399400D01*
X202692000Y-73685400D01*
X203898817Y-73685400D01*
X204019958Y-73453374D01*
X203974222Y-73302586D01*
X203847684Y-73037456D01*
X203671854Y-72802107D01*
X203453488Y-72605583D01*
X203347230Y-72542400D01*
X203453488Y-72479217D01*
X203671854Y-72282693D01*
X203847684Y-72047344D01*
X203974222Y-71782214D01*
X204019958Y-71631426D01*
X203898817Y-71399400D01*
X202692000Y-71399400D01*
X202438000Y-71399400D01*
X200152000Y-71399400D01*
X199898000Y-71399400D01*
X198691183Y-71399400D01*
X198570042Y-71631426D01*
X190954833Y-71631426D01*
X190833692Y-71399400D01*
X189626875Y-71399400D01*
X189372875Y-71399400D01*
X187086875Y-71399400D01*
X186832875Y-71399400D01*
X185626058Y-71399400D01*
X185504917Y-71631426D01*
X177889708Y-71631426D01*
X177768567Y-71399400D01*
X176561750Y-71399400D01*
X176307750Y-71399400D01*
X174021750Y-71399400D01*
X173767750Y-71399400D01*
X172560933Y-71399400D01*
X172439792Y-71631426D01*
X164824583Y-71631426D01*
X164703442Y-71399400D01*
X163496625Y-71399400D01*
X163242625Y-71399400D01*
X160956625Y-71399400D01*
X160702625Y-71399400D01*
X159495808Y-71399400D01*
X159374667Y-71631426D01*
X151759458Y-71631426D01*
X151638317Y-71399400D01*
X150431500Y-71399400D01*
X150177500Y-71399400D01*
X147891500Y-71399400D01*
X147637500Y-71399400D01*
X146430683Y-71399400D01*
X146309542Y-71631426D01*
X143883000Y-71631426D01*
X143883000Y-70731252D01*
X143888491Y-70675500D01*
X143866577Y-70453001D01*
X143801676Y-70239053D01*
X143696284Y-70041877D01*
X143589989Y-69912356D01*
X143589987Y-69912354D01*
X143554449Y-69869051D01*
X143511146Y-69833513D01*
X141546433Y-67868800D01*
X146262828Y-67868800D01*
X146262828Y-69596000D01*
X146275088Y-69720482D01*
X146311398Y-69840180D01*
X146370363Y-69950494D01*
X146449715Y-70047185D01*
X146546406Y-70126537D01*
X146656720Y-70185502D01*
X146721074Y-70205024D01*
X146657646Y-70262107D01*
X146481816Y-70497456D01*
X146355278Y-70762586D01*
X146309542Y-70913374D01*
X146430683Y-71145400D01*
X147637500Y-71145400D01*
X147637500Y-71125400D01*
X147891500Y-71125400D01*
X147891500Y-71145400D01*
X150177500Y-71145400D01*
X150177500Y-71125400D01*
X150431500Y-71125400D01*
X150431500Y-71145400D01*
X151638317Y-71145400D01*
X151759458Y-70913374D01*
X151713722Y-70762586D01*
X151587184Y-70497456D01*
X151411354Y-70262107D01*
X151192988Y-70065583D01*
X151094397Y-70006959D01*
X151259802Y-69896439D01*
X151468539Y-69687702D01*
X151632542Y-69442253D01*
X151745510Y-69169525D01*
X151803100Y-68879999D01*
X151803100Y-68584801D01*
X151745510Y-68295275D01*
X151632542Y-68022547D01*
X151529813Y-67868800D01*
X159327953Y-67868800D01*
X159327953Y-69596000D01*
X159340213Y-69720482D01*
X159376523Y-69840180D01*
X159435488Y-69950494D01*
X159514840Y-70047185D01*
X159611531Y-70126537D01*
X159721845Y-70185502D01*
X159786199Y-70205024D01*
X159722771Y-70262107D01*
X159546941Y-70497456D01*
X159420403Y-70762586D01*
X159374667Y-70913374D01*
X159495808Y-71145400D01*
X160702625Y-71145400D01*
X160702625Y-71125400D01*
X160956625Y-71125400D01*
X160956625Y-71145400D01*
X163242625Y-71145400D01*
X163242625Y-71125400D01*
X163496625Y-71125400D01*
X163496625Y-71145400D01*
X164703442Y-71145400D01*
X164824583Y-70913374D01*
X164778847Y-70762586D01*
X164652309Y-70497456D01*
X164476479Y-70262107D01*
X164258113Y-70065583D01*
X164159522Y-70006959D01*
X164324927Y-69896439D01*
X164533664Y-69687702D01*
X164697667Y-69442253D01*
X164810635Y-69169525D01*
X164868225Y-68879999D01*
X164868225Y-68584801D01*
X164810635Y-68295275D01*
X164697667Y-68022547D01*
X164594938Y-67868800D01*
X172393078Y-67868800D01*
X172393078Y-69596000D01*
X172405338Y-69720482D01*
X172441648Y-69840180D01*
X172500613Y-69950494D01*
X172579965Y-70047185D01*
X172676656Y-70126537D01*
X172786970Y-70185502D01*
X172851324Y-70205024D01*
X172787896Y-70262107D01*
X172612066Y-70497456D01*
X172485528Y-70762586D01*
X172439792Y-70913374D01*
X172560933Y-71145400D01*
X173767750Y-71145400D01*
X173767750Y-71125400D01*
X174021750Y-71125400D01*
X174021750Y-71145400D01*
X176307750Y-71145400D01*
X176307750Y-71125400D01*
X176561750Y-71125400D01*
X176561750Y-71145400D01*
X177768567Y-71145400D01*
X177889708Y-70913374D01*
X177843972Y-70762586D01*
X177717434Y-70497456D01*
X177541604Y-70262107D01*
X177323238Y-70065583D01*
X177224647Y-70006959D01*
X177390052Y-69896439D01*
X177598789Y-69687702D01*
X177762792Y-69442253D01*
X177875760Y-69169525D01*
X177933350Y-68879999D01*
X177933350Y-68584801D01*
X177875760Y-68295275D01*
X177762792Y-68022547D01*
X177660063Y-67868800D01*
X185458203Y-67868800D01*
X185458203Y-69596000D01*
X185470463Y-69720482D01*
X185506773Y-69840180D01*
X185565738Y-69950494D01*
X185645090Y-70047185D01*
X185741781Y-70126537D01*
X185852095Y-70185502D01*
X185916449Y-70205024D01*
X185853021Y-70262107D01*
X185677191Y-70497456D01*
X185550653Y-70762586D01*
X185504917Y-70913374D01*
X185626058Y-71145400D01*
X186832875Y-71145400D01*
X186832875Y-71125400D01*
X187086875Y-71125400D01*
X187086875Y-71145400D01*
X189372875Y-71145400D01*
X189372875Y-71125400D01*
X189626875Y-71125400D01*
X189626875Y-71145400D01*
X190833692Y-71145400D01*
X190954833Y-70913374D01*
X190909097Y-70762586D01*
X190782559Y-70497456D01*
X190606729Y-70262107D01*
X190388363Y-70065583D01*
X190289772Y-70006959D01*
X190455177Y-69896439D01*
X190663914Y-69687702D01*
X190827917Y-69442253D01*
X190940885Y-69169525D01*
X190998475Y-68879999D01*
X190998475Y-68584801D01*
X190940885Y-68295275D01*
X190827917Y-68022547D01*
X190725188Y-67868800D01*
X198523328Y-67868800D01*
X198523328Y-69596000D01*
X198535588Y-69720482D01*
X198571898Y-69840180D01*
X198630863Y-69950494D01*
X198710215Y-70047185D01*
X198806906Y-70126537D01*
X198917220Y-70185502D01*
X198981574Y-70205024D01*
X198918146Y-70262107D01*
X198742316Y-70497456D01*
X198615778Y-70762586D01*
X198570042Y-70913374D01*
X198691183Y-71145400D01*
X199898000Y-71145400D01*
X199898000Y-71125400D01*
X200152000Y-71125400D01*
X200152000Y-71145400D01*
X202438000Y-71145400D01*
X202438000Y-71125400D01*
X202692000Y-71125400D01*
X202692000Y-71145400D01*
X203898817Y-71145400D01*
X204019958Y-70913374D01*
X203974222Y-70762586D01*
X203847684Y-70497456D01*
X203671854Y-70262107D01*
X203453488Y-70065583D01*
X203354897Y-70006959D01*
X203520302Y-69896439D01*
X203729039Y-69687702D01*
X203893042Y-69442253D01*
X204006010Y-69169525D01*
X204063600Y-68879999D01*
X204063600Y-68584801D01*
X204006010Y-68295275D01*
X203893042Y-68022547D01*
X203729039Y-67777098D01*
X203520302Y-67568361D01*
X203274853Y-67404358D01*
X203002125Y-67291390D01*
X202712599Y-67233800D01*
X202417401Y-67233800D01*
X202127875Y-67291390D01*
X201855147Y-67404358D01*
X201609698Y-67568361D01*
X201495636Y-67682423D01*
X201478102Y-67624620D01*
X201419137Y-67514306D01*
X201339785Y-67417615D01*
X201243094Y-67338263D01*
X201132780Y-67279298D01*
X201013082Y-67242988D01*
X200888600Y-67230728D01*
X199161400Y-67230728D01*
X199036918Y-67242988D01*
X198917220Y-67279298D01*
X198806906Y-67338263D01*
X198710215Y-67417615D01*
X198630863Y-67514306D01*
X198571898Y-67624620D01*
X198535588Y-67744318D01*
X198523328Y-67868800D01*
X190725188Y-67868800D01*
X190663914Y-67777098D01*
X190455177Y-67568361D01*
X190209728Y-67404358D01*
X189937000Y-67291390D01*
X189647474Y-67233800D01*
X189352276Y-67233800D01*
X189062750Y-67291390D01*
X188790022Y-67404358D01*
X188544573Y-67568361D01*
X188430511Y-67682423D01*
X188412977Y-67624620D01*
X188354012Y-67514306D01*
X188274660Y-67417615D01*
X188177969Y-67338263D01*
X188067655Y-67279298D01*
X187947957Y-67242988D01*
X187823475Y-67230728D01*
X186096275Y-67230728D01*
X185971793Y-67242988D01*
X185852095Y-67279298D01*
X185741781Y-67338263D01*
X185645090Y-67417615D01*
X185565738Y-67514306D01*
X185506773Y-67624620D01*
X185470463Y-67744318D01*
X185458203Y-67868800D01*
X177660063Y-67868800D01*
X177598789Y-67777098D01*
X177390052Y-67568361D01*
X177144603Y-67404358D01*
X176871875Y-67291390D01*
X176582349Y-67233800D01*
X176287151Y-67233800D01*
X175997625Y-67291390D01*
X175724897Y-67404358D01*
X175479448Y-67568361D01*
X175365386Y-67682423D01*
X175347852Y-67624620D01*
X175288887Y-67514306D01*
X175209535Y-67417615D01*
X175112844Y-67338263D01*
X175002530Y-67279298D01*
X174882832Y-67242988D01*
X174758350Y-67230728D01*
X173031150Y-67230728D01*
X172906668Y-67242988D01*
X172786970Y-67279298D01*
X172676656Y-67338263D01*
X172579965Y-67417615D01*
X172500613Y-67514306D01*
X172441648Y-67624620D01*
X172405338Y-67744318D01*
X172393078Y-67868800D01*
X164594938Y-67868800D01*
X164533664Y-67777098D01*
X164324927Y-67568361D01*
X164079478Y-67404358D01*
X163806750Y-67291390D01*
X163517224Y-67233800D01*
X163222026Y-67233800D01*
X162932500Y-67291390D01*
X162659772Y-67404358D01*
X162414323Y-67568361D01*
X162300261Y-67682423D01*
X162282727Y-67624620D01*
X162223762Y-67514306D01*
X162144410Y-67417615D01*
X162047719Y-67338263D01*
X161937405Y-67279298D01*
X161817707Y-67242988D01*
X161693225Y-67230728D01*
X159966025Y-67230728D01*
X159841543Y-67242988D01*
X159721845Y-67279298D01*
X159611531Y-67338263D01*
X159514840Y-67417615D01*
X159435488Y-67514306D01*
X159376523Y-67624620D01*
X159340213Y-67744318D01*
X159327953Y-67868800D01*
X151529813Y-67868800D01*
X151468539Y-67777098D01*
X151259802Y-67568361D01*
X151014353Y-67404358D01*
X150741625Y-67291390D01*
X150452099Y-67233800D01*
X150156901Y-67233800D01*
X149867375Y-67291390D01*
X149594647Y-67404358D01*
X149349198Y-67568361D01*
X149235136Y-67682423D01*
X149217602Y-67624620D01*
X149158637Y-67514306D01*
X149079285Y-67417615D01*
X148982594Y-67338263D01*
X148872280Y-67279298D01*
X148752582Y-67242988D01*
X148628100Y-67230728D01*
X146900900Y-67230728D01*
X146776418Y-67242988D01*
X146656720Y-67279298D01*
X146546406Y-67338263D01*
X146449715Y-67417615D01*
X146370363Y-67514306D01*
X146311398Y-67624620D01*
X146275088Y-67744318D01*
X146262828Y-67868800D01*
X141546433Y-67868800D01*
X141367496Y-67689864D01*
X141331949Y-67646551D01*
X141159123Y-67504716D01*
X140961947Y-67399324D01*
X140747999Y-67334423D01*
X140581252Y-67318000D01*
X140581251Y-67318000D01*
X140525500Y-67312509D01*
X140469749Y-67318000D01*
X123372741Y-67318000D01*
X123316999Y-67312510D01*
X123261257Y-67318000D01*
X123261248Y-67318000D01*
X123094501Y-67334423D01*
X122880553Y-67399324D01*
X122683377Y-67504716D01*
X122510551Y-67646551D01*
X122475009Y-67689859D01*
X118553365Y-71611504D01*
X118510051Y-71647051D01*
X118368216Y-71819877D01*
X118262825Y-72017053D01*
X118262824Y-72017054D01*
X118197923Y-72231002D01*
X118176009Y-72453500D01*
X118181500Y-72509252D01*
X118181501Y-77241167D01*
X117016195Y-78406473D01*
X116923442Y-78182547D01*
X116759439Y-77937098D01*
X116550702Y-77728361D01*
X116385297Y-77617841D01*
X116483888Y-77559217D01*
X116702254Y-77362693D01*
X116878084Y-77127344D01*
X117004622Y-76862214D01*
X117050358Y-76711426D01*
X116929217Y-76479400D01*
X115722400Y-76479400D01*
X115722400Y-76499400D01*
X115468400Y-76499400D01*
X115468400Y-76479400D01*
X113182400Y-76479400D01*
X113182400Y-76499400D01*
X112928400Y-76499400D01*
X112928400Y-76479400D01*
X111721583Y-76479400D01*
X111600442Y-76711426D01*
X111646178Y-76862214D01*
X111772716Y-77127344D01*
X111948546Y-77362693D01*
X112166912Y-77559217D01*
X112265503Y-77617841D01*
X112100098Y-77728361D01*
X111891361Y-77937098D01*
X111727358Y-78182547D01*
X111614390Y-78455275D01*
X111556800Y-78744801D01*
X111556800Y-79039999D01*
X111614390Y-79329525D01*
X111727358Y-79602253D01*
X111891361Y-79847702D01*
X112100098Y-80056439D01*
X112258681Y-80162400D01*
X112100098Y-80268361D01*
X111891361Y-80477098D01*
X111727358Y-80722547D01*
X111614390Y-80995275D01*
X111556800Y-81284801D01*
X111556800Y-81579999D01*
X111614390Y-81869525D01*
X111727358Y-82142253D01*
X111891361Y-82387702D01*
X112100098Y-82596439D01*
X112258681Y-82702400D01*
X112100098Y-82808361D01*
X111891361Y-83017098D01*
X111727358Y-83262547D01*
X111614390Y-83535275D01*
X111556800Y-83824801D01*
X111556800Y-84119999D01*
X111614390Y-84409525D01*
X111727358Y-84682253D01*
X111891361Y-84927702D01*
X112100098Y-85136439D01*
X112258681Y-85242400D01*
X112100098Y-85348361D01*
X111891361Y-85557098D01*
X111727358Y-85802547D01*
X111614390Y-86075275D01*
X111556800Y-86364801D01*
X111556800Y-86659999D01*
X111614390Y-86949525D01*
X111727358Y-87222253D01*
X111891361Y-87467702D01*
X112100098Y-87676439D01*
X112345547Y-87840442D01*
X112618275Y-87953410D01*
X112907801Y-88011000D01*
X113202999Y-88011000D01*
X113492525Y-87953410D01*
X113765253Y-87840442D01*
X114010702Y-87676439D01*
X114219439Y-87467702D01*
X114325400Y-87309119D01*
X114431361Y-87467702D01*
X114640098Y-87676439D01*
X114885547Y-87840442D01*
X115158275Y-87953410D01*
X115447801Y-88011000D01*
X115742999Y-88011000D01*
X116032525Y-87953410D01*
X116305253Y-87840442D01*
X116550702Y-87676439D01*
X116759439Y-87467702D01*
X116923442Y-87222253D01*
X117016196Y-86998327D01*
X124099868Y-94082000D01*
X117863019Y-94082000D01*
X117830600Y-94078807D01*
X117798181Y-94082000D01*
X117701217Y-94091550D01*
X117576807Y-94129290D01*
X117462150Y-94190575D01*
X117361652Y-94273052D01*
X117279175Y-94373550D01*
X117217890Y-94488207D01*
X117180150Y-94612617D01*
X117167407Y-94742000D01*
X117170601Y-94774429D01*
X117170600Y-101041600D01*
X109660000Y-101041600D01*
X109660000Y-97831672D01*
X111180300Y-97831672D01*
X111180300Y-98271928D01*
X111266190Y-98703725D01*
X111434669Y-99110469D01*
X111679262Y-99476529D01*
X111990571Y-99787838D01*
X112356631Y-100032431D01*
X112763375Y-100200910D01*
X113195172Y-100286800D01*
X113635428Y-100286800D01*
X114067225Y-100200910D01*
X114473969Y-100032431D01*
X114840029Y-99787838D01*
X115151338Y-99476529D01*
X115395931Y-99110469D01*
X115564410Y-98703725D01*
X115650300Y-98271928D01*
X115650300Y-97831672D01*
X115564410Y-97399875D01*
X115395931Y-96993131D01*
X115151338Y-96627071D01*
X114840029Y-96315762D01*
X114473969Y-96071169D01*
X114067225Y-95902690D01*
X113635428Y-95816800D01*
X113195172Y-95816800D01*
X112763375Y-95902690D01*
X112356631Y-96071169D01*
X111990571Y-96315762D01*
X111679262Y-96627071D01*
X111434669Y-96993131D01*
X111266190Y-97399875D01*
X111180300Y-97831672D01*
X109660000Y-97831672D01*
X109660000Y-74171426D01*
X111600442Y-74171426D01*
X111646178Y-74322214D01*
X111772716Y-74587344D01*
X111948546Y-74822693D01*
X112166912Y-75019217D01*
X112273170Y-75082400D01*
X112166912Y-75145583D01*
X111948546Y-75342107D01*
X111772716Y-75577456D01*
X111646178Y-75842586D01*
X111600442Y-75993374D01*
X111721583Y-76225400D01*
X112928400Y-76225400D01*
X112928400Y-73939400D01*
X113182400Y-73939400D01*
X113182400Y-76225400D01*
X115468400Y-76225400D01*
X115468400Y-73939400D01*
X115722400Y-73939400D01*
X115722400Y-76225400D01*
X116929217Y-76225400D01*
X117050358Y-75993374D01*
X117004622Y-75842586D01*
X116878084Y-75577456D01*
X116702254Y-75342107D01*
X116483888Y-75145583D01*
X116377630Y-75082400D01*
X116483888Y-75019217D01*
X116702254Y-74822693D01*
X116878084Y-74587344D01*
X117004622Y-74322214D01*
X117050358Y-74171426D01*
X116929217Y-73939400D01*
X115722400Y-73939400D01*
X115468400Y-73939400D01*
X113182400Y-73939400D01*
X112928400Y-73939400D01*
X111721583Y-73939400D01*
X111600442Y-74171426D01*
X109660000Y-74171426D01*
X109660000Y-71631426D01*
X111600442Y-71631426D01*
X111646178Y-71782214D01*
X111772716Y-72047344D01*
X111948546Y-72282693D01*
X112166912Y-72479217D01*
X112273170Y-72542400D01*
X112166912Y-72605583D01*
X111948546Y-72802107D01*
X111772716Y-73037456D01*
X111646178Y-73302586D01*
X111600442Y-73453374D01*
X111721583Y-73685400D01*
X112928400Y-73685400D01*
X112928400Y-71399400D01*
X113182400Y-71399400D01*
X113182400Y-73685400D01*
X115468400Y-73685400D01*
X115468400Y-71399400D01*
X115722400Y-71399400D01*
X115722400Y-73685400D01*
X116929217Y-73685400D01*
X117050358Y-73453374D01*
X117004622Y-73302586D01*
X116878084Y-73037456D01*
X116702254Y-72802107D01*
X116483888Y-72605583D01*
X116377630Y-72542400D01*
X116483888Y-72479217D01*
X116702254Y-72282693D01*
X116878084Y-72047344D01*
X117004622Y-71782214D01*
X117050358Y-71631426D01*
X116929217Y-71399400D01*
X115722400Y-71399400D01*
X115468400Y-71399400D01*
X113182400Y-71399400D01*
X112928400Y-71399400D01*
X111721583Y-71399400D01*
X111600442Y-71631426D01*
X109660000Y-71631426D01*
X109660000Y-67868800D01*
X111553728Y-67868800D01*
X111553728Y-69596000D01*
X111565988Y-69720482D01*
X111602298Y-69840180D01*
X111661263Y-69950494D01*
X111740615Y-70047185D01*
X111837306Y-70126537D01*
X111947620Y-70185502D01*
X112011974Y-70205024D01*
X111948546Y-70262107D01*
X111772716Y-70497456D01*
X111646178Y-70762586D01*
X111600442Y-70913374D01*
X111721583Y-71145400D01*
X112928400Y-71145400D01*
X112928400Y-71125400D01*
X113182400Y-71125400D01*
X113182400Y-71145400D01*
X115468400Y-71145400D01*
X115468400Y-71125400D01*
X115722400Y-71125400D01*
X115722400Y-71145400D01*
X116929217Y-71145400D01*
X117050358Y-70913374D01*
X117004622Y-70762586D01*
X116878084Y-70497456D01*
X116702254Y-70262107D01*
X116483888Y-70065583D01*
X116385297Y-70006959D01*
X116550702Y-69896439D01*
X116759439Y-69687702D01*
X116923442Y-69442253D01*
X117036410Y-69169525D01*
X117094000Y-68879999D01*
X117094000Y-68584801D01*
X117036410Y-68295275D01*
X116923442Y-68022547D01*
X116759439Y-67777098D01*
X116550702Y-67568361D01*
X116305253Y-67404358D01*
X116032525Y-67291390D01*
X115742999Y-67233800D01*
X115447801Y-67233800D01*
X115158275Y-67291390D01*
X114885547Y-67404358D01*
X114640098Y-67568361D01*
X114526036Y-67682423D01*
X114508502Y-67624620D01*
X114449537Y-67514306D01*
X114370185Y-67417615D01*
X114273494Y-67338263D01*
X114163180Y-67279298D01*
X114043482Y-67242988D01*
X113919000Y-67230728D01*
X112191800Y-67230728D01*
X112067318Y-67242988D01*
X111947620Y-67279298D01*
X111837306Y-67338263D01*
X111740615Y-67417615D01*
X111661263Y-67514306D01*
X111602298Y-67624620D01*
X111565988Y-67744318D01*
X111553728Y-67868800D01*
X109660000Y-67868800D01*
X109660000Y-66423102D01*
X134505403Y-66423102D01*
X134576986Y-66667071D01*
X134832496Y-66787971D01*
X135106684Y-66856700D01*
X135389012Y-66870617D01*
X135668630Y-66829187D01*
X135934792Y-66734003D01*
X136060014Y-66667071D01*
X136131597Y-66423102D01*
X135318500Y-65610005D01*
X134505403Y-66423102D01*
X109660000Y-66423102D01*
X109660000Y-65500912D01*
X133878283Y-65500912D01*
X133919713Y-65780530D01*
X134014897Y-66046692D01*
X134081829Y-66171914D01*
X134325798Y-66243497D01*
X135138895Y-65430400D01*
X135498105Y-65430400D01*
X136311202Y-66243497D01*
X136555171Y-66171914D01*
X136568824Y-66143059D01*
X136703863Y-66345159D01*
X136903741Y-66545037D01*
X137138773Y-66702080D01*
X137399926Y-66810253D01*
X137677165Y-66865400D01*
X137959835Y-66865400D01*
X138237074Y-66810253D01*
X138498227Y-66702080D01*
X138733259Y-66545037D01*
X138933137Y-66345159D01*
X139090180Y-66110127D01*
X139198353Y-65848974D01*
X139253500Y-65571735D01*
X139253500Y-65289065D01*
X139198353Y-65011826D01*
X139090180Y-64750673D01*
X138933137Y-64515641D01*
X138733259Y-64315763D01*
X138498227Y-64158720D01*
X138237074Y-64050547D01*
X137959835Y-63995400D01*
X137677165Y-63995400D01*
X137399926Y-64050547D01*
X137138773Y-64158720D01*
X136903741Y-64315763D01*
X136703863Y-64515641D01*
X136569808Y-64716269D01*
X136555171Y-64688886D01*
X136311202Y-64617303D01*
X135498105Y-65430400D01*
X135138895Y-65430400D01*
X134325798Y-64617303D01*
X134081829Y-64688886D01*
X133960929Y-64944396D01*
X133892200Y-65218584D01*
X133878283Y-65500912D01*
X109660000Y-65500912D01*
X109660000Y-64437698D01*
X134505403Y-64437698D01*
X135318500Y-65250795D01*
X136131597Y-64437698D01*
X136060014Y-64193729D01*
X135804504Y-64072829D01*
X135530316Y-64004100D01*
X135247988Y-63990183D01*
X134968370Y-64031613D01*
X134702208Y-64126797D01*
X134576986Y-64193729D01*
X134505403Y-64437698D01*
X109660000Y-64437698D01*
X109660000Y-57818872D01*
X111180300Y-57818872D01*
X111180300Y-58259128D01*
X111266190Y-58690925D01*
X111434669Y-59097669D01*
X111679262Y-59463729D01*
X111990571Y-59775038D01*
X112356631Y-60019631D01*
X112763375Y-60188110D01*
X113195172Y-60274000D01*
X113635428Y-60274000D01*
X114067225Y-60188110D01*
X114473969Y-60019631D01*
X114840029Y-59775038D01*
X115151338Y-59463729D01*
X115395931Y-59097669D01*
X115564410Y-58690925D01*
X115650300Y-58259128D01*
X115650300Y-57818872D01*
X115564410Y-57387075D01*
X115395931Y-56980331D01*
X115151338Y-56614271D01*
X114840029Y-56302962D01*
X114473969Y-56058369D01*
X114067225Y-55889890D01*
X113635428Y-55804000D01*
X113195172Y-55804000D01*
X112763375Y-55889890D01*
X112356631Y-56058369D01*
X111990571Y-56302962D01*
X111679262Y-56614271D01*
X111434669Y-56980331D01*
X111266190Y-57387075D01*
X111180300Y-57818872D01*
X109660000Y-57818872D01*
X109660000Y-55041400D01*
X117170600Y-55041400D01*
X117170601Y-61308571D01*
G36*
X133102941Y-69598963D02*
G01*
X132903063Y-69798841D01*
X132746020Y-70033873D01*
X132637847Y-70295026D01*
X132582700Y-70572265D01*
X132582700Y-70854935D01*
X132637847Y-71132174D01*
X132746020Y-71393327D01*
X132903063Y-71628359D01*
X133102941Y-71828237D01*
X133337973Y-71985280D01*
X133599126Y-72093453D01*
X133876365Y-72148600D01*
X134159035Y-72148600D01*
X134436274Y-72093453D01*
X134697427Y-71985280D01*
X134932459Y-71828237D01*
X135054394Y-71706302D01*
X138204603Y-71706302D01*
X138276186Y-71950271D01*
X138531696Y-72071171D01*
X138805884Y-72139900D01*
X139088212Y-72153817D01*
X139367830Y-72112387D01*
X139633992Y-72017203D01*
X139759214Y-71950271D01*
X139830797Y-71706302D01*
X139017700Y-70893205D01*
X138204603Y-71706302D01*
X135054394Y-71706302D01*
X135132337Y-71628359D01*
X135289380Y-71393327D01*
X135397553Y-71132174D01*
X135452700Y-70854935D01*
X135452700Y-70784112D01*
X137577483Y-70784112D01*
X137618913Y-71063730D01*
X137714097Y-71329892D01*
X137781029Y-71455114D01*
X138024998Y-71526697D01*
X138838095Y-70713600D01*
X139197305Y-70713600D01*
X140010402Y-71526697D01*
X140254371Y-71455114D01*
X140375271Y-71199604D01*
X140444000Y-70925416D01*
X140457917Y-70643088D01*
X140416487Y-70363470D01*
X140321303Y-70097308D01*
X140254371Y-69972086D01*
X140010402Y-69900503D01*
X139197305Y-70713600D01*
X138838095Y-70713600D01*
X138024998Y-69900503D01*
X137781029Y-69972086D01*
X137660129Y-70227596D01*
X137591400Y-70501784D01*
X137577483Y-70784112D01*
X135452700Y-70784112D01*
X135452700Y-70572265D01*
X135397553Y-70295026D01*
X135289380Y-70033873D01*
X135132337Y-69798841D01*
X134932459Y-69598963D01*
X134916052Y-69588000D01*
X138243597Y-69588000D01*
X138204603Y-69720898D01*
X139017700Y-70533995D01*
X139830797Y-69720898D01*
X139791803Y-69588000D01*
X140055369Y-69588000D01*
X141613001Y-71145634D01*
X141613000Y-76360148D01*
X141607509Y-76415900D01*
X141613000Y-76471651D01*
X141629423Y-76638398D01*
X141694324Y-76852346D01*
X141799716Y-77049523D01*
X141941551Y-77222349D01*
X141984865Y-77257896D01*
X146265900Y-81538932D01*
X146265900Y-81579999D01*
X146323490Y-81869525D01*
X146436458Y-82142253D01*
X146600461Y-82387702D01*
X146809198Y-82596439D01*
X146967781Y-82702400D01*
X146809198Y-82808361D01*
X146780159Y-82837400D01*
X146598927Y-82837400D01*
X146543185Y-82831910D01*
X146487443Y-82837400D01*
X146487434Y-82837400D01*
X146320687Y-82853823D01*
X146106739Y-82918724D01*
X145909563Y-83024116D01*
X145736737Y-83165951D01*
X145701195Y-83209259D01*
X143127865Y-85782590D01*
X143084551Y-85818137D01*
X142942716Y-85990963D01*
X142837325Y-86188139D01*
X142837324Y-86188140D01*
X142772423Y-86402088D01*
X142750509Y-86624586D01*
X142756000Y-86680338D01*
X142756001Y-91795367D01*
X142266772Y-92284597D01*
X142266772Y-90895600D01*
X142254512Y-90771118D01*
X142218202Y-90651420D01*
X142159237Y-90541106D01*
X142079885Y-90444415D01*
X141983194Y-90365063D01*
X141872880Y-90306098D01*
X141753182Y-90269788D01*
X141628700Y-90257528D01*
X139828700Y-90257528D01*
X139704218Y-90269788D01*
X139584520Y-90306098D01*
X139474206Y-90365063D01*
X139377515Y-90444415D01*
X139298163Y-90541106D01*
X139239198Y-90651420D01*
X139235887Y-90662335D01*
X139189122Y-90615570D01*
X139073174Y-90731518D01*
X138989492Y-90477339D01*
X138716925Y-90346442D01*
X138424058Y-90271235D01*
X138122147Y-90254609D01*
X137822793Y-90297203D01*
X137537501Y-90397378D01*
X137387908Y-90477339D01*
X137304226Y-90731518D01*
X137188278Y-90615570D01*
X137159710Y-90644138D01*
X137104637Y-90541106D01*
X137025285Y-90444415D01*
X136928594Y-90365063D01*
X136818280Y-90306098D01*
X136698582Y-90269788D01*
X136574100Y-90257528D01*
X135959850Y-90260600D01*
X135801100Y-90419350D01*
X135801100Y-91668600D01*
X135821100Y-91668600D01*
X135821100Y-91922600D01*
X135801100Y-91922600D01*
X135801100Y-91942600D01*
X135547100Y-91942600D01*
X135547100Y-91922600D01*
X135527100Y-91922600D01*
X135527100Y-91668600D01*
X135547100Y-91668600D01*
X135547100Y-90419350D01*
X135388350Y-90260600D01*
X134774100Y-90257528D01*
X134649618Y-90269788D01*
X134529920Y-90306098D01*
X134419606Y-90365063D01*
X134322915Y-90444415D01*
X134243563Y-90541106D01*
X134184598Y-90651420D01*
X134179044Y-90669727D01*
X134112605Y-90603288D01*
X133861195Y-90435301D01*
X133581843Y-90319589D01*
X133285284Y-90260600D01*
X132982916Y-90260600D01*
X132686357Y-90319589D01*
X132407005Y-90435301D01*
X132155595Y-90603288D01*
X131941788Y-90817095D01*
X131773801Y-91068505D01*
X131658089Y-91347857D01*
X131599100Y-91644416D01*
X131599100Y-91946784D01*
X131658089Y-92243343D01*
X131773801Y-92522695D01*
X131819441Y-92591000D01*
X125819132Y-92591000D01*
X117300992Y-84072861D01*
X117300987Y-84072855D01*
X117094000Y-83865868D01*
X117094000Y-83824801D01*
X117036410Y-83535275D01*
X116923442Y-83262547D01*
X116759439Y-83017098D01*
X116550702Y-82808361D01*
X116392119Y-82702400D01*
X116550702Y-82596439D01*
X116592340Y-82554801D01*
X123088400Y-82554801D01*
X123088400Y-82849999D01*
X123145990Y-83139525D01*
X123258958Y-83412253D01*
X123422961Y-83657702D01*
X123631698Y-83866439D01*
X123877147Y-84030442D01*
X124149875Y-84143410D01*
X124439401Y-84201000D01*
X124734599Y-84201000D01*
X125024125Y-84143410D01*
X125296853Y-84030442D01*
X125542302Y-83866439D01*
X125751039Y-83657702D01*
X125857000Y-83499119D01*
X125962961Y-83657702D01*
X126171698Y-83866439D01*
X126417147Y-84030442D01*
X126689875Y-84143410D01*
X126979401Y-84201000D01*
X127274599Y-84201000D01*
X127564125Y-84143410D01*
X127836853Y-84030442D01*
X128082302Y-83866439D01*
X128291039Y-83657702D01*
X128455042Y-83412253D01*
X128568010Y-83139525D01*
X128625600Y-82849999D01*
X128625600Y-82554801D01*
X128568010Y-82265275D01*
X128455042Y-81992547D01*
X128291039Y-81747098D01*
X128082302Y-81538361D01*
X127916897Y-81427841D01*
X128015488Y-81369217D01*
X128233854Y-81172693D01*
X128409684Y-80937344D01*
X128536222Y-80672214D01*
X128581958Y-80521426D01*
X128460817Y-80289400D01*
X127254000Y-80289400D01*
X127254000Y-80309400D01*
X127000000Y-80309400D01*
X127000000Y-80289400D01*
X124714000Y-80289400D01*
X124714000Y-80309400D01*
X124460000Y-80309400D01*
X124460000Y-80289400D01*
X123253183Y-80289400D01*
X123132042Y-80521426D01*
X123177778Y-80672214D01*
X123304316Y-80937344D01*
X123480146Y-81172693D01*
X123698512Y-81369217D01*
X123797103Y-81427841D01*
X123631698Y-81538361D01*
X123422961Y-81747098D01*
X123258958Y-81992547D01*
X123145990Y-82265275D01*
X123088400Y-82554801D01*
X116592340Y-82554801D01*
X116759439Y-82387702D01*
X116923442Y-82142253D01*
X117036410Y-81869525D01*
X117094000Y-81579999D01*
X117094000Y-81538931D01*
X120079641Y-78553291D01*
X120122949Y-78517749D01*
X120264784Y-78344923D01*
X120370176Y-78147747D01*
X120420629Y-77981426D01*
X123132042Y-77981426D01*
X123177778Y-78132214D01*
X123304316Y-78397344D01*
X123480146Y-78632693D01*
X123698512Y-78829217D01*
X123804770Y-78892400D01*
X123698512Y-78955583D01*
X123480146Y-79152107D01*
X123304316Y-79387456D01*
X123177778Y-79652586D01*
X123132042Y-79803374D01*
X123253183Y-80035400D01*
X124460000Y-80035400D01*
X124460000Y-77749400D01*
X124714000Y-77749400D01*
X124714000Y-80035400D01*
X127000000Y-80035400D01*
X127000000Y-77749400D01*
X127254000Y-77749400D01*
X127254000Y-80035400D01*
X128460817Y-80035400D01*
X128581958Y-79803374D01*
X128536222Y-79652586D01*
X128409684Y-79387456D01*
X128233854Y-79152107D01*
X128015488Y-78955583D01*
X127909230Y-78892400D01*
X128015488Y-78829217D01*
X128233854Y-78632693D01*
X128409684Y-78397344D01*
X128536222Y-78132214D01*
X128581958Y-77981426D01*
X128460817Y-77749400D01*
X127254000Y-77749400D01*
X127000000Y-77749400D01*
X124714000Y-77749400D01*
X124460000Y-77749400D01*
X123253183Y-77749400D01*
X123132042Y-77981426D01*
X120420629Y-77981426D01*
X120435077Y-77933799D01*
X120451500Y-77767052D01*
X120456991Y-77711301D01*
X120451500Y-77655549D01*
X120451500Y-75441426D01*
X123132042Y-75441426D01*
X123177778Y-75592214D01*
X123304316Y-75857344D01*
X123480146Y-76092693D01*
X123698512Y-76289217D01*
X123804770Y-76352400D01*
X123698512Y-76415583D01*
X123480146Y-76612107D01*
X123304316Y-76847456D01*
X123177778Y-77112586D01*
X123132042Y-77263374D01*
X123253183Y-77495400D01*
X124460000Y-77495400D01*
X124460000Y-75209400D01*
X124714000Y-75209400D01*
X124714000Y-77495400D01*
X127000000Y-77495400D01*
X127000000Y-75209400D01*
X127254000Y-75209400D01*
X127254000Y-77495400D01*
X128460817Y-77495400D01*
X128581958Y-77263374D01*
X128536222Y-77112586D01*
X128409684Y-76847456D01*
X128233854Y-76612107D01*
X128015488Y-76415583D01*
X127909230Y-76352400D01*
X128015488Y-76289217D01*
X128233854Y-76092693D01*
X128409684Y-75857344D01*
X128536222Y-75592214D01*
X128581958Y-75441426D01*
X128460817Y-75209400D01*
X127254000Y-75209400D01*
X127000000Y-75209400D01*
X124714000Y-75209400D01*
X124460000Y-75209400D01*
X123253183Y-75209400D01*
X123132042Y-75441426D01*
X120451500Y-75441426D01*
X120451500Y-72923631D01*
X121696331Y-71678800D01*
X123085328Y-71678800D01*
X123085328Y-73406000D01*
X123097588Y-73530482D01*
X123133898Y-73650180D01*
X123192863Y-73760494D01*
X123272215Y-73857185D01*
X123368906Y-73936537D01*
X123479220Y-73995502D01*
X123543574Y-74015024D01*
X123480146Y-74072107D01*
X123304316Y-74307456D01*
X123177778Y-74572586D01*
X123132042Y-74723374D01*
X123253183Y-74955400D01*
X124460000Y-74955400D01*
X124460000Y-74935400D01*
X124714000Y-74935400D01*
X124714000Y-74955400D01*
X127000000Y-74955400D01*
X127000000Y-74935400D01*
X127254000Y-74935400D01*
X127254000Y-74955400D01*
X128460817Y-74955400D01*
X128581958Y-74723374D01*
X128536222Y-74572586D01*
X128409684Y-74307456D01*
X128233854Y-74072107D01*
X128015488Y-73875583D01*
X127916897Y-73816959D01*
X127977349Y-73776566D01*
X129230500Y-75029718D01*
X129230501Y-85034239D01*
X129225009Y-85090000D01*
X129246923Y-85312498D01*
X129311824Y-85526446D01*
X129350681Y-85599142D01*
X129417217Y-85723623D01*
X129559052Y-85896449D01*
X129602360Y-85931991D01*
X131579251Y-87908883D01*
X131627247Y-88150174D01*
X131735420Y-88411327D01*
X131892463Y-88646359D01*
X132092341Y-88846237D01*
X132327373Y-89003280D01*
X132588526Y-89111453D01*
X132865765Y-89166600D01*
X133148435Y-89166600D01*
X133425674Y-89111453D01*
X133686827Y-89003280D01*
X133921859Y-88846237D01*
X134121737Y-88646359D01*
X134278780Y-88411327D01*
X134386953Y-88150174D01*
X134442100Y-87872935D01*
X134442100Y-87590265D01*
X139192100Y-87590265D01*
X139192100Y-87872935D01*
X139247247Y-88150174D01*
X139355420Y-88411327D01*
X139512463Y-88646359D01*
X139712341Y-88846237D01*
X139947373Y-89003280D01*
X140208526Y-89111453D01*
X140485765Y-89166600D01*
X140768435Y-89166600D01*
X141045674Y-89111453D01*
X141306827Y-89003280D01*
X141541859Y-88846237D01*
X141741737Y-88646359D01*
X141898780Y-88411327D01*
X142006953Y-88150174D01*
X142062100Y-87872935D01*
X142062100Y-87590265D01*
X142006953Y-87313026D01*
X141898780Y-87051873D01*
X141741737Y-86816841D01*
X141541859Y-86616963D01*
X141306827Y-86459920D01*
X141045674Y-86351747D01*
X140768435Y-86296600D01*
X140485765Y-86296600D01*
X140208526Y-86351747D01*
X139947373Y-86459920D01*
X139712341Y-86616963D01*
X139512463Y-86816841D01*
X139355420Y-87051873D01*
X139247247Y-87313026D01*
X139192100Y-87590265D01*
X134442100Y-87590265D01*
X134386953Y-87313026D01*
X134278780Y-87051873D01*
X134121737Y-86816841D01*
X133921859Y-86616963D01*
X133686827Y-86459920D01*
X133425674Y-86351747D01*
X133184383Y-86303751D01*
X132747010Y-85866378D01*
X132865765Y-85890000D01*
X133148435Y-85890000D01*
X133425674Y-85834853D01*
X133686827Y-85726680D01*
X133921859Y-85569637D01*
X134121737Y-85369759D01*
X134278780Y-85134727D01*
X134386953Y-84873574D01*
X134442100Y-84596335D01*
X134442100Y-84313665D01*
X134386953Y-84036426D01*
X134278780Y-83775273D01*
X134121737Y-83540241D01*
X133921859Y-83340363D01*
X133686827Y-83183320D01*
X133425674Y-83075147D01*
X133148435Y-83020000D01*
X132865765Y-83020000D01*
X132588526Y-83075147D01*
X132327373Y-83183320D01*
X132092341Y-83340363D01*
X131892463Y-83540241D01*
X131735420Y-83775273D01*
X131627247Y-84036426D01*
X131572100Y-84313665D01*
X131572100Y-84596335D01*
X131595722Y-84715091D01*
X131500500Y-84619869D01*
X131500500Y-81025985D01*
X132537300Y-81025985D01*
X132537300Y-81308655D01*
X132592447Y-81585894D01*
X132700620Y-81847047D01*
X132857663Y-82082079D01*
X133057541Y-82281957D01*
X133292573Y-82439000D01*
X133553726Y-82547173D01*
X133795018Y-82595170D01*
X136417993Y-85218146D01*
X136453531Y-85261449D01*
X136496834Y-85296987D01*
X136496836Y-85296989D01*
X136626357Y-85403284D01*
X136823533Y-85508676D01*
X137037481Y-85573577D01*
X137259980Y-85595491D01*
X137315732Y-85590000D01*
X139742816Y-85590000D01*
X139947373Y-85726680D01*
X140208526Y-85834853D01*
X140485765Y-85890000D01*
X140768435Y-85890000D01*
X141045674Y-85834853D01*
X141306827Y-85726680D01*
X141541859Y-85569637D01*
X141741737Y-85369759D01*
X141898780Y-85134727D01*
X142006953Y-84873574D01*
X142062100Y-84596335D01*
X142062100Y-84313665D01*
X142006953Y-84036426D01*
X141898780Y-83775273D01*
X141741737Y-83540241D01*
X141541859Y-83340363D01*
X141306827Y-83183320D01*
X141045674Y-83075147D01*
X140768435Y-83020000D01*
X140485765Y-83020000D01*
X140208526Y-83075147D01*
X139947373Y-83183320D01*
X139742816Y-83320000D01*
X137730113Y-83320000D01*
X136570135Y-82160022D01*
X138159203Y-82160022D01*
X138230786Y-82403991D01*
X138486296Y-82524891D01*
X138760484Y-82593620D01*
X139042812Y-82607537D01*
X139322430Y-82566107D01*
X139588592Y-82470923D01*
X139713814Y-82403991D01*
X139785397Y-82160022D01*
X138972300Y-81346925D01*
X138159203Y-82160022D01*
X136570135Y-82160022D01*
X135647945Y-81237832D01*
X137532083Y-81237832D01*
X137573513Y-81517450D01*
X137668697Y-81783612D01*
X137735629Y-81908834D01*
X137979598Y-81980417D01*
X138792695Y-81167320D01*
X139151905Y-81167320D01*
X139965002Y-81980417D01*
X140208971Y-81908834D01*
X140329871Y-81653324D01*
X140398600Y-81379136D01*
X140412517Y-81096808D01*
X140371087Y-80817190D01*
X140275903Y-80551028D01*
X140208971Y-80425806D01*
X139965002Y-80354223D01*
X139151905Y-81167320D01*
X138792695Y-81167320D01*
X137979598Y-80354223D01*
X137735629Y-80425806D01*
X137614729Y-80681316D01*
X137546000Y-80955504D01*
X137532083Y-81237832D01*
X135647945Y-81237832D01*
X135400150Y-80990038D01*
X135352153Y-80748746D01*
X135243980Y-80487593D01*
X135107300Y-80283036D01*
X135107300Y-80174618D01*
X138159203Y-80174618D01*
X138972300Y-80987715D01*
X139785397Y-80174618D01*
X139713814Y-79930649D01*
X139458304Y-79809749D01*
X139184116Y-79741020D01*
X138901788Y-79727103D01*
X138622170Y-79768533D01*
X138356008Y-79863717D01*
X138230786Y-79930649D01*
X138159203Y-80174618D01*
X135107300Y-80174618D01*
X135107300Y-77687211D01*
X135444982Y-77349530D01*
X135686274Y-77301533D01*
X135947427Y-77193360D01*
X136182459Y-77036317D01*
X136304394Y-76914382D01*
X136954603Y-76914382D01*
X137026186Y-77158351D01*
X137281696Y-77279251D01*
X137555884Y-77347980D01*
X137838212Y-77361897D01*
X138117830Y-77320467D01*
X138383992Y-77225283D01*
X138509214Y-77158351D01*
X138580797Y-76914382D01*
X137767700Y-76101285D01*
X136954603Y-76914382D01*
X136304394Y-76914382D01*
X136382337Y-76836439D01*
X136516392Y-76635811D01*
X136531029Y-76663194D01*
X136774998Y-76734777D01*
X137588095Y-75921680D01*
X137947305Y-75921680D01*
X138760402Y-76734777D01*
X139004371Y-76663194D01*
X139125271Y-76407684D01*
X139194000Y-76133496D01*
X139207917Y-75851168D01*
X139166487Y-75571550D01*
X139071303Y-75305388D01*
X139004371Y-75180166D01*
X138760402Y-75108583D01*
X137947305Y-75921680D01*
X137588095Y-75921680D01*
X136774998Y-75108583D01*
X136531029Y-75180166D01*
X136517376Y-75209021D01*
X136382337Y-75006921D01*
X136304394Y-74928978D01*
X136954603Y-74928978D01*
X137767700Y-75742075D01*
X138580797Y-74928978D01*
X138509214Y-74685009D01*
X138253704Y-74564109D01*
X137979516Y-74495380D01*
X137697188Y-74481463D01*
X137417570Y-74522893D01*
X137151408Y-74618077D01*
X137026186Y-74685009D01*
X136954603Y-74928978D01*
X136304394Y-74928978D01*
X136182459Y-74807043D01*
X135947427Y-74650000D01*
X135686274Y-74541827D01*
X135409035Y-74486680D01*
X135126365Y-74486680D01*
X134849126Y-74541827D01*
X134587973Y-74650000D01*
X134352941Y-74807043D01*
X134153063Y-75006921D01*
X133996020Y-75241953D01*
X133887847Y-75503106D01*
X133839850Y-75744398D01*
X133209160Y-76375089D01*
X133165852Y-76410631D01*
X133024017Y-76583457D01*
X132994651Y-76638398D01*
X132918624Y-76780634D01*
X132853723Y-76994582D01*
X132831809Y-77217080D01*
X132837301Y-77272841D01*
X132837300Y-80283036D01*
X132700620Y-80487593D01*
X132592447Y-80748746D01*
X132537300Y-81025985D01*
X131500500Y-81025985D01*
X131500500Y-74615338D01*
X131505991Y-74559586D01*
X131484077Y-74337087D01*
X131419176Y-74123139D01*
X131313784Y-73925963D01*
X131257339Y-73857185D01*
X131171949Y-73753137D01*
X131128641Y-73717595D01*
X129190310Y-71779265D01*
X129154763Y-71735951D01*
X128981937Y-71594116D01*
X128784761Y-71488724D01*
X128570813Y-71423823D01*
X128404066Y-71407400D01*
X128404065Y-71407400D01*
X128348314Y-71401909D01*
X128292563Y-71407400D01*
X128111341Y-71407400D01*
X128082302Y-71378361D01*
X127836853Y-71214358D01*
X127564125Y-71101390D01*
X127274599Y-71043800D01*
X126979401Y-71043800D01*
X126689875Y-71101390D01*
X126417147Y-71214358D01*
X126171698Y-71378361D01*
X126057636Y-71492423D01*
X126040102Y-71434620D01*
X125981137Y-71324306D01*
X125901785Y-71227615D01*
X125805094Y-71148263D01*
X125694780Y-71089298D01*
X125575082Y-71052988D01*
X125450600Y-71040728D01*
X123723400Y-71040728D01*
X123598918Y-71052988D01*
X123479220Y-71089298D01*
X123368906Y-71148263D01*
X123272215Y-71227615D01*
X123192863Y-71324306D01*
X123133898Y-71434620D01*
X123097588Y-71554318D01*
X123085328Y-71678800D01*
X121696331Y-71678800D01*
X123787132Y-69588000D01*
X133119348Y-69588000D01*
X133102941Y-69598963D01*
G37*
X133102941Y-69598963D02*
X132903063Y-69798841D01*
X132746020Y-70033873D01*
X132637847Y-70295026D01*
X132582700Y-70572265D01*
X132582700Y-70854935D01*
X132637847Y-71132174D01*
X132746020Y-71393327D01*
X132903063Y-71628359D01*
X133102941Y-71828237D01*
X133337973Y-71985280D01*
X133599126Y-72093453D01*
X133876365Y-72148600D01*
X134159035Y-72148600D01*
X134436274Y-72093453D01*
X134697427Y-71985280D01*
X134932459Y-71828237D01*
X135054394Y-71706302D01*
X138204603Y-71706302D01*
X138276186Y-71950271D01*
X138531696Y-72071171D01*
X138805884Y-72139900D01*
X139088212Y-72153817D01*
X139367830Y-72112387D01*
X139633992Y-72017203D01*
X139759214Y-71950271D01*
X139830797Y-71706302D01*
X139017700Y-70893205D01*
X138204603Y-71706302D01*
X135054394Y-71706302D01*
X135132337Y-71628359D01*
X135289380Y-71393327D01*
X135397553Y-71132174D01*
X135452700Y-70854935D01*
X135452700Y-70784112D01*
X137577483Y-70784112D01*
X137618913Y-71063730D01*
X137714097Y-71329892D01*
X137781029Y-71455114D01*
X138024998Y-71526697D01*
X138838095Y-70713600D01*
X139197305Y-70713600D01*
X140010402Y-71526697D01*
X140254371Y-71455114D01*
X140375271Y-71199604D01*
X140444000Y-70925416D01*
X140457917Y-70643088D01*
X140416487Y-70363470D01*
X140321303Y-70097308D01*
X140254371Y-69972086D01*
X140010402Y-69900503D01*
X139197305Y-70713600D01*
X138838095Y-70713600D01*
X138024998Y-69900503D01*
X137781029Y-69972086D01*
X137660129Y-70227596D01*
X137591400Y-70501784D01*
X137577483Y-70784112D01*
X135452700Y-70784112D01*
X135452700Y-70572265D01*
X135397553Y-70295026D01*
X135289380Y-70033873D01*
X135132337Y-69798841D01*
X134932459Y-69598963D01*
X134916052Y-69588000D01*
X138243597Y-69588000D01*
X138204603Y-69720898D01*
X139017700Y-70533995D01*
X139830797Y-69720898D01*
X139791803Y-69588000D01*
X140055369Y-69588000D01*
X141613001Y-71145634D01*
X141613000Y-76360148D01*
X141607509Y-76415900D01*
X141613000Y-76471651D01*
X141629423Y-76638398D01*
X141694324Y-76852346D01*
X141799716Y-77049523D01*
X141941551Y-77222349D01*
X141984865Y-77257896D01*
X146265900Y-81538932D01*
X146265900Y-81579999D01*
X146323490Y-81869525D01*
X146436458Y-82142253D01*
X146600461Y-82387702D01*
X146809198Y-82596439D01*
X146967781Y-82702400D01*
X146809198Y-82808361D01*
X146780159Y-82837400D01*
X146598927Y-82837400D01*
X146543185Y-82831910D01*
X146487443Y-82837400D01*
X146487434Y-82837400D01*
X146320687Y-82853823D01*
X146106739Y-82918724D01*
X145909563Y-83024116D01*
X145736737Y-83165951D01*
X145701195Y-83209259D01*
X143127865Y-85782590D01*
X143084551Y-85818137D01*
X142942716Y-85990963D01*
X142837325Y-86188139D01*
X142837324Y-86188140D01*
X142772423Y-86402088D01*
X142750509Y-86624586D01*
X142756000Y-86680338D01*
X142756001Y-91795367D01*
X142266772Y-92284597D01*
X142266772Y-90895600D01*
X142254512Y-90771118D01*
X142218202Y-90651420D01*
X142159237Y-90541106D01*
X142079885Y-90444415D01*
X141983194Y-90365063D01*
X141872880Y-90306098D01*
X141753182Y-90269788D01*
X141628700Y-90257528D01*
X139828700Y-90257528D01*
X139704218Y-90269788D01*
X139584520Y-90306098D01*
X139474206Y-90365063D01*
X139377515Y-90444415D01*
X139298163Y-90541106D01*
X139239198Y-90651420D01*
X139235887Y-90662335D01*
X139189122Y-90615570D01*
X139073174Y-90731518D01*
X138989492Y-90477339D01*
X138716925Y-90346442D01*
X138424058Y-90271235D01*
X138122147Y-90254609D01*
X137822793Y-90297203D01*
X137537501Y-90397378D01*
X137387908Y-90477339D01*
X137304226Y-90731518D01*
X137188278Y-90615570D01*
X137159710Y-90644138D01*
X137104637Y-90541106D01*
X137025285Y-90444415D01*
X136928594Y-90365063D01*
X136818280Y-90306098D01*
X136698582Y-90269788D01*
X136574100Y-90257528D01*
X135959850Y-90260600D01*
X135801100Y-90419350D01*
X135801100Y-91668600D01*
X135821100Y-91668600D01*
X135821100Y-91922600D01*
X135801100Y-91922600D01*
X135801100Y-91942600D01*
X135547100Y-91942600D01*
X135547100Y-91922600D01*
X135527100Y-91922600D01*
X135527100Y-91668600D01*
X135547100Y-91668600D01*
X135547100Y-90419350D01*
X135388350Y-90260600D01*
X134774100Y-90257528D01*
X134649618Y-90269788D01*
X134529920Y-90306098D01*
X134419606Y-90365063D01*
X134322915Y-90444415D01*
X134243563Y-90541106D01*
X134184598Y-90651420D01*
X134179044Y-90669727D01*
X134112605Y-90603288D01*
X133861195Y-90435301D01*
X133581843Y-90319589D01*
X133285284Y-90260600D01*
X132982916Y-90260600D01*
X132686357Y-90319589D01*
X132407005Y-90435301D01*
X132155595Y-90603288D01*
X131941788Y-90817095D01*
X131773801Y-91068505D01*
X131658089Y-91347857D01*
X131599100Y-91644416D01*
X131599100Y-91946784D01*
X131658089Y-92243343D01*
X131773801Y-92522695D01*
X131819441Y-92591000D01*
X125819132Y-92591000D01*
X117300992Y-84072861D01*
X117300987Y-84072855D01*
X117094000Y-83865868D01*
X117094000Y-83824801D01*
X117036410Y-83535275D01*
X116923442Y-83262547D01*
X116759439Y-83017098D01*
X116550702Y-82808361D01*
X116392119Y-82702400D01*
X116550702Y-82596439D01*
X116592340Y-82554801D01*
X123088400Y-82554801D01*
X123088400Y-82849999D01*
X123145990Y-83139525D01*
X123258958Y-83412253D01*
X123422961Y-83657702D01*
X123631698Y-83866439D01*
X123877147Y-84030442D01*
X124149875Y-84143410D01*
X124439401Y-84201000D01*
X124734599Y-84201000D01*
X125024125Y-84143410D01*
X125296853Y-84030442D01*
X125542302Y-83866439D01*
X125751039Y-83657702D01*
X125857000Y-83499119D01*
X125962961Y-83657702D01*
X126171698Y-83866439D01*
X126417147Y-84030442D01*
X126689875Y-84143410D01*
X126979401Y-84201000D01*
X127274599Y-84201000D01*
X127564125Y-84143410D01*
X127836853Y-84030442D01*
X128082302Y-83866439D01*
X128291039Y-83657702D01*
X128455042Y-83412253D01*
X128568010Y-83139525D01*
X128625600Y-82849999D01*
X128625600Y-82554801D01*
X128568010Y-82265275D01*
X128455042Y-81992547D01*
X128291039Y-81747098D01*
X128082302Y-81538361D01*
X127916897Y-81427841D01*
X128015488Y-81369217D01*
X128233854Y-81172693D01*
X128409684Y-80937344D01*
X128536222Y-80672214D01*
X128581958Y-80521426D01*
X128460817Y-80289400D01*
X127254000Y-80289400D01*
X127254000Y-80309400D01*
X127000000Y-80309400D01*
X127000000Y-80289400D01*
X124714000Y-80289400D01*
X124714000Y-80309400D01*
X124460000Y-80309400D01*
X124460000Y-80289400D01*
X123253183Y-80289400D01*
X123132042Y-80521426D01*
X123177778Y-80672214D01*
X123304316Y-80937344D01*
X123480146Y-81172693D01*
X123698512Y-81369217D01*
X123797103Y-81427841D01*
X123631698Y-81538361D01*
X123422961Y-81747098D01*
X123258958Y-81992547D01*
X123145990Y-82265275D01*
X123088400Y-82554801D01*
X116592340Y-82554801D01*
X116759439Y-82387702D01*
X116923442Y-82142253D01*
X117036410Y-81869525D01*
X117094000Y-81579999D01*
X117094000Y-81538931D01*
X120079641Y-78553291D01*
X120122949Y-78517749D01*
X120264784Y-78344923D01*
X120370176Y-78147747D01*
X120420629Y-77981426D01*
X123132042Y-77981426D01*
X123177778Y-78132214D01*
X123304316Y-78397344D01*
X123480146Y-78632693D01*
X123698512Y-78829217D01*
X123804770Y-78892400D01*
X123698512Y-78955583D01*
X123480146Y-79152107D01*
X123304316Y-79387456D01*
X123177778Y-79652586D01*
X123132042Y-79803374D01*
X123253183Y-80035400D01*
X124460000Y-80035400D01*
X124460000Y-77749400D01*
X124714000Y-77749400D01*
X124714000Y-80035400D01*
X127000000Y-80035400D01*
X127000000Y-77749400D01*
X127254000Y-77749400D01*
X127254000Y-80035400D01*
X128460817Y-80035400D01*
X128581958Y-79803374D01*
X128536222Y-79652586D01*
X128409684Y-79387456D01*
X128233854Y-79152107D01*
X128015488Y-78955583D01*
X127909230Y-78892400D01*
X128015488Y-78829217D01*
X128233854Y-78632693D01*
X128409684Y-78397344D01*
X128536222Y-78132214D01*
X128581958Y-77981426D01*
X128460817Y-77749400D01*
X127254000Y-77749400D01*
X127000000Y-77749400D01*
X124714000Y-77749400D01*
X124460000Y-77749400D01*
X123253183Y-77749400D01*
X123132042Y-77981426D01*
X120420629Y-77981426D01*
X120435077Y-77933799D01*
X120451500Y-77767052D01*
X120456991Y-77711301D01*
X120451500Y-77655549D01*
X120451500Y-75441426D01*
X123132042Y-75441426D01*
X123177778Y-75592214D01*
X123304316Y-75857344D01*
X123480146Y-76092693D01*
X123698512Y-76289217D01*
X123804770Y-76352400D01*
X123698512Y-76415583D01*
X123480146Y-76612107D01*
X123304316Y-76847456D01*
X123177778Y-77112586D01*
X123132042Y-77263374D01*
X123253183Y-77495400D01*
X124460000Y-77495400D01*
X124460000Y-75209400D01*
X124714000Y-75209400D01*
X124714000Y-77495400D01*
X127000000Y-77495400D01*
X127000000Y-75209400D01*
X127254000Y-75209400D01*
X127254000Y-77495400D01*
X128460817Y-77495400D01*
X128581958Y-77263374D01*
X128536222Y-77112586D01*
X128409684Y-76847456D01*
X128233854Y-76612107D01*
X128015488Y-76415583D01*
X127909230Y-76352400D01*
X128015488Y-76289217D01*
X128233854Y-76092693D01*
X128409684Y-75857344D01*
X128536222Y-75592214D01*
X128581958Y-75441426D01*
X128460817Y-75209400D01*
X127254000Y-75209400D01*
X127000000Y-75209400D01*
X124714000Y-75209400D01*
X124460000Y-75209400D01*
X123253183Y-75209400D01*
X123132042Y-75441426D01*
X120451500Y-75441426D01*
X120451500Y-72923631D01*
X121696331Y-71678800D01*
X123085328Y-71678800D01*
X123085328Y-73406000D01*
X123097588Y-73530482D01*
X123133898Y-73650180D01*
X123192863Y-73760494D01*
X123272215Y-73857185D01*
X123368906Y-73936537D01*
X123479220Y-73995502D01*
X123543574Y-74015024D01*
X123480146Y-74072107D01*
X123304316Y-74307456D01*
X123177778Y-74572586D01*
X123132042Y-74723374D01*
X123253183Y-74955400D01*
X124460000Y-74955400D01*
X124460000Y-74935400D01*
X124714000Y-74935400D01*
X124714000Y-74955400D01*
X127000000Y-74955400D01*
X127000000Y-74935400D01*
X127254000Y-74935400D01*
X127254000Y-74955400D01*
X128460817Y-74955400D01*
X128581958Y-74723374D01*
X128536222Y-74572586D01*
X128409684Y-74307456D01*
X128233854Y-74072107D01*
X128015488Y-73875583D01*
X127916897Y-73816959D01*
X127977349Y-73776566D01*
X129230500Y-75029718D01*
X129230501Y-85034239D01*
X129225009Y-85090000D01*
X129246923Y-85312498D01*
X129311824Y-85526446D01*
X129350681Y-85599142D01*
X129417217Y-85723623D01*
X129559052Y-85896449D01*
X129602360Y-85931991D01*
X131579251Y-87908883D01*
X131627247Y-88150174D01*
X131735420Y-88411327D01*
X131892463Y-88646359D01*
X132092341Y-88846237D01*
X132327373Y-89003280D01*
X132588526Y-89111453D01*
X132865765Y-89166600D01*
X133148435Y-89166600D01*
X133425674Y-89111453D01*
X133686827Y-89003280D01*
X133921859Y-88846237D01*
X134121737Y-88646359D01*
X134278780Y-88411327D01*
X134386953Y-88150174D01*
X134442100Y-87872935D01*
X134442100Y-87590265D01*
X139192100Y-87590265D01*
X139192100Y-87872935D01*
X139247247Y-88150174D01*
X139355420Y-88411327D01*
X139512463Y-88646359D01*
X139712341Y-88846237D01*
X139947373Y-89003280D01*
X140208526Y-89111453D01*
X140485765Y-89166600D01*
X140768435Y-89166600D01*
X141045674Y-89111453D01*
X141306827Y-89003280D01*
X141541859Y-88846237D01*
X141741737Y-88646359D01*
X141898780Y-88411327D01*
X142006953Y-88150174D01*
X142062100Y-87872935D01*
X142062100Y-87590265D01*
X142006953Y-87313026D01*
X141898780Y-87051873D01*
X141741737Y-86816841D01*
X141541859Y-86616963D01*
X141306827Y-86459920D01*
X141045674Y-86351747D01*
X140768435Y-86296600D01*
X140485765Y-86296600D01*
X140208526Y-86351747D01*
X139947373Y-86459920D01*
X139712341Y-86616963D01*
X139512463Y-86816841D01*
X139355420Y-87051873D01*
X139247247Y-87313026D01*
X139192100Y-87590265D01*
X134442100Y-87590265D01*
X134386953Y-87313026D01*
X134278780Y-87051873D01*
X134121737Y-86816841D01*
X133921859Y-86616963D01*
X133686827Y-86459920D01*
X133425674Y-86351747D01*
X133184383Y-86303751D01*
X132747010Y-85866378D01*
X132865765Y-85890000D01*
X133148435Y-85890000D01*
X133425674Y-85834853D01*
X133686827Y-85726680D01*
X133921859Y-85569637D01*
X134121737Y-85369759D01*
X134278780Y-85134727D01*
X134386953Y-84873574D01*
X134442100Y-84596335D01*
X134442100Y-84313665D01*
X134386953Y-84036426D01*
X134278780Y-83775273D01*
X134121737Y-83540241D01*
X133921859Y-83340363D01*
X133686827Y-83183320D01*
X133425674Y-83075147D01*
X133148435Y-83020000D01*
X132865765Y-83020000D01*
X132588526Y-83075147D01*
X132327373Y-83183320D01*
X132092341Y-83340363D01*
X131892463Y-83540241D01*
X131735420Y-83775273D01*
X131627247Y-84036426D01*
X131572100Y-84313665D01*
X131572100Y-84596335D01*
X131595722Y-84715091D01*
X131500500Y-84619869D01*
X131500500Y-81025985D01*
X132537300Y-81025985D01*
X132537300Y-81308655D01*
X132592447Y-81585894D01*
X132700620Y-81847047D01*
X132857663Y-82082079D01*
X133057541Y-82281957D01*
X133292573Y-82439000D01*
X133553726Y-82547173D01*
X133795018Y-82595170D01*
X136417993Y-85218146D01*
X136453531Y-85261449D01*
X136496834Y-85296987D01*
X136496836Y-85296989D01*
X136626357Y-85403284D01*
X136823533Y-85508676D01*
X137037481Y-85573577D01*
X137259980Y-85595491D01*
X137315732Y-85590000D01*
X139742816Y-85590000D01*
X139947373Y-85726680D01*
X140208526Y-85834853D01*
X140485765Y-85890000D01*
X140768435Y-85890000D01*
X141045674Y-85834853D01*
X141306827Y-85726680D01*
X141541859Y-85569637D01*
X141741737Y-85369759D01*
X141898780Y-85134727D01*
X142006953Y-84873574D01*
X142062100Y-84596335D01*
X142062100Y-84313665D01*
X142006953Y-84036426D01*
X141898780Y-83775273D01*
X141741737Y-83540241D01*
X141541859Y-83340363D01*
X141306827Y-83183320D01*
X141045674Y-83075147D01*
X140768435Y-83020000D01*
X140485765Y-83020000D01*
X140208526Y-83075147D01*
X139947373Y-83183320D01*
X139742816Y-83320000D01*
X137730113Y-83320000D01*
X136570135Y-82160022D01*
X138159203Y-82160022D01*
X138230786Y-82403991D01*
X138486296Y-82524891D01*
X138760484Y-82593620D01*
X139042812Y-82607537D01*
X139322430Y-82566107D01*
X139588592Y-82470923D01*
X139713814Y-82403991D01*
X139785397Y-82160022D01*
X138972300Y-81346925D01*
X138159203Y-82160022D01*
X136570135Y-82160022D01*
X135647945Y-81237832D01*
X137532083Y-81237832D01*
X137573513Y-81517450D01*
X137668697Y-81783612D01*
X137735629Y-81908834D01*
X137979598Y-81980417D01*
X138792695Y-81167320D01*
X139151905Y-81167320D01*
X139965002Y-81980417D01*
X140208971Y-81908834D01*
X140329871Y-81653324D01*
X140398600Y-81379136D01*
X140412517Y-81096808D01*
X140371087Y-80817190D01*
X140275903Y-80551028D01*
X140208971Y-80425806D01*
X139965002Y-80354223D01*
X139151905Y-81167320D01*
X138792695Y-81167320D01*
X137979598Y-80354223D01*
X137735629Y-80425806D01*
X137614729Y-80681316D01*
X137546000Y-80955504D01*
X137532083Y-81237832D01*
X135647945Y-81237832D01*
X135400150Y-80990038D01*
X135352153Y-80748746D01*
X135243980Y-80487593D01*
X135107300Y-80283036D01*
X135107300Y-80174618D01*
X138159203Y-80174618D01*
X138972300Y-80987715D01*
X139785397Y-80174618D01*
X139713814Y-79930649D01*
X139458304Y-79809749D01*
X139184116Y-79741020D01*
X138901788Y-79727103D01*
X138622170Y-79768533D01*
X138356008Y-79863717D01*
X138230786Y-79930649D01*
X138159203Y-80174618D01*
X135107300Y-80174618D01*
X135107300Y-77687211D01*
X135444982Y-77349530D01*
X135686274Y-77301533D01*
X135947427Y-77193360D01*
X136182459Y-77036317D01*
X136304394Y-76914382D01*
X136954603Y-76914382D01*
X137026186Y-77158351D01*
X137281696Y-77279251D01*
X137555884Y-77347980D01*
X137838212Y-77361897D01*
X138117830Y-77320467D01*
X138383992Y-77225283D01*
X138509214Y-77158351D01*
X138580797Y-76914382D01*
X137767700Y-76101285D01*
X136954603Y-76914382D01*
X136304394Y-76914382D01*
X136382337Y-76836439D01*
X136516392Y-76635811D01*
X136531029Y-76663194D01*
X136774998Y-76734777D01*
X137588095Y-75921680D01*
X137947305Y-75921680D01*
X138760402Y-76734777D01*
X139004371Y-76663194D01*
X139125271Y-76407684D01*
X139194000Y-76133496D01*
X139207917Y-75851168D01*
X139166487Y-75571550D01*
X139071303Y-75305388D01*
X139004371Y-75180166D01*
X138760402Y-75108583D01*
X137947305Y-75921680D01*
X137588095Y-75921680D01*
X136774998Y-75108583D01*
X136531029Y-75180166D01*
X136517376Y-75209021D01*
X136382337Y-75006921D01*
X136304394Y-74928978D01*
X136954603Y-74928978D01*
X137767700Y-75742075D01*
X138580797Y-74928978D01*
X138509214Y-74685009D01*
X138253704Y-74564109D01*
X137979516Y-74495380D01*
X137697188Y-74481463D01*
X137417570Y-74522893D01*
X137151408Y-74618077D01*
X137026186Y-74685009D01*
X136954603Y-74928978D01*
X136304394Y-74928978D01*
X136182459Y-74807043D01*
X135947427Y-74650000D01*
X135686274Y-74541827D01*
X135409035Y-74486680D01*
X135126365Y-74486680D01*
X134849126Y-74541827D01*
X134587973Y-74650000D01*
X134352941Y-74807043D01*
X134153063Y-75006921D01*
X133996020Y-75241953D01*
X133887847Y-75503106D01*
X133839850Y-75744398D01*
X133209160Y-76375089D01*
X133165852Y-76410631D01*
X133024017Y-76583457D01*
X132994651Y-76638398D01*
X132918624Y-76780634D01*
X132853723Y-76994582D01*
X132831809Y-77217080D01*
X132837301Y-77272841D01*
X132837300Y-80283036D01*
X132700620Y-80487593D01*
X132592447Y-80748746D01*
X132537300Y-81025985D01*
X131500500Y-81025985D01*
X131500500Y-74615338D01*
X131505991Y-74559586D01*
X131484077Y-74337087D01*
X131419176Y-74123139D01*
X131313784Y-73925963D01*
X131257339Y-73857185D01*
X131171949Y-73753137D01*
X131128641Y-73717595D01*
X129190310Y-71779265D01*
X129154763Y-71735951D01*
X128981937Y-71594116D01*
X128784761Y-71488724D01*
X128570813Y-71423823D01*
X128404066Y-71407400D01*
X128404065Y-71407400D01*
X128348314Y-71401909D01*
X128292563Y-71407400D01*
X128111341Y-71407400D01*
X128082302Y-71378361D01*
X127836853Y-71214358D01*
X127564125Y-71101390D01*
X127274599Y-71043800D01*
X126979401Y-71043800D01*
X126689875Y-71101390D01*
X126417147Y-71214358D01*
X126171698Y-71378361D01*
X126057636Y-71492423D01*
X126040102Y-71434620D01*
X125981137Y-71324306D01*
X125901785Y-71227615D01*
X125805094Y-71148263D01*
X125694780Y-71089298D01*
X125575082Y-71052988D01*
X125450600Y-71040728D01*
X123723400Y-71040728D01*
X123598918Y-71052988D01*
X123479220Y-71089298D01*
X123368906Y-71148263D01*
X123272215Y-71227615D01*
X123192863Y-71324306D01*
X123133898Y-71434620D01*
X123097588Y-71554318D01*
X123085328Y-71678800D01*
X121696331Y-71678800D01*
X123787132Y-69588000D01*
X133119348Y-69588000D01*
X133102941Y-69598963D01*
G36*
X138382448Y-91781458D02*
G01*
X138368305Y-91795600D01*
X138382448Y-91809743D01*
X138202843Y-91989348D01*
X138188700Y-91975205D01*
X138174558Y-91989348D01*
X137994953Y-91809743D01*
X138009095Y-91795600D01*
X137994953Y-91781458D01*
X138174558Y-91601853D01*
X138188700Y-91615995D01*
X138202843Y-91601853D01*
X138382448Y-91781458D01*
G37*
X138382448Y-91781458D02*
X138368305Y-91795600D01*
X138382448Y-91809743D01*
X138202843Y-91989348D01*
X138188700Y-91975205D01*
X138174558Y-91989348D01*
X137994953Y-91809743D01*
X138009095Y-91795600D01*
X137994953Y-91781458D01*
X138174558Y-91601853D01*
X138188700Y-91615995D01*
X138202843Y-91601853D01*
X138382448Y-91781458D01*
M02*
