G04 #@! TF.GenerationSoftware,KiCad,Pcbnew,(5.1.5-0-10_14)*
G04 #@! TF.CreationDate,2020-10-09T20:18:39-04:00*
G04 #@! TF.ProjectId,AYOM - Power Supply Daughter Board,41594f4d-202d-4205-906f-776572205375,1.2*
G04 #@! TF.SameCoordinates,Original*
G04 #@! TF.FileFunction,Legend,Bot*
G04 #@! TF.FilePolarity,Positive*
%FSLAX46Y46*%
G04 Gerber Fmt 4.6, Leading zero omitted, Abs format (unit mm)*
G04 Created by KiCad (PCBNEW (5.1.5-0-10_14)) date 2020-10-09 20:18:39*
%MOMM*%
%LPD*%
G04 APERTURE LIST*
%ADD10C,0.150000*%
%ADD11C,0.010000*%
G04 APERTURE END LIST*
D10*
X197759571Y-93622761D02*
X197616714Y-93670380D01*
X197378619Y-93670380D01*
X197283380Y-93622761D01*
X197235761Y-93575142D01*
X197188142Y-93479904D01*
X197188142Y-93384666D01*
X197235761Y-93289428D01*
X197283380Y-93241809D01*
X197378619Y-93194190D01*
X197569095Y-93146571D01*
X197664333Y-93098952D01*
X197711952Y-93051333D01*
X197759571Y-92956095D01*
X197759571Y-92860857D01*
X197711952Y-92765619D01*
X197664333Y-92718000D01*
X197569095Y-92670380D01*
X197331000Y-92670380D01*
X197188142Y-92718000D01*
X196759571Y-93670380D02*
X196759571Y-92670380D01*
X196331000Y-93670380D02*
X196331000Y-93146571D01*
X196378619Y-93051333D01*
X196473857Y-93003714D01*
X196616714Y-93003714D01*
X196711952Y-93051333D01*
X196759571Y-93098952D01*
X195426238Y-93670380D02*
X195426238Y-93146571D01*
X195473857Y-93051333D01*
X195569095Y-93003714D01*
X195759571Y-93003714D01*
X195854809Y-93051333D01*
X195426238Y-93622761D02*
X195521476Y-93670380D01*
X195759571Y-93670380D01*
X195854809Y-93622761D01*
X195902428Y-93527523D01*
X195902428Y-93432285D01*
X195854809Y-93337047D01*
X195759571Y-93289428D01*
X195521476Y-93289428D01*
X195426238Y-93241809D01*
X194950047Y-93003714D02*
X194950047Y-94003714D01*
X194950047Y-93051333D02*
X194854809Y-93003714D01*
X194664333Y-93003714D01*
X194569095Y-93051333D01*
X194521476Y-93098952D01*
X194473857Y-93194190D01*
X194473857Y-93479904D01*
X194521476Y-93575142D01*
X194569095Y-93622761D01*
X194664333Y-93670380D01*
X194854809Y-93670380D01*
X194950047Y-93622761D01*
X193664333Y-93622761D02*
X193759571Y-93670380D01*
X193950047Y-93670380D01*
X194045285Y-93622761D01*
X194092904Y-93527523D01*
X194092904Y-93146571D01*
X194045285Y-93051333D01*
X193950047Y-93003714D01*
X193759571Y-93003714D01*
X193664333Y-93051333D01*
X193616714Y-93146571D01*
X193616714Y-93241809D01*
X194092904Y-93337047D01*
X193331000Y-93003714D02*
X192950047Y-93003714D01*
X193188142Y-92670380D02*
X193188142Y-93527523D01*
X193140523Y-93622761D01*
X193045285Y-93670380D01*
X192950047Y-93670380D01*
X192188142Y-93670380D02*
X192188142Y-93146571D01*
X192235761Y-93051333D01*
X192331000Y-93003714D01*
X192521476Y-93003714D01*
X192616714Y-93051333D01*
X192188142Y-93622761D02*
X192283380Y-93670380D01*
X192521476Y-93670380D01*
X192616714Y-93622761D01*
X192664333Y-93527523D01*
X192664333Y-93432285D01*
X192616714Y-93337047D01*
X192521476Y-93289428D01*
X192283380Y-93289428D01*
X192188142Y-93241809D01*
X191711952Y-93670380D02*
X191711952Y-92670380D01*
X191616714Y-93289428D02*
X191331000Y-93670380D01*
X191331000Y-93003714D02*
X191711952Y-93384666D01*
X190521476Y-93622761D02*
X190616714Y-93670380D01*
X190807190Y-93670380D01*
X190902428Y-93622761D01*
X190950047Y-93527523D01*
X190950047Y-93146571D01*
X190902428Y-93051333D01*
X190807190Y-93003714D01*
X190616714Y-93003714D01*
X190521476Y-93051333D01*
X190473857Y-93146571D01*
X190473857Y-93241809D01*
X190950047Y-93337047D01*
X190045285Y-93670380D02*
X190045285Y-93003714D01*
X190045285Y-93194190D02*
X189997666Y-93098952D01*
X189950047Y-93051333D01*
X189854809Y-93003714D01*
X189759571Y-93003714D01*
X188664333Y-93289428D02*
X187902428Y-93289428D01*
X186664333Y-93670380D02*
X186664333Y-92670380D01*
X186283380Y-92670380D01*
X186188142Y-92718000D01*
X186140523Y-92765619D01*
X186092904Y-92860857D01*
X186092904Y-93003714D01*
X186140523Y-93098952D01*
X186188142Y-93146571D01*
X186283380Y-93194190D01*
X186664333Y-93194190D01*
X185521476Y-93670380D02*
X185616714Y-93622761D01*
X185664333Y-93575142D01*
X185711952Y-93479904D01*
X185711952Y-93194190D01*
X185664333Y-93098952D01*
X185616714Y-93051333D01*
X185521476Y-93003714D01*
X185378619Y-93003714D01*
X185283380Y-93051333D01*
X185235761Y-93098952D01*
X185188142Y-93194190D01*
X185188142Y-93479904D01*
X185235761Y-93575142D01*
X185283380Y-93622761D01*
X185378619Y-93670380D01*
X185521476Y-93670380D01*
X184854809Y-93003714D02*
X184664333Y-93670380D01*
X184473857Y-93194190D01*
X184283380Y-93670380D01*
X184092904Y-93003714D01*
X183331000Y-93622761D02*
X183426238Y-93670380D01*
X183616714Y-93670380D01*
X183711952Y-93622761D01*
X183759571Y-93527523D01*
X183759571Y-93146571D01*
X183711952Y-93051333D01*
X183616714Y-93003714D01*
X183426238Y-93003714D01*
X183331000Y-93051333D01*
X183283380Y-93146571D01*
X183283380Y-93241809D01*
X183759571Y-93337047D01*
X182854809Y-93670380D02*
X182854809Y-93003714D01*
X182854809Y-93194190D02*
X182807190Y-93098952D01*
X182759571Y-93051333D01*
X182664333Y-93003714D01*
X182569095Y-93003714D01*
X181521476Y-93622761D02*
X181378619Y-93670380D01*
X181140523Y-93670380D01*
X181045285Y-93622761D01*
X180997666Y-93575142D01*
X180950047Y-93479904D01*
X180950047Y-93384666D01*
X180997666Y-93289428D01*
X181045285Y-93241809D01*
X181140523Y-93194190D01*
X181331000Y-93146571D01*
X181426238Y-93098952D01*
X181473857Y-93051333D01*
X181521476Y-92956095D01*
X181521476Y-92860857D01*
X181473857Y-92765619D01*
X181426238Y-92718000D01*
X181331000Y-92670380D01*
X181092904Y-92670380D01*
X180950047Y-92718000D01*
X180092904Y-93003714D02*
X180092904Y-93670380D01*
X180521476Y-93003714D02*
X180521476Y-93527523D01*
X180473857Y-93622761D01*
X180378619Y-93670380D01*
X180235761Y-93670380D01*
X180140523Y-93622761D01*
X180092904Y-93575142D01*
X179616714Y-93003714D02*
X179616714Y-94003714D01*
X179616714Y-93051333D02*
X179521476Y-93003714D01*
X179331000Y-93003714D01*
X179235761Y-93051333D01*
X179188142Y-93098952D01*
X179140523Y-93194190D01*
X179140523Y-93479904D01*
X179188142Y-93575142D01*
X179235761Y-93622761D01*
X179331000Y-93670380D01*
X179521476Y-93670380D01*
X179616714Y-93622761D01*
X178711952Y-93003714D02*
X178711952Y-94003714D01*
X178711952Y-93051333D02*
X178616714Y-93003714D01*
X178426238Y-93003714D01*
X178331000Y-93051333D01*
X178283380Y-93098952D01*
X178235761Y-93194190D01*
X178235761Y-93479904D01*
X178283380Y-93575142D01*
X178331000Y-93622761D01*
X178426238Y-93670380D01*
X178616714Y-93670380D01*
X178711952Y-93622761D01*
X177664333Y-93670380D02*
X177759571Y-93622761D01*
X177807190Y-93527523D01*
X177807190Y-92670380D01*
X177378619Y-93003714D02*
X177140523Y-93670380D01*
X176902428Y-93003714D02*
X177140523Y-93670380D01*
X177235761Y-93908476D01*
X177283380Y-93956095D01*
X177378619Y-94003714D01*
X175759571Y-93670380D02*
X175759571Y-92670380D01*
X175521476Y-92670380D01*
X175378619Y-92718000D01*
X175283380Y-92813238D01*
X175235761Y-92908476D01*
X175188142Y-93098952D01*
X175188142Y-93241809D01*
X175235761Y-93432285D01*
X175283380Y-93527523D01*
X175378619Y-93622761D01*
X175521476Y-93670380D01*
X175759571Y-93670380D01*
X174331000Y-93670380D02*
X174331000Y-93146571D01*
X174378619Y-93051333D01*
X174473857Y-93003714D01*
X174664333Y-93003714D01*
X174759571Y-93051333D01*
X174331000Y-93622761D02*
X174426238Y-93670380D01*
X174664333Y-93670380D01*
X174759571Y-93622761D01*
X174807190Y-93527523D01*
X174807190Y-93432285D01*
X174759571Y-93337047D01*
X174664333Y-93289428D01*
X174426238Y-93289428D01*
X174331000Y-93241809D01*
X173426238Y-93003714D02*
X173426238Y-93670380D01*
X173854809Y-93003714D02*
X173854809Y-93527523D01*
X173807190Y-93622761D01*
X173711952Y-93670380D01*
X173569095Y-93670380D01*
X173473857Y-93622761D01*
X173426238Y-93575142D01*
X172521476Y-93003714D02*
X172521476Y-93813238D01*
X172569095Y-93908476D01*
X172616714Y-93956095D01*
X172711952Y-94003714D01*
X172854809Y-94003714D01*
X172950047Y-93956095D01*
X172521476Y-93622761D02*
X172616714Y-93670380D01*
X172807190Y-93670380D01*
X172902428Y-93622761D01*
X172950047Y-93575142D01*
X172997666Y-93479904D01*
X172997666Y-93194190D01*
X172950047Y-93098952D01*
X172902428Y-93051333D01*
X172807190Y-93003714D01*
X172616714Y-93003714D01*
X172521476Y-93051333D01*
X172045285Y-93670380D02*
X172045285Y-92670380D01*
X171616714Y-93670380D02*
X171616714Y-93146571D01*
X171664333Y-93051333D01*
X171759571Y-93003714D01*
X171902428Y-93003714D01*
X171997666Y-93051333D01*
X172045285Y-93098952D01*
X171283380Y-93003714D02*
X170902428Y-93003714D01*
X171140523Y-92670380D02*
X171140523Y-93527523D01*
X171092904Y-93622761D01*
X170997666Y-93670380D01*
X170902428Y-93670380D01*
X170188142Y-93622761D02*
X170283380Y-93670380D01*
X170473857Y-93670380D01*
X170569095Y-93622761D01*
X170616714Y-93527523D01*
X170616714Y-93146571D01*
X170569095Y-93051333D01*
X170473857Y-93003714D01*
X170283380Y-93003714D01*
X170188142Y-93051333D01*
X170140523Y-93146571D01*
X170140523Y-93241809D01*
X170616714Y-93337047D01*
X169711952Y-93670380D02*
X169711952Y-93003714D01*
X169711952Y-93194190D02*
X169664333Y-93098952D01*
X169616714Y-93051333D01*
X169521476Y-93003714D01*
X169426238Y-93003714D01*
X167997666Y-93146571D02*
X167854809Y-93194190D01*
X167807190Y-93241809D01*
X167759571Y-93337047D01*
X167759571Y-93479904D01*
X167807190Y-93575142D01*
X167854809Y-93622761D01*
X167950047Y-93670380D01*
X168331000Y-93670380D01*
X168331000Y-92670380D01*
X167997666Y-92670380D01*
X167902428Y-92718000D01*
X167854809Y-92765619D01*
X167807190Y-92860857D01*
X167807190Y-92956095D01*
X167854809Y-93051333D01*
X167902428Y-93098952D01*
X167997666Y-93146571D01*
X168331000Y-93146571D01*
X167188142Y-93670380D02*
X167283380Y-93622761D01*
X167331000Y-93575142D01*
X167378619Y-93479904D01*
X167378619Y-93194190D01*
X167331000Y-93098952D01*
X167283380Y-93051333D01*
X167188142Y-93003714D01*
X167045285Y-93003714D01*
X166950047Y-93051333D01*
X166902428Y-93098952D01*
X166854809Y-93194190D01*
X166854809Y-93479904D01*
X166902428Y-93575142D01*
X166950047Y-93622761D01*
X167045285Y-93670380D01*
X167188142Y-93670380D01*
X165997666Y-93670380D02*
X165997666Y-93146571D01*
X166045285Y-93051333D01*
X166140523Y-93003714D01*
X166331000Y-93003714D01*
X166426238Y-93051333D01*
X165997666Y-93622761D02*
X166092904Y-93670380D01*
X166331000Y-93670380D01*
X166426238Y-93622761D01*
X166473857Y-93527523D01*
X166473857Y-93432285D01*
X166426238Y-93337047D01*
X166331000Y-93289428D01*
X166092904Y-93289428D01*
X165997666Y-93241809D01*
X165521476Y-93670380D02*
X165521476Y-93003714D01*
X165521476Y-93194190D02*
X165473857Y-93098952D01*
X165426238Y-93051333D01*
X165331000Y-93003714D01*
X165235761Y-93003714D01*
X164473857Y-93670380D02*
X164473857Y-92670380D01*
X164473857Y-93622761D02*
X164569095Y-93670380D01*
X164759571Y-93670380D01*
X164854809Y-93622761D01*
X164902428Y-93575142D01*
X164950047Y-93479904D01*
X164950047Y-93194190D01*
X164902428Y-93098952D01*
X164854809Y-93051333D01*
X164759571Y-93003714D01*
X164569095Y-93003714D01*
X164473857Y-93051333D01*
X162950047Y-94051333D02*
X162997666Y-94003714D01*
X163092904Y-93860857D01*
X163140523Y-93765619D01*
X163188142Y-93622761D01*
X163235761Y-93384666D01*
X163235761Y-93194190D01*
X163188142Y-92956095D01*
X163140523Y-92813238D01*
X163092904Y-92718000D01*
X162997666Y-92575142D01*
X162950047Y-92527523D01*
X162569095Y-93670380D02*
X162569095Y-92670380D01*
X162188142Y-92670380D01*
X162092904Y-92718000D01*
X162045285Y-92765619D01*
X161997666Y-92860857D01*
X161997666Y-93003714D01*
X162045285Y-93098952D01*
X162092904Y-93146571D01*
X162188142Y-93194190D01*
X162569095Y-93194190D01*
X161426238Y-93670380D02*
X161521476Y-93622761D01*
X161569095Y-93575142D01*
X161616714Y-93479904D01*
X161616714Y-93194190D01*
X161569095Y-93098952D01*
X161521476Y-93051333D01*
X161426238Y-93003714D01*
X161283380Y-93003714D01*
X161188142Y-93051333D01*
X161140523Y-93098952D01*
X161092904Y-93194190D01*
X161092904Y-93479904D01*
X161140523Y-93575142D01*
X161188142Y-93622761D01*
X161283380Y-93670380D01*
X161426238Y-93670380D01*
X160759571Y-93003714D02*
X160569095Y-93670380D01*
X160378619Y-93194190D01*
X160188142Y-93670380D01*
X159997666Y-93003714D01*
X159235761Y-93622761D02*
X159331000Y-93670380D01*
X159521476Y-93670380D01*
X159616714Y-93622761D01*
X159664333Y-93527523D01*
X159664333Y-93146571D01*
X159616714Y-93051333D01*
X159521476Y-93003714D01*
X159331000Y-93003714D01*
X159235761Y-93051333D01*
X159188142Y-93146571D01*
X159188142Y-93241809D01*
X159664333Y-93337047D01*
X158759571Y-93670380D02*
X158759571Y-93003714D01*
X158759571Y-93194190D02*
X158711952Y-93098952D01*
X158664333Y-93051333D01*
X158569095Y-93003714D01*
X158473857Y-93003714D01*
X157045285Y-93146571D02*
X156902428Y-93194190D01*
X156854809Y-93241809D01*
X156807190Y-93337047D01*
X156807190Y-93479904D01*
X156854809Y-93575142D01*
X156902428Y-93622761D01*
X156997666Y-93670380D01*
X157378619Y-93670380D01*
X157378619Y-92670380D01*
X157045285Y-92670380D01*
X156950047Y-92718000D01*
X156902428Y-92765619D01*
X156854809Y-92860857D01*
X156854809Y-92956095D01*
X156902428Y-93051333D01*
X156950047Y-93098952D01*
X157045285Y-93146571D01*
X157378619Y-93146571D01*
X155950047Y-93003714D02*
X155950047Y-93670380D01*
X156378619Y-93003714D02*
X156378619Y-93527523D01*
X156331000Y-93622761D01*
X156235761Y-93670380D01*
X156092904Y-93670380D01*
X155997666Y-93622761D01*
X155950047Y-93575142D01*
X155521476Y-93622761D02*
X155426238Y-93670380D01*
X155235761Y-93670380D01*
X155140523Y-93622761D01*
X155092904Y-93527523D01*
X155092904Y-93479904D01*
X155140523Y-93384666D01*
X155235761Y-93337047D01*
X155378619Y-93337047D01*
X155473857Y-93289428D01*
X155521476Y-93194190D01*
X155521476Y-93146571D01*
X155473857Y-93051333D01*
X155378619Y-93003714D01*
X155235761Y-93003714D01*
X155140523Y-93051333D01*
X153902428Y-93289428D02*
X153140523Y-93289428D01*
X151331000Y-93670380D02*
X151664333Y-93194190D01*
X151902428Y-93670380D02*
X151902428Y-92670380D01*
X151521476Y-92670380D01*
X151426238Y-92718000D01*
X151378619Y-92765619D01*
X151331000Y-92860857D01*
X151331000Y-93003714D01*
X151378619Y-93098952D01*
X151426238Y-93146571D01*
X151521476Y-93194190D01*
X151902428Y-93194190D01*
X150521476Y-93622761D02*
X150616714Y-93670380D01*
X150807190Y-93670380D01*
X150902428Y-93622761D01*
X150950047Y-93527523D01*
X150950047Y-93146571D01*
X150902428Y-93051333D01*
X150807190Y-93003714D01*
X150616714Y-93003714D01*
X150521476Y-93051333D01*
X150473857Y-93146571D01*
X150473857Y-93241809D01*
X150950047Y-93337047D01*
X150140523Y-93003714D02*
X149902428Y-93670380D01*
X149664333Y-93003714D01*
X147997666Y-93670380D02*
X148569095Y-93670380D01*
X148283380Y-93670380D02*
X148283380Y-92670380D01*
X148378619Y-92813238D01*
X148473857Y-92908476D01*
X148569095Y-92956095D01*
X147569095Y-93575142D02*
X147521476Y-93622761D01*
X147569095Y-93670380D01*
X147616714Y-93622761D01*
X147569095Y-93575142D01*
X147569095Y-93670380D01*
X147140523Y-92765619D02*
X147092904Y-92718000D01*
X146997666Y-92670380D01*
X146759571Y-92670380D01*
X146664333Y-92718000D01*
X146616714Y-92765619D01*
X146569095Y-92860857D01*
X146569095Y-92956095D01*
X146616714Y-93098952D01*
X147188142Y-93670380D01*
X146569095Y-93670380D01*
X146235761Y-94051333D02*
X146188142Y-94003714D01*
X146092904Y-93860857D01*
X146045285Y-93765619D01*
X145997666Y-93622761D01*
X145950047Y-93384666D01*
X145950047Y-93194190D01*
X145997666Y-92956095D01*
X146045285Y-92813238D01*
X146092904Y-92718000D01*
X146188142Y-92575142D01*
X146235761Y-92527523D01*
D11*
G36*
X121249859Y-78727803D02*
G01*
X121067546Y-78728216D01*
X120909217Y-78728865D01*
X120772986Y-78729771D01*
X120656966Y-78730954D01*
X120559270Y-78732433D01*
X120478012Y-78734230D01*
X120411304Y-78736363D01*
X120357262Y-78738852D01*
X120313997Y-78741719D01*
X120279624Y-78744982D01*
X120252255Y-78748662D01*
X120230005Y-78752779D01*
X120210986Y-78757352D01*
X120193312Y-78762401D01*
X120190035Y-78763390D01*
X120014223Y-78836279D01*
X119860646Y-78940625D01*
X119731467Y-79074359D01*
X119628848Y-79235411D01*
X119579677Y-79347627D01*
X119569594Y-79376432D01*
X119561246Y-79406312D01*
X119554426Y-79441229D01*
X119548930Y-79485145D01*
X119544552Y-79542022D01*
X119541084Y-79615822D01*
X119538323Y-79710509D01*
X119536061Y-79830043D01*
X119534093Y-79978388D01*
X119532214Y-80159506D01*
X119531061Y-80283539D01*
X119529401Y-80515152D01*
X119528988Y-80708105D01*
X119529828Y-80862794D01*
X119531925Y-80979616D01*
X119535287Y-81058969D01*
X119539920Y-81101249D01*
X119543636Y-81109039D01*
X119572244Y-81104401D01*
X119625626Y-81092395D01*
X119676228Y-81079731D01*
X119773545Y-81062672D01*
X119895221Y-81053434D01*
X120027323Y-81052025D01*
X120155924Y-81058454D01*
X120267092Y-81072730D01*
X120298307Y-81079340D01*
X120362110Y-81094356D01*
X120409914Y-81104884D01*
X120429121Y-81108343D01*
X120432729Y-81089784D01*
X120436373Y-81036936D01*
X120439893Y-80954589D01*
X120443126Y-80847529D01*
X120445912Y-80720546D01*
X120448089Y-80578426D01*
X120448660Y-80527770D01*
X120450496Y-80360990D01*
X120452431Y-80228562D01*
X120454811Y-80125762D01*
X120457981Y-80047865D01*
X120462285Y-79990148D01*
X120468068Y-79947886D01*
X120475674Y-79916355D01*
X120485449Y-79890831D01*
X120496787Y-79868346D01*
X120574732Y-79759193D01*
X120673082Y-79679416D01*
X120722641Y-79654460D01*
X120736502Y-79650009D01*
X120756991Y-79646009D01*
X120786107Y-79642436D01*
X120825851Y-79639267D01*
X120878222Y-79636478D01*
X120945219Y-79634046D01*
X121028841Y-79631946D01*
X121131087Y-79630157D01*
X121253958Y-79628654D01*
X121399452Y-79627413D01*
X121569569Y-79626412D01*
X121766308Y-79625627D01*
X121991668Y-79625034D01*
X122247649Y-79624610D01*
X122536251Y-79624332D01*
X122859471Y-79624176D01*
X123219311Y-79624118D01*
X123307231Y-79624116D01*
X123675752Y-79624154D01*
X124007197Y-79624286D01*
X124303563Y-79624535D01*
X124566850Y-79624923D01*
X124799058Y-79625475D01*
X125002186Y-79626214D01*
X125178233Y-79627163D01*
X125329199Y-79628347D01*
X125457083Y-79629788D01*
X125563884Y-79631509D01*
X125651602Y-79633535D01*
X125722235Y-79635889D01*
X125777784Y-79638594D01*
X125820248Y-79641674D01*
X125851626Y-79645153D01*
X125873917Y-79649053D01*
X125889122Y-79653398D01*
X125891820Y-79654460D01*
X125997534Y-79719234D01*
X126085384Y-79815791D01*
X126117674Y-79868346D01*
X126159846Y-79946500D01*
X126169615Y-82585059D01*
X126171020Y-82959782D01*
X126172341Y-83297406D01*
X126173611Y-83599908D01*
X126174863Y-83869266D01*
X126176132Y-84107456D01*
X126177449Y-84316457D01*
X126178850Y-84498245D01*
X126180368Y-84654798D01*
X126182035Y-84788094D01*
X126183887Y-84900110D01*
X126185955Y-84992823D01*
X126188273Y-85068210D01*
X126190876Y-85128250D01*
X126193796Y-85174919D01*
X126197067Y-85210194D01*
X126200722Y-85236055D01*
X126204795Y-85254476D01*
X126209320Y-85267437D01*
X126214330Y-85276914D01*
X126215232Y-85278320D01*
X126273399Y-85335825D01*
X126360272Y-85382733D01*
X126466371Y-85416757D01*
X126582220Y-85435610D01*
X126698339Y-85437003D01*
X126801343Y-85419772D01*
X126915473Y-85373455D01*
X127004140Y-85303519D01*
X127037869Y-85263211D01*
X127043453Y-85255367D01*
X127048499Y-85246251D01*
X127053039Y-85233928D01*
X127057106Y-85216468D01*
X127060730Y-85191937D01*
X127063942Y-85158403D01*
X127066776Y-85113933D01*
X127069260Y-85056595D01*
X127071429Y-84984457D01*
X127073312Y-84895585D01*
X127074941Y-84788047D01*
X127076347Y-84659912D01*
X127077563Y-84509246D01*
X127078620Y-84334116D01*
X127079549Y-84132591D01*
X127080381Y-83902738D01*
X127081149Y-83642624D01*
X127081882Y-83350317D01*
X127082614Y-83023884D01*
X127083376Y-82661393D01*
X127083828Y-82441110D01*
X127084593Y-81993925D01*
X127084982Y-81582755D01*
X127084996Y-81207887D01*
X127084637Y-80869605D01*
X127083906Y-80568193D01*
X127082805Y-80303936D01*
X127081335Y-80077118D01*
X127079497Y-79888025D01*
X127077292Y-79736940D01*
X127074723Y-79624149D01*
X127071791Y-79549936D01*
X127069365Y-79519846D01*
X127026339Y-79335012D01*
X126949302Y-79168141D01*
X126840192Y-79021872D01*
X126700946Y-78898842D01*
X126546873Y-78807964D01*
X126394307Y-78735116D01*
X123356077Y-78729873D01*
X122953051Y-78729186D01*
X122587215Y-78728597D01*
X122256683Y-78728124D01*
X121959568Y-78727788D01*
X121693983Y-78727610D01*
X121458042Y-78727608D01*
X121249859Y-78727803D01*
G37*
X121249859Y-78727803D02*
X121067546Y-78728216D01*
X120909217Y-78728865D01*
X120772986Y-78729771D01*
X120656966Y-78730954D01*
X120559270Y-78732433D01*
X120478012Y-78734230D01*
X120411304Y-78736363D01*
X120357262Y-78738852D01*
X120313997Y-78741719D01*
X120279624Y-78744982D01*
X120252255Y-78748662D01*
X120230005Y-78752779D01*
X120210986Y-78757352D01*
X120193312Y-78762401D01*
X120190035Y-78763390D01*
X120014223Y-78836279D01*
X119860646Y-78940625D01*
X119731467Y-79074359D01*
X119628848Y-79235411D01*
X119579677Y-79347627D01*
X119569594Y-79376432D01*
X119561246Y-79406312D01*
X119554426Y-79441229D01*
X119548930Y-79485145D01*
X119544552Y-79542022D01*
X119541084Y-79615822D01*
X119538323Y-79710509D01*
X119536061Y-79830043D01*
X119534093Y-79978388D01*
X119532214Y-80159506D01*
X119531061Y-80283539D01*
X119529401Y-80515152D01*
X119528988Y-80708105D01*
X119529828Y-80862794D01*
X119531925Y-80979616D01*
X119535287Y-81058969D01*
X119539920Y-81101249D01*
X119543636Y-81109039D01*
X119572244Y-81104401D01*
X119625626Y-81092395D01*
X119676228Y-81079731D01*
X119773545Y-81062672D01*
X119895221Y-81053434D01*
X120027323Y-81052025D01*
X120155924Y-81058454D01*
X120267092Y-81072730D01*
X120298307Y-81079340D01*
X120362110Y-81094356D01*
X120409914Y-81104884D01*
X120429121Y-81108343D01*
X120432729Y-81089784D01*
X120436373Y-81036936D01*
X120439893Y-80954589D01*
X120443126Y-80847529D01*
X120445912Y-80720546D01*
X120448089Y-80578426D01*
X120448660Y-80527770D01*
X120450496Y-80360990D01*
X120452431Y-80228562D01*
X120454811Y-80125762D01*
X120457981Y-80047865D01*
X120462285Y-79990148D01*
X120468068Y-79947886D01*
X120475674Y-79916355D01*
X120485449Y-79890831D01*
X120496787Y-79868346D01*
X120574732Y-79759193D01*
X120673082Y-79679416D01*
X120722641Y-79654460D01*
X120736502Y-79650009D01*
X120756991Y-79646009D01*
X120786107Y-79642436D01*
X120825851Y-79639267D01*
X120878222Y-79636478D01*
X120945219Y-79634046D01*
X121028841Y-79631946D01*
X121131087Y-79630157D01*
X121253958Y-79628654D01*
X121399452Y-79627413D01*
X121569569Y-79626412D01*
X121766308Y-79625627D01*
X121991668Y-79625034D01*
X122247649Y-79624610D01*
X122536251Y-79624332D01*
X122859471Y-79624176D01*
X123219311Y-79624118D01*
X123307231Y-79624116D01*
X123675752Y-79624154D01*
X124007197Y-79624286D01*
X124303563Y-79624535D01*
X124566850Y-79624923D01*
X124799058Y-79625475D01*
X125002186Y-79626214D01*
X125178233Y-79627163D01*
X125329199Y-79628347D01*
X125457083Y-79629788D01*
X125563884Y-79631509D01*
X125651602Y-79633535D01*
X125722235Y-79635889D01*
X125777784Y-79638594D01*
X125820248Y-79641674D01*
X125851626Y-79645153D01*
X125873917Y-79649053D01*
X125889122Y-79653398D01*
X125891820Y-79654460D01*
X125997534Y-79719234D01*
X126085384Y-79815791D01*
X126117674Y-79868346D01*
X126159846Y-79946500D01*
X126169615Y-82585059D01*
X126171020Y-82959782D01*
X126172341Y-83297406D01*
X126173611Y-83599908D01*
X126174863Y-83869266D01*
X126176132Y-84107456D01*
X126177449Y-84316457D01*
X126178850Y-84498245D01*
X126180368Y-84654798D01*
X126182035Y-84788094D01*
X126183887Y-84900110D01*
X126185955Y-84992823D01*
X126188273Y-85068210D01*
X126190876Y-85128250D01*
X126193796Y-85174919D01*
X126197067Y-85210194D01*
X126200722Y-85236055D01*
X126204795Y-85254476D01*
X126209320Y-85267437D01*
X126214330Y-85276914D01*
X126215232Y-85278320D01*
X126273399Y-85335825D01*
X126360272Y-85382733D01*
X126466371Y-85416757D01*
X126582220Y-85435610D01*
X126698339Y-85437003D01*
X126801343Y-85419772D01*
X126915473Y-85373455D01*
X127004140Y-85303519D01*
X127037869Y-85263211D01*
X127043453Y-85255367D01*
X127048499Y-85246251D01*
X127053039Y-85233928D01*
X127057106Y-85216468D01*
X127060730Y-85191937D01*
X127063942Y-85158403D01*
X127066776Y-85113933D01*
X127069260Y-85056595D01*
X127071429Y-84984457D01*
X127073312Y-84895585D01*
X127074941Y-84788047D01*
X127076347Y-84659912D01*
X127077563Y-84509246D01*
X127078620Y-84334116D01*
X127079549Y-84132591D01*
X127080381Y-83902738D01*
X127081149Y-83642624D01*
X127081882Y-83350317D01*
X127082614Y-83023884D01*
X127083376Y-82661393D01*
X127083828Y-82441110D01*
X127084593Y-81993925D01*
X127084982Y-81582755D01*
X127084996Y-81207887D01*
X127084637Y-80869605D01*
X127083906Y-80568193D01*
X127082805Y-80303936D01*
X127081335Y-80077118D01*
X127079497Y-79888025D01*
X127077292Y-79736940D01*
X127074723Y-79624149D01*
X127071791Y-79549936D01*
X127069365Y-79519846D01*
X127026339Y-79335012D01*
X126949302Y-79168141D01*
X126840192Y-79021872D01*
X126700946Y-78898842D01*
X126546873Y-78807964D01*
X126394307Y-78735116D01*
X123356077Y-78729873D01*
X122953051Y-78729186D01*
X122587215Y-78728597D01*
X122256683Y-78728124D01*
X121959568Y-78727788D01*
X121693983Y-78727610D01*
X121458042Y-78727608D01*
X121249859Y-78727803D01*
G36*
X119697435Y-82016660D02*
G01*
X119504464Y-82037390D01*
X119333784Y-82070762D01*
X119325410Y-82072931D01*
X119045984Y-82166171D01*
X118772987Y-82296677D01*
X118508822Y-82462844D01*
X118255887Y-82663070D01*
X118016585Y-82895751D01*
X117904070Y-83022258D01*
X117868415Y-83067438D01*
X117814128Y-83140418D01*
X117743800Y-83237443D01*
X117660024Y-83354757D01*
X117565394Y-83488606D01*
X117462501Y-83635233D01*
X117353940Y-83790884D01*
X117242302Y-83951803D01*
X117130180Y-84114236D01*
X117020167Y-84274427D01*
X116914856Y-84428621D01*
X116816840Y-84573062D01*
X116728711Y-84703996D01*
X116653063Y-84817667D01*
X116592487Y-84910319D01*
X116549577Y-84978199D01*
X116528265Y-85014890D01*
X116503572Y-85092508D01*
X116494143Y-85189030D01*
X116500297Y-85287253D01*
X116521687Y-85368423D01*
X116587439Y-85478168D01*
X116676244Y-85561868D01*
X116781493Y-85618182D01*
X116896577Y-85645768D01*
X117014888Y-85643285D01*
X117129815Y-85609393D01*
X117234750Y-85542749D01*
X117261026Y-85518453D01*
X117281512Y-85492903D01*
X117321592Y-85438291D01*
X117378961Y-85357918D01*
X117451309Y-85255081D01*
X117536329Y-85133083D01*
X117631715Y-84995222D01*
X117735158Y-84844798D01*
X117844350Y-84685111D01*
X117866462Y-84652666D01*
X117979336Y-84487406D01*
X118089216Y-84327383D01*
X118193436Y-84176426D01*
X118289326Y-84038361D01*
X118374219Y-83917018D01*
X118445445Y-83816223D01*
X118500337Y-83739804D01*
X118536226Y-83691588D01*
X118538349Y-83688870D01*
X118727124Y-83472598D01*
X118927216Y-83289066D01*
X119136427Y-83139850D01*
X119352556Y-83026526D01*
X119565615Y-82952677D01*
X119708691Y-82927775D01*
X119872554Y-82919580D01*
X120042769Y-82927878D01*
X120204900Y-82952452D01*
X120249461Y-82962877D01*
X120375625Y-83003195D01*
X120520769Y-83062580D01*
X120673519Y-83135493D01*
X120822499Y-83216394D01*
X120956335Y-83299742D01*
X120991923Y-83324461D01*
X121025108Y-83350361D01*
X121085901Y-83400149D01*
X121172346Y-83472162D01*
X121282486Y-83564734D01*
X121414366Y-83676202D01*
X121566030Y-83804901D01*
X121735522Y-83949165D01*
X121920885Y-84107331D01*
X122120165Y-84277734D01*
X122331404Y-84458708D01*
X122552647Y-84648590D01*
X122781939Y-84845715D01*
X122995839Y-85029903D01*
X123230155Y-85231740D01*
X123457760Y-85427631D01*
X123676738Y-85615933D01*
X123885171Y-85795005D01*
X124081142Y-85963206D01*
X124262734Y-86118893D01*
X124428029Y-86260425D01*
X124575109Y-86386160D01*
X124702059Y-86494456D01*
X124806959Y-86583672D01*
X124887894Y-86652165D01*
X124942945Y-86698294D01*
X124969224Y-86719677D01*
X125259316Y-86922106D01*
X125558487Y-87091061D01*
X125863318Y-87224913D01*
X126170389Y-87322028D01*
X126288754Y-87349333D01*
X126413268Y-87368973D01*
X126560872Y-87382831D01*
X126716561Y-87390222D01*
X126865330Y-87390460D01*
X126992172Y-87382858D01*
X127000863Y-87381898D01*
X127279465Y-87330319D01*
X127554070Y-87240834D01*
X127822863Y-87114550D01*
X128084028Y-86952577D01*
X128335752Y-86756024D01*
X128576218Y-86526000D01*
X128777295Y-86296500D01*
X128812651Y-86250283D01*
X128866350Y-86176755D01*
X128935771Y-86079720D01*
X129018297Y-85962985D01*
X129111307Y-85830354D01*
X129212183Y-85685635D01*
X129318305Y-85532631D01*
X129427054Y-85375150D01*
X129535811Y-85216995D01*
X129641956Y-85061973D01*
X129742871Y-84913890D01*
X129835936Y-84776550D01*
X129918532Y-84653760D01*
X129988039Y-84549324D01*
X130041838Y-84467049D01*
X130077311Y-84410741D01*
X130088444Y-84391500D01*
X130116155Y-84307564D01*
X130125495Y-84194583D01*
X130122865Y-84115389D01*
X130110793Y-84056579D01*
X130084475Y-83999738D01*
X130067022Y-83970408D01*
X129983281Y-83868118D01*
X129881813Y-83796948D01*
X129768791Y-83757103D01*
X129650390Y-83748790D01*
X129532784Y-83772213D01*
X129422147Y-83827578D01*
X129324653Y-83915091D01*
X129300904Y-83944905D01*
X129273891Y-83982739D01*
X129227592Y-84049101D01*
X129164636Y-84140165D01*
X129087649Y-84252107D01*
X128999260Y-84381098D01*
X128902096Y-84523314D01*
X128798784Y-84674928D01*
X128719162Y-84792039D01*
X128577501Y-85000217D01*
X128455170Y-85178946D01*
X128349853Y-85331311D01*
X128259235Y-85460396D01*
X128180999Y-85569287D01*
X128112830Y-85661067D01*
X128052413Y-85738822D01*
X127997431Y-85805637D01*
X127945568Y-85864596D01*
X127894509Y-85918784D01*
X127841939Y-85971286D01*
X127812831Y-85999330D01*
X127607868Y-86172759D01*
X127397114Y-86307578D01*
X127180814Y-86403783D01*
X126959212Y-86461373D01*
X126732553Y-86480344D01*
X126501084Y-86460694D01*
X126265048Y-86402421D01*
X126024691Y-86305521D01*
X125780257Y-86169993D01*
X125568024Y-86023335D01*
X125536617Y-85998103D01*
X125477580Y-85949029D01*
X125392876Y-85877787D01*
X125284469Y-85786054D01*
X125154323Y-85675505D01*
X125004401Y-85547816D01*
X124836668Y-85404661D01*
X124653086Y-85247718D01*
X124455620Y-85078661D01*
X124246233Y-84899166D01*
X124026890Y-84710909D01*
X123799553Y-84515565D01*
X123619846Y-84360991D01*
X123387745Y-84161344D01*
X123162183Y-83967479D01*
X122945119Y-83781073D01*
X122738512Y-83603800D01*
X122544321Y-83437337D01*
X122364504Y-83283358D01*
X122201021Y-83143541D01*
X122055830Y-83019559D01*
X121930890Y-82913088D01*
X121828160Y-82825805D01*
X121749598Y-82759384D01*
X121697164Y-82715502D01*
X121675769Y-82698079D01*
X121408310Y-82507244D01*
X121130093Y-82343325D01*
X120846584Y-82208898D01*
X120563247Y-82106533D01*
X120285551Y-82038805D01*
X120269000Y-82035867D01*
X120093813Y-82015344D01*
X119898588Y-82009127D01*
X119697435Y-82016660D01*
G37*
X119697435Y-82016660D02*
X119504464Y-82037390D01*
X119333784Y-82070762D01*
X119325410Y-82072931D01*
X119045984Y-82166171D01*
X118772987Y-82296677D01*
X118508822Y-82462844D01*
X118255887Y-82663070D01*
X118016585Y-82895751D01*
X117904070Y-83022258D01*
X117868415Y-83067438D01*
X117814128Y-83140418D01*
X117743800Y-83237443D01*
X117660024Y-83354757D01*
X117565394Y-83488606D01*
X117462501Y-83635233D01*
X117353940Y-83790884D01*
X117242302Y-83951803D01*
X117130180Y-84114236D01*
X117020167Y-84274427D01*
X116914856Y-84428621D01*
X116816840Y-84573062D01*
X116728711Y-84703996D01*
X116653063Y-84817667D01*
X116592487Y-84910319D01*
X116549577Y-84978199D01*
X116528265Y-85014890D01*
X116503572Y-85092508D01*
X116494143Y-85189030D01*
X116500297Y-85287253D01*
X116521687Y-85368423D01*
X116587439Y-85478168D01*
X116676244Y-85561868D01*
X116781493Y-85618182D01*
X116896577Y-85645768D01*
X117014888Y-85643285D01*
X117129815Y-85609393D01*
X117234750Y-85542749D01*
X117261026Y-85518453D01*
X117281512Y-85492903D01*
X117321592Y-85438291D01*
X117378961Y-85357918D01*
X117451309Y-85255081D01*
X117536329Y-85133083D01*
X117631715Y-84995222D01*
X117735158Y-84844798D01*
X117844350Y-84685111D01*
X117866462Y-84652666D01*
X117979336Y-84487406D01*
X118089216Y-84327383D01*
X118193436Y-84176426D01*
X118289326Y-84038361D01*
X118374219Y-83917018D01*
X118445445Y-83816223D01*
X118500337Y-83739804D01*
X118536226Y-83691588D01*
X118538349Y-83688870D01*
X118727124Y-83472598D01*
X118927216Y-83289066D01*
X119136427Y-83139850D01*
X119352556Y-83026526D01*
X119565615Y-82952677D01*
X119708691Y-82927775D01*
X119872554Y-82919580D01*
X120042769Y-82927878D01*
X120204900Y-82952452D01*
X120249461Y-82962877D01*
X120375625Y-83003195D01*
X120520769Y-83062580D01*
X120673519Y-83135493D01*
X120822499Y-83216394D01*
X120956335Y-83299742D01*
X120991923Y-83324461D01*
X121025108Y-83350361D01*
X121085901Y-83400149D01*
X121172346Y-83472162D01*
X121282486Y-83564734D01*
X121414366Y-83676202D01*
X121566030Y-83804901D01*
X121735522Y-83949165D01*
X121920885Y-84107331D01*
X122120165Y-84277734D01*
X122331404Y-84458708D01*
X122552647Y-84648590D01*
X122781939Y-84845715D01*
X122995839Y-85029903D01*
X123230155Y-85231740D01*
X123457760Y-85427631D01*
X123676738Y-85615933D01*
X123885171Y-85795005D01*
X124081142Y-85963206D01*
X124262734Y-86118893D01*
X124428029Y-86260425D01*
X124575109Y-86386160D01*
X124702059Y-86494456D01*
X124806959Y-86583672D01*
X124887894Y-86652165D01*
X124942945Y-86698294D01*
X124969224Y-86719677D01*
X125259316Y-86922106D01*
X125558487Y-87091061D01*
X125863318Y-87224913D01*
X126170389Y-87322028D01*
X126288754Y-87349333D01*
X126413268Y-87368973D01*
X126560872Y-87382831D01*
X126716561Y-87390222D01*
X126865330Y-87390460D01*
X126992172Y-87382858D01*
X127000863Y-87381898D01*
X127279465Y-87330319D01*
X127554070Y-87240834D01*
X127822863Y-87114550D01*
X128084028Y-86952577D01*
X128335752Y-86756024D01*
X128576218Y-86526000D01*
X128777295Y-86296500D01*
X128812651Y-86250283D01*
X128866350Y-86176755D01*
X128935771Y-86079720D01*
X129018297Y-85962985D01*
X129111307Y-85830354D01*
X129212183Y-85685635D01*
X129318305Y-85532631D01*
X129427054Y-85375150D01*
X129535811Y-85216995D01*
X129641956Y-85061973D01*
X129742871Y-84913890D01*
X129835936Y-84776550D01*
X129918532Y-84653760D01*
X129988039Y-84549324D01*
X130041838Y-84467049D01*
X130077311Y-84410741D01*
X130088444Y-84391500D01*
X130116155Y-84307564D01*
X130125495Y-84194583D01*
X130122865Y-84115389D01*
X130110793Y-84056579D01*
X130084475Y-83999738D01*
X130067022Y-83970408D01*
X129983281Y-83868118D01*
X129881813Y-83796948D01*
X129768791Y-83757103D01*
X129650390Y-83748790D01*
X129532784Y-83772213D01*
X129422147Y-83827578D01*
X129324653Y-83915091D01*
X129300904Y-83944905D01*
X129273891Y-83982739D01*
X129227592Y-84049101D01*
X129164636Y-84140165D01*
X129087649Y-84252107D01*
X128999260Y-84381098D01*
X128902096Y-84523314D01*
X128798784Y-84674928D01*
X128719162Y-84792039D01*
X128577501Y-85000217D01*
X128455170Y-85178946D01*
X128349853Y-85331311D01*
X128259235Y-85460396D01*
X128180999Y-85569287D01*
X128112830Y-85661067D01*
X128052413Y-85738822D01*
X127997431Y-85805637D01*
X127945568Y-85864596D01*
X127894509Y-85918784D01*
X127841939Y-85971286D01*
X127812831Y-85999330D01*
X127607868Y-86172759D01*
X127397114Y-86307578D01*
X127180814Y-86403783D01*
X126959212Y-86461373D01*
X126732553Y-86480344D01*
X126501084Y-86460694D01*
X126265048Y-86402421D01*
X126024691Y-86305521D01*
X125780257Y-86169993D01*
X125568024Y-86023335D01*
X125536617Y-85998103D01*
X125477580Y-85949029D01*
X125392876Y-85877787D01*
X125284469Y-85786054D01*
X125154323Y-85675505D01*
X125004401Y-85547816D01*
X124836668Y-85404661D01*
X124653086Y-85247718D01*
X124455620Y-85078661D01*
X124246233Y-84899166D01*
X124026890Y-84710909D01*
X123799553Y-84515565D01*
X123619846Y-84360991D01*
X123387745Y-84161344D01*
X123162183Y-83967479D01*
X122945119Y-83781073D01*
X122738512Y-83603800D01*
X122544321Y-83437337D01*
X122364504Y-83283358D01*
X122201021Y-83143541D01*
X122055830Y-83019559D01*
X121930890Y-82913088D01*
X121828160Y-82825805D01*
X121749598Y-82759384D01*
X121697164Y-82715502D01*
X121675769Y-82698079D01*
X121408310Y-82507244D01*
X121130093Y-82343325D01*
X120846584Y-82208898D01*
X120563247Y-82106533D01*
X120285551Y-82038805D01*
X120269000Y-82035867D01*
X120093813Y-82015344D01*
X119898588Y-82009127D01*
X119697435Y-82016660D01*
G36*
X119964494Y-83798662D02*
G01*
X119833982Y-83813147D01*
X119715836Y-83848815D01*
X119619875Y-83902152D01*
X119582191Y-83935501D01*
X119536307Y-83984344D01*
X119536307Y-90223731D01*
X119578305Y-90302141D01*
X119658681Y-90416729D01*
X119757686Y-90499840D01*
X119870653Y-90549797D01*
X119992914Y-90564924D01*
X120119803Y-90543545D01*
X120182461Y-90519138D01*
X120286585Y-90452278D01*
X120368478Y-90362504D01*
X120420283Y-90258696D01*
X120424007Y-90246078D01*
X120427150Y-90222751D01*
X120429974Y-90176159D01*
X120432484Y-90105148D01*
X120434687Y-90008562D01*
X120436589Y-89885247D01*
X120438195Y-89734049D01*
X120439511Y-89553813D01*
X120440545Y-89343384D01*
X120441301Y-89101608D01*
X120441786Y-88827331D01*
X120442006Y-88519397D01*
X120441967Y-88176653D01*
X120441674Y-87797943D01*
X120441135Y-87382113D01*
X120440618Y-87070918D01*
X120435077Y-83976721D01*
X120361337Y-83912980D01*
X120259367Y-83848129D01*
X120133428Y-83810219D01*
X119980729Y-83798446D01*
X119964494Y-83798662D01*
G37*
X119964494Y-83798662D02*
X119833982Y-83813147D01*
X119715836Y-83848815D01*
X119619875Y-83902152D01*
X119582191Y-83935501D01*
X119536307Y-83984344D01*
X119536307Y-90223731D01*
X119578305Y-90302141D01*
X119658681Y-90416729D01*
X119757686Y-90499840D01*
X119870653Y-90549797D01*
X119992914Y-90564924D01*
X120119803Y-90543545D01*
X120182461Y-90519138D01*
X120286585Y-90452278D01*
X120368478Y-90362504D01*
X120420283Y-90258696D01*
X120424007Y-90246078D01*
X120427150Y-90222751D01*
X120429974Y-90176159D01*
X120432484Y-90105148D01*
X120434687Y-90008562D01*
X120436589Y-89885247D01*
X120438195Y-89734049D01*
X120439511Y-89553813D01*
X120440545Y-89343384D01*
X120441301Y-89101608D01*
X120441786Y-88827331D01*
X120442006Y-88519397D01*
X120441967Y-88176653D01*
X120441674Y-87797943D01*
X120441135Y-87382113D01*
X120440618Y-87070918D01*
X120435077Y-83976721D01*
X120361337Y-83912980D01*
X120259367Y-83848129D01*
X120133428Y-83810219D01*
X119980729Y-83798446D01*
X119964494Y-83798662D01*
G36*
X126169724Y-89176162D02*
G01*
X126170118Y-89395066D01*
X126171215Y-89596146D01*
X126172960Y-89776304D01*
X126175296Y-89932442D01*
X126178171Y-90061461D01*
X126181528Y-90160262D01*
X126185312Y-90225748D01*
X126188861Y-90253039D01*
X126236837Y-90356731D01*
X126313929Y-90442974D01*
X126412732Y-90508230D01*
X126525844Y-90548959D01*
X126645862Y-90561621D01*
X126765383Y-90542676D01*
X126782639Y-90536950D01*
X126871550Y-90488484D01*
X126956614Y-90412151D01*
X127026526Y-90318443D01*
X127035904Y-90301885D01*
X127045253Y-90283739D01*
X127053133Y-90264543D01*
X127059693Y-90240931D01*
X127065079Y-90209539D01*
X127069439Y-90167000D01*
X127072920Y-90109949D01*
X127075669Y-90035022D01*
X127077833Y-89938852D01*
X127079561Y-89818076D01*
X127080999Y-89669327D01*
X127082294Y-89489240D01*
X127083594Y-89274450D01*
X127084006Y-89202846D01*
X127084890Y-89007232D01*
X127085259Y-88823920D01*
X127085137Y-88656528D01*
X127084550Y-88508676D01*
X127083521Y-88383981D01*
X127082075Y-88286063D01*
X127080238Y-88218540D01*
X127078033Y-88185031D01*
X127077057Y-88181962D01*
X127052842Y-88186686D01*
X127002413Y-88199001D01*
X126944205Y-88214242D01*
X126819824Y-88236732D01*
X126674421Y-88245901D01*
X126523639Y-88241941D01*
X126383123Y-88225045D01*
X126301500Y-88206291D01*
X126169615Y-88167671D01*
X126169724Y-89176162D01*
G37*
X126169724Y-89176162D02*
X126170118Y-89395066D01*
X126171215Y-89596146D01*
X126172960Y-89776304D01*
X126175296Y-89932442D01*
X126178171Y-90061461D01*
X126181528Y-90160262D01*
X126185312Y-90225748D01*
X126188861Y-90253039D01*
X126236837Y-90356731D01*
X126313929Y-90442974D01*
X126412732Y-90508230D01*
X126525844Y-90548959D01*
X126645862Y-90561621D01*
X126765383Y-90542676D01*
X126782639Y-90536950D01*
X126871550Y-90488484D01*
X126956614Y-90412151D01*
X127026526Y-90318443D01*
X127035904Y-90301885D01*
X127045253Y-90283739D01*
X127053133Y-90264543D01*
X127059693Y-90240931D01*
X127065079Y-90209539D01*
X127069439Y-90167000D01*
X127072920Y-90109949D01*
X127075669Y-90035022D01*
X127077833Y-89938852D01*
X127079561Y-89818076D01*
X127080999Y-89669327D01*
X127082294Y-89489240D01*
X127083594Y-89274450D01*
X127084006Y-89202846D01*
X127084890Y-89007232D01*
X127085259Y-88823920D01*
X127085137Y-88656528D01*
X127084550Y-88508676D01*
X127083521Y-88383981D01*
X127082075Y-88286063D01*
X127080238Y-88218540D01*
X127078033Y-88185031D01*
X127077057Y-88181962D01*
X127052842Y-88186686D01*
X127002413Y-88199001D01*
X126944205Y-88214242D01*
X126819824Y-88236732D01*
X126674421Y-88245901D01*
X126523639Y-88241941D01*
X126383123Y-88225045D01*
X126301500Y-88206291D01*
X126169615Y-88167671D01*
X126169724Y-89176162D01*
G36*
X122906628Y-75101887D02*
G01*
X122302687Y-75143735D01*
X121709418Y-75223009D01*
X121125907Y-75339910D01*
X120551240Y-75494639D01*
X119984504Y-75687396D01*
X119424787Y-75918383D01*
X119106461Y-76068249D01*
X118623767Y-76321441D01*
X118169204Y-76592933D01*
X117736799Y-76887010D01*
X117320577Y-77207961D01*
X116914567Y-77560073D01*
X116575141Y-77884957D01*
X116378988Y-78083822D01*
X116206500Y-78265984D01*
X116050878Y-78439216D01*
X115905319Y-78611285D01*
X115763025Y-78789963D01*
X115634383Y-78959808D01*
X115292541Y-79452255D01*
X114982123Y-79965546D01*
X114704288Y-80496977D01*
X114460194Y-81043842D01*
X114251001Y-81603438D01*
X114077869Y-82173059D01*
X113941956Y-82750002D01*
X113890202Y-83029189D01*
X113861361Y-83203346D01*
X113837598Y-83357109D01*
X113818431Y-83497089D01*
X113803381Y-83629894D01*
X113791966Y-83762133D01*
X113783705Y-83900415D01*
X113778117Y-84051349D01*
X113774722Y-84221542D01*
X113773039Y-84417606D01*
X113772586Y-84645500D01*
X113772917Y-84858597D01*
X113774026Y-85037796D01*
X113776085Y-85188273D01*
X113779269Y-85315201D01*
X113783750Y-85423756D01*
X113789701Y-85519112D01*
X113797296Y-85606443D01*
X113806708Y-85690926D01*
X113807900Y-85700577D01*
X113892505Y-86268644D01*
X114002061Y-86810722D01*
X114138127Y-87332124D01*
X114302263Y-87838165D01*
X114496029Y-88334158D01*
X114720985Y-88825416D01*
X114731260Y-88846270D01*
X114961309Y-89286845D01*
X115203814Y-89700498D01*
X115465429Y-90097474D01*
X115752805Y-90488017D01*
X115987349Y-90780577D01*
X116083551Y-90891802D01*
X116203409Y-91022655D01*
X116340984Y-91167248D01*
X116490336Y-91319693D01*
X116645527Y-91474100D01*
X116800617Y-91624580D01*
X116949667Y-91765246D01*
X117086739Y-91890207D01*
X117205894Y-91993575D01*
X117234907Y-92017578D01*
X117728719Y-92396230D01*
X118239550Y-92739960D01*
X118766554Y-93048430D01*
X119308885Y-93321300D01*
X119865696Y-93558231D01*
X120436139Y-93758887D01*
X121019369Y-93922928D01*
X121614538Y-94050015D01*
X122220800Y-94139810D01*
X122642923Y-94179687D01*
X122732916Y-94184697D01*
X122849814Y-94188882D01*
X122986341Y-94192198D01*
X123135219Y-94194601D01*
X123289171Y-94196048D01*
X123440920Y-94196495D01*
X123583189Y-94195899D01*
X123708700Y-94194216D01*
X123810176Y-94191402D01*
X123880341Y-94187414D01*
X123883615Y-94187116D01*
X123929672Y-94182974D01*
X124004296Y-94176475D01*
X124097113Y-94168516D01*
X124196230Y-94160121D01*
X124758020Y-94093800D01*
X125321026Y-93989929D01*
X125881696Y-93849742D01*
X126436481Y-93674475D01*
X126981831Y-93465364D01*
X127514197Y-93223642D01*
X128030027Y-92950546D01*
X128504461Y-92661250D01*
X129003259Y-92313208D01*
X129476659Y-91936745D01*
X129923621Y-91533407D01*
X130343110Y-91104743D01*
X130734088Y-90652301D01*
X131095516Y-90177628D01*
X131426358Y-89682274D01*
X131725575Y-89167785D01*
X131992131Y-88635710D01*
X132224986Y-88087596D01*
X132423105Y-87524992D01*
X132585449Y-86949446D01*
X132705209Y-86394193D01*
X132736846Y-86219442D01*
X132763220Y-86065511D01*
X132784803Y-85926344D01*
X132802070Y-85795888D01*
X132815493Y-85668089D01*
X132825544Y-85536892D01*
X132832696Y-85396244D01*
X132837423Y-85240090D01*
X132840196Y-85062375D01*
X132841489Y-84857047D01*
X132841661Y-84731029D01*
X132079777Y-84731029D01*
X132078228Y-84920256D01*
X132075038Y-85099332D01*
X132070208Y-85261228D01*
X132063738Y-85398918D01*
X132055628Y-85505373D01*
X132054627Y-85514962D01*
X131971527Y-86107909D01*
X131852274Y-86687223D01*
X131697318Y-87251951D01*
X131507111Y-87801139D01*
X131282107Y-88333833D01*
X131022756Y-88849080D01*
X130729511Y-89345927D01*
X130402825Y-89823419D01*
X130043148Y-90280603D01*
X129650934Y-90716525D01*
X129530264Y-90839738D01*
X129105690Y-91238220D01*
X128659061Y-91605812D01*
X128192153Y-91941825D01*
X127706746Y-92245571D01*
X127204618Y-92516361D01*
X126687547Y-92753509D01*
X126157312Y-92956325D01*
X125615690Y-93124122D01*
X125064460Y-93256211D01*
X124505400Y-93351904D01*
X123940290Y-93410513D01*
X123370906Y-93431350D01*
X122867615Y-93417889D01*
X122297458Y-93369376D01*
X121746696Y-93288987D01*
X121210801Y-93175745D01*
X120685242Y-93028672D01*
X120165489Y-92846788D01*
X120093154Y-92818579D01*
X119560292Y-92587663D01*
X119048414Y-92324712D01*
X118558522Y-92031199D01*
X118091620Y-91708597D01*
X117648710Y-91358377D01*
X117230795Y-90982012D01*
X116838879Y-90580974D01*
X116473965Y-90156735D01*
X116137054Y-89710768D01*
X115829152Y-89244544D01*
X115551259Y-88759536D01*
X115304381Y-88257215D01*
X115089518Y-87739055D01*
X114907675Y-87206527D01*
X114759855Y-86661104D01*
X114647060Y-86104257D01*
X114570293Y-85537459D01*
X114530558Y-84962182D01*
X114524851Y-84645500D01*
X114536210Y-84190281D01*
X114571167Y-83744029D01*
X114631040Y-83293717D01*
X114700793Y-82906577D01*
X114832908Y-82344191D01*
X115001168Y-81794941D01*
X115204419Y-81260318D01*
X115441506Y-80741813D01*
X115711273Y-80240916D01*
X116012565Y-79759119D01*
X116344227Y-79297912D01*
X116705103Y-78858786D01*
X117094038Y-78443232D01*
X117509877Y-78052740D01*
X117951465Y-77688802D01*
X118417646Y-77352907D01*
X118907265Y-77046547D01*
X119419166Y-76771213D01*
X119477692Y-76742443D01*
X120008431Y-76505520D01*
X120551494Y-76305253D01*
X121105062Y-76141871D01*
X121667317Y-76015604D01*
X122236440Y-75926680D01*
X122810612Y-75875328D01*
X123388014Y-75861777D01*
X123966828Y-75886255D01*
X124545234Y-75948992D01*
X125067682Y-76039114D01*
X125635663Y-76174378D01*
X126190190Y-76346090D01*
X126730006Y-76553570D01*
X127253849Y-76796141D01*
X127760460Y-77073124D01*
X128248580Y-77383841D01*
X128716948Y-77727612D01*
X129164305Y-78103761D01*
X129510950Y-78432261D01*
X129916344Y-78864277D01*
X130288639Y-79316875D01*
X130627477Y-79789299D01*
X130932501Y-80280797D01*
X131203350Y-80790615D01*
X131439666Y-81317998D01*
X131641091Y-81862195D01*
X131807265Y-82422450D01*
X131937831Y-82998010D01*
X132032428Y-83588122D01*
X132054627Y-83776039D01*
X132062919Y-83878592D01*
X132069571Y-84013161D01*
X132074583Y-84172717D01*
X132077954Y-84350232D01*
X132079686Y-84538678D01*
X132079777Y-84731029D01*
X132841661Y-84731029D01*
X132841779Y-84645500D01*
X132841412Y-84410749D01*
X132839996Y-84209009D01*
X132837059Y-84034218D01*
X132832127Y-83880314D01*
X132824728Y-83741235D01*
X132814388Y-83610920D01*
X132800635Y-83483307D01*
X132782997Y-83352333D01*
X132760999Y-83211937D01*
X132734170Y-83056057D01*
X132705372Y-82896808D01*
X132578710Y-82312619D01*
X132415923Y-81741249D01*
X132218242Y-81184051D01*
X131986897Y-80642378D01*
X131723121Y-80117582D01*
X131428144Y-79611017D01*
X131103198Y-79124035D01*
X130749514Y-78657989D01*
X130368324Y-78214233D01*
X129960858Y-77794118D01*
X129528348Y-77398998D01*
X129072025Y-77030227D01*
X128593120Y-76689155D01*
X128092865Y-76377138D01*
X127572491Y-76095526D01*
X127033229Y-75845674D01*
X126476311Y-75628934D01*
X125932576Y-75455097D01*
X125435448Y-75326694D01*
X124939598Y-75227722D01*
X124436587Y-75156929D01*
X123917977Y-75113062D01*
X123522154Y-75097264D01*
X122906628Y-75101887D01*
G37*
X122906628Y-75101887D02*
X122302687Y-75143735D01*
X121709418Y-75223009D01*
X121125907Y-75339910D01*
X120551240Y-75494639D01*
X119984504Y-75687396D01*
X119424787Y-75918383D01*
X119106461Y-76068249D01*
X118623767Y-76321441D01*
X118169204Y-76592933D01*
X117736799Y-76887010D01*
X117320577Y-77207961D01*
X116914567Y-77560073D01*
X116575141Y-77884957D01*
X116378988Y-78083822D01*
X116206500Y-78265984D01*
X116050878Y-78439216D01*
X115905319Y-78611285D01*
X115763025Y-78789963D01*
X115634383Y-78959808D01*
X115292541Y-79452255D01*
X114982123Y-79965546D01*
X114704288Y-80496977D01*
X114460194Y-81043842D01*
X114251001Y-81603438D01*
X114077869Y-82173059D01*
X113941956Y-82750002D01*
X113890202Y-83029189D01*
X113861361Y-83203346D01*
X113837598Y-83357109D01*
X113818431Y-83497089D01*
X113803381Y-83629894D01*
X113791966Y-83762133D01*
X113783705Y-83900415D01*
X113778117Y-84051349D01*
X113774722Y-84221542D01*
X113773039Y-84417606D01*
X113772586Y-84645500D01*
X113772917Y-84858597D01*
X113774026Y-85037796D01*
X113776085Y-85188273D01*
X113779269Y-85315201D01*
X113783750Y-85423756D01*
X113789701Y-85519112D01*
X113797296Y-85606443D01*
X113806708Y-85690926D01*
X113807900Y-85700577D01*
X113892505Y-86268644D01*
X114002061Y-86810722D01*
X114138127Y-87332124D01*
X114302263Y-87838165D01*
X114496029Y-88334158D01*
X114720985Y-88825416D01*
X114731260Y-88846270D01*
X114961309Y-89286845D01*
X115203814Y-89700498D01*
X115465429Y-90097474D01*
X115752805Y-90488017D01*
X115987349Y-90780577D01*
X116083551Y-90891802D01*
X116203409Y-91022655D01*
X116340984Y-91167248D01*
X116490336Y-91319693D01*
X116645527Y-91474100D01*
X116800617Y-91624580D01*
X116949667Y-91765246D01*
X117086739Y-91890207D01*
X117205894Y-91993575D01*
X117234907Y-92017578D01*
X117728719Y-92396230D01*
X118239550Y-92739960D01*
X118766554Y-93048430D01*
X119308885Y-93321300D01*
X119865696Y-93558231D01*
X120436139Y-93758887D01*
X121019369Y-93922928D01*
X121614538Y-94050015D01*
X122220800Y-94139810D01*
X122642923Y-94179687D01*
X122732916Y-94184697D01*
X122849814Y-94188882D01*
X122986341Y-94192198D01*
X123135219Y-94194601D01*
X123289171Y-94196048D01*
X123440920Y-94196495D01*
X123583189Y-94195899D01*
X123708700Y-94194216D01*
X123810176Y-94191402D01*
X123880341Y-94187414D01*
X123883615Y-94187116D01*
X123929672Y-94182974D01*
X124004296Y-94176475D01*
X124097113Y-94168516D01*
X124196230Y-94160121D01*
X124758020Y-94093800D01*
X125321026Y-93989929D01*
X125881696Y-93849742D01*
X126436481Y-93674475D01*
X126981831Y-93465364D01*
X127514197Y-93223642D01*
X128030027Y-92950546D01*
X128504461Y-92661250D01*
X129003259Y-92313208D01*
X129476659Y-91936745D01*
X129923621Y-91533407D01*
X130343110Y-91104743D01*
X130734088Y-90652301D01*
X131095516Y-90177628D01*
X131426358Y-89682274D01*
X131725575Y-89167785D01*
X131992131Y-88635710D01*
X132224986Y-88087596D01*
X132423105Y-87524992D01*
X132585449Y-86949446D01*
X132705209Y-86394193D01*
X132736846Y-86219442D01*
X132763220Y-86065511D01*
X132784803Y-85926344D01*
X132802070Y-85795888D01*
X132815493Y-85668089D01*
X132825544Y-85536892D01*
X132832696Y-85396244D01*
X132837423Y-85240090D01*
X132840196Y-85062375D01*
X132841489Y-84857047D01*
X132841661Y-84731029D01*
X132079777Y-84731029D01*
X132078228Y-84920256D01*
X132075038Y-85099332D01*
X132070208Y-85261228D01*
X132063738Y-85398918D01*
X132055628Y-85505373D01*
X132054627Y-85514962D01*
X131971527Y-86107909D01*
X131852274Y-86687223D01*
X131697318Y-87251951D01*
X131507111Y-87801139D01*
X131282107Y-88333833D01*
X131022756Y-88849080D01*
X130729511Y-89345927D01*
X130402825Y-89823419D01*
X130043148Y-90280603D01*
X129650934Y-90716525D01*
X129530264Y-90839738D01*
X129105690Y-91238220D01*
X128659061Y-91605812D01*
X128192153Y-91941825D01*
X127706746Y-92245571D01*
X127204618Y-92516361D01*
X126687547Y-92753509D01*
X126157312Y-92956325D01*
X125615690Y-93124122D01*
X125064460Y-93256211D01*
X124505400Y-93351904D01*
X123940290Y-93410513D01*
X123370906Y-93431350D01*
X122867615Y-93417889D01*
X122297458Y-93369376D01*
X121746696Y-93288987D01*
X121210801Y-93175745D01*
X120685242Y-93028672D01*
X120165489Y-92846788D01*
X120093154Y-92818579D01*
X119560292Y-92587663D01*
X119048414Y-92324712D01*
X118558522Y-92031199D01*
X118091620Y-91708597D01*
X117648710Y-91358377D01*
X117230795Y-90982012D01*
X116838879Y-90580974D01*
X116473965Y-90156735D01*
X116137054Y-89710768D01*
X115829152Y-89244544D01*
X115551259Y-88759536D01*
X115304381Y-88257215D01*
X115089518Y-87739055D01*
X114907675Y-87206527D01*
X114759855Y-86661104D01*
X114647060Y-86104257D01*
X114570293Y-85537459D01*
X114530558Y-84962182D01*
X114524851Y-84645500D01*
X114536210Y-84190281D01*
X114571167Y-83744029D01*
X114631040Y-83293717D01*
X114700793Y-82906577D01*
X114832908Y-82344191D01*
X115001168Y-81794941D01*
X115204419Y-81260318D01*
X115441506Y-80741813D01*
X115711273Y-80240916D01*
X116012565Y-79759119D01*
X116344227Y-79297912D01*
X116705103Y-78858786D01*
X117094038Y-78443232D01*
X117509877Y-78052740D01*
X117951465Y-77688802D01*
X118417646Y-77352907D01*
X118907265Y-77046547D01*
X119419166Y-76771213D01*
X119477692Y-76742443D01*
X120008431Y-76505520D01*
X120551494Y-76305253D01*
X121105062Y-76141871D01*
X121667317Y-76015604D01*
X122236440Y-75926680D01*
X122810612Y-75875328D01*
X123388014Y-75861777D01*
X123966828Y-75886255D01*
X124545234Y-75948992D01*
X125067682Y-76039114D01*
X125635663Y-76174378D01*
X126190190Y-76346090D01*
X126730006Y-76553570D01*
X127253849Y-76796141D01*
X127760460Y-77073124D01*
X128248580Y-77383841D01*
X128716948Y-77727612D01*
X129164305Y-78103761D01*
X129510950Y-78432261D01*
X129916344Y-78864277D01*
X130288639Y-79316875D01*
X130627477Y-79789299D01*
X130932501Y-80280797D01*
X131203350Y-80790615D01*
X131439666Y-81317998D01*
X131641091Y-81862195D01*
X131807265Y-82422450D01*
X131937831Y-82998010D01*
X132032428Y-83588122D01*
X132054627Y-83776039D01*
X132062919Y-83878592D01*
X132069571Y-84013161D01*
X132074583Y-84172717D01*
X132077954Y-84350232D01*
X132079686Y-84538678D01*
X132079777Y-84731029D01*
X132841661Y-84731029D01*
X132841779Y-84645500D01*
X132841412Y-84410749D01*
X132839996Y-84209009D01*
X132837059Y-84034218D01*
X132832127Y-83880314D01*
X132824728Y-83741235D01*
X132814388Y-83610920D01*
X132800635Y-83483307D01*
X132782997Y-83352333D01*
X132760999Y-83211937D01*
X132734170Y-83056057D01*
X132705372Y-82896808D01*
X132578710Y-82312619D01*
X132415923Y-81741249D01*
X132218242Y-81184051D01*
X131986897Y-80642378D01*
X131723121Y-80117582D01*
X131428144Y-79611017D01*
X131103198Y-79124035D01*
X130749514Y-78657989D01*
X130368324Y-78214233D01*
X129960858Y-77794118D01*
X129528348Y-77398998D01*
X129072025Y-77030227D01*
X128593120Y-76689155D01*
X128092865Y-76377138D01*
X127572491Y-76095526D01*
X127033229Y-75845674D01*
X126476311Y-75628934D01*
X125932576Y-75455097D01*
X125435448Y-75326694D01*
X124939598Y-75227722D01*
X124436587Y-75156929D01*
X123917977Y-75113062D01*
X123522154Y-75097264D01*
X122906628Y-75101887D01*
M02*
