G04 #@! TF.GenerationSoftware,KiCad,Pcbnew,(5.1.5-0-10_14)*
G04 #@! TF.CreationDate,2020-10-09T20:18:39-04:00*
G04 #@! TF.ProjectId,AYOM - Power Supply Daughter Board,41594f4d-202d-4205-906f-776572205375,1.2*
G04 #@! TF.SameCoordinates,Original*
G04 #@! TF.FileFunction,Legend,Top*
G04 #@! TF.FilePolarity,Positive*
%FSLAX46Y46*%
G04 Gerber Fmt 4.6, Leading zero omitted, Abs format (unit mm)*
G04 Created by KiCad (PCBNEW (5.1.5-0-10_14)) date 2020-10-09 20:18:39*
%MOMM*%
%LPD*%
G04 APERTURE LIST*
%ADD10C,0.120000*%
%ADD11C,0.150000*%
%ADD12C,0.300000*%
G04 APERTURE END LIST*
D10*
X197408800Y-79857600D02*
X197408800Y-91033600D01*
X196875400Y-79857600D02*
X197408800Y-79857600D01*
X196875400Y-75361800D02*
X196875400Y-79857600D01*
X197408800Y-75361800D02*
X196875400Y-75361800D01*
X197408800Y-64185800D02*
X197408800Y-75361800D01*
X184353200Y-79857600D02*
X184353200Y-91059000D01*
X183819800Y-79857600D02*
X184353200Y-79857600D01*
X183819800Y-75361800D02*
X183819800Y-79857600D01*
X184353200Y-75361800D02*
X183819800Y-75361800D01*
X184353200Y-64160400D02*
X184353200Y-75361800D01*
X171272200Y-79857600D02*
X171272200Y-91008200D01*
X170738800Y-79857600D02*
X171272200Y-79857600D01*
X170738800Y-75361800D02*
X170738800Y-79857600D01*
X171297600Y-75361800D02*
X170738800Y-75361800D01*
X171297600Y-64160400D02*
X171297600Y-75361800D01*
X158242000Y-79883000D02*
X158242000Y-91008200D01*
X157683200Y-79883000D02*
X158242000Y-79883000D01*
X157683200Y-75361800D02*
X157683200Y-79883000D01*
X158242000Y-75361800D02*
X157683200Y-75361800D01*
X158242000Y-64185800D02*
X158242000Y-75361800D01*
X145161000Y-79883000D02*
X145161000Y-91033600D01*
X144627600Y-79883000D02*
X145161000Y-79883000D01*
X144627600Y-75387200D02*
X144627600Y-79883000D01*
X145161000Y-75387200D02*
X144627600Y-75387200D01*
X145161000Y-64185800D02*
X145161000Y-75387200D01*
X121970800Y-79883000D02*
X121970800Y-87223600D01*
X121437400Y-79883000D02*
X121970800Y-79883000D01*
X121437400Y-75387200D02*
X121437400Y-79883000D01*
X121996200Y-75387200D02*
X121437400Y-75387200D01*
X121996200Y-67995800D02*
X121996200Y-75387200D01*
X110439200Y-79883000D02*
X110439200Y-91059000D01*
X109931200Y-79883000D02*
X110439200Y-79883000D01*
X109931200Y-75387200D02*
X109931200Y-79883000D01*
X110439200Y-75387200D02*
X109931200Y-75387200D01*
X110439200Y-64185800D02*
X110439200Y-75387200D01*
D11*
X140868447Y-90063628D02*
X141630352Y-90063628D01*
X137185447Y-90063628D02*
X137947352Y-90063628D01*
X137566400Y-90444580D02*
X137566400Y-89682676D01*
X135839247Y-90063628D02*
X136601152Y-90063628D01*
X132130847Y-90063628D02*
X132892752Y-90063628D01*
X132511800Y-90444580D02*
X132511800Y-89682676D01*
X137337847Y-74188628D02*
X138099752Y-74188628D01*
X134950247Y-74188628D02*
X135712152Y-74188628D01*
X135331200Y-74569580D02*
X135331200Y-73807676D01*
X137490247Y-63774628D02*
X138252152Y-63774628D01*
X134899447Y-63774628D02*
X135661352Y-63774628D01*
X135280400Y-64155580D02*
X135280400Y-63393676D01*
X141189295Y-93797428D02*
X141951200Y-93797428D01*
X142951200Y-94178380D02*
X142379771Y-94178380D01*
X142665485Y-94178380D02*
X142665485Y-93178380D01*
X142570247Y-93321238D01*
X142475009Y-93416476D01*
X142379771Y-93464095D01*
X143332152Y-93273619D02*
X143379771Y-93226000D01*
X143475009Y-93178380D01*
X143713104Y-93178380D01*
X143808342Y-93226000D01*
X143855961Y-93273619D01*
X143903580Y-93368857D01*
X143903580Y-93464095D01*
X143855961Y-93606952D01*
X143284533Y-94178380D01*
X143903580Y-94178380D01*
X144189295Y-93178380D02*
X144522628Y-94178380D01*
X144855961Y-93178380D01*
X128895695Y-93797428D02*
X129657600Y-93797428D01*
X129276647Y-94178380D02*
X129276647Y-93416476D01*
X130657600Y-94178380D02*
X130086171Y-94178380D01*
X130371885Y-94178380D02*
X130371885Y-93178380D01*
X130276647Y-93321238D01*
X130181409Y-93416476D01*
X130086171Y-93464095D01*
X131038552Y-93273619D02*
X131086171Y-93226000D01*
X131181409Y-93178380D01*
X131419504Y-93178380D01*
X131514742Y-93226000D01*
X131562361Y-93273619D01*
X131609980Y-93368857D01*
X131609980Y-93464095D01*
X131562361Y-93606952D01*
X130990933Y-94178380D01*
X131609980Y-94178380D01*
X131895695Y-93178380D02*
X132229028Y-94178380D01*
X132562361Y-93178380D01*
X143200380Y-84147856D02*
X142724190Y-84481190D01*
X143200380Y-84719285D02*
X142200380Y-84719285D01*
X142200380Y-84338332D01*
X142248000Y-84243094D01*
X142295619Y-84195475D01*
X142390857Y-84147856D01*
X142533714Y-84147856D01*
X142628952Y-84195475D01*
X142676571Y-84243094D01*
X142724190Y-84338332D01*
X142724190Y-84719285D01*
X142295619Y-83766904D02*
X142248000Y-83719285D01*
X142200380Y-83624047D01*
X142200380Y-83385951D01*
X142248000Y-83290713D01*
X142295619Y-83243094D01*
X142390857Y-83195475D01*
X142486095Y-83195475D01*
X142628952Y-83243094D01*
X143200380Y-83814523D01*
X143200380Y-83195475D01*
X143200380Y-87424456D02*
X142724190Y-87757790D01*
X143200380Y-87995885D02*
X142200380Y-87995885D01*
X142200380Y-87614932D01*
X142248000Y-87519694D01*
X142295619Y-87472075D01*
X142390857Y-87424456D01*
X142533714Y-87424456D01*
X142628952Y-87472075D01*
X142676571Y-87519694D01*
X142724190Y-87614932D01*
X142724190Y-87995885D01*
X143200380Y-86472075D02*
X143200380Y-87043504D01*
X143200380Y-86757790D02*
X142200380Y-86757790D01*
X142343238Y-86853028D01*
X142438476Y-86948266D01*
X142486095Y-87043504D01*
X131833880Y-84925972D02*
X130833880Y-84925972D01*
X130833880Y-84545020D01*
X130881500Y-84449781D01*
X130929119Y-84402162D01*
X131024357Y-84354543D01*
X131167214Y-84354543D01*
X131262452Y-84402162D01*
X131310071Y-84449781D01*
X131357690Y-84545020D01*
X131357690Y-84925972D01*
X130833880Y-83735496D02*
X130833880Y-83545020D01*
X130881500Y-83449781D01*
X130976738Y-83354543D01*
X131167214Y-83306924D01*
X131500547Y-83306924D01*
X131691023Y-83354543D01*
X131786261Y-83449781D01*
X131833880Y-83545020D01*
X131833880Y-83735496D01*
X131786261Y-83830734D01*
X131691023Y-83925972D01*
X131500547Y-83973591D01*
X131167214Y-83973591D01*
X130976738Y-83925972D01*
X130881500Y-83830734D01*
X130833880Y-83735496D01*
X130833880Y-82973591D02*
X131833880Y-82735496D01*
X131119595Y-82545020D01*
X131833880Y-82354543D01*
X130833880Y-82116448D01*
X131310071Y-81735496D02*
X131310071Y-81402162D01*
X131833880Y-81259305D02*
X131833880Y-81735496D01*
X130833880Y-81735496D01*
X130833880Y-81259305D01*
X131833880Y-80259305D02*
X131357690Y-80592639D01*
X131833880Y-80830734D02*
X130833880Y-80830734D01*
X130833880Y-80449781D01*
X130881500Y-80354543D01*
X130929119Y-80306924D01*
X131024357Y-80259305D01*
X131167214Y-80259305D01*
X131262452Y-80306924D01*
X131310071Y-80354543D01*
X131357690Y-80449781D01*
X131357690Y-80830734D01*
X131833880Y-79068829D02*
X130833880Y-79068829D01*
X131833880Y-78592639D02*
X130833880Y-78592639D01*
X131833880Y-78021210D01*
X130833880Y-78021210D01*
X131452928Y-76783115D02*
X131452928Y-76021210D01*
X131833880Y-74259305D02*
X131833880Y-74830734D01*
X131833880Y-74545020D02*
X130833880Y-74545020D01*
X130976738Y-74640258D01*
X131071976Y-74735496D01*
X131119595Y-74830734D01*
X130833880Y-73640258D02*
X130833880Y-73545020D01*
X130881500Y-73449781D01*
X130929119Y-73402162D01*
X131024357Y-73354543D01*
X131214833Y-73306924D01*
X131452928Y-73306924D01*
X131643404Y-73354543D01*
X131738642Y-73402162D01*
X131786261Y-73449781D01*
X131833880Y-73545020D01*
X131833880Y-73640258D01*
X131786261Y-73735496D01*
X131738642Y-73783115D01*
X131643404Y-73830734D01*
X131452928Y-73878353D01*
X131214833Y-73878353D01*
X131024357Y-73830734D01*
X130929119Y-73783115D01*
X130881500Y-73735496D01*
X130833880Y-73640258D01*
X131833880Y-72116448D02*
X130833880Y-72116448D01*
X130833880Y-71735496D01*
X130881500Y-71640258D01*
X130929119Y-71592639D01*
X131024357Y-71545020D01*
X131167214Y-71545020D01*
X131262452Y-71592639D01*
X131310071Y-71640258D01*
X131357690Y-71735496D01*
X131357690Y-72116448D01*
X131833880Y-71116448D02*
X130833880Y-71116448D01*
X131833880Y-70640258D02*
X130833880Y-70640258D01*
X131833880Y-70068829D01*
X130833880Y-70068829D01*
X120721380Y-84925972D02*
X119721380Y-84925972D01*
X119721380Y-84545020D01*
X119769000Y-84449781D01*
X119816619Y-84402162D01*
X119911857Y-84354543D01*
X120054714Y-84354543D01*
X120149952Y-84402162D01*
X120197571Y-84449781D01*
X120245190Y-84545020D01*
X120245190Y-84925972D01*
X119721380Y-83735496D02*
X119721380Y-83545020D01*
X119769000Y-83449781D01*
X119864238Y-83354543D01*
X120054714Y-83306924D01*
X120388047Y-83306924D01*
X120578523Y-83354543D01*
X120673761Y-83449781D01*
X120721380Y-83545020D01*
X120721380Y-83735496D01*
X120673761Y-83830734D01*
X120578523Y-83925972D01*
X120388047Y-83973591D01*
X120054714Y-83973591D01*
X119864238Y-83925972D01*
X119769000Y-83830734D01*
X119721380Y-83735496D01*
X119721380Y-82973591D02*
X120721380Y-82735496D01*
X120007095Y-82545020D01*
X120721380Y-82354543D01*
X119721380Y-82116448D01*
X120197571Y-81735496D02*
X120197571Y-81402162D01*
X120721380Y-81259305D02*
X120721380Y-81735496D01*
X119721380Y-81735496D01*
X119721380Y-81259305D01*
X120721380Y-80259305D02*
X120245190Y-80592639D01*
X120721380Y-80830734D02*
X119721380Y-80830734D01*
X119721380Y-80449781D01*
X119769000Y-80354543D01*
X119816619Y-80306924D01*
X119911857Y-80259305D01*
X120054714Y-80259305D01*
X120149952Y-80306924D01*
X120197571Y-80354543D01*
X120245190Y-80449781D01*
X120245190Y-80830734D01*
X120721380Y-79068829D02*
X119721380Y-79068829D01*
X120721380Y-78592639D02*
X119721380Y-78592639D01*
X120721380Y-78021210D01*
X119721380Y-78021210D01*
X120340428Y-76783115D02*
X120340428Y-76021210D01*
X120721380Y-74259305D02*
X120721380Y-74830734D01*
X120721380Y-74545020D02*
X119721380Y-74545020D01*
X119864238Y-74640258D01*
X119959476Y-74735496D01*
X120007095Y-74830734D01*
X119721380Y-73402162D02*
X119721380Y-73592639D01*
X119769000Y-73687877D01*
X119816619Y-73735496D01*
X119959476Y-73830734D01*
X120149952Y-73878353D01*
X120530904Y-73878353D01*
X120626142Y-73830734D01*
X120673761Y-73783115D01*
X120721380Y-73687877D01*
X120721380Y-73497401D01*
X120673761Y-73402162D01*
X120626142Y-73354543D01*
X120530904Y-73306924D01*
X120292809Y-73306924D01*
X120197571Y-73354543D01*
X120149952Y-73402162D01*
X120102333Y-73497401D01*
X120102333Y-73687877D01*
X120149952Y-73783115D01*
X120197571Y-73830734D01*
X120292809Y-73878353D01*
X120721380Y-72116448D02*
X119721380Y-72116448D01*
X119721380Y-71735496D01*
X119769000Y-71640258D01*
X119816619Y-71592639D01*
X119911857Y-71545020D01*
X120054714Y-71545020D01*
X120149952Y-71592639D01*
X120197571Y-71640258D01*
X120245190Y-71735496D01*
X120245190Y-72116448D01*
X120721380Y-71116448D02*
X119721380Y-71116448D01*
X120721380Y-70640258D02*
X119721380Y-70640258D01*
X120721380Y-70068829D01*
X119721380Y-70068829D01*
X154548000Y-85997900D02*
X154462285Y-85955042D01*
X154333714Y-85955042D01*
X154205142Y-85997900D01*
X154119428Y-86083614D01*
X154076571Y-86169328D01*
X154033714Y-86340757D01*
X154033714Y-86469328D01*
X154076571Y-86640757D01*
X154119428Y-86726471D01*
X154205142Y-86812185D01*
X154333714Y-86855042D01*
X154419428Y-86855042D01*
X154548000Y-86812185D01*
X154590857Y-86769328D01*
X154590857Y-86469328D01*
X154419428Y-86469328D01*
X154933714Y-86597900D02*
X155362285Y-86597900D01*
X154848000Y-86855042D02*
X155148000Y-85955042D01*
X155448000Y-86855042D01*
X155619428Y-85955042D02*
X156133714Y-85955042D01*
X155876571Y-86855042D02*
X155876571Y-85955042D01*
X156433714Y-86383614D02*
X156733714Y-86383614D01*
X156862285Y-86855042D02*
X156433714Y-86855042D01*
X156433714Y-85955042D01*
X156862285Y-85955042D01*
X155340857Y-84229328D02*
X155298000Y-84272185D01*
X155169428Y-84315042D01*
X155083714Y-84315042D01*
X154955142Y-84272185D01*
X154869428Y-84186471D01*
X154826571Y-84100757D01*
X154783714Y-83929328D01*
X154783714Y-83800757D01*
X154826571Y-83629328D01*
X154869428Y-83543614D01*
X154955142Y-83457900D01*
X155083714Y-83415042D01*
X155169428Y-83415042D01*
X155298000Y-83457900D01*
X155340857Y-83500757D01*
X155598000Y-83415042D02*
X155898000Y-84315042D01*
X156198000Y-83415042D01*
X154290857Y-81432185D02*
X154976571Y-81432185D01*
X154633714Y-81775042D02*
X154633714Y-81089328D01*
X155833714Y-80875042D02*
X155405142Y-80875042D01*
X155362285Y-81303614D01*
X155405142Y-81260757D01*
X155490857Y-81217900D01*
X155705142Y-81217900D01*
X155790857Y-81260757D01*
X155833714Y-81303614D01*
X155876571Y-81389328D01*
X155876571Y-81603614D01*
X155833714Y-81689328D01*
X155790857Y-81732185D01*
X155705142Y-81775042D01*
X155490857Y-81775042D01*
X155405142Y-81732185D01*
X155362285Y-81689328D01*
X156133714Y-80875042D02*
X156433714Y-81775042D01*
X156733714Y-80875042D01*
X153862285Y-78892185D02*
X154548000Y-78892185D01*
X154205142Y-79235042D02*
X154205142Y-78549328D01*
X155448000Y-79235042D02*
X154933714Y-79235042D01*
X155190857Y-79235042D02*
X155190857Y-78335042D01*
X155105142Y-78463614D01*
X155019428Y-78549328D01*
X154933714Y-78592185D01*
X155790857Y-78420757D02*
X155833714Y-78377900D01*
X155919428Y-78335042D01*
X156133714Y-78335042D01*
X156219428Y-78377900D01*
X156262285Y-78420757D01*
X156305142Y-78506471D01*
X156305142Y-78592185D01*
X156262285Y-78720757D01*
X155748000Y-79235042D01*
X156305142Y-79235042D01*
X156562285Y-78335042D02*
X156862285Y-79235042D01*
X157162285Y-78335042D01*
X154762285Y-75837900D02*
X154676571Y-75795042D01*
X154548000Y-75795042D01*
X154419428Y-75837900D01*
X154333714Y-75923614D01*
X154290857Y-76009328D01*
X154248000Y-76180757D01*
X154248000Y-76309328D01*
X154290857Y-76480757D01*
X154333714Y-76566471D01*
X154419428Y-76652185D01*
X154548000Y-76695042D01*
X154633714Y-76695042D01*
X154762285Y-76652185D01*
X154805142Y-76609328D01*
X154805142Y-76309328D01*
X154633714Y-76309328D01*
X155190857Y-76695042D02*
X155190857Y-75795042D01*
X155705142Y-76695042D01*
X155705142Y-75795042D01*
X156133714Y-76695042D02*
X156133714Y-75795042D01*
X156348000Y-75795042D01*
X156476571Y-75837900D01*
X156562285Y-75923614D01*
X156605142Y-76009328D01*
X156648000Y-76180757D01*
X156648000Y-76309328D01*
X156605142Y-76480757D01*
X156562285Y-76566471D01*
X156476571Y-76652185D01*
X156348000Y-76695042D01*
X156133714Y-76695042D01*
X154762285Y-73297900D02*
X154676571Y-73255042D01*
X154548000Y-73255042D01*
X154419428Y-73297900D01*
X154333714Y-73383614D01*
X154290857Y-73469328D01*
X154248000Y-73640757D01*
X154248000Y-73769328D01*
X154290857Y-73940757D01*
X154333714Y-74026471D01*
X154419428Y-74112185D01*
X154548000Y-74155042D01*
X154633714Y-74155042D01*
X154762285Y-74112185D01*
X154805142Y-74069328D01*
X154805142Y-73769328D01*
X154633714Y-73769328D01*
X155190857Y-74155042D02*
X155190857Y-73255042D01*
X155705142Y-74155042D01*
X155705142Y-73255042D01*
X156133714Y-74155042D02*
X156133714Y-73255042D01*
X156348000Y-73255042D01*
X156476571Y-73297900D01*
X156562285Y-73383614D01*
X156605142Y-73469328D01*
X156648000Y-73640757D01*
X156648000Y-73769328D01*
X156605142Y-73940757D01*
X156562285Y-74026471D01*
X156476571Y-74112185D01*
X156348000Y-74155042D01*
X156133714Y-74155042D01*
X154762285Y-70757900D02*
X154676571Y-70715042D01*
X154548000Y-70715042D01*
X154419428Y-70757900D01*
X154333714Y-70843614D01*
X154290857Y-70929328D01*
X154248000Y-71100757D01*
X154248000Y-71229328D01*
X154290857Y-71400757D01*
X154333714Y-71486471D01*
X154419428Y-71572185D01*
X154548000Y-71615042D01*
X154633714Y-71615042D01*
X154762285Y-71572185D01*
X154805142Y-71529328D01*
X154805142Y-71229328D01*
X154633714Y-71229328D01*
X155190857Y-71615042D02*
X155190857Y-70715042D01*
X155705142Y-71615042D01*
X155705142Y-70715042D01*
X156133714Y-71615042D02*
X156133714Y-70715042D01*
X156348000Y-70715042D01*
X156476571Y-70757900D01*
X156562285Y-70843614D01*
X156605142Y-70929328D01*
X156648000Y-71100757D01*
X156648000Y-71229328D01*
X156605142Y-71400757D01*
X156562285Y-71486471D01*
X156476571Y-71572185D01*
X156348000Y-71615042D01*
X156133714Y-71615042D01*
X153862285Y-68732185D02*
X154548000Y-68732185D01*
X155448000Y-69075042D02*
X154933714Y-69075042D01*
X155190857Y-69075042D02*
X155190857Y-68175042D01*
X155105142Y-68303614D01*
X155019428Y-68389328D01*
X154933714Y-68432185D01*
X155790857Y-68260757D02*
X155833714Y-68217900D01*
X155919428Y-68175042D01*
X156133714Y-68175042D01*
X156219428Y-68217900D01*
X156262285Y-68260757D01*
X156305142Y-68346471D01*
X156305142Y-68432185D01*
X156262285Y-68560757D01*
X155748000Y-69075042D01*
X156305142Y-69075042D01*
X156562285Y-68175042D02*
X156862285Y-69075042D01*
X157162285Y-68175042D01*
D12*
X124710571Y-89095095D02*
X124710571Y-90147476D01*
X124772476Y-90271285D01*
X124834380Y-90333190D01*
X124958190Y-90395095D01*
X125205809Y-90395095D01*
X125329619Y-90333190D01*
X125391523Y-90271285D01*
X125453428Y-90147476D01*
X125453428Y-89095095D01*
X126072476Y-90395095D02*
X126072476Y-89095095D01*
X126567714Y-89095095D01*
X126691523Y-89157000D01*
X126753428Y-89218904D01*
X126815333Y-89342714D01*
X126815333Y-89528428D01*
X126753428Y-89652238D01*
X126691523Y-89714142D01*
X126567714Y-89776047D01*
X126072476Y-89776047D01*
X124029619Y-91345095D02*
X124772476Y-91345095D01*
X124401047Y-92645095D02*
X124401047Y-91345095D01*
X125453428Y-91345095D02*
X125701047Y-91345095D01*
X125824857Y-91407000D01*
X125948666Y-91530809D01*
X126010571Y-91778428D01*
X126010571Y-92211761D01*
X125948666Y-92459380D01*
X125824857Y-92583190D01*
X125701047Y-92645095D01*
X125453428Y-92645095D01*
X125329619Y-92583190D01*
X125205809Y-92459380D01*
X125143904Y-92211761D01*
X125143904Y-91778428D01*
X125205809Y-91530809D01*
X125329619Y-91407000D01*
X125453428Y-91345095D01*
X126567714Y-92645095D02*
X126567714Y-91345095D01*
X127062952Y-91345095D01*
X127186761Y-91407000D01*
X127248666Y-91468904D01*
X127310571Y-91592714D01*
X127310571Y-91778428D01*
X127248666Y-91902238D01*
X127186761Y-91964142D01*
X127062952Y-92026047D01*
X126567714Y-92026047D01*
X124896285Y-63788595D02*
X124462952Y-63169547D01*
X124153428Y-63788595D02*
X124153428Y-62488595D01*
X124648666Y-62488595D01*
X124772476Y-62550500D01*
X124834380Y-62612404D01*
X124896285Y-62736214D01*
X124896285Y-62921928D01*
X124834380Y-63045738D01*
X124772476Y-63107642D01*
X124648666Y-63169547D01*
X124153428Y-63169547D01*
X125453428Y-63107642D02*
X125886761Y-63107642D01*
X126072476Y-63788595D02*
X125453428Y-63788595D01*
X125453428Y-62488595D01*
X126072476Y-62488595D01*
X126629619Y-63788595D02*
X126629619Y-62488595D01*
X126939142Y-62488595D01*
X127124857Y-62550500D01*
X127248666Y-62674309D01*
X127310571Y-62798119D01*
X127372476Y-63045738D01*
X127372476Y-63231452D01*
X127310571Y-63479071D01*
X127248666Y-63602880D01*
X127124857Y-63726690D01*
X126939142Y-63788595D01*
X126629619Y-63788595D01*
X122667714Y-65976690D02*
X122853428Y-66038595D01*
X123162952Y-66038595D01*
X123286761Y-65976690D01*
X123348666Y-65914785D01*
X123410571Y-65790976D01*
X123410571Y-65667166D01*
X123348666Y-65543357D01*
X123286761Y-65481452D01*
X123162952Y-65419547D01*
X122915333Y-65357642D01*
X122791523Y-65295738D01*
X122729619Y-65233833D01*
X122667714Y-65110023D01*
X122667714Y-64986214D01*
X122729619Y-64862404D01*
X122791523Y-64800500D01*
X122915333Y-64738595D01*
X123224857Y-64738595D01*
X123410571Y-64800500D01*
X123782000Y-64738595D02*
X124524857Y-64738595D01*
X124153428Y-66038595D02*
X124153428Y-64738595D01*
X125701047Y-66038595D02*
X125267714Y-65419547D01*
X124958190Y-66038595D02*
X124958190Y-64738595D01*
X125453428Y-64738595D01*
X125577238Y-64800500D01*
X125639142Y-64862404D01*
X125701047Y-64986214D01*
X125701047Y-65171928D01*
X125639142Y-65295738D01*
X125577238Y-65357642D01*
X125453428Y-65419547D01*
X124958190Y-65419547D01*
X126258190Y-66038595D02*
X126258190Y-64738595D01*
X126877238Y-66038595D02*
X126877238Y-64738595D01*
X127372476Y-64738595D01*
X127496285Y-64800500D01*
X127558190Y-64862404D01*
X127620095Y-64986214D01*
X127620095Y-65171928D01*
X127558190Y-65295738D01*
X127496285Y-65357642D01*
X127372476Y-65419547D01*
X126877238Y-65419547D01*
X128177238Y-65357642D02*
X128610571Y-65357642D01*
X128796285Y-66038595D02*
X128177238Y-66038595D01*
X128177238Y-64738595D01*
X128796285Y-64738595D01*
D10*
X139838500Y-65430400D02*
G75*
G03X139838500Y-65430400I-3270000J0D01*
G01*
X139787700Y-75921680D02*
G75*
G03X139787700Y-75921680I-3270000J0D01*
G01*
X138942300Y-82222320D02*
X138942300Y-82537320D01*
X138942300Y-79797320D02*
X138942300Y-80112320D01*
X134002300Y-82222320D02*
X134002300Y-82537320D01*
X134002300Y-79797320D02*
X134002300Y-80112320D01*
X134002300Y-82537320D02*
X138942300Y-82537320D01*
X134002300Y-79797320D02*
X138942300Y-79797320D01*
X138987700Y-72083600D02*
X134047700Y-72083600D01*
X138987700Y-69343600D02*
X134047700Y-69343600D01*
X138987700Y-72083600D02*
X138987700Y-71768600D01*
X138987700Y-69658600D02*
X138987700Y-69343600D01*
X134047700Y-72083600D02*
X134047700Y-71768600D01*
X134047700Y-69658600D02*
X134047700Y-69343600D01*
X135964100Y-90715600D02*
X135964100Y-90559600D01*
X135964100Y-93031600D02*
X135964100Y-92875600D01*
X133362970Y-90715763D02*
G75*
G02X135445061Y-90715600I1041130J-1079837D01*
G01*
X133362970Y-92875437D02*
G75*
G03X135445061Y-92875600I1041130J1079837D01*
G01*
X132731765Y-90716992D02*
G75*
G02X135964100Y-90560084I1672335J-1078608D01*
G01*
X132731765Y-92874208D02*
G75*
G03X135964100Y-93031116I1672335J1078608D01*
G01*
X137786365Y-92874208D02*
G75*
G03X141018700Y-93031116I1672335J1078608D01*
G01*
X137786365Y-90716992D02*
G75*
G02X141018700Y-90560084I1672335J-1078608D01*
G01*
X138417570Y-92875437D02*
G75*
G03X140499661Y-92875600I1041130J1079837D01*
G01*
X138417570Y-90715763D02*
G75*
G02X140499661Y-90715600I1041130J-1079837D01*
G01*
X141018700Y-93031600D02*
X141018700Y-92875600D01*
X141018700Y-90715600D02*
X141018700Y-90559600D01*
X119000400Y-63382400D02*
X119000400Y-91862400D01*
X119000400Y-91862400D02*
X109650400Y-91862400D01*
X109650400Y-91862400D02*
X109650400Y-63382400D01*
X109650400Y-63382400D02*
X119000400Y-63382400D01*
X109400400Y-63132400D02*
X109400400Y-65672400D01*
X109400400Y-63132400D02*
X111940400Y-63132400D01*
X144109500Y-63132400D02*
X146649500Y-63132400D01*
X144109500Y-63132400D02*
X144109500Y-65672400D01*
X144359500Y-63382400D02*
X153709500Y-63382400D01*
X144359500Y-91862400D02*
X144359500Y-63382400D01*
X153709500Y-91862400D02*
X144359500Y-91862400D01*
X153709500Y-63382400D02*
X153709500Y-91862400D01*
X166774625Y-63382400D02*
X166774625Y-91862400D01*
X166774625Y-91862400D02*
X157424625Y-91862400D01*
X157424625Y-91862400D02*
X157424625Y-63382400D01*
X157424625Y-63382400D02*
X166774625Y-63382400D01*
X157174625Y-63132400D02*
X157174625Y-65672400D01*
X157174625Y-63132400D02*
X159714625Y-63132400D01*
X170239750Y-63132400D02*
X172779750Y-63132400D01*
X170239750Y-63132400D02*
X170239750Y-65672400D01*
X170489750Y-63382400D02*
X179839750Y-63382400D01*
X170489750Y-91862400D02*
X170489750Y-63382400D01*
X179839750Y-91862400D02*
X170489750Y-91862400D01*
X179839750Y-63382400D02*
X179839750Y-91862400D01*
X192904875Y-63382400D02*
X192904875Y-91862400D01*
X192904875Y-91862400D02*
X183554875Y-91862400D01*
X183554875Y-91862400D02*
X183554875Y-63382400D01*
X183554875Y-63382400D02*
X192904875Y-63382400D01*
X183304875Y-63132400D02*
X183304875Y-65672400D01*
X183304875Y-63132400D02*
X185844875Y-63132400D01*
X196370000Y-63132400D02*
X198910000Y-63132400D01*
X196370000Y-63132400D02*
X196370000Y-65672400D01*
X196620000Y-63382400D02*
X205970000Y-63382400D01*
X196620000Y-91862400D02*
X196620000Y-63382400D01*
X205970000Y-91862400D02*
X196620000Y-91862400D01*
X205970000Y-63382400D02*
X205970000Y-91862400D01*
X133547100Y-86361600D02*
X133547100Y-86691600D01*
X140087100Y-86361600D02*
X133547100Y-86361600D01*
X140087100Y-86691600D02*
X140087100Y-86361600D01*
X133547100Y-89101600D02*
X133547100Y-88771600D01*
X140087100Y-89101600D02*
X133547100Y-89101600D01*
X140087100Y-88771600D02*
X140087100Y-89101600D01*
X133547100Y-83415000D02*
X133547100Y-83085000D01*
X133547100Y-83085000D02*
X140087100Y-83085000D01*
X140087100Y-83085000D02*
X140087100Y-83415000D01*
X133547100Y-85495000D02*
X133547100Y-85825000D01*
X133547100Y-85825000D02*
X140087100Y-85825000D01*
X140087100Y-85825000D02*
X140087100Y-85495000D01*
X130532000Y-67192400D02*
X130532000Y-88052400D01*
X130532000Y-88052400D02*
X121182000Y-88052400D01*
X121182000Y-88052400D02*
X121182000Y-67192400D01*
X121182000Y-67192400D02*
X130532000Y-67192400D01*
X120932000Y-66942400D02*
X120932000Y-69482400D01*
X120932000Y-66942400D02*
X123472000Y-66942400D01*
D11*
X268301742Y-129909867D02*
X268349361Y-129957486D01*
X268396980Y-130100343D01*
X268396980Y-130195581D01*
X268349361Y-130338439D01*
X268254123Y-130433677D01*
X268158885Y-130481296D01*
X267968409Y-130528915D01*
X267825552Y-130528915D01*
X267635076Y-130481296D01*
X267539838Y-130433677D01*
X267444600Y-130338439D01*
X267396980Y-130195581D01*
X267396980Y-130100343D01*
X267444600Y-129957486D01*
X267492219Y-129909867D01*
X267492219Y-129528915D02*
X267444600Y-129481296D01*
X267396980Y-129386058D01*
X267396980Y-129147962D01*
X267444600Y-129052724D01*
X267492219Y-129005105D01*
X267587457Y-128957486D01*
X267682695Y-128957486D01*
X267825552Y-129005105D01*
X268396980Y-129576534D01*
X268396980Y-128957486D01*
X141212842Y-65597067D02*
X141260461Y-65644686D01*
X141308080Y-65787543D01*
X141308080Y-65882781D01*
X141260461Y-66025639D01*
X141165223Y-66120877D01*
X141069985Y-66168496D01*
X140879509Y-66216115D01*
X140736652Y-66216115D01*
X140546176Y-66168496D01*
X140450938Y-66120877D01*
X140355700Y-66025639D01*
X140308080Y-65882781D01*
X140308080Y-65787543D01*
X140355700Y-65644686D01*
X140403319Y-65597067D01*
X140403319Y-65216115D02*
X140355700Y-65168496D01*
X140308080Y-65073258D01*
X140308080Y-64835162D01*
X140355700Y-64739924D01*
X140403319Y-64692305D01*
X140498557Y-64644686D01*
X140593795Y-64644686D01*
X140736652Y-64692305D01*
X141308080Y-65263734D01*
X141308080Y-64644686D01*
X135497071Y-67787780D02*
X134925642Y-67787780D01*
X135211357Y-67787780D02*
X135211357Y-66787780D01*
X135116119Y-66930638D01*
X135020880Y-67025876D01*
X134925642Y-67073495D01*
X136116119Y-66787780D02*
X136211357Y-66787780D01*
X136306595Y-66835400D01*
X136354214Y-66883019D01*
X136401833Y-66978257D01*
X136449452Y-67168733D01*
X136449452Y-67406828D01*
X136401833Y-67597304D01*
X136354214Y-67692542D01*
X136306595Y-67740161D01*
X136211357Y-67787780D01*
X136116119Y-67787780D01*
X136020880Y-67740161D01*
X135973261Y-67692542D01*
X135925642Y-67597304D01*
X135878023Y-67406828D01*
X135878023Y-67168733D01*
X135925642Y-66978257D01*
X135973261Y-66883019D01*
X136020880Y-66835400D01*
X136116119Y-66787780D01*
X137306595Y-67121114D02*
X137306595Y-67787780D01*
X136878023Y-67121114D02*
X136878023Y-67644923D01*
X136925642Y-67740161D01*
X137020880Y-67787780D01*
X137163738Y-67787780D01*
X137258976Y-67740161D01*
X137306595Y-67692542D01*
X138116119Y-67263971D02*
X137782785Y-67263971D01*
X137782785Y-67787780D02*
X137782785Y-66787780D01*
X138258976Y-66787780D01*
X141212842Y-76088347D02*
X141260461Y-76135966D01*
X141308080Y-76278823D01*
X141308080Y-76374061D01*
X141260461Y-76516919D01*
X141165223Y-76612157D01*
X141069985Y-76659776D01*
X140879509Y-76707395D01*
X140736652Y-76707395D01*
X140546176Y-76659776D01*
X140450938Y-76612157D01*
X140355700Y-76516919D01*
X140308080Y-76374061D01*
X140308080Y-76278823D01*
X140355700Y-76135966D01*
X140403319Y-76088347D01*
X141308080Y-75135966D02*
X141308080Y-75707395D01*
X141308080Y-75421681D02*
X140308080Y-75421681D01*
X140450938Y-75516919D01*
X140546176Y-75612157D01*
X140593795Y-75707395D01*
X135466271Y-78202860D02*
X134894842Y-78202860D01*
X135180557Y-78202860D02*
X135180557Y-77202860D01*
X135085319Y-77345718D01*
X134990080Y-77440956D01*
X134894842Y-77488575D01*
X136085319Y-77202860D02*
X136180557Y-77202860D01*
X136275795Y-77250480D01*
X136323414Y-77298099D01*
X136371033Y-77393337D01*
X136418652Y-77583813D01*
X136418652Y-77821908D01*
X136371033Y-78012384D01*
X136323414Y-78107622D01*
X136275795Y-78155241D01*
X136180557Y-78202860D01*
X136085319Y-78202860D01*
X135990080Y-78155241D01*
X135942461Y-78107622D01*
X135894842Y-78012384D01*
X135847223Y-77821908D01*
X135847223Y-77583813D01*
X135894842Y-77393337D01*
X135942461Y-77298099D01*
X135990080Y-77250480D01*
X136085319Y-77202860D01*
X137275795Y-77536194D02*
X137275795Y-78202860D01*
X136847223Y-77536194D02*
X136847223Y-78060003D01*
X136894842Y-78155241D01*
X136990080Y-78202860D01*
X137132938Y-78202860D01*
X137228176Y-78155241D01*
X137275795Y-78107622D01*
X138085319Y-77679051D02*
X137751985Y-77679051D01*
X137751985Y-78202860D02*
X137751985Y-77202860D01*
X138228176Y-77202860D01*
X141212842Y-81333987D02*
X141260461Y-81381606D01*
X141308080Y-81524463D01*
X141308080Y-81619701D01*
X141260461Y-81762559D01*
X141165223Y-81857797D01*
X141069985Y-81905416D01*
X140879509Y-81953035D01*
X140736652Y-81953035D01*
X140546176Y-81905416D01*
X140450938Y-81857797D01*
X140355700Y-81762559D01*
X140308080Y-81619701D01*
X140308080Y-81524463D01*
X140355700Y-81381606D01*
X140403319Y-81333987D01*
X140308080Y-81000654D02*
X140308080Y-80381606D01*
X140689033Y-80714940D01*
X140689033Y-80572082D01*
X140736652Y-80476844D01*
X140784271Y-80429225D01*
X140879509Y-80381606D01*
X141117604Y-80381606D01*
X141212842Y-80429225D01*
X141260461Y-80476844D01*
X141308080Y-80572082D01*
X141308080Y-80857797D01*
X141260461Y-80953035D01*
X141212842Y-81000654D01*
X135877061Y-81552200D02*
X135305633Y-81552200D01*
X135591347Y-81552200D02*
X135591347Y-80552200D01*
X135496109Y-80695058D01*
X135400871Y-80790296D01*
X135305633Y-80837915D01*
X136734204Y-80885534D02*
X136734204Y-81552200D01*
X136305633Y-80885534D02*
X136305633Y-81409343D01*
X136353252Y-81504581D01*
X136448490Y-81552200D01*
X136591347Y-81552200D01*
X136686585Y-81504581D01*
X136734204Y-81456962D01*
X137543728Y-81028391D02*
X137210395Y-81028391D01*
X137210395Y-81552200D02*
X137210395Y-80552200D01*
X137686585Y-80552200D01*
X141212842Y-70880267D02*
X141260461Y-70927886D01*
X141308080Y-71070743D01*
X141308080Y-71165981D01*
X141260461Y-71308839D01*
X141165223Y-71404077D01*
X141069985Y-71451696D01*
X140879509Y-71499315D01*
X140736652Y-71499315D01*
X140546176Y-71451696D01*
X140450938Y-71404077D01*
X140355700Y-71308839D01*
X140308080Y-71165981D01*
X140308080Y-71070743D01*
X140355700Y-70927886D01*
X140403319Y-70880267D01*
X140641414Y-70023124D02*
X141308080Y-70023124D01*
X140260461Y-70261220D02*
X140974747Y-70499315D01*
X140974747Y-69880267D01*
X135922461Y-71098480D02*
X135351033Y-71098480D01*
X135636747Y-71098480D02*
X135636747Y-70098480D01*
X135541509Y-70241338D01*
X135446271Y-70336576D01*
X135351033Y-70384195D01*
X136779604Y-70431814D02*
X136779604Y-71098480D01*
X136351033Y-70431814D02*
X136351033Y-70955623D01*
X136398652Y-71050861D01*
X136493890Y-71098480D01*
X136636747Y-71098480D01*
X136731985Y-71050861D01*
X136779604Y-71003242D01*
X137589128Y-70574671D02*
X137255795Y-70574671D01*
X137255795Y-71098480D02*
X137255795Y-70098480D01*
X137731985Y-70098480D01*
X130198904Y-90596980D02*
X130198904Y-89596980D01*
X130437000Y-89596980D01*
X130579857Y-89644600D01*
X130675095Y-89739838D01*
X130722714Y-89835076D01*
X130770333Y-90025552D01*
X130770333Y-90168409D01*
X130722714Y-90358885D01*
X130675095Y-90454123D01*
X130579857Y-90549361D01*
X130437000Y-90596980D01*
X130198904Y-90596980D01*
X131722714Y-90596980D02*
X131151285Y-90596980D01*
X131437000Y-90596980D02*
X131437000Y-89596980D01*
X131341761Y-89739838D01*
X131246523Y-89835076D01*
X131151285Y-89882695D01*
X142162304Y-90596980D02*
X142162304Y-89596980D01*
X142400400Y-89596980D01*
X142543257Y-89644600D01*
X142638495Y-89739838D01*
X142686114Y-89835076D01*
X142733733Y-90025552D01*
X142733733Y-90168409D01*
X142686114Y-90358885D01*
X142638495Y-90454123D01*
X142543257Y-90549361D01*
X142400400Y-90596980D01*
X142162304Y-90596980D01*
X143114685Y-89692219D02*
X143162304Y-89644600D01*
X143257542Y-89596980D01*
X143495638Y-89596980D01*
X143590876Y-89644600D01*
X143638495Y-89692219D01*
X143686114Y-89787457D01*
X143686114Y-89882695D01*
X143638495Y-90025552D01*
X143067066Y-90596980D01*
X143686114Y-90596980D01*
X113867066Y-61910980D02*
X113867066Y-62625266D01*
X113819447Y-62768123D01*
X113724209Y-62863361D01*
X113581352Y-62910980D01*
X113486114Y-62910980D01*
X114867066Y-62910980D02*
X114295638Y-62910980D01*
X114581352Y-62910980D02*
X114581352Y-61910980D01*
X114486114Y-62053838D01*
X114390876Y-62149076D01*
X114295638Y-62196695D01*
X148576166Y-61910980D02*
X148576166Y-62625266D01*
X148528547Y-62768123D01*
X148433309Y-62863361D01*
X148290452Y-62910980D01*
X148195214Y-62910980D01*
X149004738Y-62006219D02*
X149052357Y-61958600D01*
X149147595Y-61910980D01*
X149385690Y-61910980D01*
X149480928Y-61958600D01*
X149528547Y-62006219D01*
X149576166Y-62101457D01*
X149576166Y-62196695D01*
X149528547Y-62339552D01*
X148957119Y-62910980D01*
X149576166Y-62910980D01*
X161641291Y-92263980D02*
X161641291Y-92978266D01*
X161593672Y-93121123D01*
X161498434Y-93216361D01*
X161355577Y-93263980D01*
X161260339Y-93263980D01*
X162022244Y-92263980D02*
X162641291Y-92263980D01*
X162307958Y-92644933D01*
X162450815Y-92644933D01*
X162546053Y-92692552D01*
X162593672Y-92740171D01*
X162641291Y-92835409D01*
X162641291Y-93073504D01*
X162593672Y-93168742D01*
X162546053Y-93216361D01*
X162450815Y-93263980D01*
X162165101Y-93263980D01*
X162069863Y-93216361D01*
X162022244Y-93168742D01*
X174706416Y-61910980D02*
X174706416Y-62625266D01*
X174658797Y-62768123D01*
X174563559Y-62863361D01*
X174420702Y-62910980D01*
X174325464Y-62910980D01*
X175611178Y-62244314D02*
X175611178Y-62910980D01*
X175373083Y-61863361D02*
X175134988Y-62577647D01*
X175754035Y-62577647D01*
X187771541Y-92263980D02*
X187771541Y-92978266D01*
X187723922Y-93121123D01*
X187628684Y-93216361D01*
X187485827Y-93263980D01*
X187390589Y-93263980D01*
X188723922Y-92263980D02*
X188247732Y-92263980D01*
X188200113Y-92740171D01*
X188247732Y-92692552D01*
X188342970Y-92644933D01*
X188581065Y-92644933D01*
X188676303Y-92692552D01*
X188723922Y-92740171D01*
X188771541Y-92835409D01*
X188771541Y-93073504D01*
X188723922Y-93168742D01*
X188676303Y-93216361D01*
X188581065Y-93263980D01*
X188342970Y-93263980D01*
X188247732Y-93216361D01*
X188200113Y-93168742D01*
X200836666Y-61910980D02*
X200836666Y-62625266D01*
X200789047Y-62768123D01*
X200693809Y-62863361D01*
X200550952Y-62910980D01*
X200455714Y-62910980D01*
X201741428Y-61910980D02*
X201550952Y-61910980D01*
X201455714Y-61958600D01*
X201408095Y-62006219D01*
X201312857Y-62149076D01*
X201265238Y-62339552D01*
X201265238Y-62720504D01*
X201312857Y-62815742D01*
X201360476Y-62863361D01*
X201455714Y-62910980D01*
X201646190Y-62910980D01*
X201741428Y-62863361D01*
X201789047Y-62815742D01*
X201836666Y-62720504D01*
X201836666Y-62482409D01*
X201789047Y-62387171D01*
X201741428Y-62339552D01*
X201646190Y-62291933D01*
X201455714Y-62291933D01*
X201360476Y-62339552D01*
X201312857Y-62387171D01*
X201265238Y-62482409D01*
X135888528Y-84839880D02*
X135317100Y-84839880D01*
X135602814Y-84839880D02*
X135602814Y-83839880D01*
X135507576Y-83982738D01*
X135412338Y-84077976D01*
X135317100Y-84125595D01*
X136317100Y-84744642D02*
X136364719Y-84792261D01*
X136317100Y-84839880D01*
X136269480Y-84792261D01*
X136317100Y-84744642D01*
X136317100Y-84839880D01*
X136745671Y-83935119D02*
X136793290Y-83887500D01*
X136888528Y-83839880D01*
X137126623Y-83839880D01*
X137221861Y-83887500D01*
X137269480Y-83935119D01*
X137317100Y-84030357D01*
X137317100Y-84125595D01*
X137269480Y-84268452D01*
X136698052Y-84839880D01*
X137317100Y-84839880D01*
X137745671Y-84839880D02*
X137745671Y-83839880D01*
X138317100Y-84839880D02*
X137888528Y-84268452D01*
X138317100Y-83839880D02*
X137745671Y-84411309D01*
X135888528Y-88116480D02*
X135317100Y-88116480D01*
X135602814Y-88116480D02*
X135602814Y-87116480D01*
X135507576Y-87259338D01*
X135412338Y-87354576D01*
X135317100Y-87402195D01*
X136317100Y-88021242D02*
X136364719Y-88068861D01*
X136317100Y-88116480D01*
X136269480Y-88068861D01*
X136317100Y-88021242D01*
X136317100Y-88116480D01*
X136745671Y-87211719D02*
X136793290Y-87164100D01*
X136888528Y-87116480D01*
X137126623Y-87116480D01*
X137221861Y-87164100D01*
X137269480Y-87211719D01*
X137317100Y-87306957D01*
X137317100Y-87402195D01*
X137269480Y-87545052D01*
X136698052Y-88116480D01*
X137317100Y-88116480D01*
X137745671Y-88116480D02*
X137745671Y-87116480D01*
X138317100Y-88116480D02*
X137888528Y-87545052D01*
X138317100Y-87116480D02*
X137745671Y-87687909D01*
X121459666Y-88479380D02*
X121459666Y-89193666D01*
X121412047Y-89336523D01*
X121316809Y-89431761D01*
X121173952Y-89479380D01*
X121078714Y-89479380D01*
X121840619Y-88479380D02*
X122507285Y-88479380D01*
X122078714Y-89479380D01*
M02*
