G04 #@! TF.GenerationSoftware,KiCad,Pcbnew,(5.1.5-0-10_14)*
G04 #@! TF.CreationDate,2020-07-12T13:30:34-04:00*
G04 #@! TF.ProjectId,AYOMSM - Power Supply Daughter Board,41594f4d-534d-4202-9d20-506f77657220,rev?*
G04 #@! TF.SameCoordinates,Original*
G04 #@! TF.FileFunction,Legend,Bot*
G04 #@! TF.FilePolarity,Positive*
%FSLAX46Y46*%
G04 Gerber Fmt 4.6, Leading zero omitted, Abs format (unit mm)*
G04 Created by KiCad (PCBNEW (5.1.5-0-10_14)) date 2020-07-12 13:30:34*
%MOMM*%
%LPD*%
G04 APERTURE LIST*
%ADD10C,0.150000*%
%ADD11C,0.010000*%
G04 APERTURE END LIST*
D10*
X184428571Y-93444961D02*
X184285714Y-93492580D01*
X184047619Y-93492580D01*
X183952380Y-93444961D01*
X183904761Y-93397342D01*
X183857142Y-93302104D01*
X183857142Y-93206866D01*
X183904761Y-93111628D01*
X183952380Y-93064009D01*
X184047619Y-93016390D01*
X184238095Y-92968771D01*
X184333333Y-92921152D01*
X184380952Y-92873533D01*
X184428571Y-92778295D01*
X184428571Y-92683057D01*
X184380952Y-92587819D01*
X184333333Y-92540200D01*
X184238095Y-92492580D01*
X184000000Y-92492580D01*
X183857142Y-92540200D01*
X183428571Y-93492580D02*
X183428571Y-92492580D01*
X183000000Y-93492580D02*
X183000000Y-92968771D01*
X183047619Y-92873533D01*
X183142857Y-92825914D01*
X183285714Y-92825914D01*
X183380952Y-92873533D01*
X183428571Y-92921152D01*
X182095238Y-93492580D02*
X182095238Y-92968771D01*
X182142857Y-92873533D01*
X182238095Y-92825914D01*
X182428571Y-92825914D01*
X182523809Y-92873533D01*
X182095238Y-93444961D02*
X182190476Y-93492580D01*
X182428571Y-93492580D01*
X182523809Y-93444961D01*
X182571428Y-93349723D01*
X182571428Y-93254485D01*
X182523809Y-93159247D01*
X182428571Y-93111628D01*
X182190476Y-93111628D01*
X182095238Y-93064009D01*
X181619047Y-92825914D02*
X181619047Y-93825914D01*
X181619047Y-92873533D02*
X181523809Y-92825914D01*
X181333333Y-92825914D01*
X181238095Y-92873533D01*
X181190476Y-92921152D01*
X181142857Y-93016390D01*
X181142857Y-93302104D01*
X181190476Y-93397342D01*
X181238095Y-93444961D01*
X181333333Y-93492580D01*
X181523809Y-93492580D01*
X181619047Y-93444961D01*
X180333333Y-93444961D02*
X180428571Y-93492580D01*
X180619047Y-93492580D01*
X180714285Y-93444961D01*
X180761904Y-93349723D01*
X180761904Y-92968771D01*
X180714285Y-92873533D01*
X180619047Y-92825914D01*
X180428571Y-92825914D01*
X180333333Y-92873533D01*
X180285714Y-92968771D01*
X180285714Y-93064009D01*
X180761904Y-93159247D01*
X180000000Y-92825914D02*
X179619047Y-92825914D01*
X179857142Y-92492580D02*
X179857142Y-93349723D01*
X179809523Y-93444961D01*
X179714285Y-93492580D01*
X179619047Y-93492580D01*
X178857142Y-93492580D02*
X178857142Y-92968771D01*
X178904761Y-92873533D01*
X179000000Y-92825914D01*
X179190476Y-92825914D01*
X179285714Y-92873533D01*
X178857142Y-93444961D02*
X178952380Y-93492580D01*
X179190476Y-93492580D01*
X179285714Y-93444961D01*
X179333333Y-93349723D01*
X179333333Y-93254485D01*
X179285714Y-93159247D01*
X179190476Y-93111628D01*
X178952380Y-93111628D01*
X178857142Y-93064009D01*
X178380952Y-93492580D02*
X178380952Y-92492580D01*
X178285714Y-93111628D02*
X178000000Y-93492580D01*
X178000000Y-92825914D02*
X178380952Y-93206866D01*
X177190476Y-93444961D02*
X177285714Y-93492580D01*
X177476190Y-93492580D01*
X177571428Y-93444961D01*
X177619047Y-93349723D01*
X177619047Y-92968771D01*
X177571428Y-92873533D01*
X177476190Y-92825914D01*
X177285714Y-92825914D01*
X177190476Y-92873533D01*
X177142857Y-92968771D01*
X177142857Y-93064009D01*
X177619047Y-93159247D01*
X176714285Y-93492580D02*
X176714285Y-92825914D01*
X176714285Y-93016390D02*
X176666666Y-92921152D01*
X176619047Y-92873533D01*
X176523809Y-92825914D01*
X176428571Y-92825914D01*
X175333333Y-93111628D02*
X174571428Y-93111628D01*
X173333333Y-93492580D02*
X173333333Y-92492580D01*
X172952380Y-92492580D01*
X172857142Y-92540200D01*
X172809523Y-92587819D01*
X172761904Y-92683057D01*
X172761904Y-92825914D01*
X172809523Y-92921152D01*
X172857142Y-92968771D01*
X172952380Y-93016390D01*
X173333333Y-93016390D01*
X172190476Y-93492580D02*
X172285714Y-93444961D01*
X172333333Y-93397342D01*
X172380952Y-93302104D01*
X172380952Y-93016390D01*
X172333333Y-92921152D01*
X172285714Y-92873533D01*
X172190476Y-92825914D01*
X172047619Y-92825914D01*
X171952380Y-92873533D01*
X171904761Y-92921152D01*
X171857142Y-93016390D01*
X171857142Y-93302104D01*
X171904761Y-93397342D01*
X171952380Y-93444961D01*
X172047619Y-93492580D01*
X172190476Y-93492580D01*
X171523809Y-92825914D02*
X171333333Y-93492580D01*
X171142857Y-93016390D01*
X170952380Y-93492580D01*
X170761904Y-92825914D01*
X170000000Y-93444961D02*
X170095238Y-93492580D01*
X170285714Y-93492580D01*
X170380952Y-93444961D01*
X170428571Y-93349723D01*
X170428571Y-92968771D01*
X170380952Y-92873533D01*
X170285714Y-92825914D01*
X170095238Y-92825914D01*
X170000000Y-92873533D01*
X169952380Y-92968771D01*
X169952380Y-93064009D01*
X170428571Y-93159247D01*
X169523809Y-93492580D02*
X169523809Y-92825914D01*
X169523809Y-93016390D02*
X169476190Y-92921152D01*
X169428571Y-92873533D01*
X169333333Y-92825914D01*
X169238095Y-92825914D01*
X168190476Y-93444961D02*
X168047619Y-93492580D01*
X167809523Y-93492580D01*
X167714285Y-93444961D01*
X167666666Y-93397342D01*
X167619047Y-93302104D01*
X167619047Y-93206866D01*
X167666666Y-93111628D01*
X167714285Y-93064009D01*
X167809523Y-93016390D01*
X168000000Y-92968771D01*
X168095238Y-92921152D01*
X168142857Y-92873533D01*
X168190476Y-92778295D01*
X168190476Y-92683057D01*
X168142857Y-92587819D01*
X168095238Y-92540200D01*
X168000000Y-92492580D01*
X167761904Y-92492580D01*
X167619047Y-92540200D01*
X166761904Y-92825914D02*
X166761904Y-93492580D01*
X167190476Y-92825914D02*
X167190476Y-93349723D01*
X167142857Y-93444961D01*
X167047619Y-93492580D01*
X166904761Y-93492580D01*
X166809523Y-93444961D01*
X166761904Y-93397342D01*
X166285714Y-92825914D02*
X166285714Y-93825914D01*
X166285714Y-92873533D02*
X166190476Y-92825914D01*
X166000000Y-92825914D01*
X165904761Y-92873533D01*
X165857142Y-92921152D01*
X165809523Y-93016390D01*
X165809523Y-93302104D01*
X165857142Y-93397342D01*
X165904761Y-93444961D01*
X166000000Y-93492580D01*
X166190476Y-93492580D01*
X166285714Y-93444961D01*
X165380952Y-92825914D02*
X165380952Y-93825914D01*
X165380952Y-92873533D02*
X165285714Y-92825914D01*
X165095238Y-92825914D01*
X165000000Y-92873533D01*
X164952380Y-92921152D01*
X164904761Y-93016390D01*
X164904761Y-93302104D01*
X164952380Y-93397342D01*
X165000000Y-93444961D01*
X165095238Y-93492580D01*
X165285714Y-93492580D01*
X165380952Y-93444961D01*
X164333333Y-93492580D02*
X164428571Y-93444961D01*
X164476190Y-93349723D01*
X164476190Y-92492580D01*
X164047619Y-92825914D02*
X163809523Y-93492580D01*
X163571428Y-92825914D02*
X163809523Y-93492580D01*
X163904761Y-93730676D01*
X163952380Y-93778295D01*
X164047619Y-93825914D01*
X162428571Y-93492580D02*
X162428571Y-92492580D01*
X162190476Y-92492580D01*
X162047619Y-92540200D01*
X161952380Y-92635438D01*
X161904761Y-92730676D01*
X161857142Y-92921152D01*
X161857142Y-93064009D01*
X161904761Y-93254485D01*
X161952380Y-93349723D01*
X162047619Y-93444961D01*
X162190476Y-93492580D01*
X162428571Y-93492580D01*
X161000000Y-93492580D02*
X161000000Y-92968771D01*
X161047619Y-92873533D01*
X161142857Y-92825914D01*
X161333333Y-92825914D01*
X161428571Y-92873533D01*
X161000000Y-93444961D02*
X161095238Y-93492580D01*
X161333333Y-93492580D01*
X161428571Y-93444961D01*
X161476190Y-93349723D01*
X161476190Y-93254485D01*
X161428571Y-93159247D01*
X161333333Y-93111628D01*
X161095238Y-93111628D01*
X161000000Y-93064009D01*
X160095238Y-92825914D02*
X160095238Y-93492580D01*
X160523809Y-92825914D02*
X160523809Y-93349723D01*
X160476190Y-93444961D01*
X160380952Y-93492580D01*
X160238095Y-93492580D01*
X160142857Y-93444961D01*
X160095238Y-93397342D01*
X159190476Y-92825914D02*
X159190476Y-93635438D01*
X159238095Y-93730676D01*
X159285714Y-93778295D01*
X159380952Y-93825914D01*
X159523809Y-93825914D01*
X159619047Y-93778295D01*
X159190476Y-93444961D02*
X159285714Y-93492580D01*
X159476190Y-93492580D01*
X159571428Y-93444961D01*
X159619047Y-93397342D01*
X159666666Y-93302104D01*
X159666666Y-93016390D01*
X159619047Y-92921152D01*
X159571428Y-92873533D01*
X159476190Y-92825914D01*
X159285714Y-92825914D01*
X159190476Y-92873533D01*
X158714285Y-93492580D02*
X158714285Y-92492580D01*
X158285714Y-93492580D02*
X158285714Y-92968771D01*
X158333333Y-92873533D01*
X158428571Y-92825914D01*
X158571428Y-92825914D01*
X158666666Y-92873533D01*
X158714285Y-92921152D01*
X157952380Y-92825914D02*
X157571428Y-92825914D01*
X157809523Y-92492580D02*
X157809523Y-93349723D01*
X157761904Y-93444961D01*
X157666666Y-93492580D01*
X157571428Y-93492580D01*
X156857142Y-93444961D02*
X156952380Y-93492580D01*
X157142857Y-93492580D01*
X157238095Y-93444961D01*
X157285714Y-93349723D01*
X157285714Y-92968771D01*
X157238095Y-92873533D01*
X157142857Y-92825914D01*
X156952380Y-92825914D01*
X156857142Y-92873533D01*
X156809523Y-92968771D01*
X156809523Y-93064009D01*
X157285714Y-93159247D01*
X156380952Y-93492580D02*
X156380952Y-92825914D01*
X156380952Y-93016390D02*
X156333333Y-92921152D01*
X156285714Y-92873533D01*
X156190476Y-92825914D01*
X156095238Y-92825914D01*
X154666666Y-92968771D02*
X154523809Y-93016390D01*
X154476190Y-93064009D01*
X154428571Y-93159247D01*
X154428571Y-93302104D01*
X154476190Y-93397342D01*
X154523809Y-93444961D01*
X154619047Y-93492580D01*
X155000000Y-93492580D01*
X155000000Y-92492580D01*
X154666666Y-92492580D01*
X154571428Y-92540200D01*
X154523809Y-92587819D01*
X154476190Y-92683057D01*
X154476190Y-92778295D01*
X154523809Y-92873533D01*
X154571428Y-92921152D01*
X154666666Y-92968771D01*
X155000000Y-92968771D01*
X153857142Y-93492580D02*
X153952380Y-93444961D01*
X154000000Y-93397342D01*
X154047619Y-93302104D01*
X154047619Y-93016390D01*
X154000000Y-92921152D01*
X153952380Y-92873533D01*
X153857142Y-92825914D01*
X153714285Y-92825914D01*
X153619047Y-92873533D01*
X153571428Y-92921152D01*
X153523809Y-93016390D01*
X153523809Y-93302104D01*
X153571428Y-93397342D01*
X153619047Y-93444961D01*
X153714285Y-93492580D01*
X153857142Y-93492580D01*
X152666666Y-93492580D02*
X152666666Y-92968771D01*
X152714285Y-92873533D01*
X152809523Y-92825914D01*
X153000000Y-92825914D01*
X153095238Y-92873533D01*
X152666666Y-93444961D02*
X152761904Y-93492580D01*
X153000000Y-93492580D01*
X153095238Y-93444961D01*
X153142857Y-93349723D01*
X153142857Y-93254485D01*
X153095238Y-93159247D01*
X153000000Y-93111628D01*
X152761904Y-93111628D01*
X152666666Y-93064009D01*
X152190476Y-93492580D02*
X152190476Y-92825914D01*
X152190476Y-93016390D02*
X152142857Y-92921152D01*
X152095238Y-92873533D01*
X152000000Y-92825914D01*
X151904761Y-92825914D01*
X151142857Y-93492580D02*
X151142857Y-92492580D01*
X151142857Y-93444961D02*
X151238095Y-93492580D01*
X151428571Y-93492580D01*
X151523809Y-93444961D01*
X151571428Y-93397342D01*
X151619047Y-93302104D01*
X151619047Y-93016390D01*
X151571428Y-92921152D01*
X151523809Y-92873533D01*
X151428571Y-92825914D01*
X151238095Y-92825914D01*
X151142857Y-92873533D01*
X149619047Y-93873533D02*
X149666666Y-93825914D01*
X149761904Y-93683057D01*
X149809523Y-93587819D01*
X149857142Y-93444961D01*
X149904761Y-93206866D01*
X149904761Y-93016390D01*
X149857142Y-92778295D01*
X149809523Y-92635438D01*
X149761904Y-92540200D01*
X149666666Y-92397342D01*
X149619047Y-92349723D01*
X149238095Y-93492580D02*
X149238095Y-92492580D01*
X148857142Y-92492580D01*
X148761904Y-92540200D01*
X148714285Y-92587819D01*
X148666666Y-92683057D01*
X148666666Y-92825914D01*
X148714285Y-92921152D01*
X148761904Y-92968771D01*
X148857142Y-93016390D01*
X149238095Y-93016390D01*
X148095238Y-93492580D02*
X148190476Y-93444961D01*
X148238095Y-93397342D01*
X148285714Y-93302104D01*
X148285714Y-93016390D01*
X148238095Y-92921152D01*
X148190476Y-92873533D01*
X148095238Y-92825914D01*
X147952380Y-92825914D01*
X147857142Y-92873533D01*
X147809523Y-92921152D01*
X147761904Y-93016390D01*
X147761904Y-93302104D01*
X147809523Y-93397342D01*
X147857142Y-93444961D01*
X147952380Y-93492580D01*
X148095238Y-93492580D01*
X147428571Y-92825914D02*
X147238095Y-93492580D01*
X147047619Y-93016390D01*
X146857142Y-93492580D01*
X146666666Y-92825914D01*
X145904761Y-93444961D02*
X146000000Y-93492580D01*
X146190476Y-93492580D01*
X146285714Y-93444961D01*
X146333333Y-93349723D01*
X146333333Y-92968771D01*
X146285714Y-92873533D01*
X146190476Y-92825914D01*
X146000000Y-92825914D01*
X145904761Y-92873533D01*
X145857142Y-92968771D01*
X145857142Y-93064009D01*
X146333333Y-93159247D01*
X145428571Y-93492580D02*
X145428571Y-92825914D01*
X145428571Y-93016390D02*
X145380952Y-92921152D01*
X145333333Y-92873533D01*
X145238095Y-92825914D01*
X145142857Y-92825914D01*
X143714285Y-92968771D02*
X143571428Y-93016390D01*
X143523809Y-93064009D01*
X143476190Y-93159247D01*
X143476190Y-93302104D01*
X143523809Y-93397342D01*
X143571428Y-93444961D01*
X143666666Y-93492580D01*
X144047619Y-93492580D01*
X144047619Y-92492580D01*
X143714285Y-92492580D01*
X143619047Y-92540200D01*
X143571428Y-92587819D01*
X143523809Y-92683057D01*
X143523809Y-92778295D01*
X143571428Y-92873533D01*
X143619047Y-92921152D01*
X143714285Y-92968771D01*
X144047619Y-92968771D01*
X142619047Y-92825914D02*
X142619047Y-93492580D01*
X143047619Y-92825914D02*
X143047619Y-93349723D01*
X143000000Y-93444961D01*
X142904761Y-93492580D01*
X142761904Y-93492580D01*
X142666666Y-93444961D01*
X142619047Y-93397342D01*
X142190476Y-93444961D02*
X142095238Y-93492580D01*
X141904761Y-93492580D01*
X141809523Y-93444961D01*
X141761904Y-93349723D01*
X141761904Y-93302104D01*
X141809523Y-93206866D01*
X141904761Y-93159247D01*
X142047619Y-93159247D01*
X142142857Y-93111628D01*
X142190476Y-93016390D01*
X142190476Y-92968771D01*
X142142857Y-92873533D01*
X142047619Y-92825914D01*
X141904761Y-92825914D01*
X141809523Y-92873533D01*
X140571428Y-93111628D02*
X139809523Y-93111628D01*
X138000000Y-93492580D02*
X138333333Y-93016390D01*
X138571428Y-93492580D02*
X138571428Y-92492580D01*
X138190476Y-92492580D01*
X138095238Y-92540200D01*
X138047619Y-92587819D01*
X138000000Y-92683057D01*
X138000000Y-92825914D01*
X138047619Y-92921152D01*
X138095238Y-92968771D01*
X138190476Y-93016390D01*
X138571428Y-93016390D01*
X137190476Y-93444961D02*
X137285714Y-93492580D01*
X137476190Y-93492580D01*
X137571428Y-93444961D01*
X137619047Y-93349723D01*
X137619047Y-92968771D01*
X137571428Y-92873533D01*
X137476190Y-92825914D01*
X137285714Y-92825914D01*
X137190476Y-92873533D01*
X137142857Y-92968771D01*
X137142857Y-93064009D01*
X137619047Y-93159247D01*
X136809523Y-92825914D02*
X136571428Y-93492580D01*
X136333333Y-92825914D01*
X134666666Y-93492580D02*
X135238095Y-93492580D01*
X134952380Y-93492580D02*
X134952380Y-92492580D01*
X135047619Y-92635438D01*
X135142857Y-92730676D01*
X135238095Y-92778295D01*
X134238095Y-93397342D02*
X134190476Y-93444961D01*
X134238095Y-93492580D01*
X134285714Y-93444961D01*
X134238095Y-93397342D01*
X134238095Y-93492580D01*
X133571428Y-92492580D02*
X133476190Y-92492580D01*
X133380952Y-92540200D01*
X133333333Y-92587819D01*
X133285714Y-92683057D01*
X133238095Y-92873533D01*
X133238095Y-93111628D01*
X133285714Y-93302104D01*
X133333333Y-93397342D01*
X133380952Y-93444961D01*
X133476190Y-93492580D01*
X133571428Y-93492580D01*
X133666666Y-93444961D01*
X133714285Y-93397342D01*
X133761904Y-93302104D01*
X133809523Y-93111628D01*
X133809523Y-92873533D01*
X133761904Y-92683057D01*
X133714285Y-92587819D01*
X133666666Y-92540200D01*
X133571428Y-92492580D01*
X132904761Y-93873533D02*
X132857142Y-93825914D01*
X132761904Y-93683057D01*
X132714285Y-93587819D01*
X132666666Y-93444961D01*
X132619047Y-93206866D01*
X132619047Y-93016390D01*
X132666666Y-92778295D01*
X132714285Y-92635438D01*
X132761904Y-92540200D01*
X132857142Y-92397342D01*
X132904761Y-92349723D01*
D11*
G36*
X156442677Y-71780903D02*
G01*
X156260364Y-71781316D01*
X156102035Y-71781965D01*
X155965804Y-71782871D01*
X155849784Y-71784054D01*
X155752088Y-71785533D01*
X155670830Y-71787330D01*
X155604122Y-71789463D01*
X155550080Y-71791952D01*
X155506815Y-71794819D01*
X155472442Y-71798082D01*
X155445073Y-71801762D01*
X155422823Y-71805879D01*
X155403804Y-71810452D01*
X155386130Y-71815501D01*
X155382853Y-71816490D01*
X155207041Y-71889379D01*
X155053464Y-71993725D01*
X154924285Y-72127459D01*
X154821666Y-72288511D01*
X154772495Y-72400727D01*
X154762412Y-72429532D01*
X154754064Y-72459412D01*
X154747244Y-72494329D01*
X154741748Y-72538245D01*
X154737370Y-72595122D01*
X154733902Y-72668922D01*
X154731141Y-72763609D01*
X154728879Y-72883143D01*
X154726911Y-73031488D01*
X154725032Y-73212606D01*
X154723879Y-73336639D01*
X154722219Y-73568252D01*
X154721806Y-73761205D01*
X154722646Y-73915894D01*
X154724743Y-74032716D01*
X154728105Y-74112069D01*
X154732738Y-74154349D01*
X154736454Y-74162139D01*
X154765062Y-74157501D01*
X154818444Y-74145495D01*
X154869046Y-74132831D01*
X154966363Y-74115772D01*
X155088039Y-74106534D01*
X155220141Y-74105125D01*
X155348742Y-74111554D01*
X155459910Y-74125830D01*
X155491125Y-74132440D01*
X155554928Y-74147456D01*
X155602732Y-74157984D01*
X155621939Y-74161443D01*
X155625547Y-74142884D01*
X155629191Y-74090036D01*
X155632711Y-74007689D01*
X155635944Y-73900629D01*
X155638730Y-73773646D01*
X155640907Y-73631526D01*
X155641478Y-73580870D01*
X155643314Y-73414090D01*
X155645249Y-73281662D01*
X155647629Y-73178862D01*
X155650799Y-73100965D01*
X155655103Y-73043248D01*
X155660886Y-73000986D01*
X155668492Y-72969455D01*
X155678267Y-72943931D01*
X155689605Y-72921446D01*
X155767550Y-72812293D01*
X155865900Y-72732516D01*
X155915459Y-72707560D01*
X155929320Y-72703109D01*
X155949809Y-72699109D01*
X155978925Y-72695536D01*
X156018669Y-72692367D01*
X156071040Y-72689578D01*
X156138037Y-72687146D01*
X156221659Y-72685046D01*
X156323905Y-72683257D01*
X156446776Y-72681754D01*
X156592270Y-72680513D01*
X156762387Y-72679512D01*
X156959126Y-72678727D01*
X157184486Y-72678134D01*
X157440467Y-72677710D01*
X157729069Y-72677432D01*
X158052289Y-72677276D01*
X158412129Y-72677218D01*
X158500049Y-72677216D01*
X158868570Y-72677254D01*
X159200015Y-72677386D01*
X159496381Y-72677635D01*
X159759668Y-72678023D01*
X159991876Y-72678575D01*
X160195004Y-72679314D01*
X160371051Y-72680263D01*
X160522017Y-72681447D01*
X160649901Y-72682888D01*
X160756702Y-72684609D01*
X160844420Y-72686635D01*
X160915053Y-72688989D01*
X160970602Y-72691694D01*
X161013066Y-72694774D01*
X161044444Y-72698253D01*
X161066735Y-72702153D01*
X161081940Y-72706498D01*
X161084638Y-72707560D01*
X161190352Y-72772334D01*
X161278202Y-72868891D01*
X161310492Y-72921446D01*
X161352664Y-72999600D01*
X161362433Y-75638159D01*
X161363838Y-76012882D01*
X161365159Y-76350506D01*
X161366429Y-76653008D01*
X161367681Y-76922366D01*
X161368950Y-77160556D01*
X161370267Y-77369557D01*
X161371668Y-77551345D01*
X161373186Y-77707898D01*
X161374853Y-77841194D01*
X161376705Y-77953210D01*
X161378773Y-78045923D01*
X161381091Y-78121310D01*
X161383694Y-78181350D01*
X161386614Y-78228019D01*
X161389885Y-78263294D01*
X161393540Y-78289155D01*
X161397613Y-78307576D01*
X161402138Y-78320537D01*
X161407148Y-78330014D01*
X161408050Y-78331420D01*
X161466217Y-78388925D01*
X161553090Y-78435833D01*
X161659189Y-78469857D01*
X161775038Y-78488710D01*
X161891157Y-78490103D01*
X161994161Y-78472872D01*
X162108291Y-78426555D01*
X162196958Y-78356619D01*
X162230687Y-78316311D01*
X162236271Y-78308467D01*
X162241317Y-78299351D01*
X162245857Y-78287028D01*
X162249924Y-78269568D01*
X162253548Y-78245037D01*
X162256760Y-78211503D01*
X162259594Y-78167033D01*
X162262078Y-78109695D01*
X162264247Y-78037557D01*
X162266130Y-77948685D01*
X162267759Y-77841147D01*
X162269165Y-77713012D01*
X162270381Y-77562346D01*
X162271438Y-77387216D01*
X162272367Y-77185691D01*
X162273199Y-76955838D01*
X162273967Y-76695724D01*
X162274700Y-76403417D01*
X162275432Y-76076984D01*
X162276194Y-75714493D01*
X162276646Y-75494210D01*
X162277411Y-75047025D01*
X162277800Y-74635855D01*
X162277814Y-74260987D01*
X162277455Y-73922705D01*
X162276724Y-73621293D01*
X162275623Y-73357036D01*
X162274153Y-73130218D01*
X162272315Y-72941125D01*
X162270110Y-72790040D01*
X162267541Y-72677249D01*
X162264609Y-72603036D01*
X162262183Y-72572946D01*
X162219157Y-72388112D01*
X162142120Y-72221241D01*
X162033010Y-72074972D01*
X161893764Y-71951942D01*
X161739691Y-71861064D01*
X161587125Y-71788216D01*
X158548895Y-71782973D01*
X158145869Y-71782286D01*
X157780033Y-71781697D01*
X157449501Y-71781224D01*
X157152386Y-71780888D01*
X156886801Y-71780710D01*
X156650860Y-71780708D01*
X156442677Y-71780903D01*
G37*
X156442677Y-71780903D02*
X156260364Y-71781316D01*
X156102035Y-71781965D01*
X155965804Y-71782871D01*
X155849784Y-71784054D01*
X155752088Y-71785533D01*
X155670830Y-71787330D01*
X155604122Y-71789463D01*
X155550080Y-71791952D01*
X155506815Y-71794819D01*
X155472442Y-71798082D01*
X155445073Y-71801762D01*
X155422823Y-71805879D01*
X155403804Y-71810452D01*
X155386130Y-71815501D01*
X155382853Y-71816490D01*
X155207041Y-71889379D01*
X155053464Y-71993725D01*
X154924285Y-72127459D01*
X154821666Y-72288511D01*
X154772495Y-72400727D01*
X154762412Y-72429532D01*
X154754064Y-72459412D01*
X154747244Y-72494329D01*
X154741748Y-72538245D01*
X154737370Y-72595122D01*
X154733902Y-72668922D01*
X154731141Y-72763609D01*
X154728879Y-72883143D01*
X154726911Y-73031488D01*
X154725032Y-73212606D01*
X154723879Y-73336639D01*
X154722219Y-73568252D01*
X154721806Y-73761205D01*
X154722646Y-73915894D01*
X154724743Y-74032716D01*
X154728105Y-74112069D01*
X154732738Y-74154349D01*
X154736454Y-74162139D01*
X154765062Y-74157501D01*
X154818444Y-74145495D01*
X154869046Y-74132831D01*
X154966363Y-74115772D01*
X155088039Y-74106534D01*
X155220141Y-74105125D01*
X155348742Y-74111554D01*
X155459910Y-74125830D01*
X155491125Y-74132440D01*
X155554928Y-74147456D01*
X155602732Y-74157984D01*
X155621939Y-74161443D01*
X155625547Y-74142884D01*
X155629191Y-74090036D01*
X155632711Y-74007689D01*
X155635944Y-73900629D01*
X155638730Y-73773646D01*
X155640907Y-73631526D01*
X155641478Y-73580870D01*
X155643314Y-73414090D01*
X155645249Y-73281662D01*
X155647629Y-73178862D01*
X155650799Y-73100965D01*
X155655103Y-73043248D01*
X155660886Y-73000986D01*
X155668492Y-72969455D01*
X155678267Y-72943931D01*
X155689605Y-72921446D01*
X155767550Y-72812293D01*
X155865900Y-72732516D01*
X155915459Y-72707560D01*
X155929320Y-72703109D01*
X155949809Y-72699109D01*
X155978925Y-72695536D01*
X156018669Y-72692367D01*
X156071040Y-72689578D01*
X156138037Y-72687146D01*
X156221659Y-72685046D01*
X156323905Y-72683257D01*
X156446776Y-72681754D01*
X156592270Y-72680513D01*
X156762387Y-72679512D01*
X156959126Y-72678727D01*
X157184486Y-72678134D01*
X157440467Y-72677710D01*
X157729069Y-72677432D01*
X158052289Y-72677276D01*
X158412129Y-72677218D01*
X158500049Y-72677216D01*
X158868570Y-72677254D01*
X159200015Y-72677386D01*
X159496381Y-72677635D01*
X159759668Y-72678023D01*
X159991876Y-72678575D01*
X160195004Y-72679314D01*
X160371051Y-72680263D01*
X160522017Y-72681447D01*
X160649901Y-72682888D01*
X160756702Y-72684609D01*
X160844420Y-72686635D01*
X160915053Y-72688989D01*
X160970602Y-72691694D01*
X161013066Y-72694774D01*
X161044444Y-72698253D01*
X161066735Y-72702153D01*
X161081940Y-72706498D01*
X161084638Y-72707560D01*
X161190352Y-72772334D01*
X161278202Y-72868891D01*
X161310492Y-72921446D01*
X161352664Y-72999600D01*
X161362433Y-75638159D01*
X161363838Y-76012882D01*
X161365159Y-76350506D01*
X161366429Y-76653008D01*
X161367681Y-76922366D01*
X161368950Y-77160556D01*
X161370267Y-77369557D01*
X161371668Y-77551345D01*
X161373186Y-77707898D01*
X161374853Y-77841194D01*
X161376705Y-77953210D01*
X161378773Y-78045923D01*
X161381091Y-78121310D01*
X161383694Y-78181350D01*
X161386614Y-78228019D01*
X161389885Y-78263294D01*
X161393540Y-78289155D01*
X161397613Y-78307576D01*
X161402138Y-78320537D01*
X161407148Y-78330014D01*
X161408050Y-78331420D01*
X161466217Y-78388925D01*
X161553090Y-78435833D01*
X161659189Y-78469857D01*
X161775038Y-78488710D01*
X161891157Y-78490103D01*
X161994161Y-78472872D01*
X162108291Y-78426555D01*
X162196958Y-78356619D01*
X162230687Y-78316311D01*
X162236271Y-78308467D01*
X162241317Y-78299351D01*
X162245857Y-78287028D01*
X162249924Y-78269568D01*
X162253548Y-78245037D01*
X162256760Y-78211503D01*
X162259594Y-78167033D01*
X162262078Y-78109695D01*
X162264247Y-78037557D01*
X162266130Y-77948685D01*
X162267759Y-77841147D01*
X162269165Y-77713012D01*
X162270381Y-77562346D01*
X162271438Y-77387216D01*
X162272367Y-77185691D01*
X162273199Y-76955838D01*
X162273967Y-76695724D01*
X162274700Y-76403417D01*
X162275432Y-76076984D01*
X162276194Y-75714493D01*
X162276646Y-75494210D01*
X162277411Y-75047025D01*
X162277800Y-74635855D01*
X162277814Y-74260987D01*
X162277455Y-73922705D01*
X162276724Y-73621293D01*
X162275623Y-73357036D01*
X162274153Y-73130218D01*
X162272315Y-72941125D01*
X162270110Y-72790040D01*
X162267541Y-72677249D01*
X162264609Y-72603036D01*
X162262183Y-72572946D01*
X162219157Y-72388112D01*
X162142120Y-72221241D01*
X162033010Y-72074972D01*
X161893764Y-71951942D01*
X161739691Y-71861064D01*
X161587125Y-71788216D01*
X158548895Y-71782973D01*
X158145869Y-71782286D01*
X157780033Y-71781697D01*
X157449501Y-71781224D01*
X157152386Y-71780888D01*
X156886801Y-71780710D01*
X156650860Y-71780708D01*
X156442677Y-71780903D01*
G36*
X154890253Y-75069760D02*
G01*
X154697282Y-75090490D01*
X154526602Y-75123862D01*
X154518228Y-75126031D01*
X154238802Y-75219271D01*
X153965805Y-75349777D01*
X153701640Y-75515944D01*
X153448705Y-75716170D01*
X153209403Y-75948851D01*
X153096888Y-76075358D01*
X153061233Y-76120538D01*
X153006946Y-76193518D01*
X152936618Y-76290543D01*
X152852842Y-76407857D01*
X152758212Y-76541706D01*
X152655319Y-76688333D01*
X152546758Y-76843984D01*
X152435120Y-77004903D01*
X152322998Y-77167336D01*
X152212985Y-77327527D01*
X152107674Y-77481721D01*
X152009658Y-77626162D01*
X151921529Y-77757096D01*
X151845881Y-77870767D01*
X151785305Y-77963419D01*
X151742395Y-78031299D01*
X151721083Y-78067990D01*
X151696390Y-78145608D01*
X151686961Y-78242130D01*
X151693115Y-78340353D01*
X151714505Y-78421523D01*
X151780257Y-78531268D01*
X151869062Y-78614968D01*
X151974311Y-78671282D01*
X152089395Y-78698868D01*
X152207706Y-78696385D01*
X152322633Y-78662493D01*
X152427568Y-78595849D01*
X152453844Y-78571553D01*
X152474330Y-78546003D01*
X152514410Y-78491391D01*
X152571779Y-78411018D01*
X152644127Y-78308181D01*
X152729147Y-78186183D01*
X152824533Y-78048322D01*
X152927976Y-77897898D01*
X153037168Y-77738211D01*
X153059280Y-77705766D01*
X153172154Y-77540506D01*
X153282034Y-77380483D01*
X153386254Y-77229526D01*
X153482144Y-77091461D01*
X153567037Y-76970118D01*
X153638263Y-76869323D01*
X153693155Y-76792904D01*
X153729044Y-76744688D01*
X153731167Y-76741970D01*
X153919942Y-76525698D01*
X154120034Y-76342166D01*
X154329245Y-76192950D01*
X154545374Y-76079626D01*
X154758433Y-76005777D01*
X154901509Y-75980875D01*
X155065372Y-75972680D01*
X155235587Y-75980978D01*
X155397718Y-76005552D01*
X155442279Y-76015977D01*
X155568443Y-76056295D01*
X155713587Y-76115680D01*
X155866337Y-76188593D01*
X156015317Y-76269494D01*
X156149153Y-76352842D01*
X156184741Y-76377561D01*
X156217926Y-76403461D01*
X156278719Y-76453249D01*
X156365164Y-76525262D01*
X156475304Y-76617834D01*
X156607184Y-76729302D01*
X156758848Y-76858001D01*
X156928340Y-77002265D01*
X157113703Y-77160431D01*
X157312983Y-77330834D01*
X157524222Y-77511808D01*
X157745465Y-77701690D01*
X157974757Y-77898815D01*
X158188657Y-78083003D01*
X158422973Y-78284840D01*
X158650578Y-78480731D01*
X158869556Y-78669033D01*
X159077989Y-78848105D01*
X159273960Y-79016306D01*
X159455552Y-79171993D01*
X159620847Y-79313525D01*
X159767927Y-79439260D01*
X159894877Y-79547556D01*
X159999777Y-79636772D01*
X160080712Y-79705265D01*
X160135763Y-79751394D01*
X160162042Y-79772777D01*
X160452134Y-79975206D01*
X160751305Y-80144161D01*
X161056136Y-80278013D01*
X161363207Y-80375128D01*
X161481572Y-80402433D01*
X161606086Y-80422073D01*
X161753690Y-80435931D01*
X161909379Y-80443322D01*
X162058148Y-80443560D01*
X162184990Y-80435958D01*
X162193681Y-80434998D01*
X162472283Y-80383419D01*
X162746888Y-80293934D01*
X163015681Y-80167650D01*
X163276846Y-80005677D01*
X163528570Y-79809124D01*
X163769036Y-79579100D01*
X163970113Y-79349600D01*
X164005469Y-79303383D01*
X164059168Y-79229855D01*
X164128589Y-79132820D01*
X164211115Y-79016085D01*
X164304125Y-78883454D01*
X164405001Y-78738735D01*
X164511123Y-78585731D01*
X164619872Y-78428250D01*
X164728629Y-78270095D01*
X164834774Y-78115073D01*
X164935689Y-77966990D01*
X165028754Y-77829650D01*
X165111350Y-77706860D01*
X165180857Y-77602424D01*
X165234656Y-77520149D01*
X165270129Y-77463841D01*
X165281262Y-77444600D01*
X165308973Y-77360664D01*
X165318313Y-77247683D01*
X165315683Y-77168489D01*
X165303611Y-77109679D01*
X165277293Y-77052838D01*
X165259840Y-77023508D01*
X165176099Y-76921218D01*
X165074631Y-76850048D01*
X164961609Y-76810203D01*
X164843208Y-76801890D01*
X164725602Y-76825313D01*
X164614965Y-76880678D01*
X164517471Y-76968191D01*
X164493722Y-76998005D01*
X164466709Y-77035839D01*
X164420410Y-77102201D01*
X164357454Y-77193265D01*
X164280467Y-77305207D01*
X164192078Y-77434198D01*
X164094914Y-77576414D01*
X163991602Y-77728028D01*
X163911980Y-77845139D01*
X163770319Y-78053317D01*
X163647988Y-78232046D01*
X163542671Y-78384411D01*
X163452053Y-78513496D01*
X163373817Y-78622387D01*
X163305648Y-78714167D01*
X163245231Y-78791922D01*
X163190249Y-78858737D01*
X163138386Y-78917696D01*
X163087327Y-78971884D01*
X163034757Y-79024386D01*
X163005649Y-79052430D01*
X162800686Y-79225859D01*
X162589932Y-79360678D01*
X162373632Y-79456883D01*
X162152030Y-79514473D01*
X161925371Y-79533444D01*
X161693902Y-79513794D01*
X161457866Y-79455521D01*
X161217509Y-79358621D01*
X160973075Y-79223093D01*
X160760842Y-79076435D01*
X160729435Y-79051203D01*
X160670398Y-79002129D01*
X160585694Y-78930887D01*
X160477287Y-78839154D01*
X160347141Y-78728605D01*
X160197219Y-78600916D01*
X160029486Y-78457761D01*
X159845904Y-78300818D01*
X159648438Y-78131761D01*
X159439051Y-77952266D01*
X159219708Y-77764009D01*
X158992371Y-77568665D01*
X158812664Y-77414091D01*
X158580563Y-77214444D01*
X158355001Y-77020579D01*
X158137937Y-76834173D01*
X157931330Y-76656900D01*
X157737139Y-76490437D01*
X157557322Y-76336458D01*
X157393839Y-76196641D01*
X157248648Y-76072659D01*
X157123708Y-75966188D01*
X157020978Y-75878905D01*
X156942416Y-75812484D01*
X156889982Y-75768602D01*
X156868587Y-75751179D01*
X156601128Y-75560344D01*
X156322911Y-75396425D01*
X156039402Y-75261998D01*
X155756065Y-75159633D01*
X155478369Y-75091905D01*
X155461818Y-75088967D01*
X155286631Y-75068444D01*
X155091406Y-75062227D01*
X154890253Y-75069760D01*
G37*
X154890253Y-75069760D02*
X154697282Y-75090490D01*
X154526602Y-75123862D01*
X154518228Y-75126031D01*
X154238802Y-75219271D01*
X153965805Y-75349777D01*
X153701640Y-75515944D01*
X153448705Y-75716170D01*
X153209403Y-75948851D01*
X153096888Y-76075358D01*
X153061233Y-76120538D01*
X153006946Y-76193518D01*
X152936618Y-76290543D01*
X152852842Y-76407857D01*
X152758212Y-76541706D01*
X152655319Y-76688333D01*
X152546758Y-76843984D01*
X152435120Y-77004903D01*
X152322998Y-77167336D01*
X152212985Y-77327527D01*
X152107674Y-77481721D01*
X152009658Y-77626162D01*
X151921529Y-77757096D01*
X151845881Y-77870767D01*
X151785305Y-77963419D01*
X151742395Y-78031299D01*
X151721083Y-78067990D01*
X151696390Y-78145608D01*
X151686961Y-78242130D01*
X151693115Y-78340353D01*
X151714505Y-78421523D01*
X151780257Y-78531268D01*
X151869062Y-78614968D01*
X151974311Y-78671282D01*
X152089395Y-78698868D01*
X152207706Y-78696385D01*
X152322633Y-78662493D01*
X152427568Y-78595849D01*
X152453844Y-78571553D01*
X152474330Y-78546003D01*
X152514410Y-78491391D01*
X152571779Y-78411018D01*
X152644127Y-78308181D01*
X152729147Y-78186183D01*
X152824533Y-78048322D01*
X152927976Y-77897898D01*
X153037168Y-77738211D01*
X153059280Y-77705766D01*
X153172154Y-77540506D01*
X153282034Y-77380483D01*
X153386254Y-77229526D01*
X153482144Y-77091461D01*
X153567037Y-76970118D01*
X153638263Y-76869323D01*
X153693155Y-76792904D01*
X153729044Y-76744688D01*
X153731167Y-76741970D01*
X153919942Y-76525698D01*
X154120034Y-76342166D01*
X154329245Y-76192950D01*
X154545374Y-76079626D01*
X154758433Y-76005777D01*
X154901509Y-75980875D01*
X155065372Y-75972680D01*
X155235587Y-75980978D01*
X155397718Y-76005552D01*
X155442279Y-76015977D01*
X155568443Y-76056295D01*
X155713587Y-76115680D01*
X155866337Y-76188593D01*
X156015317Y-76269494D01*
X156149153Y-76352842D01*
X156184741Y-76377561D01*
X156217926Y-76403461D01*
X156278719Y-76453249D01*
X156365164Y-76525262D01*
X156475304Y-76617834D01*
X156607184Y-76729302D01*
X156758848Y-76858001D01*
X156928340Y-77002265D01*
X157113703Y-77160431D01*
X157312983Y-77330834D01*
X157524222Y-77511808D01*
X157745465Y-77701690D01*
X157974757Y-77898815D01*
X158188657Y-78083003D01*
X158422973Y-78284840D01*
X158650578Y-78480731D01*
X158869556Y-78669033D01*
X159077989Y-78848105D01*
X159273960Y-79016306D01*
X159455552Y-79171993D01*
X159620847Y-79313525D01*
X159767927Y-79439260D01*
X159894877Y-79547556D01*
X159999777Y-79636772D01*
X160080712Y-79705265D01*
X160135763Y-79751394D01*
X160162042Y-79772777D01*
X160452134Y-79975206D01*
X160751305Y-80144161D01*
X161056136Y-80278013D01*
X161363207Y-80375128D01*
X161481572Y-80402433D01*
X161606086Y-80422073D01*
X161753690Y-80435931D01*
X161909379Y-80443322D01*
X162058148Y-80443560D01*
X162184990Y-80435958D01*
X162193681Y-80434998D01*
X162472283Y-80383419D01*
X162746888Y-80293934D01*
X163015681Y-80167650D01*
X163276846Y-80005677D01*
X163528570Y-79809124D01*
X163769036Y-79579100D01*
X163970113Y-79349600D01*
X164005469Y-79303383D01*
X164059168Y-79229855D01*
X164128589Y-79132820D01*
X164211115Y-79016085D01*
X164304125Y-78883454D01*
X164405001Y-78738735D01*
X164511123Y-78585731D01*
X164619872Y-78428250D01*
X164728629Y-78270095D01*
X164834774Y-78115073D01*
X164935689Y-77966990D01*
X165028754Y-77829650D01*
X165111350Y-77706860D01*
X165180857Y-77602424D01*
X165234656Y-77520149D01*
X165270129Y-77463841D01*
X165281262Y-77444600D01*
X165308973Y-77360664D01*
X165318313Y-77247683D01*
X165315683Y-77168489D01*
X165303611Y-77109679D01*
X165277293Y-77052838D01*
X165259840Y-77023508D01*
X165176099Y-76921218D01*
X165074631Y-76850048D01*
X164961609Y-76810203D01*
X164843208Y-76801890D01*
X164725602Y-76825313D01*
X164614965Y-76880678D01*
X164517471Y-76968191D01*
X164493722Y-76998005D01*
X164466709Y-77035839D01*
X164420410Y-77102201D01*
X164357454Y-77193265D01*
X164280467Y-77305207D01*
X164192078Y-77434198D01*
X164094914Y-77576414D01*
X163991602Y-77728028D01*
X163911980Y-77845139D01*
X163770319Y-78053317D01*
X163647988Y-78232046D01*
X163542671Y-78384411D01*
X163452053Y-78513496D01*
X163373817Y-78622387D01*
X163305648Y-78714167D01*
X163245231Y-78791922D01*
X163190249Y-78858737D01*
X163138386Y-78917696D01*
X163087327Y-78971884D01*
X163034757Y-79024386D01*
X163005649Y-79052430D01*
X162800686Y-79225859D01*
X162589932Y-79360678D01*
X162373632Y-79456883D01*
X162152030Y-79514473D01*
X161925371Y-79533444D01*
X161693902Y-79513794D01*
X161457866Y-79455521D01*
X161217509Y-79358621D01*
X160973075Y-79223093D01*
X160760842Y-79076435D01*
X160729435Y-79051203D01*
X160670398Y-79002129D01*
X160585694Y-78930887D01*
X160477287Y-78839154D01*
X160347141Y-78728605D01*
X160197219Y-78600916D01*
X160029486Y-78457761D01*
X159845904Y-78300818D01*
X159648438Y-78131761D01*
X159439051Y-77952266D01*
X159219708Y-77764009D01*
X158992371Y-77568665D01*
X158812664Y-77414091D01*
X158580563Y-77214444D01*
X158355001Y-77020579D01*
X158137937Y-76834173D01*
X157931330Y-76656900D01*
X157737139Y-76490437D01*
X157557322Y-76336458D01*
X157393839Y-76196641D01*
X157248648Y-76072659D01*
X157123708Y-75966188D01*
X157020978Y-75878905D01*
X156942416Y-75812484D01*
X156889982Y-75768602D01*
X156868587Y-75751179D01*
X156601128Y-75560344D01*
X156322911Y-75396425D01*
X156039402Y-75261998D01*
X155756065Y-75159633D01*
X155478369Y-75091905D01*
X155461818Y-75088967D01*
X155286631Y-75068444D01*
X155091406Y-75062227D01*
X154890253Y-75069760D01*
G36*
X155157312Y-76851762D02*
G01*
X155026800Y-76866247D01*
X154908654Y-76901915D01*
X154812693Y-76955252D01*
X154775009Y-76988601D01*
X154729125Y-77037444D01*
X154729125Y-83276831D01*
X154771123Y-83355241D01*
X154851499Y-83469829D01*
X154950504Y-83552940D01*
X155063471Y-83602897D01*
X155185732Y-83618024D01*
X155312621Y-83596645D01*
X155375279Y-83572238D01*
X155479403Y-83505378D01*
X155561296Y-83415604D01*
X155613101Y-83311796D01*
X155616825Y-83299178D01*
X155619968Y-83275851D01*
X155622792Y-83229259D01*
X155625302Y-83158248D01*
X155627505Y-83061662D01*
X155629407Y-82938347D01*
X155631013Y-82787149D01*
X155632329Y-82606913D01*
X155633363Y-82396484D01*
X155634119Y-82154708D01*
X155634604Y-81880431D01*
X155634824Y-81572497D01*
X155634785Y-81229753D01*
X155634492Y-80851043D01*
X155633953Y-80435213D01*
X155633436Y-80124018D01*
X155627895Y-77029821D01*
X155554155Y-76966080D01*
X155452185Y-76901229D01*
X155326246Y-76863319D01*
X155173547Y-76851546D01*
X155157312Y-76851762D01*
G37*
X155157312Y-76851762D02*
X155026800Y-76866247D01*
X154908654Y-76901915D01*
X154812693Y-76955252D01*
X154775009Y-76988601D01*
X154729125Y-77037444D01*
X154729125Y-83276831D01*
X154771123Y-83355241D01*
X154851499Y-83469829D01*
X154950504Y-83552940D01*
X155063471Y-83602897D01*
X155185732Y-83618024D01*
X155312621Y-83596645D01*
X155375279Y-83572238D01*
X155479403Y-83505378D01*
X155561296Y-83415604D01*
X155613101Y-83311796D01*
X155616825Y-83299178D01*
X155619968Y-83275851D01*
X155622792Y-83229259D01*
X155625302Y-83158248D01*
X155627505Y-83061662D01*
X155629407Y-82938347D01*
X155631013Y-82787149D01*
X155632329Y-82606913D01*
X155633363Y-82396484D01*
X155634119Y-82154708D01*
X155634604Y-81880431D01*
X155634824Y-81572497D01*
X155634785Y-81229753D01*
X155634492Y-80851043D01*
X155633953Y-80435213D01*
X155633436Y-80124018D01*
X155627895Y-77029821D01*
X155554155Y-76966080D01*
X155452185Y-76901229D01*
X155326246Y-76863319D01*
X155173547Y-76851546D01*
X155157312Y-76851762D01*
G36*
X161362542Y-82229262D02*
G01*
X161362936Y-82448166D01*
X161364033Y-82649246D01*
X161365778Y-82829404D01*
X161368114Y-82985542D01*
X161370989Y-83114561D01*
X161374346Y-83213362D01*
X161378130Y-83278848D01*
X161381679Y-83306139D01*
X161429655Y-83409831D01*
X161506747Y-83496074D01*
X161605550Y-83561330D01*
X161718662Y-83602059D01*
X161838680Y-83614721D01*
X161958201Y-83595776D01*
X161975457Y-83590050D01*
X162064368Y-83541584D01*
X162149432Y-83465251D01*
X162219344Y-83371543D01*
X162228722Y-83354985D01*
X162238071Y-83336839D01*
X162245951Y-83317643D01*
X162252511Y-83294031D01*
X162257897Y-83262639D01*
X162262257Y-83220100D01*
X162265738Y-83163049D01*
X162268487Y-83088122D01*
X162270651Y-82991952D01*
X162272379Y-82871176D01*
X162273817Y-82722427D01*
X162275112Y-82542340D01*
X162276412Y-82327550D01*
X162276824Y-82255946D01*
X162277708Y-82060332D01*
X162278077Y-81877020D01*
X162277955Y-81709628D01*
X162277368Y-81561776D01*
X162276339Y-81437081D01*
X162274893Y-81339163D01*
X162273056Y-81271640D01*
X162270851Y-81238131D01*
X162269875Y-81235062D01*
X162245660Y-81239786D01*
X162195231Y-81252101D01*
X162137023Y-81267342D01*
X162012642Y-81289832D01*
X161867239Y-81299001D01*
X161716457Y-81295041D01*
X161575941Y-81278145D01*
X161494318Y-81259391D01*
X161362433Y-81220771D01*
X161362542Y-82229262D01*
G37*
X161362542Y-82229262D02*
X161362936Y-82448166D01*
X161364033Y-82649246D01*
X161365778Y-82829404D01*
X161368114Y-82985542D01*
X161370989Y-83114561D01*
X161374346Y-83213362D01*
X161378130Y-83278848D01*
X161381679Y-83306139D01*
X161429655Y-83409831D01*
X161506747Y-83496074D01*
X161605550Y-83561330D01*
X161718662Y-83602059D01*
X161838680Y-83614721D01*
X161958201Y-83595776D01*
X161975457Y-83590050D01*
X162064368Y-83541584D01*
X162149432Y-83465251D01*
X162219344Y-83371543D01*
X162228722Y-83354985D01*
X162238071Y-83336839D01*
X162245951Y-83317643D01*
X162252511Y-83294031D01*
X162257897Y-83262639D01*
X162262257Y-83220100D01*
X162265738Y-83163049D01*
X162268487Y-83088122D01*
X162270651Y-82991952D01*
X162272379Y-82871176D01*
X162273817Y-82722427D01*
X162275112Y-82542340D01*
X162276412Y-82327550D01*
X162276824Y-82255946D01*
X162277708Y-82060332D01*
X162278077Y-81877020D01*
X162277955Y-81709628D01*
X162277368Y-81561776D01*
X162276339Y-81437081D01*
X162274893Y-81339163D01*
X162273056Y-81271640D01*
X162270851Y-81238131D01*
X162269875Y-81235062D01*
X162245660Y-81239786D01*
X162195231Y-81252101D01*
X162137023Y-81267342D01*
X162012642Y-81289832D01*
X161867239Y-81299001D01*
X161716457Y-81295041D01*
X161575941Y-81278145D01*
X161494318Y-81259391D01*
X161362433Y-81220771D01*
X161362542Y-82229262D01*
G36*
X158099446Y-68154987D02*
G01*
X157495505Y-68196835D01*
X156902236Y-68276109D01*
X156318725Y-68393010D01*
X155744058Y-68547739D01*
X155177322Y-68740496D01*
X154617605Y-68971483D01*
X154299279Y-69121349D01*
X153816585Y-69374541D01*
X153362022Y-69646033D01*
X152929617Y-69940110D01*
X152513395Y-70261061D01*
X152107385Y-70613173D01*
X151767959Y-70938057D01*
X151571806Y-71136922D01*
X151399318Y-71319084D01*
X151243696Y-71492316D01*
X151098137Y-71664385D01*
X150955843Y-71843063D01*
X150827201Y-72012908D01*
X150485359Y-72505355D01*
X150174941Y-73018646D01*
X149897106Y-73550077D01*
X149653012Y-74096942D01*
X149443819Y-74656538D01*
X149270687Y-75226159D01*
X149134774Y-75803102D01*
X149083020Y-76082289D01*
X149054179Y-76256446D01*
X149030416Y-76410209D01*
X149011249Y-76550189D01*
X148996199Y-76682994D01*
X148984784Y-76815233D01*
X148976523Y-76953515D01*
X148970935Y-77104449D01*
X148967540Y-77274642D01*
X148965857Y-77470706D01*
X148965404Y-77698600D01*
X148965735Y-77911697D01*
X148966844Y-78090896D01*
X148968903Y-78241373D01*
X148972087Y-78368301D01*
X148976568Y-78476856D01*
X148982519Y-78572212D01*
X148990114Y-78659543D01*
X148999526Y-78744026D01*
X149000718Y-78753677D01*
X149085323Y-79321744D01*
X149194879Y-79863822D01*
X149330945Y-80385224D01*
X149495081Y-80891265D01*
X149688847Y-81387258D01*
X149913803Y-81878516D01*
X149924078Y-81899370D01*
X150154127Y-82339945D01*
X150396632Y-82753598D01*
X150658247Y-83150574D01*
X150945623Y-83541117D01*
X151180167Y-83833677D01*
X151276369Y-83944902D01*
X151396227Y-84075755D01*
X151533802Y-84220348D01*
X151683154Y-84372793D01*
X151838345Y-84527200D01*
X151993435Y-84677680D01*
X152142485Y-84818346D01*
X152279557Y-84943307D01*
X152398712Y-85046675D01*
X152427725Y-85070678D01*
X152921537Y-85449330D01*
X153432368Y-85793060D01*
X153959372Y-86101530D01*
X154501703Y-86374400D01*
X155058514Y-86611331D01*
X155628957Y-86811987D01*
X156212187Y-86976028D01*
X156807356Y-87103115D01*
X157413618Y-87192910D01*
X157835741Y-87232787D01*
X157925734Y-87237797D01*
X158042632Y-87241982D01*
X158179159Y-87245298D01*
X158328037Y-87247701D01*
X158481989Y-87249148D01*
X158633738Y-87249595D01*
X158776007Y-87248999D01*
X158901518Y-87247316D01*
X159002994Y-87244502D01*
X159073159Y-87240514D01*
X159076433Y-87240216D01*
X159122490Y-87236074D01*
X159197114Y-87229575D01*
X159289931Y-87221616D01*
X159389048Y-87213221D01*
X159950838Y-87146900D01*
X160513844Y-87043029D01*
X161074514Y-86902842D01*
X161629299Y-86727575D01*
X162174649Y-86518464D01*
X162707015Y-86276742D01*
X163222845Y-86003646D01*
X163697279Y-85714350D01*
X164196077Y-85366308D01*
X164669477Y-84989845D01*
X165116439Y-84586507D01*
X165535928Y-84157843D01*
X165926906Y-83705401D01*
X166288334Y-83230728D01*
X166619176Y-82735374D01*
X166918393Y-82220885D01*
X167184949Y-81688810D01*
X167417804Y-81140696D01*
X167615923Y-80578092D01*
X167778267Y-80002546D01*
X167898027Y-79447293D01*
X167929664Y-79272542D01*
X167956038Y-79118611D01*
X167977621Y-78979444D01*
X167994888Y-78848988D01*
X168008311Y-78721189D01*
X168018362Y-78589992D01*
X168025514Y-78449344D01*
X168030241Y-78293190D01*
X168033014Y-78115475D01*
X168034307Y-77910147D01*
X168034479Y-77784129D01*
X167272595Y-77784129D01*
X167271046Y-77973356D01*
X167267856Y-78152432D01*
X167263026Y-78314328D01*
X167256556Y-78452018D01*
X167248446Y-78558473D01*
X167247445Y-78568062D01*
X167164345Y-79161009D01*
X167045092Y-79740323D01*
X166890136Y-80305051D01*
X166699929Y-80854239D01*
X166474925Y-81386933D01*
X166215574Y-81902180D01*
X165922329Y-82399027D01*
X165595643Y-82876519D01*
X165235966Y-83333703D01*
X164843752Y-83769625D01*
X164723082Y-83892838D01*
X164298508Y-84291320D01*
X163851879Y-84658912D01*
X163384971Y-84994925D01*
X162899564Y-85298671D01*
X162397436Y-85569461D01*
X161880365Y-85806609D01*
X161350130Y-86009425D01*
X160808508Y-86177222D01*
X160257278Y-86309311D01*
X159698218Y-86405004D01*
X159133108Y-86463613D01*
X158563724Y-86484450D01*
X158060433Y-86470989D01*
X157490276Y-86422476D01*
X156939514Y-86342087D01*
X156403619Y-86228845D01*
X155878060Y-86081772D01*
X155358307Y-85899888D01*
X155285972Y-85871679D01*
X154753110Y-85640763D01*
X154241232Y-85377812D01*
X153751340Y-85084299D01*
X153284438Y-84761697D01*
X152841528Y-84411477D01*
X152423613Y-84035112D01*
X152031697Y-83634074D01*
X151666783Y-83209835D01*
X151329872Y-82763868D01*
X151021970Y-82297644D01*
X150744077Y-81812636D01*
X150497199Y-81310315D01*
X150282336Y-80792155D01*
X150100493Y-80259627D01*
X149952673Y-79714204D01*
X149839878Y-79157357D01*
X149763111Y-78590559D01*
X149723376Y-78015282D01*
X149717669Y-77698600D01*
X149729028Y-77243381D01*
X149763985Y-76797129D01*
X149823858Y-76346817D01*
X149893611Y-75959677D01*
X150025726Y-75397291D01*
X150193986Y-74848041D01*
X150397237Y-74313418D01*
X150634324Y-73794913D01*
X150904091Y-73294016D01*
X151205383Y-72812219D01*
X151537045Y-72351012D01*
X151897921Y-71911886D01*
X152286856Y-71496332D01*
X152702695Y-71105840D01*
X153144283Y-70741902D01*
X153610464Y-70406007D01*
X154100083Y-70099647D01*
X154611984Y-69824313D01*
X154670510Y-69795543D01*
X155201249Y-69558620D01*
X155744312Y-69358353D01*
X156297880Y-69194971D01*
X156860135Y-69068704D01*
X157429258Y-68979780D01*
X158003430Y-68928428D01*
X158580832Y-68914877D01*
X159159646Y-68939355D01*
X159738052Y-69002092D01*
X160260500Y-69092214D01*
X160828481Y-69227478D01*
X161383008Y-69399190D01*
X161922824Y-69606670D01*
X162446667Y-69849241D01*
X162953278Y-70126224D01*
X163441398Y-70436941D01*
X163909766Y-70780712D01*
X164357123Y-71156861D01*
X164703768Y-71485361D01*
X165109162Y-71917377D01*
X165481457Y-72369975D01*
X165820295Y-72842399D01*
X166125319Y-73333897D01*
X166396168Y-73843715D01*
X166632484Y-74371098D01*
X166833909Y-74915295D01*
X167000083Y-75475550D01*
X167130649Y-76051110D01*
X167225246Y-76641222D01*
X167247445Y-76829139D01*
X167255737Y-76931692D01*
X167262389Y-77066261D01*
X167267401Y-77225817D01*
X167270772Y-77403332D01*
X167272504Y-77591778D01*
X167272595Y-77784129D01*
X168034479Y-77784129D01*
X168034597Y-77698600D01*
X168034230Y-77463849D01*
X168032814Y-77262109D01*
X168029877Y-77087318D01*
X168024945Y-76933414D01*
X168017546Y-76794335D01*
X168007206Y-76664020D01*
X167993453Y-76536407D01*
X167975815Y-76405433D01*
X167953817Y-76265037D01*
X167926988Y-76109157D01*
X167898190Y-75949908D01*
X167771528Y-75365719D01*
X167608741Y-74794349D01*
X167411060Y-74237151D01*
X167179715Y-73695478D01*
X166915939Y-73170682D01*
X166620962Y-72664117D01*
X166296016Y-72177135D01*
X165942332Y-71711089D01*
X165561142Y-71267333D01*
X165153676Y-70847218D01*
X164721166Y-70452098D01*
X164264843Y-70083327D01*
X163785938Y-69742255D01*
X163285683Y-69430238D01*
X162765309Y-69148626D01*
X162226047Y-68898774D01*
X161669129Y-68682034D01*
X161125394Y-68508197D01*
X160628266Y-68379794D01*
X160132416Y-68280822D01*
X159629405Y-68210029D01*
X159110795Y-68166162D01*
X158714972Y-68150364D01*
X158099446Y-68154987D01*
G37*
X158099446Y-68154987D02*
X157495505Y-68196835D01*
X156902236Y-68276109D01*
X156318725Y-68393010D01*
X155744058Y-68547739D01*
X155177322Y-68740496D01*
X154617605Y-68971483D01*
X154299279Y-69121349D01*
X153816585Y-69374541D01*
X153362022Y-69646033D01*
X152929617Y-69940110D01*
X152513395Y-70261061D01*
X152107385Y-70613173D01*
X151767959Y-70938057D01*
X151571806Y-71136922D01*
X151399318Y-71319084D01*
X151243696Y-71492316D01*
X151098137Y-71664385D01*
X150955843Y-71843063D01*
X150827201Y-72012908D01*
X150485359Y-72505355D01*
X150174941Y-73018646D01*
X149897106Y-73550077D01*
X149653012Y-74096942D01*
X149443819Y-74656538D01*
X149270687Y-75226159D01*
X149134774Y-75803102D01*
X149083020Y-76082289D01*
X149054179Y-76256446D01*
X149030416Y-76410209D01*
X149011249Y-76550189D01*
X148996199Y-76682994D01*
X148984784Y-76815233D01*
X148976523Y-76953515D01*
X148970935Y-77104449D01*
X148967540Y-77274642D01*
X148965857Y-77470706D01*
X148965404Y-77698600D01*
X148965735Y-77911697D01*
X148966844Y-78090896D01*
X148968903Y-78241373D01*
X148972087Y-78368301D01*
X148976568Y-78476856D01*
X148982519Y-78572212D01*
X148990114Y-78659543D01*
X148999526Y-78744026D01*
X149000718Y-78753677D01*
X149085323Y-79321744D01*
X149194879Y-79863822D01*
X149330945Y-80385224D01*
X149495081Y-80891265D01*
X149688847Y-81387258D01*
X149913803Y-81878516D01*
X149924078Y-81899370D01*
X150154127Y-82339945D01*
X150396632Y-82753598D01*
X150658247Y-83150574D01*
X150945623Y-83541117D01*
X151180167Y-83833677D01*
X151276369Y-83944902D01*
X151396227Y-84075755D01*
X151533802Y-84220348D01*
X151683154Y-84372793D01*
X151838345Y-84527200D01*
X151993435Y-84677680D01*
X152142485Y-84818346D01*
X152279557Y-84943307D01*
X152398712Y-85046675D01*
X152427725Y-85070678D01*
X152921537Y-85449330D01*
X153432368Y-85793060D01*
X153959372Y-86101530D01*
X154501703Y-86374400D01*
X155058514Y-86611331D01*
X155628957Y-86811987D01*
X156212187Y-86976028D01*
X156807356Y-87103115D01*
X157413618Y-87192910D01*
X157835741Y-87232787D01*
X157925734Y-87237797D01*
X158042632Y-87241982D01*
X158179159Y-87245298D01*
X158328037Y-87247701D01*
X158481989Y-87249148D01*
X158633738Y-87249595D01*
X158776007Y-87248999D01*
X158901518Y-87247316D01*
X159002994Y-87244502D01*
X159073159Y-87240514D01*
X159076433Y-87240216D01*
X159122490Y-87236074D01*
X159197114Y-87229575D01*
X159289931Y-87221616D01*
X159389048Y-87213221D01*
X159950838Y-87146900D01*
X160513844Y-87043029D01*
X161074514Y-86902842D01*
X161629299Y-86727575D01*
X162174649Y-86518464D01*
X162707015Y-86276742D01*
X163222845Y-86003646D01*
X163697279Y-85714350D01*
X164196077Y-85366308D01*
X164669477Y-84989845D01*
X165116439Y-84586507D01*
X165535928Y-84157843D01*
X165926906Y-83705401D01*
X166288334Y-83230728D01*
X166619176Y-82735374D01*
X166918393Y-82220885D01*
X167184949Y-81688810D01*
X167417804Y-81140696D01*
X167615923Y-80578092D01*
X167778267Y-80002546D01*
X167898027Y-79447293D01*
X167929664Y-79272542D01*
X167956038Y-79118611D01*
X167977621Y-78979444D01*
X167994888Y-78848988D01*
X168008311Y-78721189D01*
X168018362Y-78589992D01*
X168025514Y-78449344D01*
X168030241Y-78293190D01*
X168033014Y-78115475D01*
X168034307Y-77910147D01*
X168034479Y-77784129D01*
X167272595Y-77784129D01*
X167271046Y-77973356D01*
X167267856Y-78152432D01*
X167263026Y-78314328D01*
X167256556Y-78452018D01*
X167248446Y-78558473D01*
X167247445Y-78568062D01*
X167164345Y-79161009D01*
X167045092Y-79740323D01*
X166890136Y-80305051D01*
X166699929Y-80854239D01*
X166474925Y-81386933D01*
X166215574Y-81902180D01*
X165922329Y-82399027D01*
X165595643Y-82876519D01*
X165235966Y-83333703D01*
X164843752Y-83769625D01*
X164723082Y-83892838D01*
X164298508Y-84291320D01*
X163851879Y-84658912D01*
X163384971Y-84994925D01*
X162899564Y-85298671D01*
X162397436Y-85569461D01*
X161880365Y-85806609D01*
X161350130Y-86009425D01*
X160808508Y-86177222D01*
X160257278Y-86309311D01*
X159698218Y-86405004D01*
X159133108Y-86463613D01*
X158563724Y-86484450D01*
X158060433Y-86470989D01*
X157490276Y-86422476D01*
X156939514Y-86342087D01*
X156403619Y-86228845D01*
X155878060Y-86081772D01*
X155358307Y-85899888D01*
X155285972Y-85871679D01*
X154753110Y-85640763D01*
X154241232Y-85377812D01*
X153751340Y-85084299D01*
X153284438Y-84761697D01*
X152841528Y-84411477D01*
X152423613Y-84035112D01*
X152031697Y-83634074D01*
X151666783Y-83209835D01*
X151329872Y-82763868D01*
X151021970Y-82297644D01*
X150744077Y-81812636D01*
X150497199Y-81310315D01*
X150282336Y-80792155D01*
X150100493Y-80259627D01*
X149952673Y-79714204D01*
X149839878Y-79157357D01*
X149763111Y-78590559D01*
X149723376Y-78015282D01*
X149717669Y-77698600D01*
X149729028Y-77243381D01*
X149763985Y-76797129D01*
X149823858Y-76346817D01*
X149893611Y-75959677D01*
X150025726Y-75397291D01*
X150193986Y-74848041D01*
X150397237Y-74313418D01*
X150634324Y-73794913D01*
X150904091Y-73294016D01*
X151205383Y-72812219D01*
X151537045Y-72351012D01*
X151897921Y-71911886D01*
X152286856Y-71496332D01*
X152702695Y-71105840D01*
X153144283Y-70741902D01*
X153610464Y-70406007D01*
X154100083Y-70099647D01*
X154611984Y-69824313D01*
X154670510Y-69795543D01*
X155201249Y-69558620D01*
X155744312Y-69358353D01*
X156297880Y-69194971D01*
X156860135Y-69068704D01*
X157429258Y-68979780D01*
X158003430Y-68928428D01*
X158580832Y-68914877D01*
X159159646Y-68939355D01*
X159738052Y-69002092D01*
X160260500Y-69092214D01*
X160828481Y-69227478D01*
X161383008Y-69399190D01*
X161922824Y-69606670D01*
X162446667Y-69849241D01*
X162953278Y-70126224D01*
X163441398Y-70436941D01*
X163909766Y-70780712D01*
X164357123Y-71156861D01*
X164703768Y-71485361D01*
X165109162Y-71917377D01*
X165481457Y-72369975D01*
X165820295Y-72842399D01*
X166125319Y-73333897D01*
X166396168Y-73843715D01*
X166632484Y-74371098D01*
X166833909Y-74915295D01*
X167000083Y-75475550D01*
X167130649Y-76051110D01*
X167225246Y-76641222D01*
X167247445Y-76829139D01*
X167255737Y-76931692D01*
X167262389Y-77066261D01*
X167267401Y-77225817D01*
X167270772Y-77403332D01*
X167272504Y-77591778D01*
X167272595Y-77784129D01*
X168034479Y-77784129D01*
X168034597Y-77698600D01*
X168034230Y-77463849D01*
X168032814Y-77262109D01*
X168029877Y-77087318D01*
X168024945Y-76933414D01*
X168017546Y-76794335D01*
X168007206Y-76664020D01*
X167993453Y-76536407D01*
X167975815Y-76405433D01*
X167953817Y-76265037D01*
X167926988Y-76109157D01*
X167898190Y-75949908D01*
X167771528Y-75365719D01*
X167608741Y-74794349D01*
X167411060Y-74237151D01*
X167179715Y-73695478D01*
X166915939Y-73170682D01*
X166620962Y-72664117D01*
X166296016Y-72177135D01*
X165942332Y-71711089D01*
X165561142Y-71267333D01*
X165153676Y-70847218D01*
X164721166Y-70452098D01*
X164264843Y-70083327D01*
X163785938Y-69742255D01*
X163285683Y-69430238D01*
X162765309Y-69148626D01*
X162226047Y-68898774D01*
X161669129Y-68682034D01*
X161125394Y-68508197D01*
X160628266Y-68379794D01*
X160132416Y-68280822D01*
X159629405Y-68210029D01*
X159110795Y-68166162D01*
X158714972Y-68150364D01*
X158099446Y-68154987D01*
M02*
